<?xml version="1.0" encoding="UTF-8" standalone="no"?>
<!DOCTYPE svg PUBLIC "-//W3C//DTD SVG 1.1//EN"
 "http://www.w3.org/Graphics/SVG/1.1/DTD/svg11.dtd">
<!-- Generated by graphviz version 2.38.0 (20140413.2041)
 -->
<!-- Title: Corale.Colore.Core.Keypad Pages: 1 -->
<svg width="142pt" height="140pt"
 viewBox="0.00 0.00 142.00 140.00" xmlns="http://www.w3.org/2000/svg" xmlns:xlink="http://www.w3.org/1999/xlink">
<g id="graph0" class="graph" transform="scale(1 1) rotate(0) translate(4 136)">
<title>Corale.Colore.Core.Keypad</title>
<polygon fill="white" stroke="none" points="-4,4 -4,-136 138,-136 138,4 -4,4"/>
<!-- Node1 -->
<g id="node1" class="node"><title>Node1</title>
<polygon fill="#bfbfbf" stroke="black" points="0,-0.5 0,-19.5 134,-19.5 134,-0.5 0,-0.5"/>
<text text-anchor="middle" x="67" y="-7.5" font-family="Helvetica,sans-Serif" font-size="10.00">Corale.Colore.Core.Keypad</text>
</g>
<!-- Node2 -->
<g id="node2" class="node"><title>Node2</title>
<g id="a_node2"><a xlink:href="class_corale_1_1_colore_1_1_core_1_1_device.html" target="_top" xlink:title="Base class for devices, containing code common between all devices. ">
<polygon fill="white" stroke="black" points="11.5,-56.5 11.5,-75.5 56.5,-75.5 56.5,-56.5 11.5,-56.5"/>
<text text-anchor="middle" x="34" y="-63.5" font-family="Helvetica,sans-Serif" font-size="10.00">Device</text>
</a>
</g>
</g>
<!-- Node2&#45;&gt;Node1 -->
<g id="edge1" class="edge"><title>Node2&#45;&gt;Node1</title>
<path fill="none" stroke="midnightblue" d="M44.8321,-47.2747C50.4722,-38.0454 57.1181,-27.1703 61.6521,-19.7511"/>
<polygon fill="midnightblue" stroke="midnightblue" points="41.6773,-45.7251 39.4493,-56.083 47.6503,-49.3753 41.6773,-45.7251"/>
</g>
<!-- Node3 -->
<g id="node3" class="node"><title>Node3</title>
<g id="a_node3"><a xlink:href="interface_corale_1_1_colore_1_1_core_1_1_i_device.html" target="_top" xlink:title="Interface for functionality common with all devices. ">
<polygon fill="white" stroke="black" points="43.5,-112.5 43.5,-131.5 90.5,-131.5 90.5,-112.5 43.5,-112.5"/>
<text text-anchor="middle" x="67" y="-119.5" font-family="Helvetica,sans-Serif" font-size="10.00">IDevice</text>
</a>
</g>
</g>
<!-- Node3&#45;&gt;Node2 -->
<g id="edge2" class="edge"><title>Node3&#45;&gt;Node2</title>
<path fill="none" stroke="midnightblue" d="M56.1679,-103.275C50.5278,-94.0454 43.8819,-83.1703 39.3479,-75.7511"/>
<polygon fill="midnightblue" stroke="midnightblue" points="53.3497,-105.375 61.5507,-112.083 59.3227,-101.725 53.3497,-105.375"/>
</g>
<!-- Node4 -->
<g id="node4" class="node"><title>Node4</title>
<g id="a_node4"><a xlink:href="interface_corale_1_1_colore_1_1_core_1_1_i_keypad.html" target="_top" xlink:title="Interface for keypad functions. ">
<polygon fill="white" stroke="black" points="75,-56.5 75,-75.5 127,-75.5 127,-56.5 75,-56.5"/>
<text text-anchor="middle" x="101" y="-63.5" font-family="Helvetica,sans-Serif" font-size="10.00">IKeypad</text>
</a>
</g>
</g>
<!-- Node3&#45;&gt;Node4 -->
<g id="edge4" class="edge"><title>Node3&#45;&gt;Node4</title>
<path fill="none" stroke="midnightblue" d="M77.9772,-103.566C83.827,-94.2747 90.7695,-83.2484 95.4901,-75.7511"/>
<polygon fill="midnightblue" stroke="midnightblue" points="74.9808,-101.756 72.6144,-112.083 80.9044,-105.486 74.9808,-101.756"/>
</g>
<!-- Node4&#45;&gt;Node1 -->
<g id="edge3" class="edge"><title>Node4&#45;&gt;Node1</title>
<path fill="none" stroke="midnightblue" d="M90.0228,-47.5656C84.173,-38.2747 77.2305,-27.2484 72.5099,-19.7511"/>
<polygon fill="midnightblue" stroke="midnightblue" points="87.0956,-49.4855 95.3856,-56.083 93.0192,-45.7558 87.0956,-49.4855"/>
</g>
</g>
</svg>
