<?xml version="1.0" encoding="UTF-8" standalone="no"?>
<!DOCTYPE svg PUBLIC "-//W3C//DTD SVG 1.1//EN"
 "http://www.w3.org/Graphics/SVG/1.1/DTD/svg11.dtd">
<!-- Generated by graphviz version 2.38.0 (20140413.2041)
 -->
<!-- Title: PathReferenceAttribute Pages: 1 -->
<svg width="399pt" height="140pt"
 viewBox="0.00 0.00 398.50 140.00" xmlns="http://www.w3.org/2000/svg" xmlns:xlink="http://www.w3.org/1999/xlink">
<g id="graph0" class="graph" transform="scale(1 1) rotate(0) translate(4 136)">
<title>PathReferenceAttribute</title>
<polygon fill="white" stroke="none" points="-4,4 -4,-136 394.5,-136 394.5,4 -4,4"/>
<!-- Node1 -->
<g id="node1" class="node"><title>Node1</title>
<polygon fill="#bfbfbf" stroke="black" points="136.5,-56.5 136.5,-75.5 253.5,-75.5 253.5,-56.5 136.5,-56.5"/>
<text text-anchor="middle" x="195" y="-63.5" font-family="Helvetica,sans-Serif" font-size="10.00">PathReferenceAttribute</text>
</g>
<!-- Node3 -->
<g id="node3" class="node"><title>Node3</title>
<g id="a_node3"><a xlink:href="class_asp_mvc_area_attribute.html" target="_top" xlink:title="ASP.NET MVC attribute. Indicates that a parameter is an MVC area. Use this attribute for custom wrapp...">
<polygon fill="white" stroke="black" points="0,-0.5 0,-19.5 108,-19.5 108,-0.5 0,-0.5"/>
<text text-anchor="middle" x="54" y="-7.5" font-family="Helvetica,sans-Serif" font-size="10.00">AspMvcAreaAttribute</text>
</a>
</g>
</g>
<!-- Node1&#45;&gt;Node3 -->
<g id="edge2" class="edge"><title>Node1&#45;&gt;Node3</title>
<path fill="none" stroke="midnightblue" d="M163.071,-52.772C136.586,-42.6287 99.6079,-28.4669 76.2373,-19.5164"/>
<polygon fill="midnightblue" stroke="midnightblue" points="162.068,-56.1355 172.658,-56.4435 164.571,-49.5985 162.068,-56.1355"/>
</g>
<!-- Node4 -->
<g id="node4" class="node"><title>Node4</title>
<g id="a_node4"><a xlink:href="class_asp_mvc_partial_view_attribute.html" target="_top" xlink:title="ASP.NET MVC attribute. If applied to a parameter, indicates that the parameter is an MVC partial view...">
<polygon fill="white" stroke="black" points="126.5,-0.5 126.5,-19.5 263.5,-19.5 263.5,-0.5 126.5,-0.5"/>
<text text-anchor="middle" x="195" y="-7.5" font-family="Helvetica,sans-Serif" font-size="10.00">AspMvcPartialViewAttribute</text>
</a>
</g>
</g>
<!-- Node1&#45;&gt;Node4 -->
<g id="edge3" class="edge"><title>Node1&#45;&gt;Node4</title>
<path fill="none" stroke="midnightblue" d="M195,-45.8045C195,-36.9102 195,-26.7798 195,-19.7511"/>
<polygon fill="midnightblue" stroke="midnightblue" points="191.5,-46.083 195,-56.083 198.5,-46.083 191.5,-46.083"/>
</g>
<!-- Node5 -->
<g id="node5" class="node"><title>Node5</title>
<g id="a_node5"><a xlink:href="class_asp_mvc_view_attribute.html" target="_top" xlink:title="ASP.NET MVC attribute. If applied to a parameter, indicates that the parameter is an MVC view...">
<polygon fill="white" stroke="black" points="281.5,-0.5 281.5,-19.5 390.5,-19.5 390.5,-0.5 281.5,-0.5"/>
<text text-anchor="middle" x="336" y="-7.5" font-family="Helvetica,sans-Serif" font-size="10.00">AspMvcViewAttribute</text>
</a>
</g>
</g>
<!-- Node1&#45;&gt;Node5 -->
<g id="edge4" class="edge"><title>Node1&#45;&gt;Node5</title>
<path fill="none" stroke="midnightblue" d="M226.929,-52.772C253.414,-42.6287 290.392,-28.4669 313.763,-19.5164"/>
<polygon fill="midnightblue" stroke="midnightblue" points="225.429,-49.5985 217.342,-56.4435 227.932,-56.1355 225.429,-49.5985"/>
</g>
<!-- Node2 -->
<g id="node2" class="node"><title>Node2</title>
<polygon fill="white" stroke="#bfbfbf" points="168.5,-112.5 168.5,-131.5 221.5,-131.5 221.5,-112.5 168.5,-112.5"/>
<text text-anchor="middle" x="195" y="-119.5" font-family="Helvetica,sans-Serif" font-size="10.00">Attribute</text>
</g>
<!-- Node2&#45;&gt;Node1 -->
<g id="edge1" class="edge"><title>Node2&#45;&gt;Node1</title>
<path fill="none" stroke="midnightblue" d="M195,-101.805C195,-92.9102 195,-82.7798 195,-75.7511"/>
<polygon fill="midnightblue" stroke="midnightblue" points="191.5,-102.083 195,-112.083 198.5,-102.083 191.5,-102.083"/>
</g>
</g>
</svg>
