<?xml version="1.0" encoding="UTF-8" standalone="no"?>
<!DOCTYPE svg PUBLIC "-//W3C//DTD SVG 1.1//EN"
 "http://www.w3.org/Graphics/SVG/1.1/DTD/svg11.dtd">
<!-- Generated by graphviz version 2.38.0 (20140413.2041)
 -->
<!-- Title: Corale.Colore.Core.Mouse Pages: 1 -->
<!--zoomable 431 -->
<svg id="main" version="1.1" xmlns="http://www.w3.org/2000/svg" xmlns:xlink="http://www.w3.org/1999/xlink" xml:space="preserve" onload="init(evt)">
<style type="text/css"><![CDATA[
.edge:hover path { stroke: red; }
.edge:hover polygon { stroke: red; fill: red; }
]]></style>
<script type="text/javascript"><![CDATA[
var edges = document.getElementsByTagName('g');
if (edges && edges.length) {
  for (var i=0;i<edges.length;i++) {
    if (edges[i].id.substr(0,4)=='edge') {
      edges[i].setAttribute('class','edge');
    }
  }
}
]]></script>
        <defs>
                <circle id="rim" cx="0" cy="0" r="7"/>
                <circle id="rim2" cx="0" cy="0" r="3.5"/>
                <g id="zoomPlus">
                        <use xlink:href="#rim" fill="#404040">
                                <set attributeName="fill" to="#808080" begin="zoomplus.mouseover" end="zoomplus.mouseout"/>
                        </use>
                        <path d="M-4,0h8M0,-4v8" fill="none" stroke="white" stroke-width="1.5" pointer-events="none"/>
                </g>
                <g id="zoomMin">
                        <use xlink:href="#rim" fill="#404040">
                                <set attributeName="fill" to="#808080" begin="zoomminus.mouseover" end="zoomminus.mouseout"/>
                        </use>
                        <path d="M-4,0h8" fill="none" stroke="white" stroke-width="1.5" pointer-events="none"/>
                </g>
                <g id="dirArrow">
                        <path fill="none" stroke="white" stroke-width="1.5" d="M0,-3.0v7 M-2.5,-0.5L0,-3.0L2.5,-0.5"/>
                </g>
               <g id="resetDef">
                       <use xlink:href="#rim2" fill="#404040">
                               <set attributeName="fill" to="#808080" begin="reset.mouseover" end="reset.mouseout"/>
                       </use>
               </g>
        </defs>

<script type="text/javascript">
var viewWidth = 717;
var viewHeight = 431;
var sectionId = 'dynsection-1';
</script>
<script xlink:href="svgpan.js"/>
<svg id="graph" class="graph">
<g id="viewport">
<title>Corale.Colore.Core.Mouse</title>
<polygon fill="white" stroke="none" points="-4,4 -4,-427 713,-427 713,4 -4,4"/>
<!-- Node4 -->
<g id="node1" class="node"><title>Node4</title>
<polygon fill="#bfbfbf" stroke="black" points="578,-309.5 578,-328.5 709,-328.5 709,-309.5 578,-309.5"/>
<text text-anchor="middle" x="643.5" y="-316.5" font-family="Helvetica,sans-Serif" font-size="10.00">Corale.Colore.Core.Mouse</text>
</g>
<!-- Node5 -->
<g id="node2" class="node"><title>Node5</title>
<g id="a_node2"><a xlink:href="class_corale_1_1_colore_1_1_core_1_1_device.html" target="_top" xlink:title="Base class for devices, containing code common between all devices. ">
<polygon fill="white" stroke="black" points="390.5,-403.5 390.5,-422.5 435.5,-422.5 435.5,-403.5 390.5,-403.5"/>
<text text-anchor="middle" x="413" y="-410.5" font-family="Helvetica,sans-Serif" font-size="10.00">Device</text>
</a>
</g>
</g>
<!-- Node5&#45;&gt;Node4 -->
<g id="edge1" class="edge"><title>Node5&#45;&gt;Node4</title>
<path fill="none" stroke="midnightblue" d="M445.483,-404.981C457.318,-401.797 470.845,-397.953 483,-394 517.776,-382.69 526.828,-380.391 560,-365 584.099,-353.819 610.735,-338.368 627.046,-328.529"/>
<polygon fill="midnightblue" stroke="midnightblue" points="444.369,-401.656 435.596,-407.596 446.159,-408.423 444.369,-401.656"/>
</g>
<!-- Node6 -->
<g id="node3" class="node"><title>Node6</title>
<g id="a_node3"><a xlink:href="interface_corale_1_1_colore_1_1_core_1_1_i_device.html" target="_top" xlink:title="Interface for functionality common with all devices. ">
<polygon fill="white" stroke="black" points="182.5,-365.5 182.5,-384.5 229.5,-384.5 229.5,-365.5 182.5,-365.5"/>
<text text-anchor="middle" x="206" y="-372.5" font-family="Helvetica,sans-Serif" font-size="10.00">IDevice</text>
</a>
</g>
</g>
<!-- Node6&#45;&gt;Node5 -->
<g id="edge2" class="edge"><title>Node6&#45;&gt;Node5</title>
<path fill="none" stroke="midnightblue" d="M239.785,-381.077C282.074,-388.916 354.458,-402.334 390.416,-408.999"/>
<polygon fill="midnightblue" stroke="midnightblue" points="240.192,-377.593 229.722,-379.212 238.916,-384.476 240.192,-377.593"/>
</g>
<!-- Node7 -->
<g id="node4" class="node"><title>Node7</title>
<g id="a_node4"><a xlink:href="interface_corale_1_1_colore_1_1_core_1_1_i_mouse.html" target="_top" xlink:title="Interface for mouse functionality. ">
<polygon fill="white" stroke="black" points="389,-365.5 389,-384.5 437,-384.5 437,-365.5 389,-365.5"/>
<text text-anchor="middle" x="413" y="-372.5" font-family="Helvetica,sans-Serif" font-size="10.00">IMouse</text>
</a>
</g>
</g>
<!-- Node6&#45;&gt;Node7 -->
<g id="edge4" class="edge"><title>Node6&#45;&gt;Node7</title>
<path fill="none" stroke="midnightblue" d="M239.909,-375C281.615,-375 352.444,-375 388.862,-375"/>
<polygon fill="midnightblue" stroke="midnightblue" points="239.722,-371.5 229.722,-375 239.722,-378.5 239.722,-371.5"/>
</g>
<!-- Node15 -->
<g id="node12" class="node"><title>Node15</title>
<g id="a_node12"><a xlink:href="interface_corale_1_1_colore_1_1_core_1_1_i_mouse.html" target="_top" xlink:title="Interface for mouse functionality. ">
<polygon fill="white" stroke="black" points="346.5,-289.5 346.5,-308.5 479.5,-308.5 479.5,-289.5 346.5,-289.5"/>
<text text-anchor="middle" x="413" y="-296.5" font-family="Helvetica,sans-Serif" font-size="10.00">Corale.Colore.Core.IMouse</text>
</a>
</g>
</g>
<!-- Node6&#45;&gt;Node15 -->
<g id="edge14" class="edge"><title>Node6&#45;&gt;Node15</title>
<path fill="none" stroke="midnightblue" d="M236.778,-361.217C264.049,-348.909 305.719,-330.886 343,-318 352.864,-314.59 363.684,-311.373 373.77,-308.588"/>
<polygon fill="midnightblue" stroke="midnightblue" points="235.072,-358.148 227.417,-365.473 237.969,-364.52 235.072,-358.148"/>
</g>
<!-- Node7&#45;&gt;Node4 -->
<g id="edge3" class="edge"><title>Node7&#45;&gt;Node4</title>
<path fill="none" stroke="midnightblue" d="M447.035,-369.214C476.772,-363.768 521.575,-354.974 560,-345 578.46,-340.208 598.908,-333.772 614.829,-328.502"/>
<polygon fill="midnightblue" stroke="midnightblue" points="446.397,-365.772 437.18,-370.997 447.643,-372.66 446.397,-365.772"/>
</g>
<!-- Node8 -->
<g id="node5" class="node"><title>Node8</title>
<g id="a_node5"><a xlink:href="interface_corale_1_1_colore_1_1_logging_1_1_i_log.html" target="_top" xlink:title="Describes a logger. ">
<polygon fill="white" stroke="black" points="346.5,-327.5 346.5,-346.5 479.5,-346.5 479.5,-327.5 346.5,-327.5"/>
<text text-anchor="middle" x="413" y="-334.5" font-family="Helvetica,sans-Serif" font-size="10.00">Corale.Colore.Logging.ILog</text>
</a>
</g>
</g>
<!-- Node8&#45;&gt;Node4 -->
<g id="edge5" class="edge"><title>Node8&#45;&gt;Node4</title>
<path fill="none" stroke="#9a32cd" stroke-dasharray="5,2" d="M490.101,-331.005C518.58,-328.762 550.632,-326.237 577.967,-324.084"/>
<polygon fill="#9a32cd" stroke="#9a32cd" points="489.479,-327.543 479.785,-331.818 490.029,-334.522 489.479,-327.543"/>
<text text-anchor="middle" x="530.5" y="-333" font-family="Helvetica,sans-Serif" font-size="10.00"> Log</text>
</g>
<!-- Node9 -->
<g id="node6" class="node"><title>Node9</title>
<g id="a_node6"><a xlink:href="struct_corale_1_1_colore_1_1_razer_1_1_chroma_link_1_1_effects_1_1_custom.html" target="_top" xlink:title="Custom effect. ">
<polygon fill="white" stroke="black" points="343,-240 343,-270 483,-270 483,-240 343,-240"/>
<text text-anchor="start" x="351" y="-258" font-family="Helvetica,sans-Serif" font-size="10.00">Corale.Colore.Razer.Chroma</text>
<text text-anchor="middle" x="413" y="-247" font-family="Helvetica,sans-Serif" font-size="10.00">Link.Effects.Custom</text>
</a>
</g>
</g>
<!-- Node9&#45;&gt;Node4 -->
<g id="edge6" class="edge"><title>Node9&#45;&gt;Node4</title>
<path fill="none" stroke="#9a32cd" stroke-dasharray="5,2" d="M492.979,-272.367C514.811,-277.592 538.427,-283.641 560,-290 579.514,-295.752 601.203,-303.428 617.444,-309.438"/>
<polygon fill="#9a32cd" stroke="#9a32cd" points="493.624,-268.924 483.087,-270.027 492.012,-275.736 493.624,-268.924"/>
<text text-anchor="middle" x="530.5" y="-293" font-family="Helvetica,sans-Serif" font-size="10.00"> _custom</text>
</g>
<!-- Node10 -->
<g id="node7" class="node"><title>Node10</title>
<polygon fill="white" stroke="#bfbfbf" points="149,-291.5 149,-310.5 263,-310.5 263,-291.5 149,-291.5"/>
<text text-anchor="middle" x="206" y="-298.5" font-family="Helvetica,sans-Serif" font-size="10.00">IEquatable&lt; Custom &gt;</text>
</g>
<!-- Node10&#45;&gt;Node9 -->
<g id="edge7" class="edge"><title>Node10&#45;&gt;Node9</title>
<path fill="none" stroke="midnightblue" d="M259.511,-289.217C285.521,-283.381 317.218,-276.268 344.962,-270.043"/>
<polygon fill="midnightblue" stroke="midnightblue" points="258.467,-285.864 249.476,-291.469 260,-292.694 258.467,-285.864"/>
</g>
<!-- Node11 -->
<g id="node8" class="node"><title>Node11</title>
<polygon fill="white" stroke="#bfbfbf" points="153,-253.5 153,-272.5 259,-272.5 259,-253.5 153,-253.5"/>
<text text-anchor="middle" x="206" y="-260.5" font-family="Helvetica,sans-Serif" font-size="10.00">IEquatable&lt; Color[]&gt;</text>
</g>
<!-- Node11&#45;&gt;Node9 -->
<g id="edge8" class="edge"><title>Node11&#45;&gt;Node9</title>
<path fill="none" stroke="midnightblue" d="M269.331,-260.568C292.541,-259.662 319.015,-258.629 342.804,-257.7"/>
<polygon fill="midnightblue" stroke="midnightblue" points="269.116,-257.073 259.261,-260.961 269.389,-264.068 269.116,-257.073"/>
</g>
<!-- Node16 -->
<g id="node13" class="node"><title>Node16</title>
<g id="a_node13"><a xlink:href="struct_corale_1_1_colore_1_1_razer_1_1_mouse_1_1_effects_1_1_custom_grid.html" target="_top" xlink:title="Custom grid effect for mouse LEDs. ">
<polygon fill="white" stroke="black" points="343.5,-71 343.5,-101 482.5,-101 482.5,-71 343.5,-71"/>
<text text-anchor="start" x="351.5" y="-89" font-family="Helvetica,sans-Serif" font-size="10.00">Corale.Colore.Razer.Mouse.</text>
<text text-anchor="middle" x="413" y="-78" font-family="Helvetica,sans-Serif" font-size="10.00">Effects.CustomGrid</text>
</a>
</g>
</g>
<!-- Node11&#45;&gt;Node16 -->
<g id="edge18" class="edge"><title>Node11&#45;&gt;Node16</title>
<path fill="none" stroke="midnightblue" d="M259.594,-249.899C263.893,-248.15 268.085,-246.191 272,-244 335.326,-208.565 384.443,-133.427 403.449,-101.199"/>
<polygon fill="midnightblue" stroke="midnightblue" points="258.254,-246.663 250.076,-253.399 260.67,-253.233 258.254,-246.663"/>
</g>
<!-- Node12 -->
<g id="node9" class="node"><title>Node12</title>
<g id="a_node9"><a xlink:href="struct_corale_1_1_colore_1_1_core_1_1_color.html" target="_top" xlink:title="Represents an RGB color. ">
<polygon fill="white" stroke="black" points="144,-76.5 144,-95.5 268,-95.5 268,-76.5 144,-76.5"/>
<text text-anchor="middle" x="206" y="-83.5" font-family="Helvetica,sans-Serif" font-size="10.00">Corale.Colore.Core.Color</text>
</a>
</g>
</g>
<!-- Node12&#45;&gt;Node9 -->
<g id="edge9" class="edge"><title>Node12&#45;&gt;Node9</title>
<path fill="none" stroke="#9a32cd" stroke-dasharray="5,2" d="M226.723,-102.26C266.404,-134.972 355.364,-208.31 393.771,-239.972"/>
<polygon fill="#9a32cd" stroke="#9a32cd" points="228.551,-99.2308 218.609,-95.5704 224.099,-104.632 228.551,-99.2308"/>
<text text-anchor="middle" x="307.5" y="-184" font-family="Helvetica,sans-Serif" font-size="10.00"> _colors</text>
</g>
<!-- Node12&#45;&gt;Node12 -->
<g id="edge12" class="edge"><title>Node12&#45;&gt;Node12</title>
<path fill="none" stroke="#9a32cd" stroke-dasharray="5,2" d="M190.531,-105.766C191.746,-110.497 196.902,-114 206,-114 220.93,-114 225.245,-104.565 218.947,-95.7571"/>
<polygon fill="#9a32cd" stroke="#9a32cd" points="194.003,-106.309 193.053,-95.7571 187.216,-104.599 194.003,-106.309"/>
<text text-anchor="middle" x="206" y="-227" font-family="Helvetica,sans-Serif" font-size="10.00"> Yellow</text>
<text text-anchor="middle" x="206" y="-216" font-family="Helvetica,sans-Serif" font-size="10.00">White</text>
<text text-anchor="middle" x="206" y="-205" font-family="Helvetica,sans-Serif" font-size="10.00">Pink</text>
<text text-anchor="middle" x="206" y="-194" font-family="Helvetica,sans-Serif" font-size="10.00">HotPink</text>
<text text-anchor="middle" x="206" y="-183" font-family="Helvetica,sans-Serif" font-size="10.00">Blue</text>
<text text-anchor="middle" x="206" y="-172" font-family="Helvetica,sans-Serif" font-size="10.00">Purple</text>
<text text-anchor="middle" x="206" y="-161" font-family="Helvetica,sans-Serif" font-size="10.00">Orange</text>
<text text-anchor="middle" x="206" y="-150" font-family="Helvetica,sans-Serif" font-size="10.00">Black</text>
<text text-anchor="middle" x="206" y="-139" font-family="Helvetica,sans-Serif" font-size="10.00">Red</text>
<text text-anchor="middle" x="206" y="-128" font-family="Helvetica,sans-Serif" font-size="10.00">Green</text>
<text text-anchor="middle" x="206" y="-117" font-family="Helvetica,sans-Serif" font-size="10.00">...</text>
</g>
<!-- Node12&#45;&gt;Node16 -->
<g id="edge19" class="edge"><title>Node12&#45;&gt;Node16</title>
<path fill="none" stroke="#9a32cd" stroke-dasharray="5,2" d="M278.374,-86C299.391,-86 322.337,-86 343.19,-86"/>
<polygon fill="#9a32cd" stroke="#9a32cd" points="278.229,-82.5001 268.229,-86 278.229,-89.5001 278.229,-82.5001"/>
<text text-anchor="middle" x="307.5" y="-89" font-family="Helvetica,sans-Serif" font-size="10.00"> _colors</text>
</g>
<!-- Node13 -->
<g id="node10" class="node"><title>Node13</title>
<polygon fill="white" stroke="#bfbfbf" points="0,-95.5 0,-114.5 103,-114.5 103,-95.5 0,-95.5"/>
<text text-anchor="middle" x="51.5" y="-102.5" font-family="Helvetica,sans-Serif" font-size="10.00">IEquatable&lt; Color &gt;</text>
</g>
<!-- Node13&#45;&gt;Node12 -->
<g id="edge10" class="edge"><title>Node13&#45;&gt;Node12</title>
<path fill="none" stroke="midnightblue" d="M113.209,-97.4362C123.292,-96.18 133.754,-94.8766 143.848,-93.619"/>
<polygon fill="midnightblue" stroke="midnightblue" points="112.771,-93.9637 103.28,-98.6733 113.636,-100.91 112.771,-93.9637"/>
</g>
<!-- Node14 -->
<g id="node11" class="node"><title>Node14</title>
<polygon fill="white" stroke="#bfbfbf" points="3.5,-57.5 3.5,-76.5 99.5,-76.5 99.5,-57.5 3.5,-57.5"/>
<text text-anchor="middle" x="51.5" y="-64.5" font-family="Helvetica,sans-Serif" font-size="10.00">IEquatable&lt; uint &gt;</text>
</g>
<!-- Node14&#45;&gt;Node12 -->
<g id="edge11" class="edge"><title>Node14&#45;&gt;Node12</title>
<path fill="none" stroke="midnightblue" d="M109.909,-74.1526C120.995,-75.5338 132.649,-76.9858 143.849,-78.3812"/>
<polygon fill="midnightblue" stroke="midnightblue" points="110.272,-70.6709 99.916,-72.9076 109.407,-77.6171 110.272,-70.6709"/>
</g>
<!-- Node15&#45;&gt;Node4 -->
<g id="edge13" class="edge"><title>Node15&#45;&gt;Node4</title>
<path fill="none" stroke="#9a32cd" stroke-dasharray="5,2" d="M490.002,-304.242C512.547,-305.928 537.282,-307.906 560,-310 565.739,-310.529 571.698,-311.113 577.67,-311.72"/>
<polygon fill="#9a32cd" stroke="#9a32cd" points="490.044,-300.736 479.813,-303.489 489.528,-307.717 490.044,-300.736"/>
<text text-anchor="middle" x="530.5" y="-313" font-family="Helvetica,sans-Serif" font-size="10.00"> _instance</text>
</g>
<!-- Node16&#45;&gt;Node4 -->
<g id="edge15" class="edge"><title>Node16&#45;&gt;Node4</title>
<path fill="none" stroke="#9a32cd" stroke-dasharray="5,2" d="M436.228,-108.666C484.977,-158.375 599.607,-275.263 633.134,-309.45"/>
<polygon fill="#9a32cd" stroke="#9a32cd" points="438.493,-105.977 428.993,-101.288 433.495,-110.878 438.493,-105.977"/>
<text text-anchor="middle" x="530.5" y="-234" font-family="Helvetica,sans-Serif" font-size="10.00"> _customGrid</text>
</g>
<!-- Node17 -->
<g id="node14" class="node"><title>Node17</title>
<polygon fill="white" stroke="#bfbfbf" points="140,-38.5 140,-57.5 272,-57.5 272,-38.5 140,-38.5"/>
<text text-anchor="middle" x="206" y="-45.5" font-family="Helvetica,sans-Serif" font-size="10.00">IEquatable&lt; CustomGrid &gt;</text>
</g>
<!-- Node17&#45;&gt;Node16 -->
<g id="edge16" class="edge"><title>Node17&#45;&gt;Node16</title>
<path fill="none" stroke="midnightblue" d="M268.368,-59.3756C292.019,-63.7596 319.172,-68.7929 343.458,-73.2946"/>
<polygon fill="midnightblue" stroke="midnightblue" points="268.936,-55.9213 258.466,-57.54 267.66,-62.804 268.936,-55.9213"/>
</g>
<!-- Node18 -->
<g id="node15" class="node"><title>Node18</title>
<polygon fill="white" stroke="#bfbfbf" points="150,-0.5 150,-19.5 262,-19.5 262,-0.5 150,-0.5"/>
<text text-anchor="middle" x="206" y="-7.5" font-family="Helvetica,sans-Serif" font-size="10.00">IEquatable&lt; Color[][]&gt;</text>
</g>
<!-- Node18&#45;&gt;Node16 -->
<g id="edge17" class="edge"><title>Node18&#45;&gt;Node16</title>
<path fill="none" stroke="midnightblue" d="M251.789,-22.4384C258.596,-24.5172 265.511,-26.7372 272,-29 308.674,-41.7882 349.735,-58.841 377.854,-70.9534"/>
<polygon fill="midnightblue" stroke="midnightblue" points="252.537,-19.0093 241.954,-19.5052 250.536,-25.7173 252.537,-19.0093"/>
</g>
</g>
</svg>
        <g id="navigator" transform="translate(0 0)" fill="#404254">
                <rect fill="#f2f5e9" fill-opacity="0.5" stroke="#606060" stroke-width=".5" x="0" y="0" width="60" height="60"/>
                <use id="zoomplus" xlink:href="#zoomPlus" x="17" y="9" onmousedown="handleZoom(evt,'in')"/>
                <use id="zoomminus" xlink:href="#zoomMin" x="42" y="9" onmousedown="handleZoom(evt,'out')"/>
                <use id="reset" xlink:href="#resetDef" x="30" y="36" onmousedown="handleReset()"/>
                <g id="arrowUp" xlink:href="#dirArrow" transform="translate(30 24)" onmousedown="handlePan(0,-1)">
                  <use xlink:href="#rim" fill="#404040">
                        <set attributeName="fill" to="#808080" begin="arrowUp.mouseover" end="arrowUp.mouseout"/>
                  </use>
                  <path fill="none" stroke="white" stroke-width="1.5" d="M0,-3.0v7 M-2.5,-0.5L0,-3.0L2.5,-0.5"/>
                </g>
                <g id="arrowRight" xlink:href="#dirArrow" transform="rotate(90) translate(36 -43)" onmousedown="handlePan(1,0)">
                  <use xlink:href="#rim" fill="#404040">
                        <set attributeName="fill" to="#808080" begin="arrowRight.mouseover" end="arrowRight.mouseout"/>
                  </use>
                  <path fill="none" stroke="white" stroke-width="1.5" d="M0,-3.0v7 M-2.5,-0.5L0,-3.0L2.5,-0.5"/>
                </g>
                <g id="arrowDown" xlink:href="#dirArrow" transform="rotate(180) translate(-30 -48)" onmousedown="handlePan(0,1)">
                  <use xlink:href="#rim" fill="#404040">
                        <set attributeName="fill" to="#808080" begin="arrowDown.mouseover" end="arrowDown.mouseout"/>
                  </use>
                  <path fill="none" stroke="white" stroke-width="1.5" d="M0,-3.0v7 M-2.5,-0.5L0,-3.0L2.5,-0.5"/>
                </g>
                <g id="arrowLeft" xlink:href="#dirArrow" transform="rotate(270) translate(-36 17)" onmousedown="handlePan(-1,0)">
                  <use xlink:href="#rim" fill="#404040">
                        <set attributeName="fill" to="#808080" begin="arrowLeft.mouseover" end="arrowLeft.mouseout"/>
                  </use>
                  <path fill="none" stroke="white" stroke-width="1.5" d="M0,-3.0v7 M-2.5,-0.5L0,-3.0L2.5,-0.5"/>
                </g>
        </g>
        <svg viewBox="0 0 15 15" width="100%" height="30px" preserveAspectRatio="xMaxYMin meet">
         <g id="arrow_out" transform="scale(0.3 0.3)">
          <a xlink:href="class_corale_1_1_colore_1_1_core_1_1_mouse__coll__graph_org.svg" target="_base">
           <rect id="button" ry="5" rx="5" y="6" x="6" height="38" width="38"
                fill="#f2f5e9" fill-opacity="0.5" stroke="#606060" stroke-width="1.0"/>
           <path id="arrow"
             d="M 11.500037,31.436501 C 11.940474,20.09759 22.043105,11.32322 32.158766,21.979434 L 37.068811,17.246167 C 37.068811,17.246167 37.088388,32 37.088388,32 L 22.160133,31.978069 C 22.160133,31.978069 26.997745,27.140456 26.997745,27.140456 C 18.528582,18.264221 13.291696,25.230495 11.500037,31.436501 z"
             style="fill:#404040;"/>
          </a>
         </g>
        </svg>
</svg>
