<?xml version="1.0" encoding="UTF-8" standalone="no"?>
<!DOCTYPE svg PUBLIC "-//W3C//DTD SVG 1.1//EN"
 "http://www.w3.org/Graphics/SVG/1.1/DTD/svg11.dtd">
<!-- Generated by graphviz version 2.38.0 (20140413.2041)
 -->
<!-- Title: AspMvcViewAttribute Pages: 1 -->
<svg width="125pt" height="140pt"
 viewBox="0.00 0.00 125.00 140.00" xmlns="http://www.w3.org/2000/svg" xmlns:xlink="http://www.w3.org/1999/xlink">
<g id="graph0" class="graph" transform="scale(1 1) rotate(0) translate(4 136)">
<title>AspMvcViewAttribute</title>
<polygon fill="white" stroke="none" points="-4,4 -4,-136 121,-136 121,4 -4,4"/>
<!-- Node1 -->
<g id="node1" class="node"><title>Node1</title>
<polygon fill="#bfbfbf" stroke="black" points="4,-0.5 4,-19.5 113,-19.5 113,-0.5 4,-0.5"/>
<text text-anchor="middle" x="58.5" y="-7.5" font-family="Helvetica,sans-Serif" font-size="10.00">AspMvcViewAttribute</text>
</g>
<!-- Node2 -->
<g id="node2" class="node"><title>Node2</title>
<g id="a_node2"><a xlink:href="class_path_reference_attribute.html" target="_top" xlink:title="Indicates that a parameter is a path to a file or a folder within a web project. Path can be relative...">
<polygon fill="white" stroke="black" points="0,-56.5 0,-75.5 117,-75.5 117,-56.5 0,-56.5"/>
<text text-anchor="middle" x="58.5" y="-63.5" font-family="Helvetica,sans-Serif" font-size="10.00">PathReferenceAttribute</text>
</a>
</g>
</g>
<!-- Node2&#45;&gt;Node1 -->
<g id="edge1" class="edge"><title>Node2&#45;&gt;Node1</title>
<path fill="none" stroke="midnightblue" d="M58.5,-45.8045C58.5,-36.9102 58.5,-26.7798 58.5,-19.7511"/>
<polygon fill="midnightblue" stroke="midnightblue" points="55.0001,-46.083 58.5,-56.083 62.0001,-46.083 55.0001,-46.083"/>
</g>
<!-- Node3 -->
<g id="node3" class="node"><title>Node3</title>
<polygon fill="white" stroke="#bfbfbf" points="32,-112.5 32,-131.5 85,-131.5 85,-112.5 32,-112.5"/>
<text text-anchor="middle" x="58.5" y="-119.5" font-family="Helvetica,sans-Serif" font-size="10.00">Attribute</text>
</g>
<!-- Node3&#45;&gt;Node2 -->
<g id="edge2" class="edge"><title>Node3&#45;&gt;Node2</title>
<path fill="none" stroke="midnightblue" d="M58.5,-101.805C58.5,-92.9102 58.5,-82.7798 58.5,-75.7511"/>
<polygon fill="midnightblue" stroke="midnightblue" points="55.0001,-102.083 58.5,-112.083 62.0001,-102.083 55.0001,-102.083"/>
</g>
</g>
</svg>
