<?xml version="1.0" encoding="UTF-8" standalone="no"?>
<!DOCTYPE svg PUBLIC "-//W3C//DTD SVG 1.1//EN"
 "http://www.w3.org/Graphics/SVG/1.1/DTD/svg11.dtd">
<!-- Generated by graphviz version 2.38.0 (20140413.2041)
 -->
<!-- Title: Corale.Colore.Core.Keypad Pages: 1 -->
<svg width="699pt" height="340pt"
 viewBox="0.00 0.00 699.00 340.00" xmlns="http://www.w3.org/2000/svg" xmlns:xlink="http://www.w3.org/1999/xlink">
<g id="graph0" class="graph" transform="scale(1 1) rotate(0) translate(4 336)">
<title>Corale.Colore.Core.Keypad</title>
<polygon fill="white" stroke="none" points="-4,4 -4,-336 695,-336 695,4 -4,4"/>
<!-- Node1 -->
<g id="node1" class="node"><title>Node1</title>
<polygon fill="#bfbfbf" stroke="black" points="557,-236.5 557,-255.5 691,-255.5 691,-236.5 557,-236.5"/>
<text text-anchor="middle" x="624" y="-243.5" font-family="Helvetica,sans-Serif" font-size="10.00">Corale.Colore.Core.Keypad</text>
</g>
<!-- Node2 -->
<g id="node2" class="node"><title>Node2</title>
<g id="a_node2"><a xlink:href="class_corale_1_1_colore_1_1_core_1_1_device.html" target="_top" xlink:title="Base class for devices, containing code common between all devices. ">
<polygon fill="white" stroke="black" points="382.5,-312.5 382.5,-331.5 427.5,-331.5 427.5,-312.5 382.5,-312.5"/>
<text text-anchor="middle" x="405" y="-319.5" font-family="Helvetica,sans-Serif" font-size="10.00">Device</text>
</a>
</g>
</g>
<!-- Node2&#45;&gt;Node1 -->
<g id="edge1" class="edge"><title>Node2&#45;&gt;Node1</title>
<path fill="none" stroke="midnightblue" d="M437.499,-314.03C449.336,-310.851 462.86,-306.998 475,-303 519.982,-288.185 571.329,-267.547 600.182,-255.598"/>
<polygon fill="midnightblue" stroke="midnightblue" points="436.387,-310.703 427.609,-316.637 438.171,-317.472 436.387,-310.703"/>
</g>
<!-- Node3 -->
<g id="node3" class="node"><title>Node3</title>
<g id="a_node3"><a xlink:href="interface_corale_1_1_colore_1_1_core_1_1_i_device.html" target="_top" xlink:title="Interface for functionality common with all devices. ">
<polygon fill="white" stroke="black" points="178.5,-274.5 178.5,-293.5 225.5,-293.5 225.5,-274.5 178.5,-274.5"/>
<text text-anchor="middle" x="202" y="-281.5" font-family="Helvetica,sans-Serif" font-size="10.00">IDevice</text>
</a>
</g>
</g>
<!-- Node3&#45;&gt;Node2 -->
<g id="edge2" class="edge"><title>Node3&#45;&gt;Node2</title>
<path fill="none" stroke="midnightblue" d="M235.51,-290.146C276.827,-297.957 347.01,-311.226 382.331,-317.903"/>
<polygon fill="midnightblue" stroke="midnightblue" points="236.143,-286.704 225.667,-288.285 234.842,-293.582 236.143,-286.704"/>
</g>
<!-- Node4 -->
<g id="node4" class="node"><title>Node4</title>
<g id="a_node4"><a xlink:href="interface_corale_1_1_colore_1_1_core_1_1_i_keypad.html" target="_top" xlink:title="Interface for keypad functions. ">
<polygon fill="white" stroke="black" points="379,-274.5 379,-293.5 431,-293.5 431,-274.5 379,-274.5"/>
<text text-anchor="middle" x="405" y="-281.5" font-family="Helvetica,sans-Serif" font-size="10.00">IKeypad</text>
</a>
</g>
</g>
<!-- Node3&#45;&gt;Node4 -->
<g id="edge4" class="edge"><title>Node3&#45;&gt;Node4</title>
<path fill="none" stroke="midnightblue" d="M235.716,-284C275.759,-284 342.693,-284 378.903,-284"/>
<polygon fill="midnightblue" stroke="midnightblue" points="235.667,-280.5 225.667,-284 235.667,-287.5 235.667,-280.5"/>
</g>
<!-- Node6 -->
<g id="node6" class="node"><title>Node6</title>
<g id="a_node6"><a xlink:href="interface_corale_1_1_colore_1_1_core_1_1_i_keypad.html" target="_top" xlink:title="Interface for keypad functions. ">
<polygon fill="white" stroke="black" points="336.5,-236.5 336.5,-255.5 473.5,-255.5 473.5,-236.5 336.5,-236.5"/>
<text text-anchor="middle" x="405" y="-243.5" font-family="Helvetica,sans-Serif" font-size="10.00">Corale.Colore.Core.IKeypad</text>
</a>
</g>
</g>
<!-- Node3&#45;&gt;Node6 -->
<g id="edge7" class="edge"><title>Node3&#45;&gt;Node6</title>
<path fill="none" stroke="midnightblue" d="M235.787,-277.801C267.675,-271.773 316.567,-262.53 353.437,-255.559"/>
<polygon fill="midnightblue" stroke="midnightblue" points="234.842,-274.418 225.667,-279.715 236.143,-281.296 234.842,-274.418"/>
</g>
<!-- Node4&#45;&gt;Node1 -->
<g id="edge3" class="edge"><title>Node4&#45;&gt;Node1</title>
<path fill="none" stroke="midnightblue" d="M441.069,-277.989C467.892,-273.379 505.789,-266.837 539,-261 548.921,-259.256 559.499,-257.381 569.684,-255.566"/>
<polygon fill="midnightblue" stroke="midnightblue" points="440.273,-274.575 431.01,-279.717 441.458,-281.474 440.273,-274.575"/>
</g>
<!-- Node5 -->
<g id="node5" class="node"><title>Node5</title>
<g id="a_node5"><a xlink:href="interface_corale_1_1_colore_1_1_logging_1_1_i_log.html" target="_top" xlink:title="Describes a logger. ">
<polygon fill="white" stroke="black" points="338.5,-198.5 338.5,-217.5 471.5,-217.5 471.5,-198.5 338.5,-198.5"/>
<text text-anchor="middle" x="405" y="-205.5" font-family="Helvetica,sans-Serif" font-size="10.00">Corale.Colore.Logging.ILog</text>
</a>
</g>
</g>
<!-- Node5&#45;&gt;Node1 -->
<g id="edge5" class="edge"><title>Node5&#45;&gt;Node1</title>
<path fill="none" stroke="#9a32cd" stroke-dasharray="5,2" d="M471.365,-219.23C492.908,-222.951 516.984,-227.131 539,-231 548.921,-232.744 559.499,-234.619 569.684,-236.434"/>
<polygon fill="#9a32cd" stroke="#9a32cd" points="471.788,-215.752 461.338,-217.5 470.597,-222.65 471.788,-215.752"/>
<text text-anchor="middle" x="516" y="-234" font-family="Helvetica,sans-Serif" font-size="10.00"> Log</text>
</g>
<!-- Node6&#45;&gt;Node1 -->
<g id="edge6" class="edge"><title>Node6&#45;&gt;Node1</title>
<path fill="none" stroke="#9a32cd" stroke-dasharray="5,2" d="M483.863,-246C507.763,-246 533.823,-246 556.861,-246"/>
<polygon fill="#9a32cd" stroke="#9a32cd" points="483.768,-242.5 473.768,-246 483.768,-249.5 483.768,-242.5"/>
<text text-anchor="middle" x="516" y="-249" font-family="Helvetica,sans-Serif" font-size="10.00"> _instance</text>
</g>
<!-- Node7 -->
<g id="node7" class="node"><title>Node7</title>
<g id="a_node7"><a xlink:href="struct_corale_1_1_colore_1_1_razer_1_1_effects_1_1_custom.html" target="_top" xlink:title="Describes a custom effect for a system device. ">
<polygon fill="white" stroke="black" points="335,-149 335,-179 475,-179 475,-149 335,-149"/>
<text text-anchor="start" x="343" y="-167" font-family="Helvetica,sans-Serif" font-size="10.00">Corale.Colore.Razer.Effects.</text>
<text text-anchor="middle" x="405" y="-156" font-family="Helvetica,sans-Serif" font-size="10.00">Custom</text>
</a>
</g>
</g>
<!-- Node7&#45;&gt;Node1 -->
<g id="edge8" class="edge"><title>Node7&#45;&gt;Node1</title>
<path fill="none" stroke="#9a32cd" stroke-dasharray="5,2" d="M465.401,-182.174C488.562,-189.643 515.211,-198.714 539,-208 561.366,-216.73 586.361,-228.276 603.225,-236.341"/>
<polygon fill="#9a32cd" stroke="#9a32cd" points="466.298,-178.786 455.707,-179.074 464.166,-185.453 466.298,-178.786"/>
<text text-anchor="middle" x="516" y="-211" font-family="Helvetica,sans-Serif" font-size="10.00"> _custom</text>
</g>
<!-- Node8 -->
<g id="node8" class="node"><title>Node8</title>
<polygon fill="white" stroke="#bfbfbf" points="145,-196.5 145,-215.5 259,-215.5 259,-196.5 145,-196.5"/>
<text text-anchor="middle" x="202" y="-203.5" font-family="Helvetica,sans-Serif" font-size="10.00">IEquatable&lt; Custom &gt;</text>
</g>
<!-- Node8&#45;&gt;Node7 -->
<g id="edge9" class="edge"><title>Node8&#45;&gt;Node7</title>
<path fill="none" stroke="midnightblue" d="M258.463,-194.411C282.102,-189.471 309.931,-183.656 334.889,-178.441"/>
<polygon fill="midnightblue" stroke="midnightblue" points="257.683,-190.998 248.61,-196.47 259.115,-197.85 257.683,-190.998"/>
</g>
<!-- Node9 -->
<g id="node9" class="node"><title>Node9</title>
<g id="a_node9"><a xlink:href="struct_corale_1_1_colore_1_1_core_1_1_color.html" target="_top" xlink:title="Represents an RGB color. ">
<polygon fill="white" stroke="black" points="140,-19.5 140,-38.5 264,-38.5 264,-19.5 140,-19.5"/>
<text text-anchor="middle" x="202" y="-26.5" font-family="Helvetica,sans-Serif" font-size="10.00">Corale.Colore.Core.Color</text>
</a>
</g>
</g>
<!-- Node9&#45;&gt;Node7 -->
<g id="edge10" class="edge"><title>Node9&#45;&gt;Node7</title>
<path fill="none" stroke="#9a32cd" stroke-dasharray="5,2" d="M226.013,-44.4563C264.92,-70.5879 343.209,-123.17 381.658,-148.994"/>
<polygon fill="#9a32cd" stroke="#9a32cd" points="227.708,-41.379 217.455,-38.7089 223.805,-47.19 227.708,-41.379"/>
<text text-anchor="middle" x="299.5" y="-108" font-family="Helvetica,sans-Serif" font-size="10.00"> _colors</text>
</g>
<!-- Node9&#45;&gt;Node9 -->
<g id="edge13" class="edge"><title>Node9&#45;&gt;Node9</title>
<path fill="none" stroke="#9a32cd" stroke-dasharray="5,2" d="M187.268,-48.7663C188.425,-53.4965 193.335,-57 202,-57 216.219,-57 220.329,-47.5653 214.33,-38.7571"/>
<polygon fill="#9a32cd" stroke="#9a32cd" points="190.739,-49.2978 189.67,-38.7571 183.933,-47.6641 190.739,-49.2978"/>
<text text-anchor="middle" x="202" y="-170" font-family="Helvetica,sans-Serif" font-size="10.00"> Yellow</text>
<text text-anchor="middle" x="202" y="-159" font-family="Helvetica,sans-Serif" font-size="10.00">White</text>
<text text-anchor="middle" x="202" y="-148" font-family="Helvetica,sans-Serif" font-size="10.00">Pink</text>
<text text-anchor="middle" x="202" y="-137" font-family="Helvetica,sans-Serif" font-size="10.00">HotPink</text>
<text text-anchor="middle" x="202" y="-126" font-family="Helvetica,sans-Serif" font-size="10.00">Blue</text>
<text text-anchor="middle" x="202" y="-115" font-family="Helvetica,sans-Serif" font-size="10.00">Purple</text>
<text text-anchor="middle" x="202" y="-104" font-family="Helvetica,sans-Serif" font-size="10.00">Orange</text>
<text text-anchor="middle" x="202" y="-93" font-family="Helvetica,sans-Serif" font-size="10.00">Black</text>
<text text-anchor="middle" x="202" y="-82" font-family="Helvetica,sans-Serif" font-size="10.00">Red</text>
<text text-anchor="middle" x="202" y="-71" font-family="Helvetica,sans-Serif" font-size="10.00">Green</text>
<text text-anchor="middle" x="202" y="-60" font-family="Helvetica,sans-Serif" font-size="10.00">...</text>
</g>
<!-- Node10 -->
<g id="node10" class="node"><title>Node10</title>
<polygon fill="white" stroke="#bfbfbf" points="0,-38.5 0,-57.5 103,-57.5 103,-38.5 0,-38.5"/>
<text text-anchor="middle" x="51.5" y="-45.5" font-family="Helvetica,sans-Serif" font-size="10.00">IEquatable&lt; Color &gt;</text>
</g>
<!-- Node10&#45;&gt;Node9 -->
<g id="edge11" class="edge"><title>Node10&#45;&gt;Node9</title>
<path fill="none" stroke="midnightblue" d="M113.294,-40.2217C122.027,-39.1043 131.017,-37.9541 139.759,-36.8356"/>
<polygon fill="midnightblue" stroke="midnightblue" points="112.665,-36.7735 103.19,-41.5144 113.553,-43.7169 112.665,-36.7735"/>
</g>
<!-- Node11 -->
<g id="node11" class="node"><title>Node11</title>
<polygon fill="white" stroke="#bfbfbf" points="3.5,-0.5 3.5,-19.5 99.5,-19.5 99.5,-0.5 3.5,-0.5"/>
<text text-anchor="middle" x="51.5" y="-7.5" font-family="Helvetica,sans-Serif" font-size="10.00">IEquatable&lt; uint &gt;</text>
</g>
<!-- Node11&#45;&gt;Node9 -->
<g id="edge12" class="edge"><title>Node11&#45;&gt;Node9</title>
<path fill="none" stroke="midnightblue" d="M109.954,-17.351C119.781,-18.6083 130.022,-19.9186 139.938,-21.1874"/>
<polygon fill="midnightblue" stroke="midnightblue" points="110.258,-13.8615 99.8946,-16.064 109.37,-20.8049 110.258,-13.8615"/>
</g>
</g>
</svg>
