<?xml version="1.0" encoding="UTF-8" standalone="no"?>
<!DOCTYPE svg PUBLIC "-//W3C//DTD SVG 1.1//EN"
 "http://www.w3.org/Graphics/SVG/1.1/DTD/svg11.dtd">
<!-- Generated by graphviz version 2.38.0 (20140413.2041)
 -->
<!-- Title: Corale.Colore.Core.ChromaLink Pages: 1 -->
<!--zoomable 382 -->
<svg id="main" version="1.1" xmlns="http://www.w3.org/2000/svg" xmlns:xlink="http://www.w3.org/1999/xlink" xml:space="preserve" onload="init(evt)">
<style type="text/css"><![CDATA[
.edge:hover path { stroke: red; }
.edge:hover polygon { stroke: red; fill: red; }
]]></style>
<script type="text/javascript"><![CDATA[
var edges = document.getElementsByTagName('g');
if (edges && edges.length) {
  for (var i=0;i<edges.length;i++) {
    if (edges[i].id.substr(0,4)=='edge') {
      edges[i].setAttribute('class','edge');
    }
  }
}
]]></script>
        <defs>
                <circle id="rim" cx="0" cy="0" r="7"/>
                <circle id="rim2" cx="0" cy="0" r="3.5"/>
                <g id="zoomPlus">
                        <use xlink:href="#rim" fill="#404040">
                                <set attributeName="fill" to="#808080" begin="zoomplus.mouseover" end="zoomplus.mouseout"/>
                        </use>
                        <path d="M-4,0h8M0,-4v8" fill="none" stroke="white" stroke-width="1.5" pointer-events="none"/>
                </g>
                <g id="zoomMin">
                        <use xlink:href="#rim" fill="#404040">
                                <set attributeName="fill" to="#808080" begin="zoomminus.mouseover" end="zoomminus.mouseout"/>
                        </use>
                        <path d="M-4,0h8" fill="none" stroke="white" stroke-width="1.5" pointer-events="none"/>
                </g>
                <g id="dirArrow">
                        <path fill="none" stroke="white" stroke-width="1.5" d="M0,-3.0v7 M-2.5,-0.5L0,-3.0L2.5,-0.5"/>
                </g>
               <g id="resetDef">
                       <use xlink:href="#rim2" fill="#404040">
                               <set attributeName="fill" to="#808080" begin="reset.mouseover" end="reset.mouseout"/>
                       </use>
               </g>
        </defs>

<script type="text/javascript">
var viewWidth = 733;
var viewHeight = 382;
var sectionId = 'dynsection-1';
</script>
<script xlink:href="svgpan.js"/>
<svg id="graph" class="graph">
<g id="viewport">
<title>Corale.Colore.Core.ChromaLink</title>
<polygon fill="white" stroke="none" points="-4,4 -4,-378 729,-378 729,4 -4,4"/>
<!-- Node4 -->
<g id="node1" class="node"><title>Node4</title>
<polygon fill="#bfbfbf" stroke="black" points="572,-278.5 572,-297.5 725,-297.5 725,-278.5 572,-278.5"/>
<text text-anchor="middle" x="648.5" y="-285.5" font-family="Helvetica,sans-Serif" font-size="10.00">Corale.Colore.Core.ChromaLink</text>
</g>
<!-- Node5 -->
<g id="node2" class="node"><title>Node5</title>
<g id="a_node2"><a xlink:href="class_corale_1_1_colore_1_1_core_1_1_device.html" target="_top" xlink:title="Base class for devices, containing code common between all devices. ">
<polygon fill="white" stroke="black" points="390,-354.5 390,-373.5 435,-373.5 435,-354.5 390,-354.5"/>
<text text-anchor="middle" x="412.5" y="-361.5" font-family="Helvetica,sans-Serif" font-size="10.00">Device</text>
</a>
</g>
</g>
<!-- Node5&#45;&gt;Node4 -->
<g id="edge1" class="edge"><title>Node5&#45;&gt;Node4</title>
<path fill="none" stroke="midnightblue" d="M445.129,-356.924C458.99,-353.623 475.394,-349.444 490,-345 537.99,-330.4 592.818,-309.595 623.479,-297.577"/>
<polygon fill="midnightblue" stroke="midnightblue" points="444.039,-353.584 435.097,-359.267 445.631,-360.401 444.039,-353.584"/>
</g>
<!-- Node6 -->
<g id="node3" class="node"><title>Node6</title>
<g id="a_node3"><a xlink:href="interface_corale_1_1_colore_1_1_core_1_1_i_device.html" target="_top" xlink:title="Interface for functionality common with all devices. ">
<polygon fill="white" stroke="black" points="178.5,-316.5 178.5,-335.5 225.5,-335.5 225.5,-316.5 178.5,-316.5"/>
<text text-anchor="middle" x="202" y="-323.5" font-family="Helvetica,sans-Serif" font-size="10.00">IDevice</text>
</a>
</g>
</g>
<!-- Node6&#45;&gt;Node5 -->
<g id="edge2" class="edge"><title>Node6&#45;&gt;Node5</title>
<path fill="none" stroke="midnightblue" d="M235.666,-331.953C278.66,-339.789 353.068,-353.351 389.759,-360.038"/>
<polygon fill="midnightblue" stroke="midnightblue" points="236.176,-328.489 225.71,-330.139 234.92,-335.375 236.176,-328.489"/>
</g>
<!-- Node7 -->
<g id="node4" class="node"><title>Node7</title>
<g id="a_node4"><a xlink:href="interface_corale_1_1_colore_1_1_core_1_1_i_chroma_link.html" target="_top" xlink:title="Interface for Chroma Link functionality. ">
<polygon fill="white" stroke="black" points="377,-316.5 377,-335.5 448,-335.5 448,-316.5 377,-316.5"/>
<text text-anchor="middle" x="412.5" y="-323.5" font-family="Helvetica,sans-Serif" font-size="10.00">IChromaLink</text>
</a>
</g>
</g>
<!-- Node6&#45;&gt;Node7 -->
<g id="edge4" class="edge"><title>Node6&#45;&gt;Node7</title>
<path fill="none" stroke="midnightblue" d="M235.839,-326C274.233,-326 337.507,-326 376.718,-326"/>
<polygon fill="midnightblue" stroke="midnightblue" points="235.71,-322.5 225.71,-326 235.71,-329.5 235.71,-322.5"/>
</g>
<!-- Node15 -->
<g id="node12" class="node"><title>Node15</title>
<g id="a_node12"><a xlink:href="interface_corale_1_1_colore_1_1_core_1_1_i_chroma_link.html" target="_top" xlink:title="Interface for Chroma Link functionality. ">
<polygon fill="white" stroke="black" points="335,-278.5 335,-297.5 490,-297.5 490,-278.5 335,-278.5"/>
<text text-anchor="middle" x="412.5" y="-285.5" font-family="Helvetica,sans-Serif" font-size="10.00">Corale.Colore.Core.IChromaLink</text>
</a>
</g>
</g>
<!-- Node6&#45;&gt;Node15 -->
<g id="edge14" class="edge"><title>Node6&#45;&gt;Node15</title>
<path fill="none" stroke="midnightblue" d="M235.746,-320.032C268.78,-314.011 320.298,-304.622 359.033,-297.562"/>
<polygon fill="midnightblue" stroke="midnightblue" points="234.92,-316.625 225.71,-321.861 236.176,-323.511 234.92,-316.625"/>
</g>
<!-- Node7&#45;&gt;Node4 -->
<g id="edge3" class="edge"><title>Node7&#45;&gt;Node4</title>
<path fill="none" stroke="midnightblue" d="M458.037,-318.767C495.117,-312.746 548.214,-304.123 588.768,-297.538"/>
<polygon fill="midnightblue" stroke="midnightblue" points="457.337,-315.335 448.028,-320.393 458.459,-322.245 457.337,-315.335"/>
</g>
<!-- Node8 -->
<g id="node5" class="node"><title>Node8</title>
<g id="a_node5"><a xlink:href="interface_corale_1_1_colore_1_1_logging_1_1_i_log.html" target="_top" xlink:title="Describes a logger. ">
<polygon fill="white" stroke="black" points="346,-240.5 346,-259.5 479,-259.5 479,-240.5 346,-240.5"/>
<text text-anchor="middle" x="412.5" y="-247.5" font-family="Helvetica,sans-Serif" font-size="10.00">Corale.Colore.Logging.ILog</text>
</a>
</g>
</g>
<!-- Node8&#45;&gt;Node4 -->
<g id="edge5" class="edge"><title>Node8&#45;&gt;Node4</title>
<path fill="none" stroke="#9a32cd" stroke-dasharray="5,2" d="M482.499,-261.205C516.254,-266.687 556.458,-273.215 588.73,-278.456"/>
<polygon fill="#9a32cd" stroke="#9a32cd" points="482.678,-257.688 472.246,-259.54 481.556,-264.598 482.678,-257.688"/>
<text text-anchor="middle" x="531" y="-275" font-family="Helvetica,sans-Serif" font-size="10.00"> Log</text>
</g>
<!-- Node9 -->
<g id="node6" class="node"><title>Node9</title>
<g id="a_node6"><a xlink:href="struct_corale_1_1_colore_1_1_razer_1_1_chroma_link_1_1_effects_1_1_custom.html" target="_top" xlink:title="Custom effect. ">
<polygon fill="white" stroke="black" points="342.5,-191 342.5,-221 482.5,-221 482.5,-191 342.5,-191"/>
<text text-anchor="start" x="350.5" y="-209" font-family="Helvetica,sans-Serif" font-size="10.00">Corale.Colore.Razer.Chroma</text>
<text text-anchor="middle" x="412.5" y="-198" font-family="Helvetica,sans-Serif" font-size="10.00">Link.Effects.Custom</text>
</a>
</g>
</g>
<!-- Node9&#45;&gt;Node4 -->
<g id="edge6" class="edge"><title>Node9&#45;&gt;Node4</title>
<path fill="none" stroke="#9a32cd" stroke-dasharray="5,2" d="M474.848,-224.01C499.588,-231.584 528.303,-240.772 554,-250 578.736,-258.883 606.586,-270.402 625.407,-278.419"/>
<polygon fill="#9a32cd" stroke="#9a32cd" points="475.808,-220.644 465.223,-221.082 473.772,-227.341 475.808,-220.644"/>
<text text-anchor="middle" x="531" y="-253" font-family="Helvetica,sans-Serif" font-size="10.00"> _custom</text>
</g>
<!-- Node10 -->
<g id="node7" class="node"><title>Node10</title>
<polygon fill="white" stroke="#bfbfbf" points="145,-234.5 145,-253.5 259,-253.5 259,-234.5 145,-234.5"/>
<text text-anchor="middle" x="202" y="-241.5" font-family="Helvetica,sans-Serif" font-size="10.00">IEquatable&lt; Custom &gt;</text>
</g>
<!-- Node10&#45;&gt;Node9 -->
<g id="edge7" class="edge"><title>Node10&#45;&gt;Node9</title>
<path fill="none" stroke="midnightblue" d="M265.464,-232.616C289.634,-228.211 317.395,-223.151 342.178,-218.634"/>
<polygon fill="midnightblue" stroke="midnightblue" points="264.555,-229.224 255.344,-234.46 265.81,-236.11 264.555,-229.224"/>
</g>
<!-- Node11 -->
<g id="node8" class="node"><title>Node11</title>
<polygon fill="white" stroke="#bfbfbf" points="149,-196.5 149,-215.5 255,-215.5 255,-196.5 149,-196.5"/>
<text text-anchor="middle" x="202" y="-203.5" font-family="Helvetica,sans-Serif" font-size="10.00">IEquatable&lt; Color[]&gt;</text>
</g>
<!-- Node11&#45;&gt;Node9 -->
<g id="edge8" class="edge"><title>Node11&#45;&gt;Node9</title>
<path fill="none" stroke="midnightblue" d="M265.244,-206C289.538,-206 317.487,-206 342.402,-206"/>
<polygon fill="midnightblue" stroke="midnightblue" points="265.076,-202.5 255.076,-206 265.075,-209.5 265.076,-202.5"/>
</g>
<!-- Node12 -->
<g id="node9" class="node"><title>Node12</title>
<g id="a_node9"><a xlink:href="struct_corale_1_1_colore_1_1_core_1_1_color.html" target="_top" xlink:title="Represents an RGB color. ">
<polygon fill="white" stroke="black" points="140,-19.5 140,-38.5 264,-38.5 264,-19.5 140,-19.5"/>
<text text-anchor="middle" x="202" y="-26.5" font-family="Helvetica,sans-Serif" font-size="10.00">Corale.Colore.Core.Color</text>
</a>
</g>
</g>
<!-- Node12&#45;&gt;Node9 -->
<g id="edge9" class="edge"><title>Node12&#45;&gt;Node9</title>
<path fill="none" stroke="#9a32cd" stroke-dasharray="5,2" d="M221.912,-45.055C261.942,-79.0368 354.747,-157.821 393.74,-190.923"/>
<polygon fill="#9a32cd" stroke="#9a32cd" points="224.098,-42.3198 214.21,-38.5163 219.568,-47.6562 224.098,-42.3198"/>
<text text-anchor="middle" x="299.5" y="-126" font-family="Helvetica,sans-Serif" font-size="10.00"> _colors</text>
</g>
<!-- Node12&#45;&gt;Node12 -->
<g id="edge12" class="edge"><title>Node12&#45;&gt;Node12</title>
<path fill="none" stroke="#9a32cd" stroke-dasharray="5,2" d="M187.268,-48.7663C188.425,-53.4965 193.335,-57 202,-57 216.219,-57 220.329,-47.5653 214.33,-38.7571"/>
<polygon fill="#9a32cd" stroke="#9a32cd" points="190.739,-49.2978 189.67,-38.7571 183.933,-47.6641 190.739,-49.2978"/>
<text text-anchor="middle" x="202" y="-170" font-family="Helvetica,sans-Serif" font-size="10.00"> Yellow</text>
<text text-anchor="middle" x="202" y="-159" font-family="Helvetica,sans-Serif" font-size="10.00">White</text>
<text text-anchor="middle" x="202" y="-148" font-family="Helvetica,sans-Serif" font-size="10.00">Pink</text>
<text text-anchor="middle" x="202" y="-137" font-family="Helvetica,sans-Serif" font-size="10.00">HotPink</text>
<text text-anchor="middle" x="202" y="-126" font-family="Helvetica,sans-Serif" font-size="10.00">Blue</text>
<text text-anchor="middle" x="202" y="-115" font-family="Helvetica,sans-Serif" font-size="10.00">Purple</text>
<text text-anchor="middle" x="202" y="-104" font-family="Helvetica,sans-Serif" font-size="10.00">Orange</text>
<text text-anchor="middle" x="202" y="-93" font-family="Helvetica,sans-Serif" font-size="10.00">Black</text>
<text text-anchor="middle" x="202" y="-82" font-family="Helvetica,sans-Serif" font-size="10.00">Red</text>
<text text-anchor="middle" x="202" y="-71" font-family="Helvetica,sans-Serif" font-size="10.00">Green</text>
<text text-anchor="middle" x="202" y="-60" font-family="Helvetica,sans-Serif" font-size="10.00">...</text>
</g>
<!-- Node13 -->
<g id="node10" class="node"><title>Node13</title>
<polygon fill="white" stroke="#bfbfbf" points="0,-38.5 0,-57.5 103,-57.5 103,-38.5 0,-38.5"/>
<text text-anchor="middle" x="51.5" y="-45.5" font-family="Helvetica,sans-Serif" font-size="10.00">IEquatable&lt; Color &gt;</text>
</g>
<!-- Node13&#45;&gt;Node12 -->
<g id="edge10" class="edge"><title>Node13&#45;&gt;Node12</title>
<path fill="none" stroke="midnightblue" d="M113.294,-40.2217C122.027,-39.1043 131.017,-37.9541 139.759,-36.8356"/>
<polygon fill="midnightblue" stroke="midnightblue" points="112.665,-36.7735 103.19,-41.5144 113.553,-43.7169 112.665,-36.7735"/>
</g>
<!-- Node14 -->
<g id="node11" class="node"><title>Node14</title>
<polygon fill="white" stroke="#bfbfbf" points="3.5,-0.5 3.5,-19.5 99.5,-19.5 99.5,-0.5 3.5,-0.5"/>
<text text-anchor="middle" x="51.5" y="-7.5" font-family="Helvetica,sans-Serif" font-size="10.00">IEquatable&lt; uint &gt;</text>
</g>
<!-- Node14&#45;&gt;Node12 -->
<g id="edge11" class="edge"><title>Node14&#45;&gt;Node12</title>
<path fill="none" stroke="midnightblue" d="M109.954,-17.351C119.781,-18.6083 130.022,-19.9186 139.938,-21.1874"/>
<polygon fill="midnightblue" stroke="midnightblue" points="110.258,-13.8615 99.8946,-16.064 109.37,-20.8049 110.258,-13.8615"/>
</g>
<!-- Node15&#45;&gt;Node4 -->
<g id="edge13" class="edge"><title>Node15&#45;&gt;Node4</title>
<path fill="none" stroke="#9a32cd" stroke-dasharray="5,2" d="M500.416,-288C523.893,-288 549.104,-288 571.906,-288"/>
<polygon fill="#9a32cd" stroke="#9a32cd" points="500.12,-284.5 490.12,-288 500.12,-291.5 500.12,-284.5"/>
<text text-anchor="middle" x="531" y="-291" font-family="Helvetica,sans-Serif" font-size="10.00"> _instance</text>
</g>
</g>
</svg>
        <g id="navigator" transform="translate(0 0)" fill="#404254">
                <rect fill="#f2f5e9" fill-opacity="0.5" stroke="#606060" stroke-width=".5" x="0" y="0" width="60" height="60"/>
                <use id="zoomplus" xlink:href="#zoomPlus" x="17" y="9" onmousedown="handleZoom(evt,'in')"/>
                <use id="zoomminus" xlink:href="#zoomMin" x="42" y="9" onmousedown="handleZoom(evt,'out')"/>
                <use id="reset" xlink:href="#resetDef" x="30" y="36" onmousedown="handleReset()"/>
                <g id="arrowUp" xlink:href="#dirArrow" transform="translate(30 24)" onmousedown="handlePan(0,-1)">
                  <use xlink:href="#rim" fill="#404040">
                        <set attributeName="fill" to="#808080" begin="arrowUp.mouseover" end="arrowUp.mouseout"/>
                  </use>
                  <path fill="none" stroke="white" stroke-width="1.5" d="M0,-3.0v7 M-2.5,-0.5L0,-3.0L2.5,-0.5"/>
                </g>
                <g id="arrowRight" xlink:href="#dirArrow" transform="rotate(90) translate(36 -43)" onmousedown="handlePan(1,0)">
                  <use xlink:href="#rim" fill="#404040">
                        <set attributeName="fill" to="#808080" begin="arrowRight.mouseover" end="arrowRight.mouseout"/>
                  </use>
                  <path fill="none" stroke="white" stroke-width="1.5" d="M0,-3.0v7 M-2.5,-0.5L0,-3.0L2.5,-0.5"/>
                </g>
                <g id="arrowDown" xlink:href="#dirArrow" transform="rotate(180) translate(-30 -48)" onmousedown="handlePan(0,1)">
                  <use xlink:href="#rim" fill="#404040">
                        <set attributeName="fill" to="#808080" begin="arrowDown.mouseover" end="arrowDown.mouseout"/>
                  </use>
                  <path fill="none" stroke="white" stroke-width="1.5" d="M0,-3.0v7 M-2.5,-0.5L0,-3.0L2.5,-0.5"/>
                </g>
                <g id="arrowLeft" xlink:href="#dirArrow" transform="rotate(270) translate(-36 17)" onmousedown="handlePan(-1,0)">
                  <use xlink:href="#rim" fill="#404040">
                        <set attributeName="fill" to="#808080" begin="arrowLeft.mouseover" end="arrowLeft.mouseout"/>
                  </use>
                  <path fill="none" stroke="white" stroke-width="1.5" d="M0,-3.0v7 M-2.5,-0.5L0,-3.0L2.5,-0.5"/>
                </g>
        </g>
        <svg viewBox="0 0 15 15" width="100%" height="30px" preserveAspectRatio="xMaxYMin meet">
         <g id="arrow_out" transform="scale(0.3 0.3)">
          <a xlink:href="class_corale_1_1_colore_1_1_core_1_1_chroma_link__coll__graph_org.svg" target="_base">
           <rect id="button" ry="5" rx="5" y="6" x="6" height="38" width="38"
                fill="#f2f5e9" fill-opacity="0.5" stroke="#606060" stroke-width="1.0"/>
           <path id="arrow"
             d="M 11.500037,31.436501 C 11.940474,20.09759 22.043105,11.32322 32.158766,21.979434 L 37.068811,17.246167 C 37.068811,17.246167 37.088388,32 37.088388,32 L 22.160133,31.978069 C 22.160133,31.978069 26.997745,27.140456 26.997745,27.140456 C 18.528582,18.264221 13.291696,25.230495 11.500037,31.436501 z"
             style="fill:#404040;"/>
          </a>
         </g>
        </svg>
</svg>
