<?xml version="1.0" encoding="UTF-8" standalone="no"?>
<!DOCTYPE svg PUBLIC "-//W3C//DTD SVG 1.1//EN"
 "http://www.w3.org/Graphics/SVG/1.1/DTD/svg11.dtd">
<!-- Generated by graphviz version 2.38.0 (20140413.2041)
 -->
<!-- Title: Corale.Colore.Core.Mouse Pages: 1 -->
<svg width="271pt" height="152pt"
 viewBox="0.00 0.00 271.00 152.00" xmlns="http://www.w3.org/2000/svg" xmlns:xlink="http://www.w3.org/1999/xlink">
<g id="graph0" class="graph" transform="scale(1 1) rotate(0) translate(4 148)">
<title>Corale.Colore.Core.Mouse</title>
<polygon fill="white" stroke="none" points="-4,4 -4,-148 267,-148 267,4 -4,4"/>
<!-- Node1 -->
<g id="node1" class="node"><title>Node1</title>
<polygon fill="#bfbfbf" stroke="black" points="22,-0.5 22,-19.5 153,-19.5 153,-0.5 22,-0.5"/>
<text text-anchor="middle" x="87.5" y="-7.5" font-family="Helvetica,sans-Serif" font-size="10.00">Corale.Colore.Core.Mouse</text>
</g>
<!-- Node2 -->
<g id="node2" class="node"><title>Node2</title>
<g id="a_node2"><a xlink:href="class_corale_1_1_colore_1_1_core_1_1_device.html" target="_top" xlink:title="Base class for devices, containing code common between all devices. ">
<polygon fill="white" stroke="black" points="0,-67.5 0,-86.5 45,-86.5 45,-67.5 0,-67.5"/>
<text text-anchor="middle" x="22.5" y="-74.5" font-family="Helvetica,sans-Serif" font-size="10.00">Device</text>
</a>
</g>
</g>
<!-- Node2&#45;&gt;Node1 -->
<g id="edge1" class="edge"><title>Node2&#45;&gt;Node1</title>
<path fill="none" stroke="midnightblue" d="M38.5032,-59.9968C51.2504,-47.2496 68.6053,-29.8947 78.8727,-19.6273"/>
<polygon fill="midnightblue" stroke="midnightblue" points="35.8624,-57.6878 31.2662,-67.2338 40.8122,-62.6376 35.8624,-57.6878"/>
</g>
<!-- Node3 -->
<g id="node3" class="node"><title>Node3</title>
<g id="a_node3"><a xlink:href="interface_corale_1_1_colore_1_1_core_1_1_i_device.html" target="_top" xlink:title="Interface for functionality common with all devices. ">
<polygon fill="white" stroke="black" points="64,-124.5 64,-143.5 111,-143.5 111,-124.5 64,-124.5"/>
<text text-anchor="middle" x="87.5" y="-131.5" font-family="Helvetica,sans-Serif" font-size="10.00">IDevice</text>
</a>
</g>
</g>
<!-- Node3&#45;&gt;Node2 -->
<g id="edge2" class="edge"><title>Node3&#45;&gt;Node2</title>
<path fill="none" stroke="midnightblue" d="M69.4276,-117.708C57.6178,-107.715 42.6189,-95.0237 32.7994,-86.7149"/>
<polygon fill="midnightblue" stroke="midnightblue" points="67.4491,-120.619 77.3438,-124.406 71.9707,-115.275 67.4491,-120.619"/>
</g>
<!-- Node4 -->
<g id="node4" class="node"><title>Node4</title>
<g id="a_node4"><a xlink:href="interface_corale_1_1_colore_1_1_core_1_1_i_mouse.html" target="_top" xlink:title="Interface for mouse functionality. ">
<polygon fill="white" stroke="black" points="63.5,-67.5 63.5,-86.5 111.5,-86.5 111.5,-67.5 63.5,-67.5"/>
<text text-anchor="middle" x="87.5" y="-74.5" font-family="Helvetica,sans-Serif" font-size="10.00">IMouse</text>
</a>
</g>
</g>
<!-- Node3&#45;&gt;Node4 -->
<g id="edge4" class="edge"><title>Node3&#45;&gt;Node4</title>
<path fill="none" stroke="midnightblue" d="M81.0763,-114.423C80.368,-105.054 80.813,-94.1364 82.4112,-86.7149"/>
<polygon fill="midnightblue" stroke="midnightblue" points="77.6185,-114.971 82.4375,-124.406 84.5543,-114.025 77.6185,-114.971"/>
</g>
<!-- Node3&#45;&gt;Node4 -->
<g id="edge5" class="edge"><title>Node3&#45;&gt;Node4</title>
<path fill="none" stroke="midnightblue" d="M93.9237,-114.423C94.632,-105.054 94.187,-94.1364 92.5888,-86.7149"/>
<polygon fill="midnightblue" stroke="midnightblue" points="90.4457,-114.025 92.5625,-124.406 97.3815,-114.971 90.4457,-114.025"/>
</g>
<!-- Node5 -->
<g id="node5" class="node"><title>Node5</title>
<g id="a_node5"><a xlink:href="interface_corale_1_1_colore_1_1_core_1_1_i_mouse.html" target="_top" xlink:title="Interface for mouse functionality. ">
<polygon fill="white" stroke="black" points="130,-67.5 130,-86.5 263,-86.5 263,-67.5 130,-67.5"/>
<text text-anchor="middle" x="196.5" y="-74.5" font-family="Helvetica,sans-Serif" font-size="10.00">Corale.Colore.Core.IMouse</text>
</a>
</g>
</g>
<!-- Node3&#45;&gt;Node5 -->
<g id="edge7" class="edge"><title>Node3&#45;&gt;Node5</title>
<path fill="none" stroke="midnightblue" d="M108.286,-119.535C127.327,-109.236 155.131,-95.3496 174.539,-86.5334"/>
<polygon fill="midnightblue" stroke="midnightblue" points="106.53,-116.507 99.4688,-124.406 109.914,-122.634 106.53,-116.507"/>
</g>
<!-- Node3&#45;&gt;Node5 -->
<g id="edge8" class="edge"><title>Node3&#45;&gt;Node5</title>
<path fill="none" stroke="midnightblue" d="M118.895,-120.096C140.864,-109.745 168.818,-95.5106 184.638,-86.5334"/>
<polygon fill="midnightblue" stroke="midnightblue" points="117.195,-117.026 109.594,-124.406 120.139,-123.377 117.195,-117.026"/>
</g>
<!-- Node4&#45;&gt;Node1 -->
<g id="edge3" class="edge"><title>Node4&#45;&gt;Node1</title>
<path fill="none" stroke="midnightblue" d="M87.5,-57.037C87.5,-44.6703 87.5,-29.1198 87.5,-19.6273"/>
<polygon fill="midnightblue" stroke="midnightblue" points="84.0001,-57.2338 87.5,-67.2338 91.0001,-57.2338 84.0001,-57.2338"/>
</g>
<!-- Node5&#45;&gt;Node1 -->
<g id="edge6" class="edge"><title>Node5&#45;&gt;Node1</title>
<path fill="none" stroke="#9a32cd" stroke-dasharray="5,2" d="M172.926,-61.9422C151.34,-49.0696 120.078,-30.4274 101.967,-19.6273"/>
<polygon fill="#9a32cd" stroke="#9a32cd" points="171.418,-65.1181 181.8,-67.2338 175.004,-59.1059 171.418,-65.1181"/>
<text text-anchor="middle" x="172.5" y="-41" font-family="Helvetica,sans-Serif" font-size="10.00"> _instance</text>
</g>
</g>
</svg>
