<?xml version="1.0" encoding="UTF-8" standalone="no"?>
<!DOCTYPE svg PUBLIC "-//W3C//DTD SVG 1.1//EN"
 "http://www.w3.org/Graphics/SVG/1.1/DTD/svg11.dtd">
<!-- Generated by graphviz version 2.38.0 (20140413.2041)
 -->
<!-- Title: Corale.Colore.Core.Keypad Pages: 1 -->
<!--zoomable 382 -->
<svg id="main" version="1.1" xmlns="http://www.w3.org/2000/svg" xmlns:xlink="http://www.w3.org/1999/xlink" xml:space="preserve" onload="init(evt)">
<style type="text/css"><![CDATA[
.edge:hover path { stroke: red; }
.edge:hover polygon { stroke: red; fill: red; }
]]></style>
<script type="text/javascript"><![CDATA[
var edges = document.getElementsByTagName('g');
if (edges && edges.length) {
  for (var i=0;i<edges.length;i++) {
    if (edges[i].id.substr(0,4)=='edge') {
      edges[i].setAttribute('class','edge');
    }
  }
}
]]></script>
        <defs>
                <circle id="rim" cx="0" cy="0" r="7"/>
                <circle id="rim2" cx="0" cy="0" r="3.5"/>
                <g id="zoomPlus">
                        <use xlink:href="#rim" fill="#404040">
                                <set attributeName="fill" to="#808080" begin="zoomplus.mouseover" end="zoomplus.mouseout"/>
                        </use>
                        <path d="M-4,0h8M0,-4v8" fill="none" stroke="white" stroke-width="1.5" pointer-events="none"/>
                </g>
                <g id="zoomMin">
                        <use xlink:href="#rim" fill="#404040">
                                <set attributeName="fill" to="#808080" begin="zoomminus.mouseover" end="zoomminus.mouseout"/>
                        </use>
                        <path d="M-4,0h8" fill="none" stroke="white" stroke-width="1.5" pointer-events="none"/>
                </g>
                <g id="dirArrow">
                        <path fill="none" stroke="white" stroke-width="1.5" d="M0,-3.0v7 M-2.5,-0.5L0,-3.0L2.5,-0.5"/>
                </g>
               <g id="resetDef">
                       <use xlink:href="#rim2" fill="#404040">
                               <set attributeName="fill" to="#808080" begin="reset.mouseover" end="reset.mouseout"/>
                       </use>
               </g>
        </defs>

<script type="text/javascript">
var viewWidth = 699;
var viewHeight = 382;
var sectionId = 'dynsection-1';
</script>
<script xlink:href="svgpan.js"/>
<svg id="graph" class="graph">
<g id="viewport">
<title>Corale.Colore.Core.Keypad</title>
<polygon fill="white" stroke="none" points="-4,4 -4,-378 695,-378 695,4 -4,4"/>
<!-- Node4 -->
<g id="node1" class="node"><title>Node4</title>
<polygon fill="#bfbfbf" stroke="black" points="557,-278.5 557,-297.5 691,-297.5 691,-278.5 557,-278.5"/>
<text text-anchor="middle" x="624" y="-285.5" font-family="Helvetica,sans-Serif" font-size="10.00">Corale.Colore.Core.Keypad</text>
</g>
<!-- Node5 -->
<g id="node2" class="node"><title>Node5</title>
<g id="a_node2"><a xlink:href="class_corale_1_1_colore_1_1_core_1_1_device.html" target="_top" xlink:title="Base class for devices, containing code common between all devices. ">
<polygon fill="white" stroke="black" points="382.5,-354.5 382.5,-373.5 427.5,-373.5 427.5,-354.5 382.5,-354.5"/>
<text text-anchor="middle" x="405" y="-361.5" font-family="Helvetica,sans-Serif" font-size="10.00">Device</text>
</a>
</g>
</g>
<!-- Node5&#45;&gt;Node4 -->
<g id="edge1" class="edge"><title>Node5&#45;&gt;Node4</title>
<path fill="none" stroke="midnightblue" d="M437.499,-356.03C449.336,-352.851 462.86,-348.998 475,-345 519.982,-330.185 571.329,-309.547 600.182,-297.598"/>
<polygon fill="midnightblue" stroke="midnightblue" points="436.387,-352.703 427.609,-358.637 438.171,-359.472 436.387,-352.703"/>
</g>
<!-- Node6 -->
<g id="node3" class="node"><title>Node6</title>
<g id="a_node3"><a xlink:href="interface_corale_1_1_colore_1_1_core_1_1_i_device.html" target="_top" xlink:title="Interface for functionality common with all devices. ">
<polygon fill="white" stroke="black" points="178.5,-316.5 178.5,-335.5 225.5,-335.5 225.5,-316.5 178.5,-316.5"/>
<text text-anchor="middle" x="202" y="-323.5" font-family="Helvetica,sans-Serif" font-size="10.00">IDevice</text>
</a>
</g>
</g>
<!-- Node6&#45;&gt;Node5 -->
<g id="edge2" class="edge"><title>Node6&#45;&gt;Node5</title>
<path fill="none" stroke="midnightblue" d="M235.51,-332.146C276.827,-339.957 347.01,-353.226 382.331,-359.903"/>
<polygon fill="midnightblue" stroke="midnightblue" points="236.143,-328.704 225.667,-330.285 234.842,-335.582 236.143,-328.704"/>
</g>
<!-- Node7 -->
<g id="node4" class="node"><title>Node7</title>
<g id="a_node4"><a xlink:href="interface_corale_1_1_colore_1_1_core_1_1_i_keypad.html" target="_top" xlink:title="Interface for keypad functions. ">
<polygon fill="white" stroke="black" points="379,-316.5 379,-335.5 431,-335.5 431,-316.5 379,-316.5"/>
<text text-anchor="middle" x="405" y="-323.5" font-family="Helvetica,sans-Serif" font-size="10.00">IKeypad</text>
</a>
</g>
</g>
<!-- Node6&#45;&gt;Node7 -->
<g id="edge4" class="edge"><title>Node6&#45;&gt;Node7</title>
<path fill="none" stroke="midnightblue" d="M235.716,-326C275.759,-326 342.693,-326 378.903,-326"/>
<polygon fill="midnightblue" stroke="midnightblue" points="235.667,-322.5 225.667,-326 235.667,-329.5 235.667,-322.5"/>
</g>
<!-- Node15 -->
<g id="node12" class="node"><title>Node15</title>
<g id="a_node12"><a xlink:href="interface_corale_1_1_colore_1_1_core_1_1_i_keypad.html" target="_top" xlink:title="Interface for keypad functions. ">
<polygon fill="white" stroke="black" points="336.5,-278.5 336.5,-297.5 473.5,-297.5 473.5,-278.5 336.5,-278.5"/>
<text text-anchor="middle" x="405" y="-285.5" font-family="Helvetica,sans-Serif" font-size="10.00">Corale.Colore.Core.IKeypad</text>
</a>
</g>
</g>
<!-- Node6&#45;&gt;Node15 -->
<g id="edge14" class="edge"><title>Node6&#45;&gt;Node15</title>
<path fill="none" stroke="midnightblue" d="M235.787,-319.801C267.675,-313.773 316.567,-304.53 353.437,-297.559"/>
<polygon fill="midnightblue" stroke="midnightblue" points="234.842,-316.418 225.667,-321.715 236.143,-323.296 234.842,-316.418"/>
</g>
<!-- Node7&#45;&gt;Node4 -->
<g id="edge3" class="edge"><title>Node7&#45;&gt;Node4</title>
<path fill="none" stroke="midnightblue" d="M441.069,-319.989C467.892,-315.379 505.789,-308.837 539,-303 548.921,-301.256 559.499,-299.381 569.684,-297.566"/>
<polygon fill="midnightblue" stroke="midnightblue" points="440.273,-316.575 431.01,-321.717 441.458,-323.474 440.273,-316.575"/>
</g>
<!-- Node8 -->
<g id="node5" class="node"><title>Node8</title>
<g id="a_node5"><a xlink:href="interface_corale_1_1_colore_1_1_logging_1_1_i_log.html" target="_top" xlink:title="Describes a logger. ">
<polygon fill="white" stroke="black" points="338.5,-240.5 338.5,-259.5 471.5,-259.5 471.5,-240.5 338.5,-240.5"/>
<text text-anchor="middle" x="405" y="-247.5" font-family="Helvetica,sans-Serif" font-size="10.00">Corale.Colore.Logging.ILog</text>
</a>
</g>
</g>
<!-- Node8&#45;&gt;Node4 -->
<g id="edge5" class="edge"><title>Node8&#45;&gt;Node4</title>
<path fill="none" stroke="#9a32cd" stroke-dasharray="5,2" d="M471.365,-261.23C492.908,-264.951 516.984,-269.131 539,-273 548.921,-274.744 559.499,-276.619 569.684,-278.434"/>
<polygon fill="#9a32cd" stroke="#9a32cd" points="471.788,-257.752 461.338,-259.5 470.597,-264.65 471.788,-257.752"/>
<text text-anchor="middle" x="516" y="-276" font-family="Helvetica,sans-Serif" font-size="10.00"> Log</text>
</g>
<!-- Node9 -->
<g id="node6" class="node"><title>Node9</title>
<g id="a_node6"><a xlink:href="struct_corale_1_1_colore_1_1_razer_1_1_chroma_link_1_1_effects_1_1_custom.html" target="_top" xlink:title="Custom effect. ">
<polygon fill="white" stroke="black" points="335,-191 335,-221 475,-221 475,-191 335,-191"/>
<text text-anchor="start" x="343" y="-209" font-family="Helvetica,sans-Serif" font-size="10.00">Corale.Colore.Razer.Chroma</text>
<text text-anchor="middle" x="405" y="-198" font-family="Helvetica,sans-Serif" font-size="10.00">Link.Effects.Custom</text>
</a>
</g>
</g>
<!-- Node9&#45;&gt;Node4 -->
<g id="edge6" class="edge"><title>Node9&#45;&gt;Node4</title>
<path fill="none" stroke="#9a32cd" stroke-dasharray="5,2" d="M465.401,-224.174C488.562,-231.643 515.211,-240.714 539,-250 561.366,-258.73 586.361,-270.276 603.225,-278.341"/>
<polygon fill="#9a32cd" stroke="#9a32cd" points="466.298,-220.786 455.707,-221.074 464.166,-227.453 466.298,-220.786"/>
<text text-anchor="middle" x="516" y="-253" font-family="Helvetica,sans-Serif" font-size="10.00"> _custom</text>
</g>
<!-- Node10 -->
<g id="node7" class="node"><title>Node10</title>
<polygon fill="white" stroke="#bfbfbf" points="145,-234.5 145,-253.5 259,-253.5 259,-234.5 145,-234.5"/>
<text text-anchor="middle" x="202" y="-241.5" font-family="Helvetica,sans-Serif" font-size="10.00">IEquatable&lt; Custom &gt;</text>
</g>
<!-- Node10&#45;&gt;Node9 -->
<g id="edge7" class="edge"><title>Node10&#45;&gt;Node9</title>
<path fill="none" stroke="midnightblue" d="M263.549,-232.553C286.038,-228.301 311.714,-223.447 334.909,-219.062"/>
<polygon fill="midnightblue" stroke="midnightblue" points="262.637,-229.163 253.461,-234.46 263.937,-236.041 262.637,-229.163"/>
</g>
<!-- Node11 -->
<g id="node8" class="node"><title>Node11</title>
<polygon fill="white" stroke="#bfbfbf" points="149,-196.5 149,-215.5 255,-215.5 255,-196.5 149,-196.5"/>
<text text-anchor="middle" x="202" y="-203.5" font-family="Helvetica,sans-Serif" font-size="10.00">IEquatable&lt; Color[]&gt;</text>
</g>
<!-- Node11&#45;&gt;Node9 -->
<g id="edge8" class="edge"><title>Node11&#45;&gt;Node9</title>
<path fill="none" stroke="midnightblue" d="M265.253,-206C287.284,-206 312.197,-206 334.772,-206"/>
<polygon fill="midnightblue" stroke="midnightblue" points="265.024,-202.5 255.024,-206 265.024,-209.5 265.024,-202.5"/>
</g>
<!-- Node12 -->
<g id="node9" class="node"><title>Node12</title>
<g id="a_node9"><a xlink:href="struct_corale_1_1_colore_1_1_core_1_1_color.html" target="_top" xlink:title="Represents an RGB color. ">
<polygon fill="white" stroke="black" points="140,-19.5 140,-38.5 264,-38.5 264,-19.5 140,-19.5"/>
<text text-anchor="middle" x="202" y="-26.5" font-family="Helvetica,sans-Serif" font-size="10.00">Corale.Colore.Core.Color</text>
</a>
</g>
</g>
<!-- Node12&#45;&gt;Node9 -->
<g id="edge9" class="edge"><title>Node12&#45;&gt;Node9</title>
<path fill="none" stroke="#9a32cd" stroke-dasharray="5,2" d="M221.719,-45.4839C260.569,-79.6952 349.446,-157.96 386.879,-190.923"/>
<polygon fill="#9a32cd" stroke="#9a32cd" points="223.625,-42.4984 213.807,-38.5163 218.998,-47.7519 223.625,-42.4984"/>
<text text-anchor="middle" x="299.5" y="-132" font-family="Helvetica,sans-Serif" font-size="10.00"> _colors</text>
</g>
<!-- Node12&#45;&gt;Node12 -->
<g id="edge12" class="edge"><title>Node12&#45;&gt;Node12</title>
<path fill="none" stroke="#9a32cd" stroke-dasharray="5,2" d="M187.268,-48.7663C188.425,-53.4965 193.335,-57 202,-57 216.219,-57 220.329,-47.5653 214.33,-38.7571"/>
<polygon fill="#9a32cd" stroke="#9a32cd" points="190.739,-49.2978 189.67,-38.7571 183.933,-47.6641 190.739,-49.2978"/>
<text text-anchor="middle" x="202" y="-170" font-family="Helvetica,sans-Serif" font-size="10.00"> Yellow</text>
<text text-anchor="middle" x="202" y="-159" font-family="Helvetica,sans-Serif" font-size="10.00">White</text>
<text text-anchor="middle" x="202" y="-148" font-family="Helvetica,sans-Serif" font-size="10.00">Pink</text>
<text text-anchor="middle" x="202" y="-137" font-family="Helvetica,sans-Serif" font-size="10.00">HotPink</text>
<text text-anchor="middle" x="202" y="-126" font-family="Helvetica,sans-Serif" font-size="10.00">Blue</text>
<text text-anchor="middle" x="202" y="-115" font-family="Helvetica,sans-Serif" font-size="10.00">Purple</text>
<text text-anchor="middle" x="202" y="-104" font-family="Helvetica,sans-Serif" font-size="10.00">Orange</text>
<text text-anchor="middle" x="202" y="-93" font-family="Helvetica,sans-Serif" font-size="10.00">Black</text>
<text text-anchor="middle" x="202" y="-82" font-family="Helvetica,sans-Serif" font-size="10.00">Red</text>
<text text-anchor="middle" x="202" y="-71" font-family="Helvetica,sans-Serif" font-size="10.00">Green</text>
<text text-anchor="middle" x="202" y="-60" font-family="Helvetica,sans-Serif" font-size="10.00">...</text>
</g>
<!-- Node13 -->
<g id="node10" class="node"><title>Node13</title>
<polygon fill="white" stroke="#bfbfbf" points="0,-38.5 0,-57.5 103,-57.5 103,-38.5 0,-38.5"/>
<text text-anchor="middle" x="51.5" y="-45.5" font-family="Helvetica,sans-Serif" font-size="10.00">IEquatable&lt; Color &gt;</text>
</g>
<!-- Node13&#45;&gt;Node12 -->
<g id="edge10" class="edge"><title>Node13&#45;&gt;Node12</title>
<path fill="none" stroke="midnightblue" d="M113.294,-40.2217C122.027,-39.1043 131.017,-37.9541 139.759,-36.8356"/>
<polygon fill="midnightblue" stroke="midnightblue" points="112.665,-36.7735 103.19,-41.5144 113.553,-43.7169 112.665,-36.7735"/>
</g>
<!-- Node14 -->
<g id="node11" class="node"><title>Node14</title>
<polygon fill="white" stroke="#bfbfbf" points="3.5,-0.5 3.5,-19.5 99.5,-19.5 99.5,-0.5 3.5,-0.5"/>
<text text-anchor="middle" x="51.5" y="-7.5" font-family="Helvetica,sans-Serif" font-size="10.00">IEquatable&lt; uint &gt;</text>
</g>
<!-- Node14&#45;&gt;Node12 -->
<g id="edge11" class="edge"><title>Node14&#45;&gt;Node12</title>
<path fill="none" stroke="midnightblue" d="M109.954,-17.351C119.781,-18.6083 130.022,-19.9186 139.938,-21.1874"/>
<polygon fill="midnightblue" stroke="midnightblue" points="110.258,-13.8615 99.8946,-16.064 109.37,-20.8049 110.258,-13.8615"/>
</g>
<!-- Node15&#45;&gt;Node4 -->
<g id="edge13" class="edge"><title>Node15&#45;&gt;Node4</title>
<path fill="none" stroke="#9a32cd" stroke-dasharray="5,2" d="M483.863,-288C507.763,-288 533.823,-288 556.861,-288"/>
<polygon fill="#9a32cd" stroke="#9a32cd" points="483.768,-284.5 473.768,-288 483.768,-291.5 483.768,-284.5"/>
<text text-anchor="middle" x="516" y="-291" font-family="Helvetica,sans-Serif" font-size="10.00"> _instance</text>
</g>
</g>
</svg>
        <g id="navigator" transform="translate(0 0)" fill="#404254">
                <rect fill="#f2f5e9" fill-opacity="0.5" stroke="#606060" stroke-width=".5" x="0" y="0" width="60" height="60"/>
                <use id="zoomplus" xlink:href="#zoomPlus" x="17" y="9" onmousedown="handleZoom(evt,'in')"/>
                <use id="zoomminus" xlink:href="#zoomMin" x="42" y="9" onmousedown="handleZoom(evt,'out')"/>
                <use id="reset" xlink:href="#resetDef" x="30" y="36" onmousedown="handleReset()"/>
                <g id="arrowUp" xlink:href="#dirArrow" transform="translate(30 24)" onmousedown="handlePan(0,-1)">
                  <use xlink:href="#rim" fill="#404040">
                        <set attributeName="fill" to="#808080" begin="arrowUp.mouseover" end="arrowUp.mouseout"/>
                  </use>
                  <path fill="none" stroke="white" stroke-width="1.5" d="M0,-3.0v7 M-2.5,-0.5L0,-3.0L2.5,-0.5"/>
                </g>
                <g id="arrowRight" xlink:href="#dirArrow" transform="rotate(90) translate(36 -43)" onmousedown="handlePan(1,0)">
                  <use xlink:href="#rim" fill="#404040">
                        <set attributeName="fill" to="#808080" begin="arrowRight.mouseover" end="arrowRight.mouseout"/>
                  </use>
                  <path fill="none" stroke="white" stroke-width="1.5" d="M0,-3.0v7 M-2.5,-0.5L0,-3.0L2.5,-0.5"/>
                </g>
                <g id="arrowDown" xlink:href="#dirArrow" transform="rotate(180) translate(-30 -48)" onmousedown="handlePan(0,1)">
                  <use xlink:href="#rim" fill="#404040">
                        <set attributeName="fill" to="#808080" begin="arrowDown.mouseover" end="arrowDown.mouseout"/>
                  </use>
                  <path fill="none" stroke="white" stroke-width="1.5" d="M0,-3.0v7 M-2.5,-0.5L0,-3.0L2.5,-0.5"/>
                </g>
                <g id="arrowLeft" xlink:href="#dirArrow" transform="rotate(270) translate(-36 17)" onmousedown="handlePan(-1,0)">
                  <use xlink:href="#rim" fill="#404040">
                        <set attributeName="fill" to="#808080" begin="arrowLeft.mouseover" end="arrowLeft.mouseout"/>
                  </use>
                  <path fill="none" stroke="white" stroke-width="1.5" d="M0,-3.0v7 M-2.5,-0.5L0,-3.0L2.5,-0.5"/>
                </g>
        </g>
        <svg viewBox="0 0 15 15" width="100%" height="30px" preserveAspectRatio="xMaxYMin meet">
         <g id="arrow_out" transform="scale(0.3 0.3)">
          <a xlink:href="class_corale_1_1_colore_1_1_core_1_1_keypad__coll__graph_org.svg" target="_base">
           <rect id="button" ry="5" rx="5" y="6" x="6" height="38" width="38"
                fill="#f2f5e9" fill-opacity="0.5" stroke="#606060" stroke-width="1.0"/>
           <path id="arrow"
             d="M 11.500037,31.436501 C 11.940474,20.09759 22.043105,11.32322 32.158766,21.979434 L 37.068811,17.246167 C 37.068811,17.246167 37.088388,32 37.088388,32 L 22.160133,31.978069 C 22.160133,31.978069 26.997745,27.140456 26.997745,27.140456 C 18.528582,18.264221 13.291696,25.230495 11.500037,31.436501 z"
             style="fill:#404040;"/>
          </a>
         </g>
        </svg>
</svg>
