<?xml version="1.0" encoding="UTF-8" standalone="no"?>
<!DOCTYPE svg PUBLIC "-//W3C//DTD SVG 1.1//EN"
 "http://www.w3.org/Graphics/SVG/1.1/DTD/svg11.dtd">
<!-- Generated by graphviz version 2.38.0 (20140413.2041)
 -->
<!-- Title: Corale.Colore.Core.Headset Pages: 1 -->
<svg width="285pt" height="152pt"
 viewBox="0.00 0.00 284.50 152.00" xmlns="http://www.w3.org/2000/svg" xmlns:xlink="http://www.w3.org/1999/xlink">
<g id="graph0" class="graph" transform="scale(1 1) rotate(0) translate(4 148)">
<title>Corale.Colore.Core.Headset</title>
<polygon fill="white" stroke="none" points="-4,4 -4,-148 280.5,-148 280.5,4 -4,4"/>
<!-- Node1 -->
<g id="node1" class="node"><title>Node1</title>
<polygon fill="#bfbfbf" stroke="black" points="22,-0.5 22,-19.5 159,-19.5 159,-0.5 22,-0.5"/>
<text text-anchor="middle" x="90.5" y="-7.5" font-family="Helvetica,sans-Serif" font-size="10.00">Corale.Colore.Core.Headset</text>
</g>
<!-- Node2 -->
<g id="node2" class="node"><title>Node2</title>
<g id="a_node2"><a xlink:href="class_corale_1_1_colore_1_1_core_1_1_device.html" target="_top" xlink:title="Base class for devices, containing code common between all devices. ">
<polygon fill="white" stroke="black" points="0,-67.5 0,-86.5 45,-86.5 45,-67.5 0,-67.5"/>
<text text-anchor="middle" x="22.5" y="-74.5" font-family="Helvetica,sans-Serif" font-size="10.00">Device</text>
</a>
</g>
</g>
<!-- Node2&#45;&gt;Node1 -->
<g id="edge1" class="edge"><title>Node2&#45;&gt;Node1</title>
<path fill="none" stroke="midnightblue" d="M33.6721,-59.6348C45.5943,-46.9228 63.906,-29.7978 76.7154,-19.6273"/>
<polygon fill="midnightblue" stroke="midnightblue" points="30.9353,-57.4448 26.8823,-67.2338 36.1551,-62.1089 30.9353,-57.4448"/>
</g>
<!-- Node2&#45;&gt;Node1 -->
<g id="edge5" class="edge"><title>Node2&#45;&gt;Node1</title>
<path fill="none" stroke="midnightblue" d="M44.3182,-60.7134C59.2358,-47.907 77.5212,-30.0884 86.2336,-19.6273"/>
<polygon fill="midnightblue" stroke="midnightblue" points="41.9205,-58.1549 36.4593,-67.2338 46.3902,-63.5421 41.9205,-58.1549"/>
</g>
<!-- Node3 -->
<g id="node3" class="node"><title>Node3</title>
<g id="a_node3"><a xlink:href="interface_corale_1_1_colore_1_1_core_1_1_i_device.html" target="_top" xlink:title="Interface for functionality common with all devices. ">
<polygon fill="white" stroke="black" points="67,-124.5 67,-143.5 114,-143.5 114,-124.5 67,-124.5"/>
<text text-anchor="middle" x="90.5" y="-131.5" font-family="Helvetica,sans-Serif" font-size="10.00">IDevice</text>
</a>
</g>
</g>
<!-- Node3&#45;&gt;Node2 -->
<g id="edge2" class="edge"><title>Node3&#45;&gt;Node2</title>
<path fill="none" stroke="midnightblue" d="M71.9524,-117.998C59.5438,-107.962 43.6472,-95.1044 33.2748,-86.7149"/>
<polygon fill="midnightblue" stroke="midnightblue" points="69.8988,-120.839 79.875,-124.406 74.3009,-115.396 69.8988,-120.839"/>
</g>
<!-- Node4 -->
<g id="node4" class="node"><title>Node4</title>
<g id="a_node4"><a xlink:href="interface_corale_1_1_colore_1_1_core_1_1_i_headset.html" target="_top" xlink:title="Interface for headset functionality. ">
<polygon fill="white" stroke="black" points="63,-67.5 63,-86.5 118,-86.5 118,-67.5 63,-67.5"/>
<text text-anchor="middle" x="90.5" y="-74.5" font-family="Helvetica,sans-Serif" font-size="10.00">IHeadset</text>
</a>
</g>
</g>
<!-- Node3&#45;&gt;Node4 -->
<g id="edge4" class="edge"><title>Node3&#45;&gt;Node4</title>
<path fill="none" stroke="midnightblue" d="M90.5,-114.117C90.5,-104.817 90.5,-94.0557 90.5,-86.7149"/>
<polygon fill="midnightblue" stroke="midnightblue" points="87.0001,-114.406 90.5,-124.406 94.0001,-114.406 87.0001,-114.406"/>
</g>
<!-- Node5 -->
<g id="node5" class="node"><title>Node5</title>
<g id="a_node5"><a xlink:href="interface_corale_1_1_colore_1_1_core_1_1_i_headset.html" target="_top" xlink:title="Interface for headset functionality. ">
<polygon fill="white" stroke="black" points="136.5,-67.5 136.5,-86.5 276.5,-86.5 276.5,-67.5 136.5,-67.5"/>
<text text-anchor="middle" x="206.5" y="-74.5" font-family="Helvetica,sans-Serif" font-size="10.00">Corale.Colore.Core.IHeadset</text>
</a>
</g>
</g>
<!-- Node3&#45;&gt;Node5 -->
<g id="edge8" class="edge"><title>Node3&#45;&gt;Node5</title>
<path fill="none" stroke="midnightblue" d="M117.716,-120.096C139.546,-109.745 169.569,-95.5106 188.502,-86.5334"/>
<polygon fill="midnightblue" stroke="midnightblue" points="116.161,-116.959 108.625,-124.406 119.16,-123.285 116.161,-116.959"/>
</g>
<!-- Node4&#45;&gt;Node1 -->
<g id="edge3" class="edge"><title>Node4&#45;&gt;Node1</title>
<path fill="none" stroke="midnightblue" d="M84.2999,-57.037C83.2357,-44.6703 83.7161,-29.1198 85.7409,-19.6273"/>
<polygon fill="midnightblue" stroke="midnightblue" points="80.8732,-57.8082 85.7115,-67.2338 87.8071,-56.8483 80.8732,-57.8082"/>
</g>
<!-- Node4&#45;&gt;Node1 -->
<g id="edge6" class="edge"><title>Node4&#45;&gt;Node1</title>
<path fill="none" stroke="midnightblue" d="M96.7001,-57.037C97.7643,-44.6703 97.2839,-29.1198 95.2591,-19.6273"/>
<polygon fill="midnightblue" stroke="midnightblue" points="93.1929,-56.8483 95.2885,-67.2338 100.127,-57.8082 93.1929,-56.8483"/>
</g>
<!-- Node5&#45;&gt;Node1 -->
<g id="edge7" class="edge"><title>Node5&#45;&gt;Node1</title>
<path fill="none" stroke="#9a32cd" stroke-dasharray="5,2" d="M182.028,-62.2872C159.038,-49.4047 125.343,-30.5243 105.896,-19.6273"/>
<polygon fill="#9a32cd" stroke="#9a32cd" points="180.421,-65.3988 190.856,-67.2338 183.843,-59.2921 180.421,-65.3988"/>
<text text-anchor="middle" x="178.5" y="-41" font-family="Helvetica,sans-Serif" font-size="10.00"> _instance</text>
</g>
</g>
</svg>
