<?xml version="1.0" encoding="UTF-8" standalone="no"?>
<!DOCTYPE svg PUBLIC "-//W3C//DTD SVG 1.1//EN"
 "http://www.w3.org/Graphics/SVG/1.1/DTD/svg11.dtd">
<!-- Generated by graphviz version 2.38.0 (20140413.2041)
 -->
<!-- Title: Corale.Colore.Core.Device Pages: 1 -->
<svg width="403pt" height="230pt"
 viewBox="0.00 0.00 403.00 229.50" xmlns="http://www.w3.org/2000/svg" xmlns:xlink="http://www.w3.org/1999/xlink">
<g id="graph0" class="graph" transform="scale(1 1) rotate(0) translate(4 225.5)">
<title>Corale.Colore.Core.Device</title>
<polygon fill="white" stroke="none" points="-4,4 -4,-225.5 399,-225.5 399,4 -4,4"/>
<!-- Node1 -->
<g id="node1" class="node"><title>Node1</title>
<polygon fill="#bfbfbf" stroke="black" points="83,-95.5 83,-114.5 213,-114.5 213,-95.5 83,-95.5"/>
<text text-anchor="middle" x="148" y="-102.5" font-family="Helvetica,sans-Serif" font-size="10.00">Corale.Colore.Core.Device</text>
</g>
<!-- Node3 -->
<g id="node3" class="node"><title>Node3</title>
<g id="a_node3"><a xlink:href="class_corale_1_1_colore_1_1_core_1_1_generic_device.html" target="_top" xlink:title="A generic device. ">
<polygon fill="white" stroke="black" points="254.5,-191 254.5,-221 389.5,-221 389.5,-191 254.5,-191"/>
<text text-anchor="start" x="262.5" y="-209" font-family="Helvetica,sans-Serif" font-size="10.00">Corale.Colore.Core.Generic</text>
<text text-anchor="middle" x="322" y="-198" font-family="Helvetica,sans-Serif" font-size="10.00">Device</text>
</a>
</g>
</g>
<!-- Node1&#45;&gt;Node3 -->
<g id="edge2" class="edge"><title>Node1&#45;&gt;Node3</title>
<path fill="none" stroke="midnightblue" d="M166.945,-121.458C186.081,-138.302 217.86,-164.309 249,-181 255.881,-184.688 263.414,-188.004 270.934,-190.924"/>
<polygon fill="midnightblue" stroke="midnightblue" points="169.11,-118.699 159.323,-114.642 164.444,-123.917 169.11,-118.699"/>
</g>
<!-- Node4 -->
<g id="node4" class="node"><title>Node4</title>
<g id="a_node4"><a xlink:href="class_corale_1_1_colore_1_1_core_1_1_headset.html" target="_top" xlink:title="Class for interacting with Chroma Headsets. ">
<polygon fill="white" stroke="black" points="253.5,-152.5 253.5,-171.5 390.5,-171.5 390.5,-152.5 253.5,-152.5"/>
<text text-anchor="middle" x="322" y="-159.5" font-family="Helvetica,sans-Serif" font-size="10.00">Corale.Colore.Core.Headset</text>
</a>
</g>
</g>
<!-- Node1&#45;&gt;Node4 -->
<g id="edge3" class="edge"><title>Node1&#45;&gt;Node4</title>
<path fill="none" stroke="midnightblue" d="M181.492,-118.34C200.905,-126.06 226.157,-135.668 249,-143 259.586,-146.398 271.185,-149.657 281.922,-152.487"/>
<polygon fill="midnightblue" stroke="midnightblue" points="182.776,-115.084 172.192,-114.609 180.17,-121.581 182.776,-115.084"/>
</g>
<!-- Node5 -->
<g id="node5" class="node"><title>Node5</title>
<g id="a_node5"><a xlink:href="class_corale_1_1_colore_1_1_core_1_1_keyboard.html" target="_top" xlink:title="Class for interacting with a Chroma keyboard. ">
<polygon fill="white" stroke="black" points="250.5,-114.5 250.5,-133.5 393.5,-133.5 393.5,-114.5 250.5,-114.5"/>
<text text-anchor="middle" x="322" y="-121.5" font-family="Helvetica,sans-Serif" font-size="10.00">Corale.Colore.Core.Keyboard</text>
</a>
</g>
</g>
<!-- Node1&#45;&gt;Node5 -->
<g id="edge4" class="edge"><title>Node1&#45;&gt;Node5</title>
<path fill="none" stroke="midnightblue" d="M223.115,-113.187C232.119,-114.182 241.3,-115.196 250.254,-116.185"/>
<polygon fill="midnightblue" stroke="midnightblue" points="223.37,-109.694 213.046,-112.075 222.602,-116.652 223.37,-109.694"/>
</g>
<!-- Node6 -->
<g id="node6" class="node"><title>Node6</title>
<g id="a_node6"><a xlink:href="class_corale_1_1_colore_1_1_core_1_1_keypad.html" target="_top" xlink:title="Class for interacting with a Chroma keypad. ">
<polygon fill="white" stroke="black" points="255,-76.5 255,-95.5 389,-95.5 389,-76.5 255,-76.5"/>
<text text-anchor="middle" x="322" y="-83.5" font-family="Helvetica,sans-Serif" font-size="10.00">Corale.Colore.Core.Keypad</text>
</a>
</g>
</g>
<!-- Node1&#45;&gt;Node6 -->
<g id="edge5" class="edge"><title>Node1&#45;&gt;Node6</title>
<path fill="none" stroke="midnightblue" d="M223.088,-96.8159C233.662,-95.6478 244.481,-94.4527 254.889,-93.303"/>
<polygon fill="midnightblue" stroke="midnightblue" points="222.602,-93.3482 213.046,-97.9251 223.37,-100.306 222.602,-93.3482"/>
</g>
<!-- Node7 -->
<g id="node7" class="node"><title>Node7</title>
<g id="a_node7"><a xlink:href="class_corale_1_1_colore_1_1_core_1_1_mouse.html" target="_top" xlink:title="Class for interacting with a Chroma mouse. ">
<polygon fill="white" stroke="black" points="256.5,-38.5 256.5,-57.5 387.5,-57.5 387.5,-38.5 256.5,-38.5"/>
<text text-anchor="middle" x="322" y="-45.5" font-family="Helvetica,sans-Serif" font-size="10.00">Corale.Colore.Core.Mouse</text>
</a>
</g>
</g>
<!-- Node1&#45;&gt;Node7 -->
<g id="edge6" class="edge"><title>Node1&#45;&gt;Node7</title>
<path fill="none" stroke="midnightblue" d="M181.492,-91.6601C200.905,-83.9398 226.157,-74.3318 249,-67 259.586,-63.6022 271.185,-60.3431 281.922,-57.513"/>
<polygon fill="midnightblue" stroke="midnightblue" points="180.17,-88.4194 172.192,-95.3914 182.776,-94.916 180.17,-88.4194"/>
</g>
<!-- Node8 -->
<g id="node8" class="node"><title>Node8</title>
<g id="a_node8"><a xlink:href="class_corale_1_1_colore_1_1_core_1_1_mousepad.html" target="_top" xlink:title="Class for interacting with a Chroma mouse pad. ">
<polygon fill="white" stroke="black" points="249,-0.5 249,-19.5 395,-19.5 395,-0.5 249,-0.5"/>
<text text-anchor="middle" x="322" y="-7.5" font-family="Helvetica,sans-Serif" font-size="10.00">Corale.Colore.Core.Mousepad</text>
</a>
</g>
</g>
<!-- Node1&#45;&gt;Node8 -->
<g id="edge7" class="edge"><title>Node1&#45;&gt;Node8</title>
<path fill="none" stroke="midnightblue" d="M166.393,-88.3349C185.291,-71.1013 217.077,-44.5762 249,-29 256.785,-25.2018 265.426,-22.0902 273.943,-19.5661"/>
<polygon fill="midnightblue" stroke="midnightblue" points="163.831,-85.9373 158.891,-95.3098 168.598,-91.0638 163.831,-85.9373"/>
</g>
<!-- Node2 -->
<g id="node2" class="node"><title>Node2</title>
<g id="a_node2"><a xlink:href="interface_corale_1_1_colore_1_1_core_1_1_i_device.html" target="_top" xlink:title="Interface for functionality common with all devices. ">
<polygon fill="white" stroke="black" points="0,-95.5 0,-114.5 47,-114.5 47,-95.5 0,-95.5"/>
<text text-anchor="middle" x="23.5" y="-102.5" font-family="Helvetica,sans-Serif" font-size="10.00">IDevice</text>
</a>
</g>
</g>
<!-- Node2&#45;&gt;Node1 -->
<g id="edge1" class="edge"><title>Node2&#45;&gt;Node1</title>
<path fill="none" stroke="midnightblue" d="M57.4931,-105C65.4196,-105 74.1547,-105 82.9667,-105"/>
<polygon fill="midnightblue" stroke="midnightblue" points="57.2543,-101.5 47.2542,-105 57.2542,-108.5 57.2543,-101.5"/>
</g>
</g>
</svg>
