<?xml version="1.0" encoding="UTF-8" standalone="no"?>
<!DOCTYPE svg PUBLIC "-//W3C//DTD SVG 1.1//EN"
 "http://www.w3.org/Graphics/SVG/1.1/DTD/svg11.dtd">
<!-- Generated by graphviz version 2.38.0 (20140413.2041)
 -->
<!-- Title: Corale.Colore.Core.Mousepad Pages: 1 -->
<svg width="303pt" height="152pt"
 viewBox="0.00 0.00 303.00 152.00" xmlns="http://www.w3.org/2000/svg" xmlns:xlink="http://www.w3.org/1999/xlink">
<g id="graph0" class="graph" transform="scale(1 1) rotate(0) translate(4 148)">
<title>Corale.Colore.Core.Mousepad</title>
<polygon fill="white" stroke="none" points="-4,4 -4,-148 299,-148 299,4 -4,4"/>
<!-- Node1 -->
<g id="node1" class="node"><title>Node1</title>
<polygon fill="#bfbfbf" stroke="black" points="22.5,-0.5 22.5,-19.5 168.5,-19.5 168.5,-0.5 22.5,-0.5"/>
<text text-anchor="middle" x="95.5" y="-7.5" font-family="Helvetica,sans-Serif" font-size="10.00">Corale.Colore.Core.Mousepad</text>
</g>
<!-- Node2 -->
<g id="node2" class="node"><title>Node2</title>
<g id="a_node2"><a xlink:href="class_corale_1_1_colore_1_1_core_1_1_device.html" target="_top" xlink:title="Base class for devices, containing code common between all devices. ">
<polygon fill="white" stroke="black" points="0,-67.5 0,-86.5 45,-86.5 45,-67.5 0,-67.5"/>
<text text-anchor="middle" x="22.5" y="-74.5" font-family="Helvetica,sans-Serif" font-size="10.00">Device</text>
</a>
</g>
</g>
<!-- Node2&#45;&gt;Node1 -->
<g id="edge1" class="edge"><title>Node2&#45;&gt;Node1</title>
<path fill="none" stroke="midnightblue" d="M40.069,-60.3564C54.4205,-47.5777 74.171,-29.9915 85.8109,-19.6273"/>
<polygon fill="midnightblue" stroke="midnightblue" points="37.4861,-57.9698 32.3451,-67.2338 42.1411,-63.1978 37.4861,-57.9698"/>
</g>
<!-- Node3 -->
<g id="node3" class="node"><title>Node3</title>
<g id="a_node3"><a xlink:href="interface_corale_1_1_colore_1_1_core_1_1_i_device.html" target="_top" xlink:title="Interface for functionality common with all devices. ">
<polygon fill="white" stroke="black" points="72,-124.5 72,-143.5 119,-143.5 119,-124.5 72,-124.5"/>
<text text-anchor="middle" x="95.5" y="-131.5" font-family="Helvetica,sans-Serif" font-size="10.00">IDevice</text>
</a>
</g>
</g>
<!-- Node3&#45;&gt;Node2 -->
<g id="edge2" class="edge"><title>Node3&#45;&gt;Node2</title>
<path fill="none" stroke="midnightblue" d="M75.9718,-118.287C62.5963,-108.21 45.3093,-95.1851 34.0671,-86.7149"/>
<polygon fill="midnightblue" stroke="midnightblue" points="74.0007,-121.184 84.0938,-124.406 78.213,-115.593 74.0007,-121.184"/>
</g>
<!-- Node4 -->
<g id="node4" class="node"><title>Node4</title>
<g id="a_node4"><a xlink:href="interface_corale_1_1_colore_1_1_core_1_1_i_mousepad.html" target="_top" xlink:title="Interface for mouse pad functionality. ">
<polygon fill="white" stroke="black" points="63.5,-67.5 63.5,-86.5 127.5,-86.5 127.5,-67.5 63.5,-67.5"/>
<text text-anchor="middle" x="95.5" y="-74.5" font-family="Helvetica,sans-Serif" font-size="10.00">IMousepad</text>
</a>
</g>
</g>
<!-- Node3&#45;&gt;Node4 -->
<g id="edge4" class="edge"><title>Node3&#45;&gt;Node4</title>
<path fill="none" stroke="midnightblue" d="M95.5,-114.117C95.5,-104.817 95.5,-94.0557 95.5,-86.7149"/>
<polygon fill="midnightblue" stroke="midnightblue" points="92.0001,-114.406 95.5,-124.406 99.0001,-114.406 92.0001,-114.406"/>
</g>
<!-- Node5 -->
<g id="node5" class="node"><title>Node5</title>
<g id="a_node5"><a xlink:href="interface_corale_1_1_colore_1_1_core_1_1_i_mousepad.html" target="_top" xlink:title="Interface for mouse pad functionality. ">
<polygon fill="white" stroke="black" points="146,-67.5 146,-86.5 295,-86.5 295,-67.5 146,-67.5"/>
<text text-anchor="middle" x="220.5" y="-74.5" font-family="Helvetica,sans-Serif" font-size="10.00">Corale.Colore.Core.IMousepad</text>
</a>
</g>
</g>
<!-- Node3&#45;&gt;Node5 -->
<g id="edge6" class="edge"><title>Node3&#45;&gt;Node5</title>
<path fill="none" stroke="midnightblue" d="M124.197,-120.374C147.77,-110.001 180.52,-95.5911 201.106,-86.5334"/>
<polygon fill="midnightblue" stroke="midnightblue" points="122.775,-117.175 115.031,-124.406 125.594,-123.582 122.775,-117.175"/>
</g>
<!-- Node4&#45;&gt;Node1 -->
<g id="edge3" class="edge"><title>Node4&#45;&gt;Node1</title>
<path fill="none" stroke="midnightblue" d="M95.5,-57.037C95.5,-44.6703 95.5,-29.1198 95.5,-19.6273"/>
<polygon fill="midnightblue" stroke="midnightblue" points="92.0001,-57.2338 95.5,-67.2338 99.0001,-57.2338 92.0001,-57.2338"/>
</g>
<!-- Node5&#45;&gt;Node1 -->
<g id="edge5" class="edge"><title>Node5&#45;&gt;Node1</title>
<path fill="none" stroke="#9a32cd" stroke-dasharray="5,2" d="M194.737,-62.6034C169.983,-49.7309 133.308,-30.66 112.168,-19.6672"/>
<polygon fill="#9a32cd" stroke="#9a32cd" points="193.414,-65.8602 203.901,-67.3685 196.644,-59.6497 193.414,-65.8602"/>
<text text-anchor="middle" x="187.5" y="-41" font-family="Helvetica,sans-Serif" font-size="10.00"> _instance</text>
</g>
</g>
</svg>
