<?xml version="1.0" encoding="UTF-8" standalone="no"?>
<!DOCTYPE svg PUBLIC "-//W3C//DTD SVG 1.1//EN"
 "http://www.w3.org/Graphics/SVG/1.1/DTD/svg11.dtd">
<!-- Generated by graphviz version 2.38.0 (20140413.2041)
 -->
<!-- Title: Corale.Colore.Core.Keypad Pages: 1 -->
<svg width="142pt" height="140pt"
 viewBox="0.00 0.00 142.00 140.00" xmlns="http://www.w3.org/2000/svg" xmlns:xlink="http://www.w3.org/1999/xlink">
<g id="graph0" class="graph" transform="scale(1 1) rotate(0) translate(4 136)">
<title>Corale.Colore.Core.Keypad</title>
<polygon fill="white" stroke="none" points="-4,4 -4,-136 138,-136 138,4 -4,4"/>
<!-- Node1 -->
<g id="node1" class="node"><title>Node1</title>
<polygon fill="#bfbfbf" stroke="black" points="0,-0.5 0,-19.5 134,-19.5 134,-0.5 0,-0.5"/>
<text text-anchor="middle" x="67" y="-7.5" font-family="Helvetica,sans-Serif" font-size="10.00">Corale.Colore.Core.Keypad</text>
</g>
<!-- Node2 -->
<g id="node2" class="node"><title>Node2</title>
<g id="a_node2"><a xlink:href="class_corale_1_1_colore_1_1_core_1_1_device.html" target="_top" xlink:title="Base class for devices, containing code common between all devices. ">
<polygon fill="white" stroke="black" points="11.5,-56.5 11.5,-75.5 56.5,-75.5 56.5,-56.5 11.5,-56.5"/>
<text text-anchor="middle" x="34" y="-63.5" font-family="Helvetica,sans-Serif" font-size="10.00">Device</text>
</a>
</g>
</g>
<!-- Node2&#45;&gt;Node1 -->
<g id="edge1" class="edge"><title>Node2&#45;&gt;Node1</title>
<path fill="none" stroke="midnightblue" d="M38.6042,-46.9827C43.4792,-37.8168 50.4583,-27.0922 56.5211,-19.7511"/>
<polygon fill="midnightblue" stroke="midnightblue" points="35.4108,-45.5484 34.283,-56.083 41.7341,-48.551 35.4108,-45.5484"/>
</g>
<!-- Node2&#45;&gt;Node1 -->
<g id="edge5" class="edge"><title>Node2&#45;&gt;Node1</title>
<path fill="none" stroke="midnightblue" d="M50.8106,-47.8554C57.3502,-38.5048 63.7806,-27.3265 66.7831,-19.7511"/>
<polygon fill="midnightblue" stroke="midnightblue" points="47.8347,-45.989 44.6156,-56.083 53.4268,-50.1996 47.8347,-45.989"/>
</g>
<!-- Node3 -->
<g id="node3" class="node"><title>Node3</title>
<g id="a_node3"><a xlink:href="interface_corale_1_1_colore_1_1_core_1_1_i_device.html" target="_top" xlink:title="Interface for functionality common with all devices. ">
<polygon fill="white" stroke="black" points="43.5,-112.5 43.5,-131.5 90.5,-131.5 90.5,-112.5 43.5,-112.5"/>
<text text-anchor="middle" x="67" y="-119.5" font-family="Helvetica,sans-Serif" font-size="10.00">IDevice</text>
</a>
</g>
</g>
<!-- Node3&#45;&gt;Node2 -->
<g id="edge2" class="edge"><title>Node3&#45;&gt;Node2</title>
<path fill="none" stroke="midnightblue" d="M56.1679,-103.275C50.5278,-94.0454 43.8819,-83.1703 39.3479,-75.7511"/>
<polygon fill="midnightblue" stroke="midnightblue" points="53.3497,-105.375 61.5507,-112.083 59.3227,-101.725 53.3497,-105.375"/>
</g>
<!-- Node4 -->
<g id="node4" class="node"><title>Node4</title>
<g id="a_node4"><a xlink:href="interface_corale_1_1_colore_1_1_core_1_1_i_keypad.html" target="_top" xlink:title="Interface for keypad functions. ">
<polygon fill="white" stroke="black" points="75,-56.5 75,-75.5 127,-75.5 127,-56.5 75,-56.5"/>
<text text-anchor="middle" x="101" y="-63.5" font-family="Helvetica,sans-Serif" font-size="10.00">IKeypad</text>
</a>
</g>
</g>
<!-- Node3&#45;&gt;Node4 -->
<g id="edge4" class="edge"><title>Node3&#45;&gt;Node4</title>
<path fill="none" stroke="midnightblue" d="M77.9772,-103.566C83.827,-94.2747 90.7695,-83.2484 95.4901,-75.7511"/>
<polygon fill="midnightblue" stroke="midnightblue" points="74.9808,-101.756 72.6144,-112.083 80.9044,-105.486 74.9808,-101.756"/>
</g>
<!-- Node4&#45;&gt;Node1 -->
<g id="edge3" class="edge"><title>Node4&#45;&gt;Node1</title>
<path fill="none" stroke="midnightblue" d="M84.0795,-48.144C77.2964,-38.7357 70.5542,-27.4046 67.3789,-19.7511"/>
<polygon fill="midnightblue" stroke="midnightblue" points="81.333,-50.3137 90.2193,-56.083 86.8703,-46.0314 81.333,-50.3137"/>
</g>
<!-- Node4&#45;&gt;Node1 -->
<g id="edge6" class="edge"><title>Node4&#45;&gt;Node1</title>
<path fill="none" stroke="midnightblue" d="M96.0622,-46.9827C91.0174,-37.8168 83.8397,-27.0922 77.6409,-19.7511"/>
<polygon fill="midnightblue" stroke="midnightblue" points="92.9886,-48.6636 100.552,-56.083 99.2662,-45.5665 92.9886,-48.6636"/>
</g>
</g>
</svg>
