<?xml version="1.0" encoding="UTF-8" standalone="no"?>
<!DOCTYPE svg PUBLIC "-//W3C//DTD SVG 1.1//EN"
 "http://www.w3.org/Graphics/SVG/1.1/DTD/svg11.dtd">
<!-- Generated by graphviz version 2.38.0 (20140413.2041)
 -->
<!-- Title: Corale.Colore.Core.Chroma Pages: 1 -->
<svg width="559pt" height="332pt"
 viewBox="0.00 0.00 559.00 332.00" xmlns="http://www.w3.org/2000/svg" xmlns:xlink="http://www.w3.org/1999/xlink">
<g id="graph0" class="graph" transform="scale(1 1) rotate(0) translate(4 328)">
<title>Corale.Colore.Core.Chroma</title>
<polygon fill="white" stroke="none" points="-4,4 -4,-328 555,-328 555,4 -4,4"/>
<!-- Node1 -->
<g id="node1" class="node"><title>Node1</title>
<polygon fill="#bfbfbf" stroke="black" points="416,-152.5 416,-171.5 551,-171.5 551,-152.5 416,-152.5"/>
<text text-anchor="middle" x="483.5" y="-159.5" font-family="Helvetica,sans-Serif" font-size="10.00">Corale.Colore.Core.Chroma</text>
</g>
<!-- Node2 -->
<g id="node2" class="node"><title>Node2</title>
<g id="a_node2"><a xlink:href="interface_corale_1_1_colore_1_1_core_1_1_i_chroma.html" target="_top" xlink:title="Interface for basic Chroma functionality. ">
<polygon fill="white" stroke="black" points="224,-304.5 224,-323.5 277,-323.5 277,-304.5 224,-304.5"/>
<text text-anchor="middle" x="250.5" y="-311.5" font-family="Helvetica,sans-Serif" font-size="10.00">IChroma</text>
</a>
</g>
</g>
<!-- Node2&#45;&gt;Node1 -->
<g id="edge1" class="edge"><title>Node2&#45;&gt;Node1</title>
<path fill="none" stroke="midnightblue" d="M287.288,-311.166C318.781,-307.198 364.68,-297.701 398,-275 438.692,-247.277 467.576,-193.427 478.11,-171.567"/>
<polygon fill="midnightblue" stroke="midnightblue" points="286.74,-307.705 277.198,-312.31 287.529,-314.661 286.74,-307.705"/>
</g>
<!-- Node3 -->
<g id="node3" class="node"><title>Node3</title>
<g id="a_node3"><a xlink:href="interface_corale_1_1_colore_1_1_logging_1_1_i_log.html" target="_top" xlink:title="Describes a logger. ">
<polygon fill="white" stroke="black" points="184,-266.5 184,-285.5 317,-285.5 317,-266.5 184,-266.5"/>
<text text-anchor="middle" x="250.5" y="-273.5" font-family="Helvetica,sans-Serif" font-size="10.00">Corale.Colore.Logging.ILog</text>
</a>
</g>
</g>
<!-- Node3&#45;&gt;Node1 -->
<g id="edge2" class="edge"><title>Node3&#45;&gt;Node1</title>
<path fill="none" stroke="#9a32cd" stroke-dasharray="5,2" d="M327.15,-265.01C350.768,-259.616 376.3,-251.663 398,-240 431.237,-222.136 461.455,-188.135 474.996,-171.561"/>
<polygon fill="#9a32cd" stroke="#9a32cd" points="326.197,-261.635 317.162,-267.169 327.676,-268.477 326.197,-261.635"/>
<text text-anchor="middle" x="370.5" y="-263" font-family="Helvetica,sans-Serif" font-size="10.00"> Log</text>
</g>
<!-- Node4 -->
<g id="node4" class="node"><title>Node4</title>
<g id="a_node4"><a xlink:href="struct_corale_1_1_colore_1_1_sdk_version.html" target="_top" xlink:title="Describes an SDK version. ">
<polygon fill="white" stroke="black" points="186.5,-228.5 186.5,-247.5 314.5,-247.5 314.5,-228.5 186.5,-228.5"/>
<text text-anchor="middle" x="250.5" y="-235.5" font-family="Helvetica,sans-Serif" font-size="10.00">Corale.Colore.SdkVersion</text>
</a>
</g>
</g>
<!-- Node4&#45;&gt;Node1 -->
<g id="edge3" class="edge"><title>Node4&#45;&gt;Node1</title>
<path fill="none" stroke="#9a32cd" stroke-dasharray="5,2" d="M298.64,-225.922C307.408,-223.645 316.487,-221.266 325,-219 357.508,-210.346 366.286,-210.221 398,-199 420.647,-190.987 445.765,-179.662 462.683,-171.656"/>
<polygon fill="#9a32cd" stroke="#9a32cd" points="297.722,-222.544 288.919,-228.439 299.477,-229.32 297.722,-222.544"/>
<text text-anchor="middle" x="370.5" y="-228" font-family="Helvetica,sans-Serif" font-size="10.00"> SdkVersion</text>
<text text-anchor="middle" x="370.5" y="-217" font-family="Helvetica,sans-Serif" font-size="10.00">_sdkVersion</text>
</g>
<!-- Node5 -->
<g id="node5" class="node"><title>Node5</title>
<polygon fill="white" stroke="#bfbfbf" points="4,-266.5 4,-285.5 135,-285.5 135,-266.5 4,-266.5"/>
<text text-anchor="middle" x="69.5" y="-273.5" font-family="Helvetica,sans-Serif" font-size="10.00">IEquatable&lt; SdkVersion &gt;</text>
</g>
<!-- Node5&#45;&gt;Node4 -->
<g id="edge4" class="edge"><title>Node5&#45;&gt;Node4</title>
<path fill="none" stroke="midnightblue" d="M125.524,-264.319C150.908,-258.93 180.661,-252.614 204.656,-247.52"/>
<polygon fill="midnightblue" stroke="midnightblue" points="124.724,-260.911 115.669,-266.411 126.178,-267.758 124.724,-260.911"/>
</g>
<!-- Node6 -->
<g id="node6" class="node"><title>Node6</title>
<polygon fill="white" stroke="#bfbfbf" points="0,-228.5 0,-247.5 139,-247.5 139,-228.5 0,-228.5"/>
<text text-anchor="middle" x="69.5" y="-235.5" font-family="Helvetica,sans-Serif" font-size="10.00">IComparable&lt; SdkVersion &gt;</text>
</g>
<!-- Node6&#45;&gt;Node4 -->
<g id="edge5" class="edge"><title>Node6&#45;&gt;Node4</title>
<path fill="none" stroke="midnightblue" d="M149.457,-238C161.776,-238 174.365,-238 186.273,-238"/>
<polygon fill="midnightblue" stroke="midnightblue" points="149.194,-234.5 139.194,-238 149.194,-241.5 149.194,-234.5"/>
</g>
<!-- Node7 -->
<g id="node7" class="node"><title>Node7</title>
<polygon fill="white" stroke="#bfbfbf" points="34,-190.5 34,-209.5 105,-209.5 105,-190.5 34,-190.5"/>
<text text-anchor="middle" x="69.5" y="-197.5" font-family="Helvetica,sans-Serif" font-size="10.00">IComparable</text>
</g>
<!-- Node7&#45;&gt;Node4 -->
<g id="edge6" class="edge"><title>Node7&#45;&gt;Node4</title>
<path fill="none" stroke="midnightblue" d="M115.077,-209.463C142.379,-215.259 177.211,-222.654 204.576,-228.463"/>
<polygon fill="midnightblue" stroke="midnightblue" points="115.522,-205.98 105.013,-207.327 114.068,-212.827 115.522,-205.98"/>
</g>
<!-- Node8 -->
<g id="node8" class="node"><title>Node8</title>
<g id="a_node8"><a xlink:href="interface_corale_1_1_colore_1_1_core_1_1_i_chroma.html" target="_top" xlink:title="Interface for basic Chroma functionality. ">
<polygon fill="white" stroke="black" points="182,-190.5 182,-209.5 319,-209.5 319,-190.5 182,-190.5"/>
<text text-anchor="middle" x="250.5" y="-197.5" font-family="Helvetica,sans-Serif" font-size="10.00">Corale.Colore.Core.IChroma</text>
</a>
</g>
</g>
<!-- Node8&#45;&gt;Node1 -->
<g id="edge7" class="edge"><title>Node8&#45;&gt;Node1</title>
<path fill="none" stroke="#9a32cd" stroke-dasharray="5,2" d="M319.614,-188.795C352.937,-183.313 392.626,-176.785 424.483,-171.544"/>
<polygon fill="#9a32cd" stroke="#9a32cd" points="318.792,-185.383 309.493,-190.46 319.928,-192.29 318.792,-185.383"/>
<text text-anchor="middle" x="370.5" y="-187" font-family="Helvetica,sans-Serif" font-size="10.00"> _instance</text>
</g>
<!-- Node9 -->
<g id="node9" class="node"><title>Node9</title>
<g id="a_node9"><a xlink:href="interface_corale_1_1_colore_1_1_core_1_1_i_mousepad.html" target="_top" xlink:title="Interface for mouse pad functionality. ">
<polygon fill="white" stroke="black" points="176,-152.5 176,-171.5 325,-171.5 325,-152.5 176,-152.5"/>
<text text-anchor="middle" x="250.5" y="-159.5" font-family="Helvetica,sans-Serif" font-size="10.00">Corale.Colore.Core.IMousepad</text>
</a>
</g>
</g>
<!-- Node9&#45;&gt;Node1 -->
<g id="edge8" class="edge"><title>Node9&#45;&gt;Node1</title>
<path fill="none" stroke="#9a32cd" stroke-dasharray="5,2" d="M335.241,-162C361.716,-162 390.606,-162 415.729,-162"/>
<polygon fill="#9a32cd" stroke="#9a32cd" points="335.225,-158.5 325.225,-162 335.225,-165.5 335.225,-158.5"/>
<text text-anchor="middle" x="370.5" y="-165" font-family="Helvetica,sans-Serif" font-size="10.00"> Mousepad</text>
</g>
<!-- Node10 -->
<g id="node10" class="node"><title>Node10</title>
<g id="a_node10"><a xlink:href="interface_corale_1_1_colore_1_1_core_1_1_i_device.html" target="_top" xlink:title="Interface for functionality common with all devices. ">
<polygon fill="white" stroke="black" points="46,-76.5 46,-95.5 93,-95.5 93,-76.5 46,-76.5"/>
<text text-anchor="middle" x="69.5" y="-83.5" font-family="Helvetica,sans-Serif" font-size="10.00">IDevice</text>
</a>
</g>
</g>
<!-- Node10&#45;&gt;Node9 -->
<g id="edge9" class="edge"><title>Node10&#45;&gt;Node9</title>
<path fill="none" stroke="midnightblue" d="M94.1043,-100.913C114.976,-113.565 146.592,-131.453 176,-143 185.324,-146.661 195.589,-149.823 205.416,-152.459"/>
<polygon fill="midnightblue" stroke="midnightblue" points="95.6688,-97.7658 85.3171,-95.509 92.002,-103.729 95.6688,-97.7658"/>
</g>
<!-- Node11 -->
<g id="node11" class="node"><title>Node11</title>
<g id="a_node11"><a xlink:href="interface_corale_1_1_colore_1_1_core_1_1_i_mouse.html" target="_top" xlink:title="Interface for mouse functionality. ">
<polygon fill="white" stroke="black" points="184,-114.5 184,-133.5 317,-133.5 317,-114.5 184,-114.5"/>
<text text-anchor="middle" x="250.5" y="-121.5" font-family="Helvetica,sans-Serif" font-size="10.00">Corale.Colore.Core.IMouse</text>
</a>
</g>
</g>
<!-- Node10&#45;&gt;Node11 -->
<g id="edge11" class="edge"><title>Node10&#45;&gt;Node11</title>
<path fill="none" stroke="midnightblue" d="M103.02,-92.9037C131.488,-98.9471 173.121,-107.786 204.733,-114.496"/>
<polygon fill="midnightblue" stroke="midnightblue" points="103.679,-89.4657 93.1705,-90.8127 102.226,-96.3131 103.679,-89.4657"/>
</g>
<!-- Node12 -->
<g id="node12" class="node"><title>Node12</title>
<g id="a_node12"><a xlink:href="interface_corale_1_1_colore_1_1_core_1_1_i_keypad.html" target="_top" xlink:title="Interface for keypad functions. ">
<polygon fill="white" stroke="black" points="182,-76.5 182,-95.5 319,-95.5 319,-76.5 182,-76.5"/>
<text text-anchor="middle" x="250.5" y="-83.5" font-family="Helvetica,sans-Serif" font-size="10.00">Corale.Colore.Core.IKeypad</text>
</a>
</g>
</g>
<!-- Node10&#45;&gt;Node12 -->
<g id="edge13" class="edge"><title>Node10&#45;&gt;Node12</title>
<path fill="none" stroke="midnightblue" d="M103.293,-86C125.277,-86 155.023,-86 181.945,-86"/>
<polygon fill="midnightblue" stroke="midnightblue" points="103.171,-82.5001 93.1705,-86 103.17,-89.5001 103.171,-82.5001"/>
</g>
<!-- Node13 -->
<g id="node13" class="node"><title>Node13</title>
<g id="a_node13"><a xlink:href="interface_corale_1_1_colore_1_1_core_1_1_i_headset.html" target="_top" xlink:title="Interface for headset functionality. ">
<polygon fill="white" stroke="black" points="180.5,-38.5 180.5,-57.5 320.5,-57.5 320.5,-38.5 180.5,-38.5"/>
<text text-anchor="middle" x="250.5" y="-45.5" font-family="Helvetica,sans-Serif" font-size="10.00">Corale.Colore.Core.IHeadset</text>
</a>
</g>
</g>
<!-- Node10&#45;&gt;Node13 -->
<g id="edge15" class="edge"><title>Node10&#45;&gt;Node13</title>
<path fill="none" stroke="midnightblue" d="M103.02,-79.0963C131.488,-73.0529 173.121,-64.2144 204.733,-57.5036"/>
<polygon fill="midnightblue" stroke="midnightblue" points="102.226,-75.6869 93.1705,-81.1873 103.679,-82.5343 102.226,-75.6869"/>
</g>
<!-- Node14 -->
<g id="node14" class="node"><title>Node14</title>
<g id="a_node14"><a xlink:href="interface_corale_1_1_colore_1_1_core_1_1_i_keyboard.html" target="_top" xlink:title="Interface for keyboard functionality. ">
<polygon fill="white" stroke="black" points="178,-0.5 178,-19.5 323,-19.5 323,-0.5 178,-0.5"/>
<text text-anchor="middle" x="250.5" y="-7.5" font-family="Helvetica,sans-Serif" font-size="10.00">Corale.Colore.Core.IKeyboard</text>
</a>
</g>
</g>
<!-- Node10&#45;&gt;Node14 -->
<g id="edge17" class="edge"><title>Node10&#45;&gt;Node14</title>
<path fill="none" stroke="midnightblue" d="M94.1043,-71.0874C114.976,-58.4346 146.592,-40.5471 176,-29 185.324,-25.339 195.589,-22.1771 205.416,-19.5407"/>
<polygon fill="midnightblue" stroke="midnightblue" points="92.002,-68.2713 85.3171,-76.491 95.6688,-74.2342 92.002,-68.2713"/>
</g>
<!-- Node11&#45;&gt;Node1 -->
<g id="edge10" class="edge"><title>Node11&#45;&gt;Node1</title>
<path fill="none" stroke="#9a32cd" stroke-dasharray="5,2" d="M323.872,-135.069C347.518,-138.764 373.893,-142.968 398,-147 408.287,-148.72 419.266,-150.621 429.79,-152.476"/>
<polygon fill="#9a32cd" stroke="#9a32cd" points="324.34,-131.6 313.92,-133.519 323.262,-138.516 324.34,-131.6"/>
<text text-anchor="middle" x="370.5" y="-150" font-family="Helvetica,sans-Serif" font-size="10.00"> Mouse</text>
</g>
<!-- Node12&#45;&gt;Node1 -->
<g id="edge12" class="edge"><title>Node12&#45;&gt;Node1</title>
<path fill="none" stroke="#9a32cd" stroke-dasharray="5,2" d="M308.182,-97.7377C335.658,-104.077 368.925,-112.718 398,-123 421.611,-131.349 447.608,-143.885 464.445,-152.477"/>
<polygon fill="#9a32cd" stroke="#9a32cd" points="308.866,-94.304 298.339,-95.5075 307.319,-101.131 308.866,-94.304"/>
<text text-anchor="middle" x="370.5" y="-126" font-family="Helvetica,sans-Serif" font-size="10.00"> Keypad</text>
</g>
<!-- Node13&#45;&gt;Node1 -->
<g id="edge14" class="edge"><title>Node13&#45;&gt;Node1</title>
<path fill="none" stroke="#9a32cd" stroke-dasharray="5,2" d="M300.448,-60.092C308.675,-62.2846 317.102,-64.6306 325,-67 357.848,-76.8544 368.085,-75.2318 398,-92 428.244,-108.952 458.194,-137.181 472.981,-152.084"/>
<polygon fill="#9a32cd" stroke="#9a32cd" points="301.123,-56.6508 290.563,-57.5023 299.349,-63.4223 301.123,-56.6508"/>
<text text-anchor="middle" x="370.5" y="-95" font-family="Helvetica,sans-Serif" font-size="10.00"> Headset</text>
</g>
<!-- Node14&#45;&gt;Node1 -->
<g id="edge16" class="edge"><title>Node14&#45;&gt;Node1</title>
<path fill="none" stroke="#9a32cd" stroke-dasharray="5,2" d="M318.923,-22.0679C345.357,-29.1364 374.838,-40.1225 398,-57 435.444,-84.2842 465.515,-132.175 477.219,-152.475"/>
<polygon fill="#9a32cd" stroke="#9a32cd" points="319.514,-18.6071 308.961,-19.5466 317.796,-25.3932 319.514,-18.6071"/>
<text text-anchor="middle" x="370.5" y="-60" font-family="Helvetica,sans-Serif" font-size="10.00"> Keyboard</text>
</g>
</g>
</svg>
