<?xml version="1.0" encoding="UTF-8" standalone="no"?>
<!DOCTYPE svg PUBLIC "-//W3C//DTD SVG 1.1//EN"
 "http://www.w3.org/Graphics/SVG/1.1/DTD/svg11.dtd">
<!-- Generated by graphviz version 2.38.0 (20140413.2041)
 -->
<!-- Title: Corale.Colore.Core.Mouse Pages: 1 -->
<svg width="717pt" height="402pt"
 viewBox="0.00 0.00 717.00 402.00" xmlns="http://www.w3.org/2000/svg" xmlns:xlink="http://www.w3.org/1999/xlink">
<g id="graph0" class="graph" transform="scale(1 1) rotate(0) translate(4 398)">
<title>Corale.Colore.Core.Mouse</title>
<polygon fill="white" stroke="none" points="-4,4 -4,-398 713,-398 713,4 -4,4"/>
<!-- Node1 -->
<g id="node1" class="node"><title>Node1</title>
<polygon fill="#bfbfbf" stroke="black" points="578,-278.5 578,-297.5 709,-297.5 709,-278.5 578,-278.5"/>
<text text-anchor="middle" x="643.5" y="-285.5" font-family="Helvetica,sans-Serif" font-size="10.00">Corale.Colore.Core.Mouse</text>
</g>
<!-- Node2 -->
<g id="node2" class="node"><title>Node2</title>
<g id="a_node2"><a xlink:href="class_corale_1_1_colore_1_1_core_1_1_device.html" target="_top" xlink:title="Base class for devices, containing code common between all devices. ">
<polygon fill="white" stroke="black" points="390.5,-374.5 390.5,-393.5 435.5,-393.5 435.5,-374.5 390.5,-374.5"/>
<text text-anchor="middle" x="413" y="-381.5" font-family="Helvetica,sans-Serif" font-size="10.00">Device</text>
</a>
</g>
</g>
<!-- Node2&#45;&gt;Node1 -->
<g id="edge1" class="edge"><title>Node2&#45;&gt;Node1</title>
<path fill="none" stroke="midnightblue" d="M445.508,-376.055C457.345,-372.879 470.868,-369.022 483,-365 517.862,-353.443 526.844,-350.799 560,-335 584.256,-323.442 611.07,-307.548 627.351,-297.525"/>
<polygon fill="midnightblue" stroke="midnightblue" points="444.397,-372.728 435.616,-378.658 446.178,-379.498 444.397,-372.728"/>
</g>
<!-- Node3 -->
<g id="node3" class="node"><title>Node3</title>
<g id="a_node3"><a xlink:href="interface_corale_1_1_colore_1_1_core_1_1_i_device.html" target="_top" xlink:title="Interface for functionality common with all devices. ">
<polygon fill="white" stroke="black" points="182.5,-338.5 182.5,-357.5 229.5,-357.5 229.5,-338.5 182.5,-338.5"/>
<text text-anchor="middle" x="206" y="-345.5" font-family="Helvetica,sans-Serif" font-size="10.00">IDevice</text>
</a>
</g>
</g>
<!-- Node3&#45;&gt;Node2 -->
<g id="edge2" class="edge"><title>Node3&#45;&gt;Node2</title>
<path fill="none" stroke="midnightblue" d="M239.785,-353.757C282.074,-361.184 354.458,-373.895 390.416,-380.21"/>
<polygon fill="midnightblue" stroke="midnightblue" points="240.177,-350.273 229.722,-351.99 238.966,-357.167 240.177,-350.273"/>
</g>
<!-- Node4 -->
<g id="node4" class="node"><title>Node4</title>
<g id="a_node4"><a xlink:href="interface_corale_1_1_colore_1_1_core_1_1_i_mouse.html" target="_top" xlink:title="Interface for mouse functionality. ">
<polygon fill="white" stroke="black" points="389,-336.5 389,-355.5 437,-355.5 437,-336.5 389,-336.5"/>
<text text-anchor="middle" x="413" y="-343.5" font-family="Helvetica,sans-Serif" font-size="10.00">IMouse</text>
</a>
</g>
</g>
<!-- Node3&#45;&gt;Node4 -->
<g id="edge4" class="edge"><title>Node3&#45;&gt;Node4</title>
<path fill="none" stroke="midnightblue" d="M239.909,-347.679C281.615,-347.272 352.444,-346.581 388.862,-346.226"/>
<polygon fill="midnightblue" stroke="midnightblue" points="239.687,-344.181 229.722,-347.778 239.756,-351.181 239.687,-344.181"/>
</g>
<!-- Node6 -->
<g id="node6" class="node"><title>Node6</title>
<g id="a_node6"><a xlink:href="interface_corale_1_1_colore_1_1_core_1_1_i_mouse.html" target="_top" xlink:title="Interface for mouse functionality. ">
<polygon fill="white" stroke="black" points="346.5,-298.5 346.5,-317.5 479.5,-317.5 479.5,-298.5 346.5,-298.5"/>
<text text-anchor="middle" x="413" y="-305.5" font-family="Helvetica,sans-Serif" font-size="10.00">Corale.Colore.Core.IMouse</text>
</a>
</g>
</g>
<!-- Node3&#45;&gt;Node6 -->
<g id="edge7" class="edge"><title>Node3&#45;&gt;Node6</title>
<path fill="none" stroke="midnightblue" d="M239.834,-341.593C273.119,-335.099 325.01,-324.974 363.127,-317.536"/>
<polygon fill="midnightblue" stroke="midnightblue" points="238.866,-338.216 229.722,-343.566 240.207,-345.087 238.866,-338.216"/>
</g>
<!-- Node4&#45;&gt;Node1 -->
<g id="edge3" class="edge"><title>Node4&#45;&gt;Node1</title>
<path fill="none" stroke="midnightblue" d="M447.052,-340.03C476.802,-334.408 521.612,-325.325 560,-315 578.774,-309.95 599.575,-303.134 615.594,-297.614"/>
<polygon fill="midnightblue" stroke="midnightblue" points="446.381,-336.594 437.193,-341.87 447.665,-343.476 446.381,-336.594"/>
</g>
<!-- Node5 -->
<g id="node5" class="node"><title>Node5</title>
<g id="a_node5"><a xlink:href="interface_corale_1_1_colore_1_1_logging_1_1_i_log.html" target="_top" xlink:title="Describes a logger. ">
<polygon fill="white" stroke="black" points="346.5,-260.5 346.5,-279.5 479.5,-279.5 479.5,-260.5 346.5,-260.5"/>
<text text-anchor="middle" x="413" y="-267.5" font-family="Helvetica,sans-Serif" font-size="10.00">Corale.Colore.Logging.ILog</text>
</a>
</g>
</g>
<!-- Node5&#45;&gt;Node1 -->
<g id="edge5" class="edge"><title>Node5&#45;&gt;Node1</title>
<path fill="none" stroke="#9a32cd" stroke-dasharray="5,2" d="M489.774,-269.267C512.409,-269.665 537.25,-270.713 560,-273 572.167,-274.223 585.232,-276.259 597.296,-278.442"/>
<polygon fill="#9a32cd" stroke="#9a32cd" points="489.591,-265.764 479.545,-269.127 489.496,-272.763 489.591,-265.764"/>
<text text-anchor="middle" x="530.5" y="-276" font-family="Helvetica,sans-Serif" font-size="10.00"> Log</text>
</g>
<!-- Node6&#45;&gt;Node1 -->
<g id="edge6" class="edge"><title>Node6&#45;&gt;Node1</title>
<path fill="none" stroke="#9a32cd" stroke-dasharray="5,2" d="M490.101,-301.339C518.58,-298.846 550.632,-296.041 577.967,-293.648"/>
<polygon fill="#9a32cd" stroke="#9a32cd" points="489.442,-297.883 479.785,-302.242 490.052,-304.857 489.442,-297.883"/>
<text text-anchor="middle" x="530.5" y="-303" font-family="Helvetica,sans-Serif" font-size="10.00"> _instance</text>
</g>
<!-- Node7 -->
<g id="node7" class="node"><title>Node7</title>
<g id="a_node7"><a xlink:href="struct_corale_1_1_colore_1_1_razer_1_1_mouse_1_1_effects_1_1_custom_grid.html" target="_top" xlink:title="Custom grid effect for mouse LEDs. ">
<polygon fill="white" stroke="black" points="343.5,-211 343.5,-241 482.5,-241 482.5,-211 343.5,-211"/>
<text text-anchor="start" x="351.5" y="-229" font-family="Helvetica,sans-Serif" font-size="10.00">Corale.Colore.Razer.Mouse.</text>
<text text-anchor="middle" x="413" y="-218" font-family="Helvetica,sans-Serif" font-size="10.00">Effects.CustomGrid</text>
</a>
</g>
</g>
<!-- Node7&#45;&gt;Node1 -->
<g id="edge8" class="edge"><title>Node7&#45;&gt;Node1</title>
<path fill="none" stroke="#9a32cd" stroke-dasharray="5,2" d="M492.63,-238.074C514.648,-242.265 538.447,-247.564 560,-254 581.969,-260.56 606.11,-270.899 622.569,-278.455"/>
<polygon fill="#9a32cd" stroke="#9a32cd" points="493.123,-234.606 482.653,-236.227 491.849,-241.489 493.123,-234.606"/>
<text text-anchor="middle" x="530.5" y="-257" font-family="Helvetica,sans-Serif" font-size="10.00"> _customGrid</text>
</g>
<!-- Node8 -->
<g id="node8" class="node"><title>Node8</title>
<polygon fill="white" stroke="#bfbfbf" points="140,-291.5 140,-310.5 272,-310.5 272,-291.5 140,-291.5"/>
<text text-anchor="middle" x="206" y="-298.5" font-family="Helvetica,sans-Serif" font-size="10.00">IEquatable&lt; CustomGrid &gt;</text>
</g>
<!-- Node8&#45;&gt;Node7 -->
<g id="edge9" class="edge"><title>Node8&#45;&gt;Node7</title>
<path fill="none" stroke="midnightblue" d="M252.305,-288.549C258.954,-286.493 265.686,-284.283 272,-282 296.148,-273.27 301.49,-269.326 325,-259 333.016,-255.48 334.879,-254.271 343,-251 351.391,-247.62 360.435,-244.192 369.125,-241.002"/>
<polygon fill="midnightblue" stroke="midnightblue" points="251.251,-285.211 242.681,-291.441 253.265,-291.914 251.251,-285.211"/>
</g>
<!-- Node9 -->
<g id="node9" class="node"><title>Node9</title>
<polygon fill="white" stroke="#bfbfbf" points="150,-253.5 150,-272.5 262,-272.5 262,-253.5 150,-253.5"/>
<text text-anchor="middle" x="206" y="-260.5" font-family="Helvetica,sans-Serif" font-size="10.00">IEquatable&lt; Color[][]&gt;</text>
</g>
<!-- Node9&#45;&gt;Node7 -->
<g id="edge10" class="edge"><title>Node9&#45;&gt;Node7</title>
<path fill="none" stroke="midnightblue" d="M269.859,-251.655C293.05,-247.469 319.442,-242.706 343.136,-238.429"/>
<polygon fill="midnightblue" stroke="midnightblue" points="269.012,-248.251 259.793,-253.472 270.255,-255.14 269.012,-248.251"/>
</g>
<!-- Node10 -->
<g id="node10" class="node"><title>Node10</title>
<polygon fill="white" stroke="#bfbfbf" points="153,-215.5 153,-234.5 259,-234.5 259,-215.5 153,-215.5"/>
<text text-anchor="middle" x="206" y="-222.5" font-family="Helvetica,sans-Serif" font-size="10.00">IEquatable&lt; Color[]&gt;</text>
</g>
<!-- Node10&#45;&gt;Node7 -->
<g id="edge11" class="edge"><title>Node10&#45;&gt;Node7</title>
<path fill="none" stroke="midnightblue" d="M269.379,-225.304C292.702,-225.418 319.316,-225.548 343.187,-225.664"/>
<polygon fill="midnightblue" stroke="midnightblue" points="269.278,-221.804 259.261,-225.255 269.243,-228.804 269.278,-221.804"/>
</g>
<!-- Node11 -->
<g id="node11" class="node"><title>Node11</title>
<g id="a_node11"><a xlink:href="struct_corale_1_1_colore_1_1_core_1_1_color.html" target="_top" xlink:title="Represents an RGB color. ">
<polygon fill="white" stroke="black" points="144,-38.5 144,-57.5 268,-57.5 268,-38.5 144,-38.5"/>
<text text-anchor="middle" x="206" y="-45.5" font-family="Helvetica,sans-Serif" font-size="10.00">Corale.Colore.Core.Color</text>
</a>
</g>
</g>
<!-- Node11&#45;&gt;Node7 -->
<g id="edge12" class="edge"><title>Node11&#45;&gt;Node7</title>
<path fill="none" stroke="#9a32cd" stroke-dasharray="5,2" d="M225.595,-64.1457C264.952,-98.3194 356.2,-177.549 394.538,-210.838"/>
<polygon fill="#9a32cd" stroke="#9a32cd" points="227.867,-61.4836 218.022,-57.5701 223.278,-66.7692 227.867,-61.4836"/>
<text text-anchor="middle" x="307.5" y="-151" font-family="Helvetica,sans-Serif" font-size="10.00"> _colors</text>
</g>
<!-- Node11&#45;&gt;Node11 -->
<g id="edge15" class="edge"><title>Node11&#45;&gt;Node11</title>
<path fill="none" stroke="#9a32cd" stroke-dasharray="5,2" d="M190.531,-67.7663C191.746,-72.4965 196.902,-76 206,-76 220.93,-76 225.245,-66.5653 218.947,-57.7571"/>
<polygon fill="#9a32cd" stroke="#9a32cd" points="194.003,-68.3092 193.053,-57.7571 187.216,-66.5986 194.003,-68.3092"/>
<text text-anchor="middle" x="206" y="-189" font-family="Helvetica,sans-Serif" font-size="10.00"> Yellow</text>
<text text-anchor="middle" x="206" y="-178" font-family="Helvetica,sans-Serif" font-size="10.00">White</text>
<text text-anchor="middle" x="206" y="-167" font-family="Helvetica,sans-Serif" font-size="10.00">Pink</text>
<text text-anchor="middle" x="206" y="-156" font-family="Helvetica,sans-Serif" font-size="10.00">HotPink</text>
<text text-anchor="middle" x="206" y="-145" font-family="Helvetica,sans-Serif" font-size="10.00">Blue</text>
<text text-anchor="middle" x="206" y="-134" font-family="Helvetica,sans-Serif" font-size="10.00">Purple</text>
<text text-anchor="middle" x="206" y="-123" font-family="Helvetica,sans-Serif" font-size="10.00">Orange</text>
<text text-anchor="middle" x="206" y="-112" font-family="Helvetica,sans-Serif" font-size="10.00">Black</text>
<text text-anchor="middle" x="206" y="-101" font-family="Helvetica,sans-Serif" font-size="10.00">Red</text>
<text text-anchor="middle" x="206" y="-90" font-family="Helvetica,sans-Serif" font-size="10.00">Green</text>
<text text-anchor="middle" x="206" y="-79" font-family="Helvetica,sans-Serif" font-size="10.00">...</text>
</g>
<!-- Node14 -->
<g id="node14" class="node"><title>Node14</title>
<g id="a_node14"><a xlink:href="struct_corale_1_1_colore_1_1_razer_1_1_effects_1_1_custom.html" target="_top" xlink:title="Describes a custom effect for a system device. ">
<polygon fill="white" stroke="black" points="343,-33 343,-63 483,-63 483,-33 343,-33"/>
<text text-anchor="start" x="351" y="-51" font-family="Helvetica,sans-Serif" font-size="10.00">Corale.Colore.Razer.Effects.</text>
<text text-anchor="middle" x="413" y="-40" font-family="Helvetica,sans-Serif" font-size="10.00">Custom</text>
</a>
</g>
</g>
<!-- Node11&#45;&gt;Node14 -->
<g id="edge18" class="edge"><title>Node11&#45;&gt;Node14</title>
<path fill="none" stroke="#9a32cd" stroke-dasharray="5,2" d="M278.322,-48C299.231,-48 322.053,-48 342.826,-48"/>
<polygon fill="#9a32cd" stroke="#9a32cd" points="278.229,-44.5001 268.229,-48 278.229,-51.5001 278.229,-44.5001"/>
<text text-anchor="middle" x="307.5" y="-51" font-family="Helvetica,sans-Serif" font-size="10.00"> _colors</text>
</g>
<!-- Node12 -->
<g id="node12" class="node"><title>Node12</title>
<polygon fill="white" stroke="#bfbfbf" points="0,-57.5 0,-76.5 103,-76.5 103,-57.5 0,-57.5"/>
<text text-anchor="middle" x="51.5" y="-64.5" font-family="Helvetica,sans-Serif" font-size="10.00">IEquatable&lt; Color &gt;</text>
</g>
<!-- Node12&#45;&gt;Node11 -->
<g id="edge13" class="edge"><title>Node12&#45;&gt;Node11</title>
<path fill="none" stroke="midnightblue" d="M113.209,-59.4362C123.292,-58.18 133.754,-56.8766 143.848,-55.619"/>
<polygon fill="midnightblue" stroke="midnightblue" points="112.771,-55.9637 103.28,-60.6733 113.636,-62.91 112.771,-55.9637"/>
</g>
<!-- Node13 -->
<g id="node13" class="node"><title>Node13</title>
<polygon fill="white" stroke="#bfbfbf" points="3.5,-19.5 3.5,-38.5 99.5,-38.5 99.5,-19.5 3.5,-19.5"/>
<text text-anchor="middle" x="51.5" y="-26.5" font-family="Helvetica,sans-Serif" font-size="10.00">IEquatable&lt; uint &gt;</text>
</g>
<!-- Node13&#45;&gt;Node11 -->
<g id="edge14" class="edge"><title>Node13&#45;&gt;Node11</title>
<path fill="none" stroke="midnightblue" d="M109.909,-36.1526C120.995,-37.5338 132.649,-38.9858 143.849,-40.3812"/>
<polygon fill="midnightblue" stroke="midnightblue" points="110.272,-32.6709 99.916,-34.9076 109.407,-39.6171 110.272,-32.6709"/>
</g>
<!-- Node14&#45;&gt;Node1 -->
<g id="edge16" class="edge"><title>Node14&#45;&gt;Node1</title>
<path fill="none" stroke="#9a32cd" stroke-dasharray="5,2" d="M435.454,-70.5341C483.829,-121.344 599.795,-243.146 633.294,-278.331"/>
<polygon fill="#9a32cd" stroke="#9a32cd" points="437.724,-67.8421 428.294,-63.0131 432.654,-72.669 437.724,-67.8421"/>
<text text-anchor="middle" x="530.5" y="-200" font-family="Helvetica,sans-Serif" font-size="10.00"> _custom</text>
</g>
<!-- Node15 -->
<g id="node15" class="node"><title>Node15</title>
<polygon fill="white" stroke="#bfbfbf" points="149,-0.5 149,-19.5 263,-19.5 263,-0.5 149,-0.5"/>
<text text-anchor="middle" x="206" y="-7.5" font-family="Helvetica,sans-Serif" font-size="10.00">IEquatable&lt; Custom &gt;</text>
</g>
<!-- Node15&#45;&gt;Node14 -->
<g id="edge17" class="edge"><title>Node15&#45;&gt;Node14</title>
<path fill="none" stroke="midnightblue" d="M268.589,-21.4165C291.938,-25.7447 318.676,-30.701 342.69,-35.1522"/>
<polygon fill="midnightblue" stroke="midnightblue" points="268.936,-17.9213 258.466,-19.54 267.66,-24.804 268.936,-17.9213"/>
</g>
</g>
</svg>
