<?xml version="1.0" encoding="UTF-8" standalone="no"?>
<!DOCTYPE svg PUBLIC "-//W3C//DTD SVG 1.1//EN"
 "http://www.w3.org/Graphics/SVG/1.1/DTD/svg11.dtd">
<!-- Generated by graphviz version 2.38.0 (20140413.2041)
 -->
<!-- Title: Corale.Colore.Core.Mouse Pages: 1 -->
<svg width="139pt" height="140pt"
 viewBox="0.00 0.00 139.00 140.00" xmlns="http://www.w3.org/2000/svg" xmlns:xlink="http://www.w3.org/1999/xlink">
<g id="graph0" class="graph" transform="scale(1 1) rotate(0) translate(4 136)">
<title>Corale.Colore.Core.Mouse</title>
<polygon fill="white" stroke="none" points="-4,4 -4,-136 135,-136 135,4 -4,4"/>
<!-- Node1 -->
<g id="node1" class="node"><title>Node1</title>
<polygon fill="#bfbfbf" stroke="black" points="0,-0.5 0,-19.5 131,-19.5 131,-0.5 0,-0.5"/>
<text text-anchor="middle" x="65.5" y="-7.5" font-family="Helvetica,sans-Serif" font-size="10.00">Corale.Colore.Core.Mouse</text>
</g>
<!-- Node2 -->
<g id="node2" class="node"><title>Node2</title>
<g id="a_node2"><a xlink:href="class_corale_1_1_colore_1_1_core_1_1_device.html" target="_top" xlink:title="Base class for devices, containing code common between all devices. ">
<polygon fill="white" stroke="black" points="11,-56.5 11,-75.5 56,-75.5 56,-56.5 11,-56.5"/>
<text text-anchor="middle" x="33.5" y="-63.5" font-family="Helvetica,sans-Serif" font-size="10.00">Device</text>
</a>
</g>
</g>
<!-- Node2&#45;&gt;Node1 -->
<g id="edge1" class="edge"><title>Node2&#45;&gt;Node1</title>
<path fill="none" stroke="midnightblue" d="M44.0039,-47.2747C49.4731,-38.0454 55.9176,-27.1703 60.3142,-19.7511"/>
<polygon fill="midnightblue" stroke="midnightblue" points="40.8712,-45.6957 38.7841,-56.083 46.8932,-49.2644 40.8712,-45.6957"/>
</g>
<!-- Node3 -->
<g id="node3" class="node"><title>Node3</title>
<g id="a_node3"><a xlink:href="interface_corale_1_1_colore_1_1_core_1_1_i_device.html" target="_top" xlink:title="Interface for functionality common with all devices. ">
<polygon fill="white" stroke="black" points="42,-112.5 42,-131.5 89,-131.5 89,-112.5 42,-112.5"/>
<text text-anchor="middle" x="65.5" y="-119.5" font-family="Helvetica,sans-Serif" font-size="10.00">IDevice</text>
</a>
</g>
</g>
<!-- Node3&#45;&gt;Node2 -->
<g id="edge2" class="edge"><title>Node3&#45;&gt;Node2</title>
<path fill="none" stroke="midnightblue" d="M54.9961,-103.275C49.5269,-94.0454 43.0824,-83.1703 38.6858,-75.7511"/>
<polygon fill="midnightblue" stroke="midnightblue" points="52.1068,-105.264 60.2159,-112.083 58.1288,-101.696 52.1068,-105.264"/>
</g>
<!-- Node4 -->
<g id="node4" class="node"><title>Node4</title>
<g id="a_node4"><a xlink:href="interface_corale_1_1_colore_1_1_core_1_1_i_mouse.html" target="_top" xlink:title="Interface for mouse functionality. ">
<polygon fill="white" stroke="black" points="74.5,-56.5 74.5,-75.5 122.5,-75.5 122.5,-56.5 74.5,-56.5"/>
<text text-anchor="middle" x="98.5" y="-63.5" font-family="Helvetica,sans-Serif" font-size="10.00">IMouse</text>
</a>
</g>
</g>
<!-- Node3&#45;&gt;Node4 -->
<g id="edge4" class="edge"><title>Node3&#45;&gt;Node4</title>
<path fill="none" stroke="midnightblue" d="M76.3321,-103.275C81.9722,-94.0454 88.6181,-83.1703 93.1521,-75.7511"/>
<polygon fill="midnightblue" stroke="midnightblue" points="73.1773,-101.725 70.9493,-112.083 79.1503,-105.375 73.1773,-101.725"/>
</g>
<!-- Node4&#45;&gt;Node1 -->
<g id="edge3" class="edge"><title>Node4&#45;&gt;Node1</title>
<path fill="none" stroke="midnightblue" d="M87.6679,-47.2747C82.0278,-38.0454 75.3819,-27.1703 70.8479,-19.7511"/>
<polygon fill="midnightblue" stroke="midnightblue" points="84.8497,-49.3753 93.0507,-56.083 90.8227,-45.7251 84.8497,-49.3753"/>
</g>
</g>
</svg>
