<?xml version="1.0" encoding="UTF-8" standalone="no"?>
<!DOCTYPE svg PUBLIC "-//W3C//DTD SVG 1.1//EN"
 "http://www.w3.org/Graphics/SVG/1.1/DTD/svg11.dtd">
<!-- Generated by graphviz version 2.38.0 (20140413.2041)
 -->
<!-- Title: Corale.Colore.Core.GenericDevice Pages: 1 -->
<svg width="157pt" height="151pt"
 viewBox="0.00 0.00 157.00 151.00" xmlns="http://www.w3.org/2000/svg" xmlns:xlink="http://www.w3.org/1999/xlink">
<g id="graph0" class="graph" transform="scale(1 1) rotate(0) translate(4 147)">
<title>Corale.Colore.Core.GenericDevice</title>
<polygon fill="white" stroke="none" points="-4,4 -4,-147 153,-147 153,4 -4,4"/>
<!-- Node1 -->
<g id="node1" class="node"><title>Node1</title>
<polygon fill="#bfbfbf" stroke="black" points="0,-0.5 0,-30.5 135,-30.5 135,-0.5 0,-0.5"/>
<text text-anchor="start" x="8" y="-18.5" font-family="Helvetica,sans-Serif" font-size="10.00">Corale.Colore.Core.Generic</text>
<text text-anchor="middle" x="67.5" y="-7.5" font-family="Helvetica,sans-Serif" font-size="10.00">Device</text>
</g>
<!-- Node2 -->
<g id="node2" class="node"><title>Node2</title>
<g id="a_node2"><a xlink:href="class_corale_1_1_colore_1_1_core_1_1_device.html" target="_top" xlink:title="Base class for devices, containing code common between all devices. ">
<polygon fill="white" stroke="black" points="5,-67.5 5,-86.5 50,-86.5 50,-67.5 5,-67.5"/>
<text text-anchor="middle" x="27.5" y="-74.5" font-family="Helvetica,sans-Serif" font-size="10.00">Device</text>
</a>
</g>
</g>
<!-- Node2&#45;&gt;Node1 -->
<g id="edge1" class="edge"><title>Node2&#45;&gt;Node1</title>
<path fill="none" stroke="midnightblue" d="M38.9532,-58.9634C45.0083,-49.9564 52.3508,-39.0344 58.0728,-30.523"/>
<polygon fill="midnightblue" stroke="midnightblue" points="35.9056,-57.2234 33.231,-67.4751 41.7149,-61.1288 35.9056,-57.2234"/>
</g>
<!-- Node3 -->
<g id="node3" class="node"><title>Node3</title>
<g id="a_node3"><a xlink:href="interface_corale_1_1_colore_1_1_core_1_1_i_device.html" target="_top" xlink:title="Interface for functionality common with all devices. ">
<polygon fill="white" stroke="black" points="44,-123.5 44,-142.5 91,-142.5 91,-123.5 44,-123.5"/>
<text text-anchor="middle" x="67.5" y="-130.5" font-family="Helvetica,sans-Serif" font-size="10.00">IDevice</text>
</a>
</g>
</g>
<!-- Node3&#45;&gt;Node2 -->
<g id="edge2" class="edge"><title>Node3&#45;&gt;Node2</title>
<path fill="none" stroke="midnightblue" d="M54.8003,-114.855C47.874,-105.505 39.5937,-94.3265 33.9823,-86.7511"/>
<polygon fill="midnightblue" stroke="midnightblue" points="52.13,-117.131 60.8948,-123.083 57.755,-112.964 52.13,-117.131"/>
</g>
<!-- Node4 -->
<g id="node4" class="node"><title>Node4</title>
<g id="a_node4"><a xlink:href="interface_corale_1_1_colore_1_1_core_1_1_i_generic_device.html" target="_top" xlink:title="Interface for generic devices. ">
<polygon fill="white" stroke="black" points="68,-67.5 68,-86.5 149,-86.5 149,-67.5 68,-67.5"/>
<text text-anchor="middle" x="108.5" y="-74.5" font-family="Helvetica,sans-Serif" font-size="10.00">IGenericDevice</text>
</a>
</g>
</g>
<!-- Node3&#45;&gt;Node4 -->
<g id="edge4" class="edge"><title>Node3&#45;&gt;Node4</title>
<path fill="none" stroke="midnightblue" d="M80.5172,-114.855C87.6167,-105.505 96.104,-94.3265 101.856,-86.7511"/>
<polygon fill="midnightblue" stroke="midnightblue" points="77.5299,-113.002 74.2703,-123.083 83.105,-117.235 77.5299,-113.002"/>
</g>
<!-- Node4&#45;&gt;Node1 -->
<g id="edge3" class="edge"><title>Node4&#45;&gt;Node1</title>
<path fill="none" stroke="midnightblue" d="M96.7605,-58.9634C90.554,-49.9564 83.0279,-39.0344 77.1629,-30.523"/>
<polygon fill="midnightblue" stroke="midnightblue" points="94.0695,-61.2267 102.626,-67.4751 99.8336,-57.2548 94.0695,-61.2267"/>
</g>
</g>
</svg>
