<?xml version="1.0" encoding="UTF-8" standalone="no"?>
<!DOCTYPE svg PUBLIC "-//W3C//DTD SVG 1.1//EN"
 "http://www.w3.org/Graphics/SVG/1.1/DTD/svg11.dtd">
<!-- Generated by graphviz version 2.38.0 (20140413.2041)
 -->
<!-- Title: Corale.Colore.Core.Keypad Pages: 1 -->
<svg width="591pt" height="200pt"
 viewBox="0.00 0.00 591.00 199.50" xmlns="http://www.w3.org/2000/svg" xmlns:xlink="http://www.w3.org/1999/xlink">
<g id="graph0" class="graph" transform="scale(1 1) rotate(0) translate(4 195.5)">
<title>Corale.Colore.Core.Keypad</title>
<polygon fill="white" stroke="none" points="-4,4 -4,-195.5 587,-195.5 587,4 -4,4"/>
<!-- Node1 -->
<g id="node1" class="node"><title>Node1</title>
<polygon fill="#bfbfbf" stroke="black" points="449,-115 449,-134 583,-134 583,-115 449,-115"/>
<text text-anchor="middle" x="516" y="-122" font-family="Helvetica,sans-Serif" font-size="10.00">Corale.Colore.Core.Keypad</text>
</g>
<!-- Node2 -->
<g id="node2" class="node"><title>Node2</title>
<g id="a_node2"><a xlink:href="class_corale_1_1_colore_1_1_core_1_1_device.html" target="_top" xlink:title="Base class for devices, containing code common between all devices. ">
<polygon fill="white" stroke="black" points="269,-172 269,-191 314,-191 314,-172 269,-172"/>
<text text-anchor="middle" x="291.5" y="-179" font-family="Helvetica,sans-Serif" font-size="10.00">Device</text>
</a>
</g>
</g>
<!-- Node2&#45;&gt;Node1 -->
<g id="edge1" class="edge"><title>Node2&#45;&gt;Node1</title>
<path fill="none" stroke="midnightblue" d="M324.181,-173.976C352.292,-167.239 394.45,-156.988 431,-147.5 447.391,-143.245 465.518,-138.311 480.725,-134.106"/>
<polygon fill="midnightblue" stroke="midnightblue" points="323.048,-170.648 314.136,-176.377 324.675,-177.456 323.048,-170.648"/>
</g>
<!-- Node3 -->
<g id="node3" class="node"><title>Node3</title>
<g id="a_node3"><a xlink:href="interface_corale_1_1_colore_1_1_core_1_1_i_device.html" target="_top" xlink:title="Interface for functionality common with all devices. ">
<polygon fill="white" stroke="black" points="52,-135 52,-154 99,-154 99,-135 52,-135"/>
<text text-anchor="middle" x="75.5" y="-142" font-family="Helvetica,sans-Serif" font-size="10.00">IDevice</text>
</a>
</g>
</g>
<!-- Node3&#45;&gt;Node2 -->
<g id="edge2" class="edge"><title>Node3&#45;&gt;Node2</title>
<path fill="none" stroke="midnightblue" d="M109.361,-150.182C153.592,-157.829 231.068,-171.224 268.722,-177.735"/>
<polygon fill="midnightblue" stroke="midnightblue" points="109.852,-146.715 99.4017,-148.46 108.659,-153.612 109.852,-146.715"/>
</g>
<!-- Node4 -->
<g id="node4" class="node"><title>Node4</title>
<g id="a_node4"><a xlink:href="interface_corale_1_1_colore_1_1_core_1_1_i_keypad.html" target="_top" xlink:title="Interface for keypad functions. ">
<polygon fill="white" stroke="black" points="265.5,-134 265.5,-153 317.5,-153 317.5,-134 265.5,-134"/>
<text text-anchor="middle" x="291.5" y="-141" font-family="Helvetica,sans-Serif" font-size="10.00">IKeypad</text>
</a>
</g>
</g>
<!-- Node3&#45;&gt;Node4 -->
<g id="edge4" class="edge"><title>Node3&#45;&gt;Node4</title>
<path fill="none" stroke="midnightblue" d="M109.63,-144.345C152.662,-144.144 226.827,-143.798 265.46,-143.617"/>
<polygon fill="midnightblue" stroke="midnightblue" points="109.385,-140.846 99.4017,-144.393 109.418,-147.846 109.385,-140.846"/>
</g>
<!-- Node9 -->
<g id="node9" class="node"><title>Node9</title>
<g id="a_node9"><a xlink:href="interface_corale_1_1_colore_1_1_core_1_1_i_keypad.html" target="_top" xlink:title="Interface for keypad functions. ">
<polygon fill="white" stroke="black" points="223,-96 223,-115 360,-115 360,-96 223,-96"/>
<text text-anchor="middle" x="291.5" y="-103" font-family="Helvetica,sans-Serif" font-size="10.00">Corale.Colore.Core.IKeypad</text>
</a>
</g>
</g>
<!-- Node3&#45;&gt;Node9 -->
<g id="edge10" class="edge"><title>Node3&#45;&gt;Node9</title>
<path fill="none" stroke="midnightblue" d="M109.368,-138.51C143.672,-132.258 197.967,-122.364 238.175,-115.036"/>
<polygon fill="midnightblue" stroke="midnightblue" points="108.612,-135.09 99.4017,-140.326 109.867,-141.977 108.612,-135.09"/>
</g>
<!-- Node4&#45;&gt;Node1 -->
<g id="edge3" class="edge"><title>Node4&#45;&gt;Node1</title>
<path fill="none" stroke="midnightblue" d="M327.92,-140.475C360.339,-137.707 409.151,-133.539 448.786,-130.154"/>
<polygon fill="midnightblue" stroke="midnightblue" points="327.257,-137.019 317.591,-141.357 327.853,-143.994 327.257,-137.019"/>
</g>
<!-- Node5 -->
<g id="node5" class="node"><title>Node5</title>
<g id="a_node5"><a xlink:href="struct_corale_1_1_colore_1_1_razer_1_1_keyboard_1_1_effects_1_1_custom.html" target="_top" xlink:title="Describes a custom grid effect for every key. ">
<polygon fill="white" stroke="black" points="216,-45.5 216,-75.5 367,-75.5 367,-45.5 216,-45.5"/>
<text text-anchor="start" x="224" y="-63.5" font-family="Helvetica,sans-Serif" font-size="10.00">Corale.Colore.Razer.Keyboard.</text>
<text text-anchor="middle" x="291.5" y="-52.5" font-family="Helvetica,sans-Serif" font-size="10.00">Effects.Custom</text>
</a>
</g>
</g>
<!-- Node5&#45;&gt;Node1 -->
<g id="edge5" class="edge"><title>Node5&#45;&gt;Node1</title>
<path fill="none" stroke="#9a32cd" stroke-dasharray="5,2" d="M356.336,-78.2627C379.831,-84.8564 406.646,-92.4473 431,-99.5 448.246,-104.494 467.44,-110.196 483.122,-114.892"/>
<polygon fill="#9a32cd" stroke="#9a32cd" points="357.061,-74.8309 346.487,-75.5024 355.172,-81.5712 357.061,-74.8309"/>
<text text-anchor="middle" x="408" y="-102.5" font-family="Helvetica,sans-Serif" font-size="10.00"> _custom</text>
</g>
<!-- Node6 -->
<g id="node6" class="node"><title>Node6</title>
<polygon fill="white" stroke="#bfbfbf" points="18.5,-88 18.5,-107 132.5,-107 132.5,-88 18.5,-88"/>
<text text-anchor="middle" x="75.5" y="-95" font-family="Helvetica,sans-Serif" font-size="10.00">IEquatable&lt; Custom &gt;</text>
</g>
<!-- Node6&#45;&gt;Node5 -->
<g id="edge6" class="edge"><title>Node6&#45;&gt;Node5</title>
<path fill="none" stroke="midnightblue" d="M141.767,-86.2155C165.153,-82.1721 191.693,-77.5834 215.815,-73.4128"/>
<polygon fill="midnightblue" stroke="midnightblue" points="140.868,-82.819 131.61,-87.9716 142.06,-89.7166 140.868,-82.819"/>
</g>
<!-- Node7 -->
<g id="node7" class="node"><title>Node7</title>
<polygon fill="white" stroke="#bfbfbf" points="19.5,-50 19.5,-69 131.5,-69 131.5,-50 19.5,-50"/>
<text text-anchor="middle" x="75.5" y="-57" font-family="Helvetica,sans-Serif" font-size="10.00">IEquatable&lt; Color[][]&gt;</text>
</g>
<!-- Node7&#45;&gt;Node5 -->
<g id="edge7" class="edge"><title>Node7&#45;&gt;Node5</title>
<path fill="none" stroke="midnightblue" d="M141.767,-59.805C165.153,-59.9143 191.693,-60.0383 215.815,-60.151"/>
<polygon fill="midnightblue" stroke="midnightblue" points="141.627,-56.3044 131.61,-59.7575 141.594,-63.3043 141.627,-56.3044"/>
</g>
<!-- Node8 -->
<g id="node8" class="node"><title>Node8</title>
<g id="a_node8"><a xlink:href="struct_corale_1_1_colore_1_1_razer_1_1_keyboard_1_1_effects_1_1_custom_1_1_row.html" target="_top" xlink:title="Container struct holding color definitions for a single row in the custom grid. ">
<polygon fill="white" stroke="black" points="0,-0.5 0,-30.5 151,-30.5 151,-0.5 0,-0.5"/>
<text text-anchor="start" x="8" y="-18.5" font-family="Helvetica,sans-Serif" font-size="10.00">Corale.Colore.Razer.Keyboard.</text>
<text text-anchor="middle" x="75.5" y="-7.5" font-family="Helvetica,sans-Serif" font-size="10.00">Effects.Custom.Row</text>
</a>
</g>
</g>
<!-- Node8&#45;&gt;Node5 -->
<g id="edge8" class="edge"><title>Node8&#45;&gt;Node5</title>
<path fill="none" stroke="#9a32cd" stroke-dasharray="5,2" d="M158.099,-32.6586C178.154,-36.8759 199.473,-41.3589 219.011,-45.4673"/>
<polygon fill="#9a32cd" stroke="#9a32cd" points="158.563,-29.1797 148.056,-30.5469 157.122,-36.0299 158.563,-29.1797"/>
<text text-anchor="middle" x="183.5" y="-44.5" font-family="Helvetica,sans-Serif" font-size="10.00"> _rows</text>
</g>
<!-- Node9&#45;&gt;Node1 -->
<g id="edge9" class="edge"><title>Node9&#45;&gt;Node1</title>
<path fill="none" stroke="#9a32cd" stroke-dasharray="5,2" d="M370.22,-112.137C395.856,-114.326 424.112,-116.739 448.805,-118.847"/>
<polygon fill="#9a32cd" stroke="#9a32cd" points="370.425,-108.642 360.164,-111.278 369.829,-115.616 370.425,-108.642"/>
<text text-anchor="middle" x="408" y="-120.5" font-family="Helvetica,sans-Serif" font-size="10.00"> _instance</text>
</g>
</g>
</svg>
