<?xml version="1.0" encoding="UTF-8" standalone="no"?>
<!DOCTYPE svg PUBLIC "-//W3C//DTD SVG 1.1//EN"
 "http://www.w3.org/Graphics/SVG/1.1/DTD/svg11.dtd">
<!-- Generated by graphviz version 2.38.0 (20140413.2041)
 -->
<!-- Title: Corale.Colore.Core.Mousepad Pages: 1 -->
<svg width="154pt" height="140pt"
 viewBox="0.00 0.00 154.00 140.00" xmlns="http://www.w3.org/2000/svg" xmlns:xlink="http://www.w3.org/1999/xlink">
<g id="graph0" class="graph" transform="scale(1 1) rotate(0) translate(4 136)">
<title>Corale.Colore.Core.Mousepad</title>
<polygon fill="white" stroke="none" points="-4,4 -4,-136 150,-136 150,4 -4,4"/>
<!-- Node1 -->
<g id="node1" class="node"><title>Node1</title>
<polygon fill="#bfbfbf" stroke="black" points="0,-0.5 0,-19.5 146,-19.5 146,-0.5 0,-0.5"/>
<text text-anchor="middle" x="73" y="-7.5" font-family="Helvetica,sans-Serif" font-size="10.00">Corale.Colore.Core.Mousepad</text>
</g>
<!-- Node2 -->
<g id="node2" class="node"><title>Node2</title>
<g id="a_node2"><a xlink:href="class_corale_1_1_colore_1_1_core_1_1_device.html" target="_top" xlink:title="Base class for devices, containing code common between all devices. ">
<polygon fill="white" stroke="black" points="14.5,-56.5 14.5,-75.5 59.5,-75.5 59.5,-56.5 14.5,-56.5"/>
<text text-anchor="middle" x="37" y="-63.5" font-family="Helvetica,sans-Serif" font-size="10.00">Device</text>
</a>
</g>
</g>
<!-- Node2&#45;&gt;Node1 -->
<g id="edge1" class="edge"><title>Node2&#45;&gt;Node1</title>
<path fill="none" stroke="midnightblue" d="M48.6229,-47.5656C54.8168,-38.2747 62.1677,-27.2484 67.1659,-19.7511"/>
<polygon fill="midnightblue" stroke="midnightblue" points="45.5795,-45.821 42.9447,-56.083 51.4039,-49.7039 45.5795,-45.821"/>
</g>
<!-- Node3 -->
<g id="node3" class="node"><title>Node3</title>
<g id="a_node3"><a xlink:href="interface_corale_1_1_colore_1_1_core_1_1_i_device.html" target="_top" xlink:title="Interface for functionality common with all devices. ">
<polygon fill="white" stroke="black" points="86.5,-112.5 86.5,-131.5 133.5,-131.5 133.5,-112.5 86.5,-112.5"/>
<text text-anchor="middle" x="110" y="-119.5" font-family="Helvetica,sans-Serif" font-size="10.00">IDevice</text>
</a>
</g>
</g>
<!-- Node3&#45;&gt;Node2 -->
<g id="edge2" class="edge"><title>Node3&#45;&gt;Node2</title>
<path fill="none" stroke="midnightblue" d="M89.8584,-106.101C76.7207,-96.3824 60.0179,-84.0269 48.9421,-75.8339"/>
<polygon fill="midnightblue" stroke="midnightblue" points="88.1503,-109.191 98.2713,-112.324 92.3133,-103.563 88.1503,-109.191"/>
</g>
<!-- Node4 -->
<g id="node4" class="node"><title>Node4</title>
<g id="a_node4"><a xlink:href="interface_corale_1_1_colore_1_1_core_1_1_i_mousepad.html" target="_top" xlink:title="Interface for mouse pad functionality. ">
<polygon fill="white" stroke="black" points="78,-56.5 78,-75.5 142,-75.5 142,-56.5 78,-56.5"/>
<text text-anchor="middle" x="110" y="-63.5" font-family="Helvetica,sans-Serif" font-size="10.00">IMousepad</text>
</a>
</g>
</g>
<!-- Node3&#45;&gt;Node4 -->
<g id="edge4" class="edge"><title>Node3&#45;&gt;Node4</title>
<path fill="none" stroke="midnightblue" d="M103.528,-102.101C102.896,-93.1357 103.343,-82.8579 104.869,-75.7511"/>
<polygon fill="midnightblue" stroke="midnightblue" points="100.066,-102.622 104.834,-112.083 107.007,-101.713 100.066,-102.622"/>
</g>
<!-- Node3&#45;&gt;Node4 -->
<g id="edge5" class="edge"><title>Node3&#45;&gt;Node4</title>
<path fill="none" stroke="midnightblue" d="M116.472,-102.101C117.104,-93.1357 116.657,-82.8579 115.131,-75.7511"/>
<polygon fill="midnightblue" stroke="midnightblue" points="112.993,-101.713 115.166,-112.083 119.934,-102.622 112.993,-101.713"/>
</g>
<!-- Node4&#45;&gt;Node1 -->
<g id="edge3" class="edge"><title>Node4&#45;&gt;Node1</title>
<path fill="none" stroke="midnightblue" d="M98.0542,-47.5656C91.6883,-38.2747 84.1332,-27.2484 78.9961,-19.7511"/>
<polygon fill="midnightblue" stroke="midnightblue" points="95.3506,-49.812 103.89,-56.083 101.125,-45.8553 95.3506,-49.812"/>
</g>
</g>
</svg>
