<?xml version="1.0" encoding="UTF-8" standalone="no"?>
<!DOCTYPE svg PUBLIC "-//W3C//DTD SVG 1.1//EN"
 "http://www.w3.org/Graphics/SVG/1.1/DTD/svg11.dtd">
<!-- Generated by graphviz version 2.38.0 (20140413.2041)
 -->
<!-- Title: Corale.Colore.Core.Keyboard Pages: 1 -->
<svg width="151pt" height="140pt"
 viewBox="0.00 0.00 151.00 140.00" xmlns="http://www.w3.org/2000/svg" xmlns:xlink="http://www.w3.org/1999/xlink">
<g id="graph0" class="graph" transform="scale(1 1) rotate(0) translate(4 136)">
<title>Corale.Colore.Core.Keyboard</title>
<polygon fill="white" stroke="none" points="-4,4 -4,-136 147,-136 147,4 -4,4"/>
<!-- Node1 -->
<g id="node1" class="node"><title>Node1</title>
<polygon fill="#bfbfbf" stroke="black" points="0,-0.5 0,-19.5 143,-19.5 143,-0.5 0,-0.5"/>
<text text-anchor="middle" x="71.5" y="-7.5" font-family="Helvetica,sans-Serif" font-size="10.00">Corale.Colore.Core.Keyboard</text>
</g>
<!-- Node2 -->
<g id="node2" class="node"><title>Node2</title>
<g id="a_node2"><a xlink:href="class_corale_1_1_colore_1_1_core_1_1_device.html" target="_top" xlink:title="Base class for devices, containing code common between all devices. ">
<polygon fill="white" stroke="black" points="14,-56.5 14,-75.5 59,-75.5 59,-56.5 14,-56.5"/>
<text text-anchor="middle" x="36.5" y="-63.5" font-family="Helvetica,sans-Serif" font-size="10.00">Device</text>
</a>
</g>
</g>
<!-- Node2&#45;&gt;Node1 -->
<g id="edge1" class="edge"><title>Node2&#45;&gt;Node1</title>
<path fill="none" stroke="midnightblue" d="M47.8001,-47.5656C53.8219,-38.2747 60.9686,-27.2484 65.828,-19.7511"/>
<polygon fill="midnightblue" stroke="midnightblue" points="44.7815,-45.7878 42.2795,-56.083 50.6556,-49.5951 44.7815,-45.7878"/>
</g>
<!-- Node3 -->
<g id="node3" class="node"><title>Node3</title>
<g id="a_node3"><a xlink:href="interface_corale_1_1_colore_1_1_core_1_1_i_device.html" target="_top" xlink:title="Interface for functionality common with all devices. ">
<polygon fill="white" stroke="black" points="48,-112.5 48,-131.5 95,-131.5 95,-112.5 48,-112.5"/>
<text text-anchor="middle" x="71.5" y="-119.5" font-family="Helvetica,sans-Serif" font-size="10.00">IDevice</text>
</a>
</g>
</g>
<!-- Node3&#45;&gt;Node2 -->
<g id="edge2" class="edge"><title>Node3&#45;&gt;Node2</title>
<path fill="none" stroke="midnightblue" d="M60.1999,-103.566C54.1781,-94.2747 47.0314,-83.2484 42.172,-75.7511"/>
<polygon fill="midnightblue" stroke="midnightblue" points="57.3444,-105.595 65.7205,-112.083 63.2185,-101.788 57.3444,-105.595"/>
</g>
<!-- Node4 -->
<g id="node4" class="node"><title>Node4</title>
<g id="a_node4"><a xlink:href="interface_corale_1_1_colore_1_1_core_1_1_i_keyboard.html" target="_top" xlink:title="Interface for keyboard functionality. ">
<polygon fill="white" stroke="black" points="77.5,-56.5 77.5,-75.5 137.5,-75.5 137.5,-56.5 77.5,-56.5"/>
<text text-anchor="middle" x="107.5" y="-63.5" font-family="Helvetica,sans-Serif" font-size="10.00">IKeyboard</text>
</a>
</g>
</g>
<!-- Node3&#45;&gt;Node4 -->
<g id="edge4" class="edge"><title>Node3&#45;&gt;Node4</title>
<path fill="none" stroke="midnightblue" d="M83.1229,-103.566C89.3168,-94.2747 96.6677,-83.2484 101.666,-75.7511"/>
<polygon fill="midnightblue" stroke="midnightblue" points="80.0795,-101.821 77.4447,-112.083 85.9039,-105.704 80.0795,-101.821"/>
</g>
<!-- Node4&#45;&gt;Node1 -->
<g id="edge3" class="edge"><title>Node4&#45;&gt;Node1</title>
<path fill="none" stroke="midnightblue" d="M95.8771,-47.5656C89.6832,-38.2747 82.3323,-27.2484 77.3341,-19.7511"/>
<polygon fill="midnightblue" stroke="midnightblue" points="93.0961,-49.7039 101.555,-56.083 98.9205,-45.821 93.0961,-49.7039"/>
</g>
</g>
</svg>
