<?xml version="1.0" encoding="UTF-8" standalone="no"?>
<!DOCTYPE svg PUBLIC "-//W3C//DTD SVG 1.1//EN"
 "http://www.w3.org/Graphics/SVG/1.1/DTD/svg11.dtd">
<!-- Generated by graphviz version 2.38.0 (20140413.2041)
 -->
<!-- Title: Corale.Colore.Core.Device Pages: 1 -->
<svg width="410pt" height="268pt"
 viewBox="0.00 0.00 410.00 268.00" xmlns="http://www.w3.org/2000/svg" xmlns:xlink="http://www.w3.org/1999/xlink">
<g id="graph0" class="graph" transform="scale(1 1) rotate(0) translate(4 264)">
<title>Corale.Colore.Core.Device</title>
<polygon fill="white" stroke="none" points="-4,4 -4,-264 406,-264 406,4 -4,4"/>
<!-- Node0 -->
<g id="node1" class="node"><title>Node0</title>
<polygon fill="#bfbfbf" stroke="black" points="83,-114.5 83,-133.5 213,-133.5 213,-114.5 83,-114.5"/>
<text text-anchor="middle" x="148" y="-121.5" font-family="Helvetica,sans-Serif" font-size="10.00">Corale.Colore.Core.Device</text>
</g>
<!-- Node2 -->
<g id="node3" class="node"><title>Node2</title>
<g id="a_node3"><a xlink:href="class_corale_1_1_colore_1_1_core_1_1_chroma_link.html" target="_top" xlink:title="Class for interacting with a Chroma Link. ">
<polygon fill="white" stroke="black" points="249,-240.5 249,-259.5 402,-259.5 402,-240.5 249,-240.5"/>
<text text-anchor="middle" x="325.5" y="-247.5" font-family="Helvetica,sans-Serif" font-size="10.00">Corale.Colore.Core.ChromaLink</text>
</a>
</g>
</g>
<!-- Node0&#45;&gt;Node2 -->
<g id="edge2" class="edge"><title>Node0&#45;&gt;Node2</title>
<path fill="none" stroke="midnightblue" d="M160.992,-142.288C177.763,-166.37 210.525,-208.308 249,-231 255.52,-234.845 262.8,-237.917 270.196,-240.37"/>
<polygon fill="midnightblue" stroke="midnightblue" points="163.695,-140.038 155.183,-133.729 157.903,-143.969 163.695,-140.038"/>
</g>
<!-- Node3 -->
<g id="node4" class="node"><title>Node3</title>
<g id="a_node4"><a xlink:href="class_corale_1_1_colore_1_1_core_1_1_generic_device.html" target="_top" xlink:title="A generic device. ">
<polygon fill="white" stroke="black" points="258,-191 258,-221 393,-221 393,-191 258,-191"/>
<text text-anchor="start" x="266" y="-209" font-family="Helvetica,sans-Serif" font-size="10.00">Corale.Colore.Core.Generic</text>
<text text-anchor="middle" x="325.5" y="-198" font-family="Helvetica,sans-Serif" font-size="10.00">Device</text>
</a>
</g>
</g>
<!-- Node0&#45;&gt;Node3 -->
<g id="edge3" class="edge"><title>Node0&#45;&gt;Node3</title>
<path fill="none" stroke="midnightblue" d="M172.411,-139.115C192.249,-151.485 221.736,-168.86 249,-181 257.073,-184.595 265.828,-187.954 274.42,-190.972"/>
<polygon fill="midnightblue" stroke="midnightblue" points="174.084,-136.032 163.76,-133.655 170.349,-141.952 174.084,-136.032"/>
</g>
<!-- Node4 -->
<g id="node5" class="node"><title>Node4</title>
<g id="a_node5"><a xlink:href="class_corale_1_1_colore_1_1_core_1_1_headset.html" target="_top" xlink:title="Class for interacting with Chroma Headsets. ">
<polygon fill="white" stroke="black" points="257,-152.5 257,-171.5 394,-171.5 394,-152.5 257,-152.5"/>
<text text-anchor="middle" x="325.5" y="-159.5" font-family="Helvetica,sans-Serif" font-size="10.00">Corale.Colore.Core.Headset</text>
</a>
</g>
</g>
<!-- Node0&#45;&gt;Node4 -->
<g id="edge4" class="edge"><title>Node0&#45;&gt;Node4</title>
<path fill="none" stroke="midnightblue" d="M203.278,-135.753C228.094,-141.126 257.111,-147.409 280.532,-152.48"/>
<polygon fill="midnightblue" stroke="midnightblue" points="203.8,-132.285 193.286,-133.589 202.319,-139.126 203.8,-132.285"/>
</g>
<!-- Node5 -->
<g id="node6" class="node"><title>Node5</title>
<g id="a_node6"><a xlink:href="class_corale_1_1_colore_1_1_core_1_1_keyboard.html" target="_top" xlink:title="Class for interacting with a Chroma keyboard. ">
<polygon fill="white" stroke="black" points="254,-114.5 254,-133.5 397,-133.5 397,-114.5 254,-114.5"/>
<text text-anchor="middle" x="325.5" y="-121.5" font-family="Helvetica,sans-Serif" font-size="10.00">Corale.Colore.Core.Keyboard</text>
</a>
</g>
</g>
<!-- Node0&#45;&gt;Node5 -->
<g id="edge5" class="edge"><title>Node0&#45;&gt;Node5</title>
<path fill="none" stroke="midnightblue" d="M223.381,-124C233.51,-124 243.882,-124 253.941,-124"/>
<polygon fill="midnightblue" stroke="midnightblue" points="223.353,-120.5 213.353,-124 223.353,-127.5 223.353,-120.5"/>
</g>
<!-- Node6 -->
<g id="node7" class="node"><title>Node6</title>
<g id="a_node7"><a xlink:href="class_corale_1_1_colore_1_1_core_1_1_keypad.html" target="_top" xlink:title="Class for interacting with a Chroma keypad. ">
<polygon fill="white" stroke="black" points="258.5,-76.5 258.5,-95.5 392.5,-95.5 392.5,-76.5 258.5,-76.5"/>
<text text-anchor="middle" x="325.5" y="-83.5" font-family="Helvetica,sans-Serif" font-size="10.00">Corale.Colore.Core.Keypad</text>
</a>
</g>
</g>
<!-- Node0&#45;&gt;Node6 -->
<g id="edge6" class="edge"><title>Node0&#45;&gt;Node6</title>
<path fill="none" stroke="midnightblue" d="M203.278,-112.247C228.094,-106.874 257.111,-100.591 280.532,-95.5201"/>
<polygon fill="midnightblue" stroke="midnightblue" points="202.319,-108.874 193.286,-114.411 203.8,-115.715 202.319,-108.874"/>
</g>
<!-- Node7 -->
<g id="node8" class="node"><title>Node7</title>
<g id="a_node8"><a xlink:href="class_corale_1_1_colore_1_1_core_1_1_mouse.html" target="_top" xlink:title="Class for interacting with a Chroma mouse. ">
<polygon fill="white" stroke="black" points="260,-38.5 260,-57.5 391,-57.5 391,-38.5 260,-38.5"/>
<text text-anchor="middle" x="325.5" y="-45.5" font-family="Helvetica,sans-Serif" font-size="10.00">Corale.Colore.Core.Mouse</text>
</a>
</g>
</g>
<!-- Node0&#45;&gt;Node7 -->
<g id="edge7" class="edge"><title>Node0&#45;&gt;Node7</title>
<path fill="none" stroke="midnightblue" d="M171.51,-108.799C191.213,-96.0829 220.99,-78.2625 249,-67 258.155,-63.3191 268.227,-60.1925 277.95,-57.6033"/>
<polygon fill="midnightblue" stroke="midnightblue" points="169.397,-105.999 162.954,-114.41 173.235,-111.853 169.397,-105.999"/>
</g>
<!-- Node8 -->
<g id="node9" class="node"><title>Node8</title>
<g id="a_node9"><a xlink:href="class_corale_1_1_colore_1_1_core_1_1_mousepad.html" target="_top" xlink:title="Class for interacting with a Chroma mouse pad. ">
<polygon fill="white" stroke="black" points="252.5,-0.5 252.5,-19.5 398.5,-19.5 398.5,-0.5 252.5,-0.5"/>
<text text-anchor="middle" x="325.5" y="-7.5" font-family="Helvetica,sans-Serif" font-size="10.00">Corale.Colore.Core.Mousepad</text>
</a>
</g>
</g>
<!-- Node0&#45;&gt;Node8 -->
<g id="edge8" class="edge"><title>Node0&#45;&gt;Node8</title>
<path fill="none" stroke="midnightblue" d="M162.768,-106.212C180.412,-84.6609 213.045,-48.7894 249,-29 255.986,-25.1547 263.763,-22.0727 271.594,-19.6063"/>
<polygon fill="midnightblue" stroke="midnightblue" points="159.872,-104.229 156.359,-114.224 165.339,-108.601 159.872,-104.229"/>
</g>
<!-- Node1 -->
<g id="node2" class="node"><title>Node1</title>
<g id="a_node2"><a xlink:href="interface_corale_1_1_colore_1_1_core_1_1_i_device.html" target="_top" xlink:title="Interface for functionality common with all devices. ">
<polygon fill="white" stroke="black" points="0,-114.5 0,-133.5 47,-133.5 47,-114.5 0,-114.5"/>
<text text-anchor="middle" x="23.5" y="-121.5" font-family="Helvetica,sans-Serif" font-size="10.00">IDevice</text>
</a>
</g>
</g>
<!-- Node1&#45;&gt;Node0 -->
<g id="edge1" class="edge"><title>Node1&#45;&gt;Node0</title>
<path fill="none" stroke="midnightblue" d="M57.4931,-124C65.4196,-124 74.1547,-124 82.9667,-124"/>
<polygon fill="midnightblue" stroke="midnightblue" points="57.2543,-120.5 47.2542,-124 57.2542,-127.5 57.2543,-120.5"/>
</g>
</g>
</svg>
