<?xml version="1.0" encoding="UTF-8" standalone="no"?>
<!DOCTYPE svg PUBLIC "-//W3C//DTD SVG 1.1//EN"
 "http://www.w3.org/Graphics/SVG/1.1/DTD/svg11.dtd">
<!-- Generated by graphviz version 2.38.0 (20140413.2041)
 -->
<!-- Title: Corale.Colore.Core.Keypad Pages: 1 -->
<svg width="591pt" height="221pt"
 viewBox="0.00 0.00 591.00 220.50" xmlns="http://www.w3.org/2000/svg" xmlns:xlink="http://www.w3.org/1999/xlink">
<g id="graph0" class="graph" transform="scale(1 1) rotate(0) translate(4 216.5)">
<title>Corale.Colore.Core.Keypad</title>
<polygon fill="white" stroke="none" points="-4,4 -4,-216.5 587,-216.5 587,4 -4,4"/>
<!-- Node1 -->
<g id="node1" class="node"><title>Node1</title>
<polygon fill="#bfbfbf" stroke="black" points="449,-150 449,-169 583,-169 583,-150 449,-150"/>
<text text-anchor="middle" x="516" y="-157" font-family="Helvetica,sans-Serif" font-size="10.00">Corale.Colore.Core.Keypad</text>
</g>
<!-- Node2 -->
<g id="node2" class="node"><title>Node2</title>
<g id="a_node2"><a xlink:href="class_corale_1_1_colore_1_1_core_1_1_device.html" target="_top" xlink:title="Base class for devices, containing code common between all devices. ">
<polygon fill="white" stroke="black" points="269,-193 269,-212 314,-212 314,-193 269,-193"/>
<text text-anchor="middle" x="291.5" y="-200" font-family="Helvetica,sans-Serif" font-size="10.00">Device</text>
</a>
</g>
</g>
<!-- Node2&#45;&gt;Node1 -->
<g id="edge1" class="edge"><title>Node2&#45;&gt;Node1</title>
<path fill="none" stroke="midnightblue" d="M324.235,-190.772C352.381,-184.61 394.56,-177.855 431,-170.5 436.731,-169.343 442.665,-168.075 448.608,-166.787"/>
<polygon fill="midnightblue" stroke="midnightblue" points="323.126,-187.436 314.176,-193.105 324.708,-194.255 323.126,-187.436"/>
</g>
<!-- Node2&#45;&gt;Node1 -->
<g id="edge6" class="edge"><title>Node2&#45;&gt;Node1</title>
<path fill="none" stroke="midnightblue" d="M324.235,-204.966C352.381,-202.61 394.56,-195.855 431,-188.5 456.422,-183.369 485.846,-176.039 502.253,-169.048"/>
<polygon fill="midnightblue" stroke="midnightblue" points="323.917,-201.479 314.176,-205.645 324.389,-208.463 323.917,-201.479"/>
</g>
<!-- Node3 -->
<g id="node3" class="node"><title>Node3</title>
<g id="a_node3"><a xlink:href="interface_corale_1_1_colore_1_1_core_1_1_i_device.html" target="_top" xlink:title="Interface for functionality common with all devices. ">
<polygon fill="white" stroke="black" points="52,-158 52,-177 99,-177 99,-158 52,-158"/>
<text text-anchor="middle" x="75.5" y="-165" font-family="Helvetica,sans-Serif" font-size="10.00">IDevice</text>
</a>
</g>
</g>
<!-- Node3&#45;&gt;Node2 -->
<g id="edge2" class="edge"><title>Node3&#45;&gt;Node2</title>
<path fill="none" stroke="midnightblue" d="M108.983,-175.782C126.641,-180.054 148.917,-185.074 169,-188.5 203.745,-194.428 244.518,-198.555 268.891,-200.724"/>
<polygon fill="midnightblue" stroke="midnightblue" points="109.717,-172.358 99.1706,-173.371 108.046,-179.156 109.717,-172.358"/>
</g>
<!-- Node4 -->
<g id="node4" class="node"><title>Node4</title>
<g id="a_node4"><a xlink:href="interface_corale_1_1_colore_1_1_core_1_1_i_keypad.html" target="_top" xlink:title="Interface for keypad functions. ">
<polygon fill="white" stroke="black" points="265.5,-154 265.5,-173 317.5,-173 317.5,-154 265.5,-154"/>
<text text-anchor="middle" x="291.5" y="-161" font-family="Helvetica,sans-Serif" font-size="10.00">IKeypad</text>
</a>
</g>
</g>
<!-- Node3&#45;&gt;Node4 -->
<g id="edge4" class="edge"><title>Node3&#45;&gt;Node4</title>
<path fill="none" stroke="midnightblue" d="M109.63,-161.836C152.662,-158.598 226.827,-157.383 265.46,-159.438"/>
<polygon fill="midnightblue" stroke="midnightblue" points="109.071,-158.37 99.4017,-162.702 109.661,-165.345 109.071,-158.37"/>
</g>
<!-- Node3&#45;&gt;Node4 -->
<g id="edge5" class="edge"><title>Node3&#45;&gt;Node4</title>
<path fill="none" stroke="midnightblue" d="M109.63,-171.926C152.662,-173.555 226.827,-171.997 265.46,-168.498"/>
<polygon fill="midnightblue" stroke="midnightblue" points="109.556,-168.419 99.4017,-171.442 109.225,-175.411 109.556,-168.419"/>
</g>
<!-- Node9 -->
<g id="node9" class="node"><title>Node9</title>
<g id="a_node9"><a xlink:href="interface_corale_1_1_colore_1_1_core_1_1_i_keypad.html" target="_top" xlink:title="Interface for keypad functions. ">
<polygon fill="white" stroke="black" points="223,-115 223,-134 360,-134 360,-115 223,-115"/>
<text text-anchor="middle" x="291.5" y="-122" font-family="Helvetica,sans-Serif" font-size="10.00">Corale.Colore.Core.IKeypad</text>
</a>
</g>
</g>
<!-- Node3&#45;&gt;Node9 -->
<g id="edge13" class="edge"><title>Node3&#45;&gt;Node9</title>
<path fill="none" stroke="midnightblue" d="M109.364,-155.866C139.448,-148.107 184.91,-138.54 222.762,-131.782"/>
<polygon fill="midnightblue" stroke="midnightblue" points="108.16,-152.565 99.4017,-158.528 109.966,-159.328 108.16,-152.565"/>
</g>
<!-- Node3&#45;&gt;Node9 -->
<g id="edge14" class="edge"><title>Node3&#45;&gt;Node9</title>
<path fill="none" stroke="midnightblue" d="M109.357,-165.928C152.347,-159.739 226.746,-144.623 265.46,-134.061"/>
<polygon fill="midnightblue" stroke="midnightblue" points="108.845,-162.465 99.4017,-167.269 109.78,-169.402 108.845,-162.465"/>
</g>
<!-- Node4&#45;&gt;Node1 -->
<g id="edge3" class="edge"><title>Node4&#45;&gt;Node1</title>
<path fill="none" stroke="midnightblue" d="M327.92,-157.766C360.339,-155.465 409.151,-154.209 448.786,-154.458"/>
<polygon fill="midnightblue" stroke="midnightblue" points="327.283,-154.305 317.591,-158.586 327.837,-161.283 327.283,-154.305"/>
</g>
<!-- Node4&#45;&gt;Node1 -->
<g id="edge7" class="edge"><title>Node4&#45;&gt;Node1</title>
<path fill="none" stroke="midnightblue" d="M327.92,-167.961C360.339,-169.096 409.151,-168.597 448.786,-166.923"/>
<polygon fill="midnightblue" stroke="midnightblue" points="327.733,-164.449 317.591,-167.512 327.43,-171.443 327.733,-164.449"/>
</g>
<!-- Node5 -->
<g id="node5" class="node"><title>Node5</title>
<g id="a_node5"><a xlink:href="struct_corale_1_1_colore_1_1_razer_1_1_keyboard_1_1_effects_1_1_custom.html" target="_top" xlink:title="Describes a custom grid effect for every key. ">
<polygon fill="white" stroke="black" points="216,-52.5 216,-82.5 367,-82.5 367,-52.5 216,-52.5"/>
<text text-anchor="start" x="224" y="-70.5" font-family="Helvetica,sans-Serif" font-size="10.00">Corale.Colore.Razer.Keyboard.</text>
<text text-anchor="middle" x="291.5" y="-59.5" font-family="Helvetica,sans-Serif" font-size="10.00">Effects.Custom</text>
</a>
</g>
</g>
<!-- Node5&#45;&gt;Node1 -->
<g id="edge8" class="edge"><title>Node5&#45;&gt;Node1</title>
<path fill="none" stroke="#9a32cd" stroke-dasharray="5,2" d="M340.95,-86.2348C367.617,-96.6732 401.243,-110.043 431,-122.5 452.461,-131.484 476.765,-142.255 493.688,-149.853"/>
<polygon fill="#9a32cd" stroke="#9a32cd" points="342.048,-82.9063 331.46,-82.5288 339.502,-89.4267 342.048,-82.9063"/>
<text text-anchor="middle" x="408" y="-125.5" font-family="Helvetica,sans-Serif" font-size="10.00"> _custom</text>
</g>
<!-- Node6 -->
<g id="node6" class="node"><title>Node6</title>
<polygon fill="white" stroke="#bfbfbf" points="18.5,-88 18.5,-107 132.5,-107 132.5,-88 18.5,-88"/>
<text text-anchor="middle" x="75.5" y="-95" font-family="Helvetica,sans-Serif" font-size="10.00">IEquatable&lt; Custom &gt;</text>
</g>
<!-- Node6&#45;&gt;Node5 -->
<g id="edge9" class="edge"><title>Node6&#45;&gt;Node5</title>
<path fill="none" stroke="midnightblue" d="M142.774,-88.2093C165.886,-84.9692 191.978,-81.3114 215.733,-77.9814"/>
<polygon fill="midnightblue" stroke="midnightblue" points="142.143,-84.7634 132.726,-89.6179 143.115,-91.6956 142.143,-84.7634"/>
</g>
<!-- Node7 -->
<g id="node7" class="node"><title>Node7</title>
<polygon fill="white" stroke="#bfbfbf" points="19.5,-50 19.5,-69 131.5,-69 131.5,-50 19.5,-50"/>
<text text-anchor="middle" x="75.5" y="-57" font-family="Helvetica,sans-Serif" font-size="10.00">IEquatable&lt; Color[][]&gt;</text>
</g>
<!-- Node7&#45;&gt;Node5 -->
<g id="edge10" class="edge"><title>Node7&#45;&gt;Node5</title>
<path fill="none" stroke="midnightblue" d="M141.767,-61.9399C165.153,-62.8141 191.693,-63.8063 215.815,-64.708"/>
<polygon fill="midnightblue" stroke="midnightblue" points="141.734,-58.4363 131.61,-61.5602 141.473,-65.4314 141.734,-58.4363"/>
</g>
<!-- Node8 -->
<g id="node8" class="node"><title>Node8</title>
<g id="a_node8"><a xlink:href="struct_corale_1_1_colore_1_1_razer_1_1_keyboard_1_1_effects_1_1_custom_1_1_row.html" target="_top" xlink:title="Container struct holding color definitions for a single row in the custom grid. ">
<polygon fill="white" stroke="black" points="0,-0.5 0,-30.5 151,-30.5 151,-0.5 0,-0.5"/>
<text text-anchor="start" x="8" y="-18.5" font-family="Helvetica,sans-Serif" font-size="10.00">Corale.Colore.Razer.Keyboard.</text>
<text text-anchor="middle" x="75.5" y="-7.5" font-family="Helvetica,sans-Serif" font-size="10.00">Effects.Custom.Row</text>
</a>
</g>
</g>
<!-- Node8&#45;&gt;Node5 -->
<g id="edge11" class="edge"><title>Node8&#45;&gt;Node5</title>
<path fill="none" stroke="#9a32cd" stroke-dasharray="5,2" d="M148.231,-32.9299C174.33,-39.2718 203.581,-46.3795 228.741,-52.4932"/>
<polygon fill="#9a32cd" stroke="#9a32cd" points="148.941,-29.5008 138.398,-30.5406 147.288,-36.3029 148.941,-29.5008"/>
<text text-anchor="middle" x="183.5" y="-48.5" font-family="Helvetica,sans-Serif" font-size="10.00"> _rows</text>
</g>
<!-- Node9&#45;&gt;Node1 -->
<g id="edge12" class="edge"><title>Node9&#45;&gt;Node1</title>
<path fill="none" stroke="#9a32cd" stroke-dasharray="5,2" d="M366.712,-135.547C387.522,-138.701 410.153,-142.183 431,-145.5 439.906,-146.917 449.338,-148.454 458.538,-149.973"/>
<polygon fill="#9a32cd" stroke="#9a32cd" points="367.069,-132.061 356.658,-134.027 366.022,-138.983 367.069,-132.061"/>
<text text-anchor="middle" x="408" y="-148.5" font-family="Helvetica,sans-Serif" font-size="10.00"> _instance</text>
</g>
</g>
</svg>
