<?xml version="1.0" encoding="UTF-8" standalone="no"?>
<!DOCTYPE svg PUBLIC "-//W3C//DTD SVG 1.1//EN"
 "http://www.w3.org/Graphics/SVG/1.1/DTD/svg11.dtd">
<!-- Generated by graphviz version 2.38.0 (20140413.2041)
 -->
<!-- Title: Corale.Colore.Core.Headset Pages: 1 -->
<svg width="145pt" height="140pt"
 viewBox="0.00 0.00 145.00 140.00" xmlns="http://www.w3.org/2000/svg" xmlns:xlink="http://www.w3.org/1999/xlink">
<g id="graph0" class="graph" transform="scale(1 1) rotate(0) translate(4 136)">
<title>Corale.Colore.Core.Headset</title>
<polygon fill="white" stroke="none" points="-4,4 -4,-136 141,-136 141,4 -4,4"/>
<!-- Node1 -->
<g id="node1" class="node"><title>Node1</title>
<polygon fill="#bfbfbf" stroke="black" points="0,-0.5 0,-19.5 137,-19.5 137,-0.5 0,-0.5"/>
<text text-anchor="middle" x="68.5" y="-7.5" font-family="Helvetica,sans-Serif" font-size="10.00">Corale.Colore.Core.Headset</text>
</g>
<!-- Node2 -->
<g id="node2" class="node"><title>Node2</title>
<g id="a_node2"><a xlink:href="class_corale_1_1_colore_1_1_core_1_1_device.html" target="_top" xlink:title="Base class for devices, containing code common between all devices. ">
<polygon fill="white" stroke="black" points="12,-56.5 12,-75.5 57,-75.5 57,-56.5 12,-56.5"/>
<text text-anchor="middle" x="34.5" y="-63.5" font-family="Helvetica,sans-Serif" font-size="10.00">Device</text>
</a>
</g>
</g>
<!-- Node2&#45;&gt;Node1 -->
<g id="edge1" class="edge"><title>Node2&#45;&gt;Node1</title>
<path fill="none" stroke="midnightblue" d="M39.4378,-46.9827C44.4826,-37.8168 51.6603,-27.0922 57.8591,-19.7511"/>
<polygon fill="midnightblue" stroke="midnightblue" points="36.2338,-45.5665 34.9481,-56.083 42.5114,-48.6636 36.2338,-45.5665"/>
</g>
<!-- Node2&#45;&gt;Node1 -->
<g id="edge6" class="edge"><title>Node2&#45;&gt;Node1</title>
<path fill="none" stroke="midnightblue" d="M51.4205,-48.144C58.2036,-38.7357 64.9458,-27.4046 68.1211,-19.7511"/>
<polygon fill="midnightblue" stroke="midnightblue" points="48.6297,-46.0314 45.2807,-56.083 54.167,-50.3137 48.6297,-46.0314"/>
</g>
<!-- Node3 -->
<g id="node3" class="node"><title>Node3</title>
<g id="a_node3"><a xlink:href="interface_corale_1_1_colore_1_1_core_1_1_i_device.html" target="_top" xlink:title="Interface for functionality common with all devices. ">
<polygon fill="white" stroke="black" points="79,-112.5 79,-131.5 126,-131.5 126,-112.5 79,-112.5"/>
<text text-anchor="middle" x="102.5" y="-119.5" font-family="Helvetica,sans-Serif" font-size="10.00">IDevice</text>
</a>
</g>
</g>
<!-- Node3&#45;&gt;Node2 -->
<g id="edge2" class="edge"><title>Node3&#45;&gt;Node2</title>
<path fill="none" stroke="midnightblue" d="M83.738,-106.101C71.5001,-96.3824 55.9413,-84.0269 45.6242,-75.8339"/>
<polygon fill="midnightblue" stroke="midnightblue" points="81.5669,-108.846 91.5746,-112.324 85.9201,-103.364 81.5669,-108.846"/>
</g>
<!-- Node4 -->
<g id="node4" class="node"><title>Node4</title>
<g id="a_node4"><a xlink:href="interface_corale_1_1_colore_1_1_core_1_1_i_headset.html" target="_top" xlink:title="Interface for headset functionality. ">
<polygon fill="white" stroke="black" points="75,-56.5 75,-75.5 130,-75.5 130,-56.5 75,-56.5"/>
<text text-anchor="middle" x="102.5" y="-63.5" font-family="Helvetica,sans-Serif" font-size="10.00">IHeadset</text>
</a>
</g>
</g>
<!-- Node3&#45;&gt;Node4 -->
<g id="edge4" class="edge"><title>Node3&#45;&gt;Node4</title>
<path fill="none" stroke="midnightblue" d="M96.0276,-102.101C95.3956,-93.1357 95.8427,-82.8579 97.369,-75.7511"/>
<polygon fill="midnightblue" stroke="midnightblue" points="92.5658,-102.622 97.3337,-112.083 99.5067,-101.713 92.5658,-102.622"/>
</g>
<!-- Node3&#45;&gt;Node4 -->
<g id="edge5" class="edge"><title>Node3&#45;&gt;Node4</title>
<path fill="none" stroke="midnightblue" d="M108.972,-102.101C109.604,-93.1357 109.157,-82.8579 107.631,-75.7511"/>
<polygon fill="midnightblue" stroke="midnightblue" points="105.493,-101.713 107.666,-112.083 112.434,-102.622 105.493,-101.713"/>
</g>
<!-- Node4&#45;&gt;Node1 -->
<g id="edge3" class="edge"><title>Node4&#45;&gt;Node1</title>
<path fill="none" stroke="midnightblue" d="M85.5795,-48.144C78.7964,-38.7357 72.0542,-27.4046 68.8789,-19.7511"/>
<polygon fill="midnightblue" stroke="midnightblue" points="82.833,-50.3137 91.7193,-56.083 88.3703,-46.0314 82.833,-50.3137"/>
</g>
<!-- Node4&#45;&gt;Node1 -->
<g id="edge7" class="edge"><title>Node4&#45;&gt;Node1</title>
<path fill="none" stroke="midnightblue" d="M97.5622,-46.9827C92.5174,-37.8168 85.3397,-27.0922 79.1409,-19.7511"/>
<polygon fill="midnightblue" stroke="midnightblue" points="94.4886,-48.6636 102.052,-56.083 100.766,-45.5665 94.4886,-48.6636"/>
</g>
</g>
</svg>
