<?xml version="1.0" encoding="UTF-8" standalone="no"?>
<!DOCTYPE svg PUBLIC "-//W3C//DTD SVG 1.1//EN"
 "http://www.w3.org/Graphics/SVG/1.1/DTD/svg11.dtd">
<!-- Generated by graphviz version 2.38.0 (20140413.2041)
 -->
<!-- Title: Corale.Colore.Core.ChromaLink Pages: 1 -->
<svg width="161pt" height="140pt"
 viewBox="0.00 0.00 161.00 140.00" xmlns="http://www.w3.org/2000/svg" xmlns:xlink="http://www.w3.org/1999/xlink">
<g id="graph0" class="graph" transform="scale(1 1) rotate(0) translate(4 136)">
<title>Corale.Colore.Core.ChromaLink</title>
<polygon fill="white" stroke="none" points="-4,4 -4,-136 157,-136 157,4 -4,4"/>
<!-- Node0 -->
<g id="node1" class="node"><title>Node0</title>
<polygon fill="#bfbfbf" stroke="black" points="0,-0.5 0,-19.5 153,-19.5 153,-0.5 0,-0.5"/>
<text text-anchor="middle" x="76.5" y="-7.5" font-family="Helvetica,sans-Serif" font-size="10.00">Corale.Colore.Core.ChromaLink</text>
</g>
<!-- Node1 -->
<g id="node2" class="node"><title>Node1</title>
<g id="a_node2"><a xlink:href="class_corale_1_1_colore_1_1_core_1_1_device.html" target="_top" xlink:title="Base class for devices, containing code common between all devices. ">
<polygon fill="white" stroke="black" points="16,-56.5 16,-75.5 61,-75.5 61,-56.5 16,-56.5"/>
<text text-anchor="middle" x="38.5" y="-63.5" font-family="Helvetica,sans-Serif" font-size="10.00">Device</text>
</a>
</g>
</g>
<!-- Node1&#45;&gt;Node0 -->
<g id="edge1" class="edge"><title>Node1&#45;&gt;Node0</title>
<path fill="none" stroke="midnightblue" d="M50.5647,-47.8554C57.1447,-38.5048 65.011,-27.3265 70.3418,-19.7511"/>
<polygon fill="midnightblue" stroke="midnightblue" points="47.6676,-45.8907 44.7749,-56.083 53.3922,-49.9192 47.6676,-45.8907"/>
</g>
<!-- Node2 -->
<g id="node3" class="node"><title>Node2</title>
<g id="a_node3"><a xlink:href="interface_corale_1_1_colore_1_1_core_1_1_i_device.html" target="_top" xlink:title="Interface for functionality common with all devices. ">
<polygon fill="white" stroke="black" points="53,-112.5 53,-131.5 100,-131.5 100,-112.5 53,-112.5"/>
<text text-anchor="middle" x="76.5" y="-119.5" font-family="Helvetica,sans-Serif" font-size="10.00">IDevice</text>
</a>
</g>
</g>
<!-- Node2&#45;&gt;Node1 -->
<g id="edge2" class="edge"><title>Node2&#45;&gt;Node1</title>
<path fill="none" stroke="midnightblue" d="M64.4353,-103.855C57.8553,-94.5048 49.989,-83.3265 44.6582,-75.7511"/>
<polygon fill="midnightblue" stroke="midnightblue" points="61.6078,-105.919 70.2251,-112.083 67.3324,-101.891 61.6078,-105.919"/>
</g>
<!-- Node3 -->
<g id="node4" class="node"><title>Node3</title>
<g id="a_node4"><a xlink:href="interface_corale_1_1_colore_1_1_core_1_1_i_chroma_link.html" target="_top" xlink:title="Interface for Chroma Link functionality. ">
<polygon fill="white" stroke="black" points="79,-56.5 79,-75.5 150,-75.5 150,-56.5 79,-56.5"/>
<text text-anchor="middle" x="114.5" y="-63.5" font-family="Helvetica,sans-Serif" font-size="10.00">IChromaLink</text>
</a>
</g>
</g>
<!-- Node2&#45;&gt;Node3 -->
<g id="edge4" class="edge"><title>Node2&#45;&gt;Node3</title>
<path fill="none" stroke="midnightblue" d="M88.5647,-103.855C95.1447,-94.5048 103.011,-83.3265 108.342,-75.7511"/>
<polygon fill="midnightblue" stroke="midnightblue" points="85.6676,-101.891 82.7749,-112.083 91.3922,-105.919 85.6676,-101.891"/>
</g>
<!-- Node3&#45;&gt;Node0 -->
<g id="edge3" class="edge"><title>Node3&#45;&gt;Node0</title>
<path fill="none" stroke="midnightblue" d="M102.435,-47.8554C95.8553,-38.5048 87.989,-27.3265 82.6582,-19.7511"/>
<polygon fill="midnightblue" stroke="midnightblue" points="99.6078,-49.9192 108.225,-56.083 105.332,-45.8907 99.6078,-49.9192"/>
</g>
</g>
</svg>
