<?xml version="1.0" encoding="UTF-8" standalone="no"?>
<!DOCTYPE svg PUBLIC "-//W3C//DTD SVG 1.1//EN"
 "http://www.w3.org/Graphics/SVG/1.1/DTD/svg11.dtd">
<!-- Generated by graphviz version 2.38.0 (20140413.2041)
 -->
<!-- Title: Corale.Colore.Core.Keyboard Pages: 1 -->
<svg width="713pt" height="382pt"
 viewBox="0.00 0.00 713.00 382.00" xmlns="http://www.w3.org/2000/svg" xmlns:xlink="http://www.w3.org/1999/xlink">
<g id="graph0" class="graph" transform="scale(1 1) rotate(0) translate(4 378)">
<title>Corale.Colore.Core.Keyboard</title>
<polygon fill="white" stroke="none" points="-4,4 -4,-378 709,-378 709,4 -4,4"/>
<!-- Node4 -->
<g id="node1" class="node"><title>Node4</title>
<polygon fill="#bfbfbf" stroke="black" points="562,-278.5 562,-297.5 705,-297.5 705,-278.5 562,-278.5"/>
<text text-anchor="middle" x="633.5" y="-285.5" font-family="Helvetica,sans-Serif" font-size="10.00">Corale.Colore.Core.Keyboard</text>
</g>
<!-- Node5 -->
<g id="node2" class="node"><title>Node5</title>
<g id="a_node2"><a xlink:href="class_corale_1_1_colore_1_1_core_1_1_device.html" target="_top" xlink:title="Base class for devices, containing code common between all devices. ">
<polygon fill="white" stroke="black" points="385,-354.5 385,-373.5 430,-373.5 430,-354.5 385,-354.5"/>
<text text-anchor="middle" x="407.5" y="-361.5" font-family="Helvetica,sans-Serif" font-size="10.00">Device</text>
</a>
</g>
</g>
<!-- Node5&#45;&gt;Node4 -->
<g id="edge1" class="edge"><title>Node5&#45;&gt;Node4</title>
<path fill="none" stroke="midnightblue" d="M440.205,-356.287C452.686,-353.065 467.094,-349.116 480,-345 526.452,-330.186 579.544,-309.456 609.237,-297.508"/>
<polygon fill="midnightblue" stroke="midnightblue" points="439.083,-352.96 430.249,-358.809 440.802,-359.746 439.083,-352.96"/>
</g>
<!-- Node6 -->
<g id="node3" class="node"><title>Node6</title>
<g id="a_node3"><a xlink:href="interface_corale_1_1_colore_1_1_core_1_1_i_device.html" target="_top" xlink:title="Interface for functionality common with all devices. ">
<polygon fill="white" stroke="black" points="178.5,-316.5 178.5,-335.5 225.5,-335.5 225.5,-316.5 178.5,-316.5"/>
<text text-anchor="middle" x="202" y="-323.5" font-family="Helvetica,sans-Serif" font-size="10.00">IDevice</text>
</a>
</g>
</g>
<!-- Node6&#45;&gt;Node5 -->
<g id="edge2" class="edge"><title>Node6&#45;&gt;Node5</title>
<path fill="none" stroke="midnightblue" d="M235.517,-332.072C277.374,-339.888 348.963,-353.256 384.769,-359.942"/>
<polygon fill="midnightblue" stroke="midnightblue" points="236.028,-328.607 225.556,-330.212 234.743,-335.488 236.028,-328.607"/>
</g>
<!-- Node7 -->
<g id="node4" class="node"><title>Node7</title>
<g id="a_node4"><a xlink:href="interface_corale_1_1_colore_1_1_core_1_1_i_keyboard.html" target="_top" xlink:title="Interface for keyboard functionality. ">
<polygon fill="white" stroke="black" points="377.5,-316.5 377.5,-335.5 437.5,-335.5 437.5,-316.5 377.5,-316.5"/>
<text text-anchor="middle" x="407.5" y="-323.5" font-family="Helvetica,sans-Serif" font-size="10.00">IKeyboard</text>
</a>
</g>
</g>
<!-- Node6&#45;&gt;Node7 -->
<g id="edge4" class="edge"><title>Node6&#45;&gt;Node7</title>
<path fill="none" stroke="midnightblue" d="M235.624,-326C274.752,-326 339.749,-326 377.293,-326"/>
<polygon fill="midnightblue" stroke="midnightblue" points="235.556,-322.5 225.556,-326 235.556,-329.5 235.556,-322.5"/>
</g>
<!-- Node15 -->
<g id="node12" class="node"><title>Node15</title>
<g id="a_node12"><a xlink:href="interface_corale_1_1_colore_1_1_core_1_1_i_keyboard.html" target="_top" xlink:title="Interface for keyboard functionality. ">
<polygon fill="white" stroke="black" points="335,-278.5 335,-297.5 480,-297.5 480,-278.5 335,-278.5"/>
<text text-anchor="middle" x="407.5" y="-285.5" font-family="Helvetica,sans-Serif" font-size="10.00">Corale.Colore.Core.IKeyboard</text>
</a>
</g>
</g>
<!-- Node6&#45;&gt;Node15 -->
<g id="edge14" class="edge"><title>Node6&#45;&gt;Node15</title>
<path fill="none" stroke="midnightblue" d="M235.805,-319.874C268.137,-313.837 318.005,-304.525 355.507,-297.522"/>
<polygon fill="midnightblue" stroke="midnightblue" points="234.743,-316.512 225.556,-321.788 236.028,-323.393 234.743,-316.512"/>
</g>
<!-- Node7&#45;&gt;Node4 -->
<g id="edge3" class="edge"><title>Node7&#45;&gt;Node4</title>
<path fill="none" stroke="midnightblue" d="M447.774,-319.337C483.302,-313.31 536.031,-304.365 576.07,-297.573"/>
<polygon fill="midnightblue" stroke="midnightblue" points="447.058,-315.909 437.784,-321.032 448.229,-322.81 447.058,-315.909"/>
</g>
<!-- Node8 -->
<g id="node5" class="node"><title>Node8</title>
<g id="a_node5"><a xlink:href="interface_corale_1_1_colore_1_1_logging_1_1_i_log.html" target="_top" xlink:title="Describes a logger. ">
<polygon fill="white" stroke="black" points="341,-240.5 341,-259.5 474,-259.5 474,-240.5 341,-240.5"/>
<text text-anchor="middle" x="407.5" y="-247.5" font-family="Helvetica,sans-Serif" font-size="10.00">Corale.Colore.Logging.ILog</text>
</a>
</g>
</g>
<!-- Node8&#45;&gt;Node4 -->
<g id="edge5" class="edge"><title>Node8&#45;&gt;Node4</title>
<path fill="none" stroke="#9a32cd" stroke-dasharray="5,2" d="M474.968,-261.276C507.195,-266.743 545.482,-273.238 576.241,-278.456"/>
<polygon fill="#9a32cd" stroke="#9a32cd" points="475.18,-257.762 464.736,-259.54 474.009,-264.663 475.18,-257.762"/>
<text text-anchor="middle" x="521" y="-275" font-family="Helvetica,sans-Serif" font-size="10.00"> Log</text>
</g>
<!-- Node9 -->
<g id="node6" class="node"><title>Node9</title>
<g id="a_node6"><a xlink:href="struct_corale_1_1_colore_1_1_razer_1_1_chroma_link_1_1_effects_1_1_custom.html" target="_top" xlink:title="Custom effect. ">
<polygon fill="white" stroke="black" points="337.5,-191 337.5,-221 477.5,-221 477.5,-191 337.5,-191"/>
<text text-anchor="start" x="345.5" y="-209" font-family="Helvetica,sans-Serif" font-size="10.00">Corale.Colore.Razer.Chroma</text>
<text text-anchor="middle" x="407.5" y="-198" font-family="Helvetica,sans-Serif" font-size="10.00">Link.Effects.Custom</text>
</a>
</g>
</g>
<!-- Node9&#45;&gt;Node4 -->
<g id="edge6" class="edge"><title>Node9&#45;&gt;Node4</title>
<path fill="none" stroke="#9a32cd" stroke-dasharray="5,2" d="M468.037,-224.035C491.832,-231.58 519.381,-240.739 544,-250 567.476,-258.83 593.825,-270.359 611.62,-278.392"/>
<polygon fill="#9a32cd" stroke="#9a32cd" points="469.022,-220.676 458.433,-221.013 466.921,-227.353 469.022,-220.676"/>
<text text-anchor="middle" x="521" y="-253" font-family="Helvetica,sans-Serif" font-size="10.00"> _grid</text>
</g>
<!-- Node10 -->
<g id="node7" class="node"><title>Node10</title>
<polygon fill="white" stroke="#bfbfbf" points="145,-234.5 145,-253.5 259,-253.5 259,-234.5 145,-234.5"/>
<text text-anchor="middle" x="202" y="-241.5" font-family="Helvetica,sans-Serif" font-size="10.00">IEquatable&lt; Custom &gt;</text>
</g>
<!-- Node10&#45;&gt;Node9 -->
<g id="edge7" class="edge"><title>Node10&#45;&gt;Node9</title>
<path fill="none" stroke="midnightblue" d="M264.09,-232.592C287.157,-228.285 313.559,-223.355 337.315,-218.919"/>
<polygon fill="midnightblue" stroke="midnightblue" points="263.277,-229.184 254.089,-234.46 264.562,-236.065 263.277,-229.184"/>
</g>
<!-- Node11 -->
<g id="node8" class="node"><title>Node11</title>
<polygon fill="white" stroke="#bfbfbf" points="149,-196.5 149,-215.5 255,-215.5 255,-196.5 149,-196.5"/>
<text text-anchor="middle" x="202" y="-203.5" font-family="Helvetica,sans-Serif" font-size="10.00">IEquatable&lt; Color[]&gt;</text>
</g>
<!-- Node11&#45;&gt;Node9 -->
<g id="edge8" class="edge"><title>Node11&#45;&gt;Node9</title>
<path fill="none" stroke="midnightblue" d="M265.348,-206C288.081,-206 313.917,-206 337.216,-206"/>
<polygon fill="midnightblue" stroke="midnightblue" points="265.142,-202.5 255.142,-206 265.142,-209.5 265.142,-202.5"/>
</g>
<!-- Node12 -->
<g id="node9" class="node"><title>Node12</title>
<g id="a_node9"><a xlink:href="struct_corale_1_1_colore_1_1_core_1_1_color.html" target="_top" xlink:title="Represents an RGB color. ">
<polygon fill="white" stroke="black" points="140,-19.5 140,-38.5 264,-38.5 264,-19.5 140,-19.5"/>
<text text-anchor="middle" x="202" y="-26.5" font-family="Helvetica,sans-Serif" font-size="10.00">Corale.Colore.Core.Color</text>
</a>
</g>
</g>
<!-- Node12&#45;&gt;Node9 -->
<g id="edge9" class="edge"><title>Node12&#45;&gt;Node9</title>
<path fill="none" stroke="#9a32cd" stroke-dasharray="5,2" d="M221.952,-45.4839C261.285,-79.6952 351.268,-157.96 389.166,-190.923"/>
<polygon fill="#9a32cd" stroke="#9a32cd" points="223.783,-42.4382 213.941,-38.5163 219.189,-47.7199 223.783,-42.4382"/>
<text text-anchor="middle" x="299.5" y="-132" font-family="Helvetica,sans-Serif" font-size="10.00"> _colors</text>
</g>
<!-- Node12&#45;&gt;Node12 -->
<g id="edge12" class="edge"><title>Node12&#45;&gt;Node12</title>
<path fill="none" stroke="#9a32cd" stroke-dasharray="5,2" d="M187.268,-48.7663C188.425,-53.4965 193.335,-57 202,-57 216.219,-57 220.329,-47.5653 214.33,-38.7571"/>
<polygon fill="#9a32cd" stroke="#9a32cd" points="190.739,-49.2978 189.67,-38.7571 183.933,-47.6641 190.739,-49.2978"/>
<text text-anchor="middle" x="202" y="-170" font-family="Helvetica,sans-Serif" font-size="10.00"> Yellow</text>
<text text-anchor="middle" x="202" y="-159" font-family="Helvetica,sans-Serif" font-size="10.00">White</text>
<text text-anchor="middle" x="202" y="-148" font-family="Helvetica,sans-Serif" font-size="10.00">Pink</text>
<text text-anchor="middle" x="202" y="-137" font-family="Helvetica,sans-Serif" font-size="10.00">HotPink</text>
<text text-anchor="middle" x="202" y="-126" font-family="Helvetica,sans-Serif" font-size="10.00">Blue</text>
<text text-anchor="middle" x="202" y="-115" font-family="Helvetica,sans-Serif" font-size="10.00">Purple</text>
<text text-anchor="middle" x="202" y="-104" font-family="Helvetica,sans-Serif" font-size="10.00">Orange</text>
<text text-anchor="middle" x="202" y="-93" font-family="Helvetica,sans-Serif" font-size="10.00">Black</text>
<text text-anchor="middle" x="202" y="-82" font-family="Helvetica,sans-Serif" font-size="10.00">Red</text>
<text text-anchor="middle" x="202" y="-71" font-family="Helvetica,sans-Serif" font-size="10.00">Green</text>
<text text-anchor="middle" x="202" y="-60" font-family="Helvetica,sans-Serif" font-size="10.00">...</text>
</g>
<!-- Node13 -->
<g id="node10" class="node"><title>Node13</title>
<polygon fill="white" stroke="#bfbfbf" points="0,-38.5 0,-57.5 103,-57.5 103,-38.5 0,-38.5"/>
<text text-anchor="middle" x="51.5" y="-45.5" font-family="Helvetica,sans-Serif" font-size="10.00">IEquatable&lt; Color &gt;</text>
</g>
<!-- Node13&#45;&gt;Node12 -->
<g id="edge10" class="edge"><title>Node13&#45;&gt;Node12</title>
<path fill="none" stroke="midnightblue" d="M113.294,-40.2217C122.027,-39.1043 131.017,-37.9541 139.759,-36.8356"/>
<polygon fill="midnightblue" stroke="midnightblue" points="112.665,-36.7735 103.19,-41.5144 113.553,-43.7169 112.665,-36.7735"/>
</g>
<!-- Node14 -->
<g id="node11" class="node"><title>Node14</title>
<polygon fill="white" stroke="#bfbfbf" points="3.5,-0.5 3.5,-19.5 99.5,-19.5 99.5,-0.5 3.5,-0.5"/>
<text text-anchor="middle" x="51.5" y="-7.5" font-family="Helvetica,sans-Serif" font-size="10.00">IEquatable&lt; uint &gt;</text>
</g>
<!-- Node14&#45;&gt;Node12 -->
<g id="edge11" class="edge"><title>Node14&#45;&gt;Node12</title>
<path fill="none" stroke="midnightblue" d="M109.954,-17.351C119.781,-18.6083 130.022,-19.9186 139.938,-21.1874"/>
<polygon fill="midnightblue" stroke="midnightblue" points="110.258,-13.8615 99.8946,-16.064 109.37,-20.8049 110.258,-13.8615"/>
</g>
<!-- Node15&#45;&gt;Node4 -->
<g id="edge13" class="edge"><title>Node15&#45;&gt;Node4</title>
<path fill="none" stroke="#9a32cd" stroke-dasharray="5,2" d="M490.548,-288C513.943,-288 539.221,-288 561.872,-288"/>
<polygon fill="#9a32cd" stroke="#9a32cd" points="490.299,-284.5 480.299,-288 490.299,-291.5 490.299,-284.5"/>
<text text-anchor="middle" x="521" y="-291" font-family="Helvetica,sans-Serif" font-size="10.00"> _instance</text>
</g>
</g>
</svg>
