<?xml version="1.0" encoding="UTF-8" standalone="no"?>
<!DOCTYPE svg PUBLIC "-//W3C//DTD SVG 1.1//EN"
 "http://www.w3.org/Graphics/SVG/1.1/DTD/svg11.dtd">
<!-- Generated by graphviz version 2.38.0 (20140413.2041)
 -->
<!-- Title: Corale.Colore.Core.Mouse Pages: 1 -->
<!--zoomable 281 -->
<svg id="main" version="1.1" xmlns="http://www.w3.org/2000/svg" xmlns:xlink="http://www.w3.org/1999/xlink" xml:space="preserve" onload="init(evt)">
<style type="text/css"><![CDATA[
.edge:hover path { stroke: red; }
.edge:hover polygon { stroke: red; fill: red; }
]]></style>
<script type="text/javascript"><![CDATA[
var edges = document.getElementsByTagName('g');
if (edges && edges.length) {
  for (var i=0;i<edges.length;i++) {
    if (edges[i].id.substr(0,4)=='edge') {
      edges[i].setAttribute('class','edge');
    }
  }
}
]]></script>
        <defs>
                <circle id="rim" cx="0" cy="0" r="7"/>
                <circle id="rim2" cx="0" cy="0" r="3.5"/>
                <g id="zoomPlus">
                        <use xlink:href="#rim" fill="#404040">
                                <set attributeName="fill" to="#808080" begin="zoomplus.mouseover" end="zoomplus.mouseout"/>
                        </use>
                        <path d="M-4,0h8M0,-4v8" fill="none" stroke="white" stroke-width="1.5" pointer-events="none"/>
                </g>
                <g id="zoomMin">
                        <use xlink:href="#rim" fill="#404040">
                                <set attributeName="fill" to="#808080" begin="zoomminus.mouseover" end="zoomminus.mouseout"/>
                        </use>
                        <path d="M-4,0h8" fill="none" stroke="white" stroke-width="1.5" pointer-events="none"/>
                </g>
                <g id="dirArrow">
                        <path fill="none" stroke="white" stroke-width="1.5" d="M0,-3.0v7 M-2.5,-0.5L0,-3.0L2.5,-0.5"/>
                </g>
               <g id="resetDef">
                       <use xlink:href="#rim2" fill="#404040">
                               <set attributeName="fill" to="#808080" begin="reset.mouseover" end="reset.mouseout"/>
                       </use>
               </g>
        </defs>

<script type="text/javascript">
var viewWidth = 601;
var viewHeight = 281;
var sectionId = 'dynsection-1';
</script>
<script xlink:href="svgpan.js"/>
<svg id="graph" class="graph">
<g id="viewport">
<title>Corale.Colore.Core.Mouse</title>
<polygon fill="white" stroke="none" points="-4,4 -4,-276.5 597,-276.5 597,4 -4,4"/>
<!-- Node1 -->
<g id="node1" class="node"><title>Node1</title>
<polygon fill="#bfbfbf" stroke="black" points="462,-177 462,-196 593,-196 593,-177 462,-177"/>
<text text-anchor="middle" x="527.5" y="-184" font-family="Helvetica,sans-Serif" font-size="10.00">Corale.Colore.Core.Mouse</text>
</g>
<!-- Node2 -->
<g id="node2" class="node"><title>Node2</title>
<g id="a_node2"><a xlink:href="class_corale_1_1_colore_1_1_core_1_1_device.html" target="_top" xlink:title="Base class for devices, containing code common between all devices. ">
<polygon fill="white" stroke="black" points="269,-253 269,-272 314,-272 314,-253 269,-253"/>
<text text-anchor="middle" x="291.5" y="-260" font-family="Helvetica,sans-Serif" font-size="10.00">Device</text>
</a>
</g>
</g>
<!-- Node2&#45;&gt;Node1 -->
<g id="edge1" class="edge"><title>Node2&#45;&gt;Node1</title>
<path fill="none" stroke="midnightblue" d="M324.152,-254.729C337.421,-251.393 352.992,-247.377 367,-243.5 401.422,-233.974 410.335,-232.431 444,-220.5 465.026,-213.048 488.502,-203.222 505.018,-196.05"/>
<polygon fill="midnightblue" stroke="midnightblue" points="322.933,-251.426 314.078,-257.243 324.628,-258.217 322.933,-251.426"/>
</g>
<!-- Node3 -->
<g id="node3" class="node"><title>Node3</title>
<g id="a_node3"><a xlink:href="interface_corale_1_1_colore_1_1_core_1_1_i_device.html" target="_top" xlink:title="Interface for functionality common with all devices. ">
<polygon fill="white" stroke="black" points="52,-215 52,-234 99,-234 99,-215 52,-215"/>
<text text-anchor="middle" x="75.5" y="-222" font-family="Helvetica,sans-Serif" font-size="10.00">IDevice</text>
</a>
</g>
</g>
<!-- Node3&#45;&gt;Node2 -->
<g id="edge2" class="edge"><title>Node3&#45;&gt;Node2</title>
<path fill="none" stroke="midnightblue" d="M109.361,-230.335C153.592,-238.189 231.068,-251.947 268.722,-258.633"/>
<polygon fill="midnightblue" stroke="midnightblue" points="109.86,-226.869 99.4017,-228.567 108.636,-233.761 109.86,-226.869"/>
</g>
<!-- Node4 -->
<g id="node4" class="node"><title>Node4</title>
<g id="a_node4"><a xlink:href="interface_corale_1_1_colore_1_1_core_1_1_i_mouse.html" target="_top" xlink:title="Interface for mouse functionality. ">
<polygon fill="white" stroke="black" points="267.5,-215 267.5,-234 315.5,-234 315.5,-215 267.5,-215"/>
<text text-anchor="middle" x="291.5" y="-222" font-family="Helvetica,sans-Serif" font-size="10.00">IMouse</text>
</a>
</g>
</g>
<!-- Node3&#45;&gt;Node4 -->
<g id="edge4" class="edge"><title>Node3&#45;&gt;Node4</title>
<path fill="none" stroke="midnightblue" d="M109.528,-224.5C153.289,-224.5 229.381,-224.5 267.439,-224.5"/>
<polygon fill="midnightblue" stroke="midnightblue" points="109.402,-221 99.4017,-224.5 109.402,-228 109.402,-221"/>
</g>
<!-- Node5 -->
<g id="node5" class="node"><title>Node5</title>
<g id="a_node5"><a xlink:href="interface_corale_1_1_colore_1_1_core_1_1_i_mouse.html" target="_top" xlink:title="Interface for mouse functionality. ">
<polygon fill="white" stroke="black" points="225,-177 225,-196 358,-196 358,-177 225,-177"/>
<text text-anchor="middle" x="291.5" y="-184" font-family="Helvetica,sans-Serif" font-size="10.00">Corale.Colore.Core.IMouse</text>
</a>
</g>
</g>
<!-- Node3&#45;&gt;Node5 -->
<g id="edge6" class="edge"><title>Node3&#45;&gt;Node5</title>
<path fill="none" stroke="midnightblue" d="M109.264,-218.682C143.19,-212.658 196.749,-203.147 236.861,-196.025"/>
<polygon fill="midnightblue" stroke="midnightblue" points="108.636,-215.239 99.4017,-220.433 109.86,-222.131 108.636,-215.239"/>
</g>
<!-- Node4&#45;&gt;Node1 -->
<g id="edge3" class="edge"><title>Node4&#45;&gt;Node1</title>
<path fill="none" stroke="midnightblue" d="M325.791,-219.731C356.516,-215.262 403.391,-208.273 444,-201.5 454.195,-199.8 465.081,-197.889 475.49,-196.015"/>
<polygon fill="midnightblue" stroke="midnightblue" points="325.028,-216.305 315.633,-221.202 326.032,-223.233 325.028,-216.305"/>
</g>
<!-- Node5&#45;&gt;Node1 -->
<g id="edge5" class="edge"><title>Node5&#45;&gt;Node1</title>
<path fill="none" stroke="#9a32cd" stroke-dasharray="5,2" d="M368.378,-186.5C398.597,-186.5 433.009,-186.5 461.997,-186.5"/>
<polygon fill="#9a32cd" stroke="#9a32cd" points="368.305,-183 358.305,-186.5 368.305,-190 368.305,-183"/>
<text text-anchor="middle" x="414.5" y="-189.5" font-family="Helvetica,sans-Serif" font-size="10.00"> _instance</text>
</g>
<!-- Node6 -->
<g id="node6" class="node"><title>Node6</title>
<g id="a_node6"><a xlink:href="struct_corale_1_1_colore_1_1_razer_1_1_keyboard_1_1_effects_1_1_custom.html" target="_top" xlink:title="Describes a custom grid effect for every key. ">
<polygon fill="white" stroke="black" points="216,-127.5 216,-157.5 367,-157.5 367,-127.5 216,-127.5"/>
<text text-anchor="start" x="224" y="-145.5" font-family="Helvetica,sans-Serif" font-size="10.00">Corale.Colore.Razer.Keyboard.</text>
<text text-anchor="middle" x="291.5" y="-134.5" font-family="Helvetica,sans-Serif" font-size="10.00">Effects.Custom</text>
</a>
</g>
</g>
<!-- Node6&#45;&gt;Node1 -->
<g id="edge7" class="edge"><title>Node6&#45;&gt;Node1</title>
<path fill="none" stroke="#9a32cd" stroke-dasharray="5,2" d="M377.296,-158.445C410.31,-164.652 447.035,-171.558 475.787,-176.964"/>
<polygon fill="#9a32cd" stroke="#9a32cd" points="377.657,-154.951 367.182,-156.543 376.363,-161.831 377.657,-154.951"/>
<text text-anchor="middle" x="414.5" y="-173.5" font-family="Helvetica,sans-Serif" font-size="10.00"> _custom</text>
</g>
<!-- Node7 -->
<g id="node7" class="node"><title>Node7</title>
<polygon fill="white" stroke="#bfbfbf" points="18.5,-177 18.5,-196 132.5,-196 132.5,-177 18.5,-177"/>
<text text-anchor="middle" x="75.5" y="-184" font-family="Helvetica,sans-Serif" font-size="10.00">IEquatable&lt; Custom &gt;</text>
</g>
<!-- Node7&#45;&gt;Node6 -->
<g id="edge8" class="edge"><title>Node7&#45;&gt;Node6</title>
<path fill="none" stroke="midnightblue" d="M132.924,-174.899C158.736,-169.592 189.647,-163.236 217.228,-157.565"/>
<polygon fill="midnightblue" stroke="midnightblue" points="132.025,-171.51 122.935,-176.953 133.435,-178.367 132.025,-171.51"/>
</g>
<!-- Node8 -->
<g id="node8" class="node"><title>Node8</title>
<polygon fill="white" stroke="#bfbfbf" points="19.5,-89 19.5,-108 131.5,-108 131.5,-89 19.5,-89"/>
<text text-anchor="middle" x="75.5" y="-96" font-family="Helvetica,sans-Serif" font-size="10.00">IEquatable&lt; Color[][]&gt;</text>
</g>
<!-- Node8&#45;&gt;Node6 -->
<g id="edge9" class="edge"><title>Node8&#45;&gt;Node6</title>
<path fill="none" stroke="midnightblue" d="M132.924,-110.101C158.736,-115.408 189.647,-121.764 217.228,-127.435"/>
<polygon fill="midnightblue" stroke="midnightblue" points="133.435,-106.633 122.935,-108.047 132.025,-113.49 133.435,-106.633"/>
</g>
<!-- Node10 -->
<g id="node10" class="node"><title>Node10</title>
<g id="a_node10"><a xlink:href="struct_corale_1_1_colore_1_1_razer_1_1_mouse_1_1_effects_1_1_custom_grid.html" target="_top" xlink:title="Custom grid effect for mouse LEDs. ">
<polygon fill="white" stroke="black" points="222,-57.5 222,-87.5 361,-87.5 361,-57.5 222,-57.5"/>
<text text-anchor="start" x="230" y="-75.5" font-family="Helvetica,sans-Serif" font-size="10.00">Corale.Colore.Razer.Mouse.</text>
<text text-anchor="middle" x="291.5" y="-64.5" font-family="Helvetica,sans-Serif" font-size="10.00">Effects.CustomGrid</text>
</a>
</g>
</g>
<!-- Node8&#45;&gt;Node10 -->
<g id="edge13" class="edge"><title>Node8&#45;&gt;Node10</title>
<path fill="none" stroke="midnightblue" d="M141.845,-90.5609C167.158,-87.4855 196.157,-83.9623 221.782,-80.849"/>
<polygon fill="midnightblue" stroke="midnightblue" points="141.115,-87.1237 131.61,-91.8044 141.959,-94.0726 141.115,-87.1237"/>
</g>
<!-- Node9 -->
<g id="node9" class="node"><title>Node9</title>
<g id="a_node9"><a xlink:href="struct_corale_1_1_colore_1_1_razer_1_1_keyboard_1_1_effects_1_1_custom_1_1_row.html" target="_top" xlink:title="Container struct holding color definitions for a single row in the custom grid. ">
<polygon fill="white" stroke="black" points="0,-127.5 0,-157.5 151,-157.5 151,-127.5 0,-127.5"/>
<text text-anchor="start" x="8" y="-145.5" font-family="Helvetica,sans-Serif" font-size="10.00">Corale.Colore.Razer.Keyboard.</text>
<text text-anchor="middle" x="75.5" y="-134.5" font-family="Helvetica,sans-Serif" font-size="10.00">Effects.Custom.Row</text>
</a>
</g>
</g>
<!-- Node9&#45;&gt;Node6 -->
<g id="edge10" class="edge"><title>Node9&#45;&gt;Node6</title>
<path fill="none" stroke="#9a32cd" stroke-dasharray="5,2" d="M161.257,-142.5C179.301,-142.5 198.227,-142.5 215.859,-142.5"/>
<polygon fill="#9a32cd" stroke="#9a32cd" points="161.046,-139 151.046,-142.5 161.046,-146 161.046,-139"/>
<text text-anchor="middle" x="183.5" y="-145.5" font-family="Helvetica,sans-Serif" font-size="10.00"> _rows</text>
</g>
<!-- Node10&#45;&gt;Node1 -->
<g id="edge11" class="edge"><title>Node10&#45;&gt;Node1</title>
<path fill="none" stroke="#9a32cd" stroke-dasharray="5,2" d="M332.625,-92.0482C383.362,-116.766 468.7,-158.341 506.938,-176.97"/>
<polygon fill="#9a32cd" stroke="#9a32cd" points="334.096,-88.8716 323.573,-87.6383 331.03,-95.1645 334.096,-88.8716"/>
<text text-anchor="middle" x="414.5" y="-146.5" font-family="Helvetica,sans-Serif" font-size="10.00"> _customGrid</text>
</g>
<!-- Node11 -->
<g id="node11" class="node"><title>Node11</title>
<polygon fill="white" stroke="#bfbfbf" points="9.5,-50 9.5,-69 141.5,-69 141.5,-50 9.5,-50"/>
<text text-anchor="middle" x="75.5" y="-57" font-family="Helvetica,sans-Serif" font-size="10.00">IEquatable&lt; CustomGrid &gt;</text>
</g>
<!-- Node11&#45;&gt;Node10 -->
<g id="edge12" class="edge"><title>Node11&#45;&gt;Node10</title>
<path fill="none" stroke="midnightblue" d="M151.852,-64.0775C174.568,-65.4574 199.376,-66.9644 221.647,-68.3173"/>
<polygon fill="midnightblue" stroke="midnightblue" points="151.773,-60.5663 141.579,-63.4534 151.348,-67.5534 151.773,-60.5663"/>
</g>
<!-- Node12 -->
<g id="node12" class="node"><title>Node12</title>
<g id="a_node12"><a xlink:href="struct_corale_1_1_colore_1_1_razer_1_1_mouse_1_1_effects_1_1_custom_grid_1_1_row.html" target="_top" xlink:title="Container struct holding color definitions for a single row in the custom grid. ">
<polygon fill="white" stroke="black" points="6,-0.5 6,-30.5 145,-30.5 145,-0.5 6,-0.5"/>
<text text-anchor="start" x="14" y="-18.5" font-family="Helvetica,sans-Serif" font-size="10.00">Corale.Colore.Razer.Mouse.</text>
<text text-anchor="middle" x="75.5" y="-7.5" font-family="Helvetica,sans-Serif" font-size="10.00">Effects.CustomGrid.Row</text>
</a>
</g>
</g>
<!-- Node12&#45;&gt;Node10 -->
<g id="edge14" class="edge"><title>Node12&#45;&gt;Node10</title>
<path fill="none" stroke="#9a32cd" stroke-dasharray="5,2" d="M142.728,-33.1403C171.984,-40.9325 206.02,-49.9984 234.049,-57.4639"/>
<polygon fill="#9a32cd" stroke="#9a32cd" points="143.57,-29.7424 133.006,-30.5506 141.768,-36.5066 143.57,-29.7424"/>
<text text-anchor="middle" x="183.5" y="-50.5" font-family="Helvetica,sans-Serif" font-size="10.00"> _rows</text>
</g>
</g>
</svg>
        <g id="navigator" transform="translate(0 0)" fill="#404254">
                <rect fill="#f2f5e9" fill-opacity="0.5" stroke="#606060" stroke-width=".5" x="0" y="0" width="60" height="60"/>
                <use id="zoomplus" xlink:href="#zoomPlus" x="17" y="9" onmousedown="handleZoom(evt,'in')"/>
                <use id="zoomminus" xlink:href="#zoomMin" x="42" y="9" onmousedown="handleZoom(evt,'out')"/>
                <use id="reset" xlink:href="#resetDef" x="30" y="36" onmousedown="handleReset()"/>
                <g id="arrowUp" xlink:href="#dirArrow" transform="translate(30 24)" onmousedown="handlePan(0,-1)">
                  <use xlink:href="#rim" fill="#404040">
                        <set attributeName="fill" to="#808080" begin="arrowUp.mouseover" end="arrowUp.mouseout"/>
                  </use>
                  <path fill="none" stroke="white" stroke-width="1.5" d="M0,-3.0v7 M-2.5,-0.5L0,-3.0L2.5,-0.5"/>
                </g>
                <g id="arrowRight" xlink:href="#dirArrow" transform="rotate(90) translate(36 -43)" onmousedown="handlePan(1,0)">
                  <use xlink:href="#rim" fill="#404040">
                        <set attributeName="fill" to="#808080" begin="arrowRight.mouseover" end="arrowRight.mouseout"/>
                  </use>
                  <path fill="none" stroke="white" stroke-width="1.5" d="M0,-3.0v7 M-2.5,-0.5L0,-3.0L2.5,-0.5"/>
                </g>
                <g id="arrowDown" xlink:href="#dirArrow" transform="rotate(180) translate(-30 -48)" onmousedown="handlePan(0,1)">
                  <use xlink:href="#rim" fill="#404040">
                        <set attributeName="fill" to="#808080" begin="arrowDown.mouseover" end="arrowDown.mouseout"/>
                  </use>
                  <path fill="none" stroke="white" stroke-width="1.5" d="M0,-3.0v7 M-2.5,-0.5L0,-3.0L2.5,-0.5"/>
                </g>
                <g id="arrowLeft" xlink:href="#dirArrow" transform="rotate(270) translate(-36 17)" onmousedown="handlePan(-1,0)">
                  <use xlink:href="#rim" fill="#404040">
                        <set attributeName="fill" to="#808080" begin="arrowLeft.mouseover" end="arrowLeft.mouseout"/>
                  </use>
                  <path fill="none" stroke="white" stroke-width="1.5" d="M0,-3.0v7 M-2.5,-0.5L0,-3.0L2.5,-0.5"/>
                </g>
        </g>
        <svg viewBox="0 0 15 15" width="100%" height="30px" preserveAspectRatio="xMaxYMin meet">
         <g id="arrow_out" transform="scale(0.3 0.3)">
          <a xlink:href="class_corale_1_1_colore_1_1_core_1_1_mouse__coll__graph_org.svg" target="_base">
           <rect id="button" ry="5" rx="5" y="6" x="6" height="38" width="38"
                fill="#f2f5e9" fill-opacity="0.5" stroke="#606060" stroke-width="1.0"/>
           <path id="arrow"
             d="M 11.500037,31.436501 C 11.940474,20.09759 22.043105,11.32322 32.158766,21.979434 L 37.068811,17.246167 C 37.068811,17.246167 37.088388,32 37.088388,32 L 22.160133,31.978069 C 22.160133,31.978069 26.997745,27.140456 26.997745,27.140456 C 18.528582,18.264221 13.291696,25.230495 11.500037,31.436501 z"
             style="fill:#404040;"/>
          </a>
         </g>
        </svg>
</svg>
