<?xml version="1.0" encoding="UTF-8" standalone="no"?>
<!DOCTYPE svg PUBLIC "-//W3C//DTD SVG 1.1//EN"
 "http://www.w3.org/Graphics/SVG/1.1/DTD/svg11.dtd">
<!-- Generated by graphviz version 2.38.0 (20140413.2041)
 -->
<!-- Title: Corale.Colore.Core.Keyboard Pages: 1 -->
<svg width="600pt" height="220pt"
 viewBox="0.00 0.00 600.00 219.50" xmlns="http://www.w3.org/2000/svg" xmlns:xlink="http://www.w3.org/1999/xlink">
<g id="graph0" class="graph" transform="scale(1 1) rotate(0) translate(4 215.5)">
<title>Corale.Colore.Core.Keyboard</title>
<polygon fill="white" stroke="none" points="-4,4 -4,-215.5 596,-215.5 596,4 -4,4"/>
<!-- Node1 -->
<g id="node1" class="node"><title>Node1</title>
<polygon fill="#bfbfbf" stroke="black" points="449,-134 449,-153 592,-153 592,-134 449,-134"/>
<text text-anchor="middle" x="520.5" y="-141" font-family="Helvetica,sans-Serif" font-size="10.00">Corale.Colore.Core.Keyboard</text>
</g>
<!-- Node2 -->
<g id="node2" class="node"><title>Node2</title>
<g id="a_node2"><a xlink:href="class_corale_1_1_colore_1_1_core_1_1_device.html" target="_top" xlink:title="Base class for devices, containing code common between all devices. ">
<polygon fill="white" stroke="black" points="269,-192 269,-211 314,-211 314,-192 269,-192"/>
<text text-anchor="middle" x="291.5" y="-199" font-family="Helvetica,sans-Serif" font-size="10.00">Device</text>
</a>
</g>
</g>
<!-- Node2&#45;&gt;Node1 -->
<g id="edge1" class="edge"><title>Node2&#45;&gt;Node1</title>
<path fill="none" stroke="midnightblue" d="M324.136,-193.57C352.218,-186.515 394.359,-175.891 431,-166.5 448.07,-162.125 466.975,-157.22 482.915,-153.067"/>
<polygon fill="midnightblue" stroke="midnightblue" points="322.949,-190.259 314.102,-196.089 324.654,-197.048 322.949,-190.259"/>
</g>
<!-- Node3 -->
<g id="node3" class="node"><title>Node3</title>
<g id="a_node3"><a xlink:href="interface_corale_1_1_colore_1_1_core_1_1_i_device.html" target="_top" xlink:title="Interface for functionality common with all devices. ">
<polygon fill="white" stroke="black" points="52,-158 52,-177 99,-177 99,-158 52,-158"/>
<text text-anchor="middle" x="75.5" y="-165" font-family="Helvetica,sans-Serif" font-size="10.00">IDevice</text>
</a>
</g>
</g>
<!-- Node3&#45;&gt;Node2 -->
<g id="edge2" class="edge"><title>Node3&#45;&gt;Node2</title>
<path fill="none" stroke="midnightblue" d="M109.005,-175.346C126.67,-179.403 148.945,-184.185 169,-187.5 203.775,-193.249 244.539,-197.429 268.902,-199.657"/>
<polygon fill="midnightblue" stroke="midnightblue" points="109.722,-171.919 99.1887,-173.058 108.133,-178.737 109.722,-171.919"/>
</g>
<!-- Node4 -->
<g id="node4" class="node"><title>Node4</title>
<g id="a_node4"><a xlink:href="interface_corale_1_1_colore_1_1_core_1_1_i_keyboard.html" target="_top" xlink:title="Interface for keyboard functionality. ">
<polygon fill="white" stroke="black" points="261.5,-154 261.5,-173 321.5,-173 321.5,-154 261.5,-154"/>
<text text-anchor="middle" x="291.5" y="-161" font-family="Helvetica,sans-Serif" font-size="10.00">IKeyboard</text>
</a>
</g>
</g>
<!-- Node3&#45;&gt;Node4 -->
<g id="edge4" class="edge"><title>Node3&#45;&gt;Node4</title>
<path fill="none" stroke="midnightblue" d="M109.545,-161.842C151.071,-158.712 221.689,-157.469 261.312,-159.236"/>
<polygon fill="midnightblue" stroke="midnightblue" points="109.07,-158.37 99.4017,-162.702 109.662,-165.345 109.07,-158.37"/>
</g>
<!-- Node3&#45;&gt;Node4 -->
<g id="edge5" class="edge"><title>Node3&#45;&gt;Node4</title>
<path fill="none" stroke="midnightblue" d="M109.545,-171.923C151.071,-173.501 221.689,-172.104 261.312,-168.855"/>
<polygon fill="midnightblue" stroke="midnightblue" points="109.556,-168.419 99.4017,-171.442 109.225,-175.412 109.556,-168.419"/>
</g>
<!-- Node9 -->
<g id="node9" class="node"><title>Node9</title>
<g id="a_node9"><a xlink:href="interface_corale_1_1_colore_1_1_core_1_1_i_keyboard.html" target="_top" xlink:title="Interface for keyboard functionality. ">
<polygon fill="white" stroke="black" points="219,-115 219,-134 364,-134 364,-115 219,-115"/>
<text text-anchor="middle" x="291.5" y="-122" font-family="Helvetica,sans-Serif" font-size="10.00">Corale.Colore.Core.IKeyboard</text>
</a>
</g>
</g>
<!-- Node3&#45;&gt;Node9 -->
<g id="edge11" class="edge"><title>Node3&#45;&gt;Node9</title>
<path fill="none" stroke="midnightblue" d="M109.432,-155.849C138.524,-148.349 181.955,-139.164 218.99,-132.46"/>
<polygon fill="midnightblue" stroke="midnightblue" points="108.16,-152.566 99.4017,-158.528 109.966,-159.329 108.16,-152.566"/>
</g>
<!-- Node3&#45;&gt;Node9 -->
<g id="edge12" class="edge"><title>Node3&#45;&gt;Node9</title>
<path fill="none" stroke="midnightblue" d="M109.357,-165.928C152.347,-159.739 226.746,-144.623 265.46,-134.061"/>
<polygon fill="midnightblue" stroke="midnightblue" points="108.845,-162.465 99.4017,-167.269 109.78,-169.402 108.845,-162.465"/>
</g>
<!-- Node4&#45;&gt;Node1 -->
<g id="edge3" class="edge"><title>Node4&#45;&gt;Node1</title>
<path fill="none" stroke="midnightblue" d="M332.054,-160.015C364.231,-157.18 410.448,-153.108 448.938,-149.717"/>
<polygon fill="midnightblue" stroke="midnightblue" points="331.366,-156.562 321.712,-160.926 331.98,-163.535 331.366,-156.562"/>
</g>
<!-- Node5 -->
<g id="node5" class="node"><title>Node5</title>
<g id="a_node5"><a xlink:href="struct_corale_1_1_colore_1_1_razer_1_1_keyboard_1_1_effects_1_1_custom.html" target="_top" xlink:title="Describes a custom grid effect for every key. ">
<polygon fill="white" stroke="black" points="216,-55.5 216,-85.5 367,-85.5 367,-55.5 216,-55.5"/>
<text text-anchor="start" x="224" y="-73.5" font-family="Helvetica,sans-Serif" font-size="10.00">Corale.Colore.Razer.Keyboard.</text>
<text text-anchor="middle" x="291.5" y="-62.5" font-family="Helvetica,sans-Serif" font-size="10.00">Effects.Custom</text>
</a>
</g>
</g>
<!-- Node5&#45;&gt;Node1 -->
<g id="edge6" class="edge"><title>Node5&#45;&gt;Node1</title>
<path fill="none" stroke="#9a32cd" stroke-dasharray="5,2" d="M348.812,-88.6092C393.456,-102.966 454.079,-122.462 489.771,-133.94"/>
<polygon fill="#9a32cd" stroke="#9a32cd" points="349.851,-85.2667 339.259,-85.5371 347.708,-91.9306 349.851,-85.2667"/>
<text text-anchor="middle" x="408" y="-117.5" font-family="Helvetica,sans-Serif" font-size="10.00"> _grid</text>
</g>
<!-- Node6 -->
<g id="node6" class="node"><title>Node6</title>
<polygon fill="white" stroke="#bfbfbf" points="18.5,-88 18.5,-107 132.5,-107 132.5,-88 18.5,-88"/>
<text text-anchor="middle" x="75.5" y="-95" font-family="Helvetica,sans-Serif" font-size="10.00">IEquatable&lt; Custom &gt;</text>
</g>
<!-- Node6&#45;&gt;Node5 -->
<g id="edge7" class="edge"><title>Node6&#45;&gt;Node5</title>
<path fill="none" stroke="midnightblue" d="M142.774,-89.1384C165.886,-86.2223 191.978,-82.9303 215.733,-79.9332"/>
<polygon fill="midnightblue" stroke="midnightblue" points="142.209,-85.6818 132.726,-90.4061 143.085,-92.6267 142.209,-85.6818"/>
</g>
<!-- Node7 -->
<g id="node7" class="node"><title>Node7</title>
<polygon fill="white" stroke="#bfbfbf" points="19.5,-50 19.5,-69 131.5,-69 131.5,-50 19.5,-50"/>
<text text-anchor="middle" x="75.5" y="-57" font-family="Helvetica,sans-Serif" font-size="10.00">IEquatable&lt; Color[][]&gt;</text>
</g>
<!-- Node7&#45;&gt;Node5 -->
<g id="edge8" class="edge"><title>Node7&#45;&gt;Node5</title>
<path fill="none" stroke="midnightblue" d="M141.767,-62.8549C165.153,-64.0569 191.693,-65.4211 215.815,-66.6611"/>
<polygon fill="midnightblue" stroke="midnightblue" points="141.777,-59.3508 131.61,-62.3328 141.417,-66.3416 141.777,-59.3508"/>
</g>
<!-- Node8 -->
<g id="node8" class="node"><title>Node8</title>
<g id="a_node8"><a xlink:href="struct_corale_1_1_colore_1_1_razer_1_1_keyboard_1_1_effects_1_1_custom_1_1_row.html" target="_top" xlink:title="Container struct holding color definitions for a single row in the custom grid. ">
<polygon fill="white" stroke="black" points="0,-0.5 0,-30.5 151,-30.5 151,-0.5 0,-0.5"/>
<text text-anchor="start" x="8" y="-18.5" font-family="Helvetica,sans-Serif" font-size="10.00">Corale.Colore.Razer.Keyboard.</text>
<text text-anchor="middle" x="75.5" y="-7.5" font-family="Helvetica,sans-Serif" font-size="10.00">Effects.Custom.Row</text>
</a>
</g>
</g>
<!-- Node8&#45;&gt;Node5 -->
<g id="edge9" class="edge"><title>Node8&#45;&gt;Node5</title>
<path fill="none" stroke="#9a32cd" stroke-dasharray="5,2" d="M144.733,-33.0366C172.848,-40.2624 205.092,-48.5495 232.094,-55.4892"/>
<polygon fill="#9a32cd" stroke="#9a32cd" points="145.533,-29.6284 134.976,-30.529 143.79,-36.4081 145.533,-29.6284"/>
<text text-anchor="middle" x="183.5" y="-49.5" font-family="Helvetica,sans-Serif" font-size="10.00"> _rows</text>
</g>
<!-- Node9&#45;&gt;Node1 -->
<g id="edge10" class="edge"><title>Node9&#45;&gt;Node1</title>
<path fill="none" stroke="#9a32cd" stroke-dasharray="5,2" d="M374.033,-129.988C392.757,-131.359 412.576,-132.898 431,-134.5 436.847,-135.008 442.907,-135.564 448.99,-136.142"/>
<polygon fill="#9a32cd" stroke="#9a32cd" points="374.286,-126.497 364.059,-129.265 373.78,-133.479 374.286,-126.497"/>
<text text-anchor="middle" x="408" y="-137.5" font-family="Helvetica,sans-Serif" font-size="10.00"> _instance</text>
</g>
</g>
</svg>
