<?xml version="1.0" encoding="UTF-8" standalone="no"?>
<!DOCTYPE svg PUBLIC "-//W3C//DTD SVG 1.1//EN"
 "http://www.w3.org/Graphics/SVG/1.1/DTD/svg11.dtd">
<!-- Generated by graphviz version 2.38.0 (20140413.2041)
 -->
<!-- Title: Corale.Colore.Core.Headset Pages: 1 -->
<svg width="145pt" height="140pt"
 viewBox="0.00 0.00 145.00 140.00" xmlns="http://www.w3.org/2000/svg" xmlns:xlink="http://www.w3.org/1999/xlink">
<g id="graph0" class="graph" transform="scale(1 1) rotate(0) translate(4 136)">
<title>Corale.Colore.Core.Headset</title>
<polygon fill="white" stroke="none" points="-4,4 -4,-136 141,-136 141,4 -4,4"/>
<!-- Node1 -->
<g id="node1" class="node"><title>Node1</title>
<polygon fill="#bfbfbf" stroke="black" points="0,-0.5 0,-19.5 137,-19.5 137,-0.5 0,-0.5"/>
<text text-anchor="middle" x="68.5" y="-7.5" font-family="Helvetica,sans-Serif" font-size="10.00">Corale.Colore.Core.Headset</text>
</g>
<!-- Node2 -->
<g id="node2" class="node"><title>Node2</title>
<g id="a_node2"><a xlink:href="class_corale_1_1_colore_1_1_core_1_1_device.html" target="_top" xlink:title="Base class for devices, containing code common between all devices. ">
<polygon fill="white" stroke="black" points="12,-56.5 12,-75.5 57,-75.5 57,-56.5 12,-56.5"/>
<text text-anchor="middle" x="34.5" y="-63.5" font-family="Helvetica,sans-Serif" font-size="10.00">Device</text>
</a>
</g>
</g>
<!-- Node2&#45;&gt;Node1 -->
<g id="edge1" class="edge"><title>Node2&#45;&gt;Node1</title>
<path fill="none" stroke="midnightblue" d="M45.4772,-47.5656C51.327,-38.2747 58.2695,-27.2484 62.9901,-19.7511"/>
<polygon fill="midnightblue" stroke="midnightblue" points="42.4808,-45.7558 40.1144,-56.083 48.4044,-49.4855 42.4808,-45.7558"/>
</g>
<!-- Node3 -->
<g id="node3" class="node"><title>Node3</title>
<g id="a_node3"><a xlink:href="interface_corale_1_1_colore_1_1_core_1_1_i_device.html" target="_top" xlink:title="Interface for functionality common with all devices. ">
<polygon fill="white" stroke="black" points="45,-112.5 45,-131.5 92,-131.5 92,-112.5 45,-112.5"/>
<text text-anchor="middle" x="68.5" y="-119.5" font-family="Helvetica,sans-Serif" font-size="10.00">IDevice</text>
</a>
</g>
</g>
<!-- Node3&#45;&gt;Node2 -->
<g id="edge2" class="edge"><title>Node3&#45;&gt;Node2</title>
<path fill="none" stroke="midnightblue" d="M57.5228,-103.566C51.673,-94.2747 44.7305,-83.2484 40.0099,-75.7511"/>
<polygon fill="midnightblue" stroke="midnightblue" points="54.5956,-105.486 62.8856,-112.083 60.5192,-101.756 54.5956,-105.486"/>
</g>
<!-- Node4 -->
<g id="node4" class="node"><title>Node4</title>
<g id="a_node4"><a xlink:href="interface_corale_1_1_colore_1_1_core_1_1_i_headset.html" target="_top" xlink:title="Interface for headset functionality. ">
<polygon fill="white" stroke="black" points="75,-56.5 75,-75.5 130,-75.5 130,-56.5 75,-56.5"/>
<text text-anchor="middle" x="102.5" y="-63.5" font-family="Helvetica,sans-Serif" font-size="10.00">IHeadset</text>
</a>
</g>
</g>
<!-- Node3&#45;&gt;Node4 -->
<g id="edge4" class="edge"><title>Node3&#45;&gt;Node4</title>
<path fill="none" stroke="midnightblue" d="M79.4772,-103.566C85.327,-94.2747 92.2695,-83.2484 96.9901,-75.7511"/>
<polygon fill="midnightblue" stroke="midnightblue" points="76.4808,-101.756 74.1144,-112.083 82.4044,-105.486 76.4808,-101.756"/>
</g>
<!-- Node4&#45;&gt;Node1 -->
<g id="edge3" class="edge"><title>Node4&#45;&gt;Node1</title>
<path fill="none" stroke="midnightblue" d="M91.5228,-47.5656C85.673,-38.2747 78.7305,-27.2484 74.0099,-19.7511"/>
<polygon fill="midnightblue" stroke="midnightblue" points="88.5956,-49.4855 96.8856,-56.083 94.5192,-45.7558 88.5956,-49.4855"/>
</g>
</g>
</svg>
