<?xml version="1.0" encoding="UTF-8" standalone="no"?>
<!DOCTYPE svg PUBLIC "-//W3C//DTD SVG 1.1//EN"
 "http://www.w3.org/Graphics/SVG/1.1/DTD/svg11.dtd">
<!-- Generated by graphviz version 2.38.0 (20140413.2041)
 -->
<!-- Title: Corale.Colore.Core.GenericDevice Pages: 1 -->
<svg width="303pt" height="163pt"
 viewBox="0.00 0.00 303.00 163.00" xmlns="http://www.w3.org/2000/svg" xmlns:xlink="http://www.w3.org/1999/xlink">
<g id="graph0" class="graph" transform="scale(1 1) rotate(0) translate(4 159)">
<title>Corale.Colore.Core.GenericDevice</title>
<polygon fill="white" stroke="none" points="-4,4 -4,-159 299,-159 299,4 -4,4"/>
<!-- Node1 -->
<g id="node1" class="node"><title>Node1</title>
<polygon fill="#bfbfbf" stroke="black" points="36,-0.5 36,-30.5 171,-30.5 171,-0.5 36,-0.5"/>
<text text-anchor="start" x="44" y="-18.5" font-family="Helvetica,sans-Serif" font-size="10.00">Corale.Colore.Core.Generic</text>
<text text-anchor="middle" x="103.5" y="-7.5" font-family="Helvetica,sans-Serif" font-size="10.00">Device</text>
</g>
<!-- Node2 -->
<g id="node2" class="node"><title>Node2</title>
<g id="a_node2"><a xlink:href="class_corale_1_1_colore_1_1_core_1_1_device.html" target="_top" xlink:title="Base class for devices, containing code common between all devices. ">
<polygon fill="white" stroke="black" points="0,-78.5 0,-97.5 45,-97.5 45,-78.5 0,-78.5"/>
<text text-anchor="middle" x="22.5" y="-85.5" font-family="Helvetica,sans-Serif" font-size="10.00">Device</text>
</a>
</g>
</g>
<!-- Node2&#45;&gt;Node1 -->
<g id="edge1" class="edge"><title>Node2&#45;&gt;Node1</title>
<path fill="none" stroke="midnightblue" d="M39.9817,-71.7844C54.0376,-59.5506 73.6311,-42.497 87.3274,-30.5762"/>
<polygon fill="midnightblue" stroke="midnightblue" points="37.6774,-69.15 32.4322,-78.3553 42.2731,-74.4301 37.6774,-69.15"/>
</g>
<!-- Node3 -->
<g id="node3" class="node"><title>Node3</title>
<g id="a_node3"><a xlink:href="interface_corale_1_1_colore_1_1_core_1_1_i_device.html" target="_top" xlink:title="Interface for functionality common with all devices. ">
<polygon fill="white" stroke="black" points="46,-135.5 46,-154.5 93,-154.5 93,-135.5 46,-135.5"/>
<text text-anchor="middle" x="69.5" y="-142.5" font-family="Helvetica,sans-Serif" font-size="10.00">IDevice</text>
</a>
</g>
</g>
<!-- Node3&#45;&gt;Node2 -->
<g id="edge2" class="edge"><title>Node3&#45;&gt;Node2</title>
<path fill="none" stroke="midnightblue" d="M55.4273,-127.532C47.0561,-117.736 36.7718,-105.701 29.9473,-97.7149"/>
<polygon fill="midnightblue" stroke="midnightblue" points="52.9989,-130.078 62.1563,-135.406 58.3205,-125.53 52.9989,-130.078"/>
</g>
<!-- Node4 -->
<g id="node4" class="node"><title>Node4</title>
<g id="a_node4"><a xlink:href="interface_corale_1_1_colore_1_1_core_1_1_i_generic_device.html" target="_top" xlink:title="Interface for generic devices. ">
<polygon fill="white" stroke="black" points="63,-78.5 63,-97.5 144,-97.5 144,-78.5 63,-78.5"/>
<text text-anchor="middle" x="103.5" y="-85.5" font-family="Helvetica,sans-Serif" font-size="10.00">IGenericDevice</text>
</a>
</g>
</g>
<!-- Node3&#45;&gt;Node4 -->
<g id="edge4" class="edge"><title>Node3&#45;&gt;Node4</title>
<path fill="none" stroke="midnightblue" d="M80.2345,-126.635C86.1846,-117.01 93.3253,-105.459 98.1126,-97.7149"/>
<polygon fill="midnightblue" stroke="midnightblue" points="77.0937,-125.06 74.8125,-135.406 83.0479,-128.741 77.0937,-125.06"/>
</g>
<!-- Node4&#45;&gt;Node1 -->
<g id="edge3" class="edge"><title>Node4&#45;&gt;Node1</title>
<path fill="none" stroke="midnightblue" d="M103.5,-68.2362C103.5,-56.4079 103.5,-41.3829 103.5,-30.5762"/>
<polygon fill="midnightblue" stroke="midnightblue" points="100,-68.3553 103.5,-78.3553 107,-68.3554 100,-68.3553"/>
</g>
<!-- Node5 -->
<g id="node5" class="node"><title>Node5</title>
<g id="a_node5"><a xlink:href="interface_corale_1_1_colore_1_1_logging_1_1_i_log.html" target="_top" xlink:title="Describes a logger. ">
<polygon fill="white" stroke="black" points="162,-78.5 162,-97.5 295,-97.5 295,-78.5 162,-78.5"/>
<text text-anchor="middle" x="228.5" y="-85.5" font-family="Helvetica,sans-Serif" font-size="10.00">Corale.Colore.Logging.ILog</text>
</a>
</g>
</g>
<!-- Node5&#45;&gt;Node1 -->
<g id="edge5" class="edge"><title>Node5&#45;&gt;Node1</title>
<path fill="none" stroke="#9a32cd" stroke-dasharray="5,2" d="M204.212,-73.3016C182.39,-60.9941 150.483,-42.9984 128.458,-30.5762"/>
<polygon fill="#9a32cd" stroke="#9a32cd" points="202.743,-76.4913 213.173,-78.3553 206.182,-70.3942 202.743,-76.4913"/>
<text text-anchor="middle" x="186" y="-52" font-family="Helvetica,sans-Serif" font-size="10.00"> Log</text>
</g>
</g>
</svg>
