<?xml version="1.0" encoding="UTF-8" standalone="no"?>
<!DOCTYPE svg PUBLIC "-//W3C//DTD SVG 1.1//EN"
 "http://www.w3.org/Graphics/SVG/1.1/DTD/svg11.dtd">
<!-- Generated by graphviz version 2.38.0 (20140413.2041)
 -->
<!-- Title: Corale.Colore.Core.Mousepad Pages: 1 -->
<svg width="603pt" height="200pt"
 viewBox="0.00 0.00 603.00 199.50" xmlns="http://www.w3.org/2000/svg" xmlns:xlink="http://www.w3.org/1999/xlink">
<g id="graph0" class="graph" transform="scale(1 1) rotate(0) translate(4 195.5)">
<title>Corale.Colore.Core.Mousepad</title>
<polygon fill="white" stroke="none" points="-4,4 -4,-195.5 599,-195.5 599,4 -4,4"/>
<!-- Node1 -->
<g id="node1" class="node"><title>Node1</title>
<polygon fill="#bfbfbf" stroke="black" points="449,-115 449,-134 595,-134 595,-115 449,-115"/>
<text text-anchor="middle" x="522" y="-122" font-family="Helvetica,sans-Serif" font-size="10.00">Corale.Colore.Core.Mousepad</text>
</g>
<!-- Node2 -->
<g id="node2" class="node"><title>Node2</title>
<g id="a_node2"><a xlink:href="class_corale_1_1_colore_1_1_core_1_1_device.html" target="_top" xlink:title="Base class for devices, containing code common between all devices. ">
<polygon fill="white" stroke="black" points="269,-172 269,-191 314,-191 314,-172 269,-172"/>
<text text-anchor="middle" x="291.5" y="-179" font-family="Helvetica,sans-Serif" font-size="10.00">Device</text>
</a>
</g>
</g>
<!-- Node2&#45;&gt;Node1 -->
<g id="edge1" class="edge"><title>Node2&#45;&gt;Node1</title>
<path fill="none" stroke="midnightblue" d="M324.179,-174.205C352.29,-167.672 394.447,-157.727 431,-148.5 449.188,-143.909 469.372,-138.551 486.009,-134.063"/>
<polygon fill="midnightblue" stroke="midnightblue" points="323.086,-170.866 314.135,-176.534 324.667,-177.685 323.086,-170.866"/>
</g>
<!-- Node3 -->
<g id="node3" class="node"><title>Node3</title>
<g id="a_node3"><a xlink:href="interface_corale_1_1_colore_1_1_core_1_1_i_device.html" target="_top" xlink:title="Interface for functionality common with all devices. ">
<polygon fill="white" stroke="black" points="52,-135 52,-154 99,-154 99,-135 52,-135"/>
<text text-anchor="middle" x="75.5" y="-142" font-family="Helvetica,sans-Serif" font-size="10.00">IDevice</text>
</a>
</g>
</g>
<!-- Node3&#45;&gt;Node2 -->
<g id="edge2" class="edge"><title>Node3&#45;&gt;Node2</title>
<path fill="none" stroke="midnightblue" d="M109.361,-150.182C153.592,-157.829 231.068,-171.224 268.722,-177.735"/>
<polygon fill="midnightblue" stroke="midnightblue" points="109.852,-146.715 99.4017,-148.46 108.659,-153.612 109.852,-146.715"/>
</g>
<!-- Node4 -->
<g id="node4" class="node"><title>Node4</title>
<g id="a_node4"><a xlink:href="interface_corale_1_1_colore_1_1_core_1_1_i_mousepad.html" target="_top" xlink:title="Interface for mouse pad functionality. ">
<polygon fill="white" stroke="black" points="259.5,-134 259.5,-153 323.5,-153 323.5,-134 259.5,-134"/>
<text text-anchor="middle" x="291.5" y="-141" font-family="Helvetica,sans-Serif" font-size="10.00">IMousepad</text>
</a>
</g>
</g>
<!-- Node3&#45;&gt;Node4 -->
<g id="edge4" class="edge"><title>Node3&#45;&gt;Node4</title>
<path fill="none" stroke="midnightblue" d="M109.626,-144.345C150.416,-144.155 219.187,-143.833 259.146,-143.647"/>
<polygon fill="midnightblue" stroke="midnightblue" points="109.385,-140.846 99.4017,-144.393 109.418,-147.846 109.385,-140.846"/>
</g>
<!-- Node5 -->
<g id="node5" class="node"><title>Node5</title>
<g id="a_node5"><a xlink:href="interface_corale_1_1_colore_1_1_core_1_1_i_mousepad.html" target="_top" xlink:title="Interface for mouse pad functionality. ">
<polygon fill="white" stroke="black" points="217,-96 217,-115 366,-115 366,-96 217,-96"/>
<text text-anchor="middle" x="291.5" y="-103" font-family="Helvetica,sans-Serif" font-size="10.00">Corale.Colore.Core.IMousepad</text>
</a>
</g>
</g>
<!-- Node3&#45;&gt;Node5 -->
<g id="edge6" class="edge"><title>Node3&#45;&gt;Node5</title>
<path fill="none" stroke="midnightblue" d="M109.368,-138.51C143.672,-132.258 197.967,-122.364 238.175,-115.036"/>
<polygon fill="midnightblue" stroke="midnightblue" points="108.612,-135.09 99.4017,-140.326 109.867,-141.977 108.612,-135.09"/>
</g>
<!-- Node4&#45;&gt;Node1 -->
<g id="edge3" class="edge"><title>Node4&#45;&gt;Node1</title>
<path fill="none" stroke="midnightblue" d="M334.105,-140.041C366.062,-137.383 410.978,-133.648 448.767,-130.506"/>
<polygon fill="midnightblue" stroke="midnightblue" points="333.468,-136.581 323.793,-140.898 334.049,-143.557 333.468,-136.581"/>
</g>
<!-- Node5&#45;&gt;Node1 -->
<g id="edge5" class="edge"><title>Node5&#45;&gt;Node1</title>
<path fill="none" stroke="#9a32cd" stroke-dasharray="5,2" d="M376.132,-112.454C399.947,-114.434 425.678,-116.574 448.753,-118.493"/>
<polygon fill="#9a32cd" stroke="#9a32cd" points="376.312,-108.957 366.057,-111.616 375.732,-115.933 376.312,-108.957"/>
<text text-anchor="middle" x="408" y="-120.5" font-family="Helvetica,sans-Serif" font-size="10.00"> _instance</text>
</g>
<!-- Node6 -->
<g id="node6" class="node"><title>Node6</title>
<g id="a_node6"><a xlink:href="struct_corale_1_1_colore_1_1_razer_1_1_keyboard_1_1_effects_1_1_custom.html" target="_top" xlink:title="Describes a custom grid effect for every key. ">
<polygon fill="white" stroke="black" points="216,-45.5 216,-75.5 367,-75.5 367,-45.5 216,-45.5"/>
<text text-anchor="start" x="224" y="-63.5" font-family="Helvetica,sans-Serif" font-size="10.00">Corale.Colore.Razer.Keyboard.</text>
<text text-anchor="middle" x="291.5" y="-52.5" font-family="Helvetica,sans-Serif" font-size="10.00">Effects.Custom</text>
</a>
</g>
</g>
<!-- Node6&#45;&gt;Node1 -->
<g id="edge7" class="edge"><title>Node6&#45;&gt;Node1</title>
<path fill="none" stroke="#9a32cd" stroke-dasharray="5,2" d="M357.853,-78.2368C380.979,-84.5644 407.165,-91.7877 431,-98.5 449.943,-103.835 471.085,-109.935 488.116,-114.885"/>
<polygon fill="#9a32cd" stroke="#9a32cd" points="358.715,-74.8439 348.146,-75.5839 356.869,-81.5963 358.715,-74.8439"/>
<text text-anchor="middle" x="408" y="-101.5" font-family="Helvetica,sans-Serif" font-size="10.00"> _custom</text>
</g>
<!-- Node7 -->
<g id="node7" class="node"><title>Node7</title>
<polygon fill="white" stroke="#bfbfbf" points="18.5,-88 18.5,-107 132.5,-107 132.5,-88 18.5,-88"/>
<text text-anchor="middle" x="75.5" y="-95" font-family="Helvetica,sans-Serif" font-size="10.00">IEquatable&lt; Custom &gt;</text>
</g>
<!-- Node7&#45;&gt;Node6 -->
<g id="edge8" class="edge"><title>Node7&#45;&gt;Node6</title>
<path fill="none" stroke="midnightblue" d="M141.767,-86.2155C165.153,-82.1721 191.693,-77.5834 215.815,-73.4128"/>
<polygon fill="midnightblue" stroke="midnightblue" points="140.868,-82.819 131.61,-87.9716 142.06,-89.7166 140.868,-82.819"/>
</g>
<!-- Node8 -->
<g id="node8" class="node"><title>Node8</title>
<polygon fill="white" stroke="#bfbfbf" points="19.5,-50 19.5,-69 131.5,-69 131.5,-50 19.5,-50"/>
<text text-anchor="middle" x="75.5" y="-57" font-family="Helvetica,sans-Serif" font-size="10.00">IEquatable&lt; Color[][]&gt;</text>
</g>
<!-- Node8&#45;&gt;Node6 -->
<g id="edge9" class="edge"><title>Node8&#45;&gt;Node6</title>
<path fill="none" stroke="midnightblue" d="M141.767,-59.805C165.153,-59.9143 191.693,-60.0383 215.815,-60.151"/>
<polygon fill="midnightblue" stroke="midnightblue" points="141.627,-56.3044 131.61,-59.7575 141.594,-63.3043 141.627,-56.3044"/>
</g>
<!-- Node9 -->
<g id="node9" class="node"><title>Node9</title>
<g id="a_node9"><a xlink:href="struct_corale_1_1_colore_1_1_razer_1_1_keyboard_1_1_effects_1_1_custom_1_1_row.html" target="_top" xlink:title="Container struct holding color definitions for a single row in the custom grid. ">
<polygon fill="white" stroke="black" points="0,-0.5 0,-30.5 151,-30.5 151,-0.5 0,-0.5"/>
<text text-anchor="start" x="8" y="-18.5" font-family="Helvetica,sans-Serif" font-size="10.00">Corale.Colore.Razer.Keyboard.</text>
<text text-anchor="middle" x="75.5" y="-7.5" font-family="Helvetica,sans-Serif" font-size="10.00">Effects.Custom.Row</text>
</a>
</g>
</g>
<!-- Node9&#45;&gt;Node6 -->
<g id="edge10" class="edge"><title>Node9&#45;&gt;Node6</title>
<path fill="none" stroke="#9a32cd" stroke-dasharray="5,2" d="M158.099,-32.6586C178.154,-36.8759 199.473,-41.3589 219.011,-45.4673"/>
<polygon fill="#9a32cd" stroke="#9a32cd" points="158.563,-29.1797 148.056,-30.5469 157.122,-36.0299 158.563,-29.1797"/>
<text text-anchor="middle" x="183.5" y="-44.5" font-family="Helvetica,sans-Serif" font-size="10.00"> _rows</text>
</g>
</g>
</svg>
