<?xml version="1.0" encoding="UTF-8" standalone="no"?>
<!DOCTYPE svg PUBLIC "-//W3C//DTD SVG 1.1//EN"
 "http://www.w3.org/Graphics/SVG/1.1/DTD/svg11.dtd">
<!-- Generated by graphviz version 2.38.0 (20140413.2041)
 -->
<!-- Title: Corale.Colore.Razer.NativeCallException Pages: 1 -->
<svg width="360pt" height="242pt"
 viewBox="0.00 0.00 360.00 242.00" xmlns="http://www.w3.org/2000/svg" xmlns:xlink="http://www.w3.org/1999/xlink">
<g id="graph0" class="graph" transform="scale(1 1) rotate(0) translate(4 238)">
<title>Corale.Colore.Razer.NativeCallException</title>
<polygon fill="white" stroke="none" points="-4,4 -4,-238 356,-238 356,4 -4,4"/>
<!-- Node1 -->
<g id="node1" class="node"><title>Node1</title>
<polygon fill="#bfbfbf" stroke="black" points="53.5,-0.5 53.5,-30.5 186.5,-30.5 186.5,-0.5 53.5,-0.5"/>
<text text-anchor="start" x="61.5" y="-18.5" font-family="Helvetica,sans-Serif" font-size="10.00">Corale.Colore.Razer.Native</text>
<text text-anchor="middle" x="120" y="-7.5" font-family="Helvetica,sans-Serif" font-size="10.00">CallException</text>
</g>
<!-- Node2 -->
<g id="node2" class="node"><title>Node2</title>
<g id="a_node2"><a xlink:href="class_corale_1_1_colore_1_1_colore_exception.html" target="_top" xlink:title="Generic Colore library exception. ">
<polygon fill="white" stroke="black" points="0,-118 0,-137 88,-137 88,-118 0,-118"/>
<text text-anchor="middle" x="44" y="-125" font-family="Helvetica,sans-Serif" font-size="10.00">ColoreException</text>
</a>
</g>
</g>
<!-- Node2&#45;&gt;Node1 -->
<g id="edge1" class="edge"><title>Node2&#45;&gt;Node1</title>
<path fill="none" stroke="midnightblue" d="M55.8268,-109.382C70.7418,-87.7947 96.1192,-51.0643 110.074,-30.8665"/>
<polygon fill="midnightblue" stroke="midnightblue" points="52.7684,-107.652 49.9636,-117.868 58.5275,-111.631 52.7684,-107.652"/>
</g>
<!-- Node3 -->
<g id="node3" class="node"><title>Node3</title>
<polygon fill="white" stroke="#bfbfbf" points="14,-214.5 14,-233.5 74,-233.5 74,-214.5 14,-214.5"/>
<text text-anchor="middle" x="44" y="-221.5" font-family="Helvetica,sans-Serif" font-size="10.00">Exception</text>
</g>
<!-- Node3&#45;&gt;Node2 -->
<g id="edge2" class="edge"><title>Node3&#45;&gt;Node2</title>
<path fill="none" stroke="midnightblue" d="M44,-204.042C44,-183.707 44,-152.304 44,-137.2"/>
<polygon fill="midnightblue" stroke="midnightblue" points="40.5001,-204.279 44,-214.279 47.5001,-204.279 40.5001,-204.279"/>
</g>
<!-- Node4 -->
<g id="node4" class="node"><title>Node4</title>
<g id="a_node4"><a xlink:href="struct_corale_1_1_colore_1_1_razer_1_1_result.html" target="_top" xlink:title="Struct for containing the result of running a native Chroma SDK function. ">
<polygon fill="white" stroke="black" points="106,-118 106,-137 240,-137 240,-118 106,-118"/>
<text text-anchor="middle" x="173" y="-125" font-family="Helvetica,sans-Serif" font-size="10.00">Corale.Colore.Razer.Result</text>
</a>
</g>
</g>
<!-- Node4&#45;&gt;Node1 -->
<g id="edge3" class="edge"><title>Node4&#45;&gt;Node1</title>
<path fill="none" stroke="#9a32cd" stroke-dasharray="5,2" d="M164.471,-108.798C154.034,-87.1372 136.566,-50.8831 126.922,-30.8665"/>
<polygon fill="#9a32cd" stroke="#9a32cd" points="161.347,-110.379 168.841,-117.868 167.654,-107.34 161.347,-110.379"/>
<text text-anchor="middle" x="157.5" y="-52" font-family="Helvetica,sans-Serif" font-size="10.00"> _result</text>
</g>
<!-- Node4&#45;&gt;Node4 -->
<g id="edge6" class="edge"><title>Node4&#45;&gt;Node4</title>
<path fill="none" stroke="#9a32cd" stroke-dasharray="5,2" d="M208.146,-138.91C233.158,-142.559 258,-138.756 258,-127.5 258,-114.75 226.125,-111.563 198.234,-117.938"/>
<polygon fill="#9a32cd" stroke="#9a32cd" points="208.706,-135.454 198.234,-137.063 207.424,-142.335 208.706,-135.454"/>
<text text-anchor="middle" x="305" y="-169" font-family="Helvetica,sans-Serif" font-size="10.00"> RzInvalid</text>
<text text-anchor="middle" x="305" y="-158" font-family="Helvetica,sans-Serif" font-size="10.00">RzFailed</text>
<text text-anchor="middle" x="305" y="-147" font-family="Helvetica,sans-Serif" font-size="10.00">RzAccessDenied</text>
<text text-anchor="middle" x="305" y="-136" font-family="Helvetica,sans-Serif" font-size="10.00">RzRequestAborted</text>
<text text-anchor="middle" x="305" y="-125" font-family="Helvetica,sans-Serif" font-size="10.00">RzSuccess</text>
<text text-anchor="middle" x="305" y="-114" font-family="Helvetica,sans-Serif" font-size="10.00">RzSingleInstanceApp</text>
<text text-anchor="middle" x="305" y="-103" font-family="Helvetica,sans-Serif" font-size="10.00">RzResourceDisabled</text>
<text text-anchor="middle" x="305" y="-92" font-family="Helvetica,sans-Serif" font-size="10.00">RzNotSupported</text>
<text text-anchor="middle" x="305" y="-81" font-family="Helvetica,sans-Serif" font-size="10.00">RzInvalidParameter</text>
</g>
<!-- Node5 -->
<g id="node5" class="node"><title>Node5</title>
<polygon fill="white" stroke="#bfbfbf" points="109.5,-214.5 109.5,-233.5 200.5,-233.5 200.5,-214.5 109.5,-214.5"/>
<text text-anchor="middle" x="155" y="-221.5" font-family="Helvetica,sans-Serif" font-size="10.00">IEquatable&lt; int &gt;</text>
</g>
<!-- Node5&#45;&gt;Node4 -->
<g id="edge4" class="edge"><title>Node5&#45;&gt;Node4</title>
<path fill="none" stroke="midnightblue" d="M158.557,-204.325C162.429,-183.999 168.453,-152.374 171.343,-137.2"/>
<polygon fill="midnightblue" stroke="midnightblue" points="155.094,-203.801 156.661,-214.279 161.971,-205.111 155.094,-203.801"/>
</g>
<!-- Node6 -->
<g id="node6" class="node"><title>Node6</title>
<polygon fill="white" stroke="#bfbfbf" points="219,-214.5 219,-233.5 327,-233.5 327,-214.5 219,-214.5"/>
<text text-anchor="middle" x="273" y="-221.5" font-family="Helvetica,sans-Serif" font-size="10.00">IEquatable&lt; Result &gt;</text>
</g>
<!-- Node6&#45;&gt;Node4 -->
<g id="edge5" class="edge"><title>Node6&#45;&gt;Node4</title>
<path fill="none" stroke="midnightblue" d="M256.428,-207.339C235.183,-187.263 199.082,-153.147 182.206,-137.2"/>
<polygon fill="midnightblue" stroke="midnightblue" points="254.099,-209.955 263.771,-214.279 258.907,-204.867 254.099,-209.955"/>
</g>
</g>
</svg>
