<?xml version="1.0" encoding="UTF-8" standalone="no"?>
<!DOCTYPE svg PUBLIC "-//W3C//DTD SVG 1.1//EN"
 "http://www.w3.org/Graphics/SVG/1.1/DTD/svg11.dtd">
<!-- Generated by graphviz version 2.38.0 (20140413.2041)
 -->
<!-- Title: Corale.Colore.Core.Chroma Pages: 1 -->
<!--zoomable 370 -->
<svg id="main" version="1.1" xmlns="http://www.w3.org/2000/svg" xmlns:xlink="http://www.w3.org/1999/xlink" xml:space="preserve" onload="init(evt)">
<style type="text/css"><![CDATA[
.edge:hover path { stroke: red; }
.edge:hover polygon { stroke: red; fill: red; }
]]></style>
<script type="text/javascript"><![CDATA[
var edges = document.getElementsByTagName('g');
if (edges && edges.length) {
  for (var i=0;i<edges.length;i++) {
    if (edges[i].id.substr(0,4)=='edge') {
      edges[i].setAttribute('class','edge');
    }
  }
}
]]></script>
        <defs>
                <circle id="rim" cx="0" cy="0" r="7"/>
                <circle id="rim2" cx="0" cy="0" r="3.5"/>
                <g id="zoomPlus">
                        <use xlink:href="#rim" fill="#404040">
                                <set attributeName="fill" to="#808080" begin="zoomplus.mouseover" end="zoomplus.mouseout"/>
                        </use>
                        <path d="M-4,0h8M0,-4v8" fill="none" stroke="white" stroke-width="1.5" pointer-events="none"/>
                </g>
                <g id="zoomMin">
                        <use xlink:href="#rim" fill="#404040">
                                <set attributeName="fill" to="#808080" begin="zoomminus.mouseover" end="zoomminus.mouseout"/>
                        </use>
                        <path d="M-4,0h8" fill="none" stroke="white" stroke-width="1.5" pointer-events="none"/>
                </g>
                <g id="dirArrow">
                        <path fill="none" stroke="white" stroke-width="1.5" d="M0,-3.0v7 M-2.5,-0.5L0,-3.0L2.5,-0.5"/>
                </g>
               <g id="resetDef">
                       <use xlink:href="#rim2" fill="#404040">
                               <set attributeName="fill" to="#808080" begin="reset.mouseover" end="reset.mouseout"/>
                       </use>
               </g>
        </defs>

<script type="text/javascript">
var viewWidth = 565;
var viewHeight = 370;
var sectionId = 'dynsection-1';
</script>
<script xlink:href="svgpan.js"/>
<svg id="graph" class="graph">
<g id="viewport">
<title>Corale.Colore.Core.Chroma</title>
<polygon fill="white" stroke="none" points="-4,4 -4,-366 561,-366 561,4 -4,4"/>
<!-- Node2 -->
<g id="node1" class="node"><title>Node2</title>
<polygon fill="#bfbfbf" stroke="black" points="422,-170.5 422,-189.5 557,-189.5 557,-170.5 422,-170.5"/>
<text text-anchor="middle" x="489.5" y="-177.5" font-family="Helvetica,sans-Serif" font-size="10.00">Corale.Colore.Core.Chroma</text>
</g>
<!-- Node3 -->
<g id="node2" class="node"><title>Node3</title>
<g id="a_node2"><a xlink:href="interface_corale_1_1_colore_1_1_core_1_1_i_chroma.html" target="_top" xlink:title="Interface for basic Chroma functionality. ">
<polygon fill="white" stroke="black" points="227,-342.5 227,-361.5 280,-361.5 280,-342.5 227,-342.5"/>
<text text-anchor="middle" x="253.5" y="-349.5" font-family="Helvetica,sans-Serif" font-size="10.00">IChroma</text>
</a>
</g>
</g>
<!-- Node3&#45;&gt;Node2 -->
<g id="edge1" class="edge"><title>Node3&#45;&gt;Node2</title>
<path fill="none" stroke="midnightblue" d="M290.598,-350.336C323.044,-347.211 370.595,-338.428 404,-314 449.733,-280.557 476.58,-214.168 485.323,-189.511"/>
<polygon fill="midnightblue" stroke="midnightblue" points="289.894,-346.882 280.216,-351.193 290.47,-353.858 289.894,-346.882"/>
</g>
<!-- Node4 -->
<g id="node3" class="node"><title>Node4</title>
<g id="a_node3"><a xlink:href="interface_corale_1_1_colore_1_1_logging_1_1_i_log.html" target="_top" xlink:title="Describes a logger. ">
<polygon fill="white" stroke="black" points="187,-304.5 187,-323.5 320,-323.5 320,-304.5 187,-304.5"/>
<text text-anchor="middle" x="253.5" y="-311.5" font-family="Helvetica,sans-Serif" font-size="10.00">Corale.Colore.Logging.ILog</text>
</a>
</g>
</g>
<!-- Node4&#45;&gt;Node2 -->
<g id="edge2" class="edge"><title>Node4&#45;&gt;Node2</title>
<path fill="none" stroke="#9a32cd" stroke-dasharray="5,2" d="M330.169,-304.578C354.977,-299.128 381.84,-290.537 404,-277 441.356,-254.18 471.043,-209.443 482.907,-189.727"/>
<polygon fill="#9a32cd" stroke="#9a32cd" points="329.142,-301.216 320.05,-306.656 330.55,-308.073 329.142,-301.216"/>
<text text-anchor="middle" x="376.5" y="-302" font-family="Helvetica,sans-Serif" font-size="10.00"> Log</text>
</g>
<!-- Node5 -->
<g id="node4" class="node"><title>Node5</title>
<g id="a_node4"><a xlink:href="struct_corale_1_1_colore_1_1_sdk_version.html" target="_top" xlink:title="Describes an SDK version. ">
<polygon fill="white" stroke="black" points="189.5,-266.5 189.5,-285.5 317.5,-285.5 317.5,-266.5 189.5,-266.5"/>
<text text-anchor="middle" x="253.5" y="-273.5" font-family="Helvetica,sans-Serif" font-size="10.00">Corale.Colore.SdkVersion</text>
</a>
</g>
</g>
<!-- Node5&#45;&gt;Node2 -->
<g id="edge3" class="edge"><title>Node5&#45;&gt;Node2</title>
<path fill="none" stroke="#9a32cd" stroke-dasharray="5,2" d="M304.871,-264.054C313.613,-261.82 322.592,-259.423 331,-257 363.818,-247.544 373.084,-247.514 404,-233 430.648,-220.49 459.167,-201.223 475.321,-189.69"/>
<polygon fill="#9a32cd" stroke="#9a32cd" points="303.99,-260.667 295.145,-266.5 305.697,-267.455 303.99,-260.667"/>
<text text-anchor="middle" x="376.5" y="-265" font-family="Helvetica,sans-Serif" font-size="10.00"> SdkVersion</text>
<text text-anchor="middle" x="376.5" y="-254" font-family="Helvetica,sans-Serif" font-size="10.00">_sdkVersion</text>
</g>
<!-- Node6 -->
<g id="node5" class="node"><title>Node6</title>
<polygon fill="white" stroke="#bfbfbf" points="4,-304.5 4,-323.5 135,-323.5 135,-304.5 4,-304.5"/>
<text text-anchor="middle" x="69.5" y="-311.5" font-family="Helvetica,sans-Serif" font-size="10.00">IEquatable&lt; SdkVersion &gt;</text>
</g>
<!-- Node6&#45;&gt;Node5 -->
<g id="edge4" class="edge"><title>Node6&#45;&gt;Node5</title>
<path fill="none" stroke="midnightblue" d="M126.446,-302.319C152.256,-296.93 182.507,-290.614 206.904,-285.52"/>
<polygon fill="midnightblue" stroke="midnightblue" points="125.5,-298.941 116.426,-304.411 126.931,-305.793 125.5,-298.941"/>
</g>
<!-- Node7 -->
<g id="node6" class="node"><title>Node7</title>
<polygon fill="white" stroke="#bfbfbf" points="0,-266.5 0,-285.5 139,-285.5 139,-266.5 0,-266.5"/>
<text text-anchor="middle" x="69.5" y="-273.5" font-family="Helvetica,sans-Serif" font-size="10.00">IComparable&lt; SdkVersion &gt;</text>
</g>
<!-- Node7&#45;&gt;Node5 -->
<g id="edge5" class="edge"><title>Node7&#45;&gt;Node5</title>
<path fill="none" stroke="midnightblue" d="M149.228,-276C162.66,-276 176.455,-276 189.414,-276"/>
<polygon fill="midnightblue" stroke="midnightblue" points="149.047,-272.5 139.047,-276 149.047,-279.5 149.047,-272.5"/>
</g>
<!-- Node8 -->
<g id="node7" class="node"><title>Node8</title>
<polygon fill="white" stroke="#bfbfbf" points="34,-228.5 34,-247.5 105,-247.5 105,-228.5 34,-228.5"/>
<text text-anchor="middle" x="69.5" y="-235.5" font-family="Helvetica,sans-Serif" font-size="10.00">IComparable</text>
</g>
<!-- Node8&#45;&gt;Node5 -->
<g id="edge6" class="edge"><title>Node8&#45;&gt;Node5</title>
<path fill="none" stroke="midnightblue" d="M115.056,-247.303C142.969,-253.131 178.848,-260.622 206.948,-266.489"/>
<polygon fill="midnightblue" stroke="midnightblue" points="115.665,-243.855 105.161,-245.237 114.235,-250.707 115.665,-243.855"/>
</g>
<!-- Node9 -->
<g id="node8" class="node"><title>Node9</title>
<g id="a_node8"><a xlink:href="interface_corale_1_1_colore_1_1_core_1_1_i_chroma.html" target="_top" xlink:title="Interface for basic Chroma functionality. ">
<polygon fill="white" stroke="black" points="185,-228.5 185,-247.5 322,-247.5 322,-228.5 185,-228.5"/>
<text text-anchor="middle" x="253.5" y="-235.5" font-family="Helvetica,sans-Serif" font-size="10.00">Corale.Colore.Core.IChroma</text>
</a>
</g>
</g>
<!-- Node9&#45;&gt;Node2 -->
<g id="edge7" class="edge"><title>Node9&#45;&gt;Node2</title>
<path fill="none" stroke="#9a32cd" stroke-dasharray="5,2" d="M314.115,-226.488C341.611,-220.859 374.603,-213.653 404,-206 422.716,-201.128 443.478,-194.753 459.739,-189.535"/>
<polygon fill="#9a32cd" stroke="#9a32cd" points="313.355,-223.071 304.25,-228.488 314.746,-229.931 313.355,-223.071"/>
<text text-anchor="middle" x="376.5" y="-221" font-family="Helvetica,sans-Serif" font-size="10.00"> _instance</text>
</g>
<!-- Node10 -->
<g id="node9" class="node"><title>Node10</title>
<g id="a_node9"><a xlink:href="interface_corale_1_1_colore_1_1_core_1_1_i_mousepad.html" target="_top" xlink:title="Interface for mouse pad functionality. ">
<polygon fill="white" stroke="black" points="179,-190.5 179,-209.5 328,-209.5 328,-190.5 179,-190.5"/>
<text text-anchor="middle" x="253.5" y="-197.5" font-family="Helvetica,sans-Serif" font-size="10.00">Corale.Colore.Core.IMousepad</text>
</a>
</g>
</g>
<!-- Node10&#45;&gt;Node2 -->
<g id="edge8" class="edge"><title>Node10&#45;&gt;Node2</title>
<path fill="none" stroke="#9a32cd" stroke-dasharray="5,2" d="M338.21,-192.845C365.695,-190.496 395.854,-187.918 421.895,-185.693"/>
<polygon fill="#9a32cd" stroke="#9a32cd" points="337.883,-189.36 328.218,-193.699 338.48,-196.335 337.883,-189.36"/>
<text text-anchor="middle" x="376.5" y="-194" font-family="Helvetica,sans-Serif" font-size="10.00"> Mousepad</text>
</g>
<!-- Node11 -->
<g id="node10" class="node"><title>Node11</title>
<g id="a_node10"><a xlink:href="interface_corale_1_1_colore_1_1_core_1_1_i_device.html" target="_top" xlink:title="Interface for functionality common with all devices. ">
<polygon fill="white" stroke="black" points="46,-93.5 46,-112.5 93,-112.5 93,-93.5 46,-93.5"/>
<text text-anchor="middle" x="69.5" y="-100.5" font-family="Helvetica,sans-Serif" font-size="10.00">IDevice</text>
</a>
</g>
</g>
<!-- Node11&#45;&gt;Node10 -->
<g id="edge9" class="edge"><title>Node11&#45;&gt;Node10</title>
<path fill="none" stroke="midnightblue" d="M88.3061,-119.653C108.205,-137.383 142.099,-165.039 176,-181 184.172,-184.847 193.214,-187.974 202.136,-190.495"/>
<polygon fill="midnightblue" stroke="midnightblue" points="90.4322,-116.856 80.6758,-112.725 85.7267,-122.039 90.4322,-116.856"/>
</g>
<!-- Node12 -->
<g id="node11" class="node"><title>Node12</title>
<g id="a_node11"><a xlink:href="interface_corale_1_1_colore_1_1_core_1_1_i_chroma_link.html" target="_top" xlink:title="Interface for Chroma Link functionality. ">
<polygon fill="white" stroke="black" points="176,-152.5 176,-171.5 331,-171.5 331,-152.5 176,-152.5"/>
<text text-anchor="middle" x="253.5" y="-159.5" font-family="Helvetica,sans-Serif" font-size="10.00">Corale.Colore.Core.IChromaLink</text>
</a>
</g>
</g>
<!-- Node11&#45;&gt;Node12 -->
<g id="edge11" class="edge"><title>Node11&#45;&gt;Node12</title>
<path fill="none" stroke="midnightblue" d="M102.563,-116.296C123.295,-124.608 150.983,-135.181 176,-143 186.972,-146.429 198.98,-149.654 210.163,-152.438"/>
<polygon fill="midnightblue" stroke="midnightblue" points="103.857,-113.044 93.2748,-112.536 101.231,-119.532 103.857,-113.044"/>
</g>
<!-- Node13 -->
<g id="node12" class="node"><title>Node13</title>
<g id="a_node12"><a xlink:href="interface_corale_1_1_colore_1_1_core_1_1_i_mouse.html" target="_top" xlink:title="Interface for mouse functionality. ">
<polygon fill="white" stroke="black" points="187,-114.5 187,-133.5 320,-133.5 320,-114.5 187,-114.5"/>
<text text-anchor="middle" x="253.5" y="-121.5" font-family="Helvetica,sans-Serif" font-size="10.00">Corale.Colore.Core.IMouse</text>
</a>
</g>
</g>
<!-- Node11&#45;&gt;Node13 -->
<g id="edge13" class="edge"><title>Node11&#45;&gt;Node13</title>
<path fill="none" stroke="midnightblue" d="M103.188,-106.772C126.401,-109.45 158.361,-113.138 186.757,-116.414"/>
<polygon fill="midnightblue" stroke="midnightblue" points="103.518,-103.287 93.1824,-105.617 102.715,-110.24 103.518,-103.287"/>
</g>
<!-- Node14 -->
<g id="node13" class="node"><title>Node14</title>
<g id="a_node13"><a xlink:href="interface_corale_1_1_colore_1_1_core_1_1_i_keypad.html" target="_top" xlink:title="Interface for keypad functions. ">
<polygon fill="white" stroke="black" points="185,-76.5 185,-95.5 322,-95.5 322,-76.5 185,-76.5"/>
<text text-anchor="middle" x="253.5" y="-83.5" font-family="Helvetica,sans-Serif" font-size="10.00">Corale.Colore.Core.IKeypad</text>
</a>
</g>
</g>
<!-- Node11&#45;&gt;Node14 -->
<g id="edge15" class="edge"><title>Node11&#45;&gt;Node14</title>
<path fill="none" stroke="midnightblue" d="M103.278,-99.9383C125.937,-97.8218 156.898,-94.9299 184.746,-92.3287"/>
<polygon fill="midnightblue" stroke="midnightblue" points="102.814,-96.4664 93.1824,-100.881 103.465,-103.436 102.814,-96.4664"/>
</g>
<!-- Node15 -->
<g id="node14" class="node"><title>Node15</title>
<g id="a_node14"><a xlink:href="interface_corale_1_1_colore_1_1_core_1_1_i_headset.html" target="_top" xlink:title="Interface for headset functionality. ">
<polygon fill="white" stroke="black" points="183.5,-38.5 183.5,-57.5 323.5,-57.5 323.5,-38.5 183.5,-38.5"/>
<text text-anchor="middle" x="253.5" y="-45.5" font-family="Helvetica,sans-Serif" font-size="10.00">Corale.Colore.Core.IHeadset</text>
</a>
</g>
</g>
<!-- Node11&#45;&gt;Node15 -->
<g id="edge17" class="edge"><title>Node11&#45;&gt;Node15</title>
<path fill="none" stroke="midnightblue" d="M102.965,-91.1194C123.712,-83.7269 151.269,-74.2761 176,-67 187.422,-63.6396 199.915,-60.3688 211.433,-57.5149"/>
<polygon fill="midnightblue" stroke="midnightblue" points="101.598,-87.8912 93.3691,-94.5645 103.964,-94.4795 101.598,-87.8912"/>
</g>
<!-- Node16 -->
<g id="node15" class="node"><title>Node16</title>
<g id="a_node15"><a xlink:href="interface_corale_1_1_colore_1_1_core_1_1_i_keyboard.html" target="_top" xlink:title="Interface for keyboard functionality. ">
<polygon fill="white" stroke="black" points="181,-0.5 181,-19.5 326,-19.5 326,-0.5 181,-0.5"/>
<text text-anchor="middle" x="253.5" y="-7.5" font-family="Helvetica,sans-Serif" font-size="10.00">Corale.Colore.Core.IKeyboard</text>
</a>
</g>
</g>
<!-- Node11&#45;&gt;Node16 -->
<g id="edge19" class="edge"><title>Node11&#45;&gt;Node16</title>
<path fill="none" stroke="midnightblue" d="M89.1077,-86.707C109.222,-69.9075 142.867,-44.0979 176,-29 184.343,-25.1981 193.56,-22.0849 202.62,-19.5602"/>
<polygon fill="midnightblue" stroke="midnightblue" points="86.7078,-84.1534 81.3567,-93.2976 91.2422,-89.4862 86.7078,-84.1534"/>
</g>
<!-- Node12&#45;&gt;Node2 -->
<g id="edge10" class="edge"><title>Node12&#45;&gt;Node2</title>
<path fill="none" stroke="#9a32cd" stroke-dasharray="5,2" d="M341.094,-161.452C361.744,-161.953 383.685,-163.005 404,-165 416.456,-166.223 429.835,-168.258 442.191,-170.441"/>
<polygon fill="#9a32cd" stroke="#9a32cd" points="341.142,-157.953 331.073,-161.249 341,-164.951 341.142,-157.953"/>
<text text-anchor="middle" x="376.5" y="-168" font-family="Helvetica,sans-Serif" font-size="10.00"> ChromaLink</text>
</g>
<!-- Node13&#45;&gt;Node2 -->
<g id="edge12" class="edge"><title>Node13&#45;&gt;Node2</title>
<path fill="none" stroke="#9a32cd" stroke-dasharray="5,2" d="M330.358,-131.627C354.174,-134.961 380.402,-139.613 404,-146 426.743,-152.156 451.637,-162.664 468.474,-170.372"/>
<polygon fill="#9a32cd" stroke="#9a32cd" points="330.691,-128.14 320.314,-130.277 329.759,-135.078 330.691,-128.14"/>
<text text-anchor="middle" x="376.5" y="-149" font-family="Helvetica,sans-Serif" font-size="10.00"> Mouse</text>
</g>
<!-- Node14&#45;&gt;Node2 -->
<g id="edge14" class="edge"><title>Node14&#45;&gt;Node2</title>
<path fill="none" stroke="#9a32cd" stroke-dasharray="5,2" d="M332.238,-96.9159C355.927,-101.879 381.609,-108.967 404,-119 433.556,-132.243 463.092,-156.79 478.186,-170.358"/>
<polygon fill="#9a32cd" stroke="#9a32cd" points="332.715,-93.4421 322.224,-94.9168 331.345,-100.307 332.715,-93.4421"/>
<text text-anchor="middle" x="376.5" y="-122" font-family="Helvetica,sans-Serif" font-size="10.00"> Keypad</text>
</g>
<!-- Node15&#45;&gt;Node2 -->
<g id="edge16" class="edge"><title>Node15&#45;&gt;Node2</title>
<path fill="none" stroke="#9a32cd" stroke-dasharray="5,2" d="M333.798,-58.9797C357.553,-64.6265 382.881,-73.1502 404,-86 440.556,-108.242 470.449,-151.14 482.62,-170.321"/>
<polygon fill="#9a32cd" stroke="#9a32cd" points="334.253,-55.4952 323.731,-56.7316 332.727,-62.3269 334.253,-55.4952"/>
<text text-anchor="middle" x="376.5" y="-89" font-family="Helvetica,sans-Serif" font-size="10.00"> Headset</text>
</g>
<!-- Node16&#45;&gt;Node2 -->
<g id="edge18" class="edge"><title>Node16&#45;&gt;Node2</title>
<path fill="none" stroke="#9a32cd" stroke-dasharray="5,2" d="M336.182,-19.1648C359.689,-24.7416 384.28,-33.682 404,-48 449.138,-80.7726 476.17,-145.703 485.15,-170.273"/>
<polygon fill="#9a32cd" stroke="#9a32cd" points="336.709,-15.6973 326.191,-16.9748 335.21,-22.5349 336.709,-15.6973"/>
<text text-anchor="middle" x="376.5" y="-51" font-family="Helvetica,sans-Serif" font-size="10.00"> Keyboard</text>
</g>
</g>
</svg>
        <g id="navigator" transform="translate(0 0)" fill="#404254">
                <rect fill="#f2f5e9" fill-opacity="0.5" stroke="#606060" stroke-width=".5" x="0" y="0" width="60" height="60"/>
                <use id="zoomplus" xlink:href="#zoomPlus" x="17" y="9" onmousedown="handleZoom(evt,'in')"/>
                <use id="zoomminus" xlink:href="#zoomMin" x="42" y="9" onmousedown="handleZoom(evt,'out')"/>
                <use id="reset" xlink:href="#resetDef" x="30" y="36" onmousedown="handleReset()"/>
                <g id="arrowUp" xlink:href="#dirArrow" transform="translate(30 24)" onmousedown="handlePan(0,-1)">
                  <use xlink:href="#rim" fill="#404040">
                        <set attributeName="fill" to="#808080" begin="arrowUp.mouseover" end="arrowUp.mouseout"/>
                  </use>
                  <path fill="none" stroke="white" stroke-width="1.5" d="M0,-3.0v7 M-2.5,-0.5L0,-3.0L2.5,-0.5"/>
                </g>
                <g id="arrowRight" xlink:href="#dirArrow" transform="rotate(90) translate(36 -43)" onmousedown="handlePan(1,0)">
                  <use xlink:href="#rim" fill="#404040">
                        <set attributeName="fill" to="#808080" begin="arrowRight.mouseover" end="arrowRight.mouseout"/>
                  </use>
                  <path fill="none" stroke="white" stroke-width="1.5" d="M0,-3.0v7 M-2.5,-0.5L0,-3.0L2.5,-0.5"/>
                </g>
                <g id="arrowDown" xlink:href="#dirArrow" transform="rotate(180) translate(-30 -48)" onmousedown="handlePan(0,1)">
                  <use xlink:href="#rim" fill="#404040">
                        <set attributeName="fill" to="#808080" begin="arrowDown.mouseover" end="arrowDown.mouseout"/>
                  </use>
                  <path fill="none" stroke="white" stroke-width="1.5" d="M0,-3.0v7 M-2.5,-0.5L0,-3.0L2.5,-0.5"/>
                </g>
                <g id="arrowLeft" xlink:href="#dirArrow" transform="rotate(270) translate(-36 17)" onmousedown="handlePan(-1,0)">
                  <use xlink:href="#rim" fill="#404040">
                        <set attributeName="fill" to="#808080" begin="arrowLeft.mouseover" end="arrowLeft.mouseout"/>
                  </use>
                  <path fill="none" stroke="white" stroke-width="1.5" d="M0,-3.0v7 M-2.5,-0.5L0,-3.0L2.5,-0.5"/>
                </g>
        </g>
        <svg viewBox="0 0 15 15" width="100%" height="30px" preserveAspectRatio="xMaxYMin meet">
         <g id="arrow_out" transform="scale(0.3 0.3)">
          <a xlink:href="class_corale_1_1_colore_1_1_core_1_1_chroma__coll__graph_org.svg" target="_base">
           <rect id="button" ry="5" rx="5" y="6" x="6" height="38" width="38"
                fill="#f2f5e9" fill-opacity="0.5" stroke="#606060" stroke-width="1.0"/>
           <path id="arrow"
             d="M 11.500037,31.436501 C 11.940474,20.09759 22.043105,11.32322 32.158766,21.979434 L 37.068811,17.246167 C 37.068811,17.246167 37.088388,32 37.088388,32 L 22.160133,31.978069 C 22.160133,31.978069 26.997745,27.140456 26.997745,27.140456 C 18.528582,18.264221 13.291696,25.230495 11.500037,31.436501 z"
             style="fill:#404040;"/>
          </a>
         </g>
        </svg>
</svg>
