<?xml version="1.0" encoding="UTF-8" standalone="no"?>
<!DOCTYPE svg PUBLIC "-//W3C//DTD SVG 1.1//EN"
 "http://www.w3.org/Graphics/SVG/1.1/DTD/svg11.dtd">
<!-- Generated by graphviz version 2.38.0 (20140413.2041)
 -->
<!-- Title: Corale.Colore/Razer Pages: 1 -->
<svg width="554pt" height="111pt"
 viewBox="0.00 0.00 554.00 111.00" xmlns="http://www.w3.org/2000/svg" xmlns:xlink="http://www.w3.org/1999/xlink">
<g id="graph0" class="graph" transform="scale(1 1) rotate(0) translate(4 107)">
<title>Corale.Colore/Razer</title>
<polygon fill="white" stroke="none" points="-4,4 -4,-107 550,-107 550,4 -4,4"/>
<g id="clust1" class="cluster"><title>clusterdir_865a93a85313ae6b2503dfb6975d8750</title>
<g id="a_clust1"><a xlink:href="dir_865a93a85313ae6b2503dfb6975d8750.html" target="_top" xlink:title="Corale.Colore">
<polygon fill="#ddddee" stroke="black" points="8,-8 8,-95 538,-95 538,-8 8,-8"/>
<text text-anchor="middle" x="273" y="-83" font-family="Helvetica,sans-Serif" font-size="10.00">Corale.Colore</text>
</a>
</g>
</g>
<g id="clust2" class="cluster"><title>clusterdir_4e4b822210286250472cb31b47778e3b</title>
<g id="a_clust2"><a xlink:href="dir_4e4b822210286250472cb31b47778e3b.html" target="_top">
<polygon fill="#eeeeff" stroke="black" points="16,-16 16,-68 530,-68 530,-16 16,-16"/>
</a>
</g>
</g>
<!-- dir_4e4b822210286250472cb31b47778e3b -->
<g id="node1" class="node"><title>dir_4e4b822210286250472cb31b47778e3b</title>
<text text-anchor="middle" x="495" y="-39.5" font-family="Helvetica,sans-Serif" font-size="10.00">Razer</text>
</g>
<!-- dir_0a897c83760f1a266d6f4ffebda21ea4 -->
<g id="node2" class="node"><title>dir_0a897c83760f1a266d6f4ffebda21ea4</title>
<g id="a_node2"><a xlink:href="dir_0a897c83760f1a266d6f4ffebda21ea4.html" target="_top" xlink:title="Effects">
<polygon fill="white" stroke="black" points="450,-60 396,-60 396,-24 450,-24 450,-60"/>
<text text-anchor="middle" x="423" y="-39.5" font-family="Helvetica,sans-Serif" font-size="10.00">Effects</text>
</a>
</g>
</g>
<!-- dir_ebcc5f2159b8e9654cff97801f191bce -->
<g id="node3" class="node"><title>dir_ebcc5f2159b8e9654cff97801f191bce</title>
<g id="a_node3"><a xlink:href="dir_ebcc5f2159b8e9654cff97801f191bce.html" target="_top" xlink:title="Headset">
<polygon fill="white" stroke="red" points="378,-60 324,-60 324,-24 378,-24 378,-60"/>
<text text-anchor="middle" x="351" y="-39.5" font-family="Helvetica,sans-Serif" font-size="10.00">Headset</text>
</a>
</g>
</g>
<!-- dir_f3ad38167190423c2107342c8f2133b4 -->
<g id="node4" class="node"><title>dir_f3ad38167190423c2107342c8f2133b4</title>
<g id="a_node4"><a xlink:href="dir_f3ad38167190423c2107342c8f2133b4.html" target="_top" xlink:title="Keyboard">
<polygon fill="white" stroke="red" points="306,-60 248,-60 248,-24 306,-24 306,-60"/>
<text text-anchor="middle" x="277" y="-39.5" font-family="Helvetica,sans-Serif" font-size="10.00">Keyboard</text>
</a>
</g>
</g>
<!-- dir_00dd3dc4e9881672ff201ac58186d0e5 -->
<g id="node5" class="node"><title>dir_00dd3dc4e9881672ff201ac58186d0e5</title>
<g id="a_node5"><a xlink:href="dir_00dd3dc4e9881672ff201ac58186d0e5.html" target="_top" xlink:title="Keypad">
<polygon fill="white" stroke="red" points="230,-60 176,-60 176,-24 230,-24 230,-60"/>
<text text-anchor="middle" x="203" y="-39.5" font-family="Helvetica,sans-Serif" font-size="10.00">Keypad</text>
</a>
</g>
</g>
<!-- dir_2cdf075d7cc93ecc53d911cda35f68ac -->
<g id="node6" class="node"><title>dir_2cdf075d7cc93ecc53d911cda35f68ac</title>
<g id="a_node6"><a xlink:href="dir_2cdf075d7cc93ecc53d911cda35f68ac.html" target="_top" xlink:title="Mouse">
<polygon fill="white" stroke="red" points="158,-60 104,-60 104,-24 158,-24 158,-60"/>
<text text-anchor="middle" x="131" y="-39.5" font-family="Helvetica,sans-Serif" font-size="10.00">Mouse</text>
</a>
</g>
</g>
<!-- dir_b7a2fd2a538829c4ee6700ecad4ad6f0 -->
<g id="node7" class="node"><title>dir_b7a2fd2a538829c4ee6700ecad4ad6f0</title>
<g id="a_node7"><a xlink:href="dir_b7a2fd2a538829c4ee6700ecad4ad6f0.html" target="_top" xlink:title="Mousepad">
<polygon fill="white" stroke="red" points="86,-60 24,-60 24,-24 86,-24 86,-60"/>
<text text-anchor="middle" x="55" y="-39.5" font-family="Helvetica,sans-Serif" font-size="10.00">Mousepad</text>
</a>
</g>
</g>
</g>
</svg>
