<?xml version="1.0" encoding="UTF-8" standalone="no"?>
<!DOCTYPE svg PUBLIC "-//W3C//DTD SVG 1.1//EN"
 "http://www.w3.org/Graphics/SVG/1.1/DTD/svg11.dtd">
<!-- Generated by graphviz version 2.38.0 (20140413.2041)
 -->
<!-- Title: Corale.Colore Pages: 1 -->
<svg width="556pt" height="76pt"
 viewBox="0.00 0.00 556.00 76.00" xmlns="http://www.w3.org/2000/svg" xmlns:xlink="http://www.w3.org/1999/xlink">
<g id="graph0" class="graph" transform="scale(1 1) rotate(0) translate(4 72)">
<title>Corale.Colore</title>
<polygon fill="white" stroke="none" points="-4,4 -4,-72 552,-72 552,4 -4,4"/>
<g id="clust1" class="cluster"><title>clusterdir_865a93a85313ae6b2503dfb6975d8750</title>
<g id="a_clust1"><a xlink:href="dir_865a93a85313ae6b2503dfb6975d8750.html" target="_top">
<polygon fill="#eeeeff" stroke="black" points="8,-8 8,-60 540,-60 540,-8 8,-8"/>
</a>
</g>
</g>
<!-- dir_865a93a85313ae6b2503dfb6975d8750 -->
<g id="node1" class="node"><title>dir_865a93a85313ae6b2503dfb6975d8750</title>
<text text-anchor="middle" x="494" y="-31.5" font-family="Helvetica,sans-Serif" font-size="10.00">Corale.Colore</text>
</g>
<!-- dir_b0277a4fdac946fbe1408f549d07635c -->
<g id="node2" class="node"><title>dir_b0277a4fdac946fbe1408f549d07635c</title>
<g id="a_node2"><a xlink:href="dir_b0277a4fdac946fbe1408f549d07635c.html" target="_top" xlink:title="Core">
<polygon fill="white" stroke="black" points="438,-52 384,-52 384,-16 438,-16 438,-52"/>
<text text-anchor="middle" x="411" y="-31.5" font-family="Helvetica,sans-Serif" font-size="10.00">Core</text>
</a>
</g>
</g>
<!-- dir_2bc63c71b288c5b4742b2bfdbbea9c2d -->
<g id="node3" class="node"><title>dir_2bc63c71b288c5b4742b2bfdbbea9c2d</title>
<g id="a_node3"><a xlink:href="dir_2bc63c71b288c5b4742b2bfdbbea9c2d.html" target="_top" xlink:title="Events">
<polygon fill="white" stroke="black" points="366,-52 312,-52 312,-16 366,-16 366,-52"/>
<text text-anchor="middle" x="339" y="-31.5" font-family="Helvetica,sans-Serif" font-size="10.00">Events</text>
</a>
</g>
</g>
<!-- dir_07c35b734372f747c70b95c6b46c8326 -->
<g id="node4" class="node"><title>dir_07c35b734372f747c70b95c6b46c8326</title>
<g id="a_node4"><a xlink:href="dir_07c35b734372f747c70b95c6b46c8326.html" target="_top" xlink:title="Logging">
<polygon fill="white" stroke="black" points="294,-52 240,-52 240,-16 294,-16 294,-52"/>
<text text-anchor="middle" x="267" y="-31.5" font-family="Helvetica,sans-Serif" font-size="10.00">Logging</text>
</a>
</g>
</g>
<!-- dir_1653420d98b0bad850de2af6d996ef1d -->
<g id="node5" class="node"><title>dir_1653420d98b0bad850de2af6d996ef1d</title>
<g id="a_node5"><a xlink:href="dir_1653420d98b0bad850de2af6d996ef1d.html" target="_top" xlink:title="Native">
<polygon fill="white" stroke="red" points="222,-52 168,-52 168,-16 222,-16 222,-52"/>
<text text-anchor="middle" x="195" y="-31.5" font-family="Helvetica,sans-Serif" font-size="10.00">Native</text>
</a>
</g>
</g>
<!-- dir_2cdda2146290d586e35c520c691bcfed -->
<g id="node6" class="node"><title>dir_2cdda2146290d586e35c520c691bcfed</title>
<g id="a_node6"><a xlink:href="dir_2cdda2146290d586e35c520c691bcfed.html" target="_top" xlink:title="Properties">
<polygon fill="white" stroke="black" points="149.5,-52 88.5,-52 88.5,-16 149.5,-16 149.5,-52"/>
<text text-anchor="middle" x="119" y="-31.5" font-family="Helvetica,sans-Serif" font-size="10.00">Properties</text>
</a>
</g>
</g>
<!-- dir_4e4b822210286250472cb31b47778e3b -->
<g id="node7" class="node"><title>dir_4e4b822210286250472cb31b47778e3b</title>
<g id="a_node7"><a xlink:href="dir_4e4b822210286250472cb31b47778e3b.html" target="_top" xlink:title="Razer">
<polygon fill="white" stroke="red" points="70,-52 16,-52 16,-16 70,-16 70,-52"/>
<text text-anchor="middle" x="43" y="-31.5" font-family="Helvetica,sans-Serif" font-size="10.00">Razer</text>
</a>
</g>
</g>
</g>
</svg>
