<?xml version="1.0" encoding="UTF-8" standalone="no"?>
<!DOCTYPE svg PUBLIC "-//W3C//DTD SVG 1.1//EN"
 "http://www.w3.org/Graphics/SVG/1.1/DTD/svg11.dtd">
<!-- Generated by graphviz version 2.38.0 (20140413.2041)
 -->
<!-- Title: Graphical Class Hierarchy Pages: 1 -->
<svg width="294pt" height="351pt"
 viewBox="0.00 0.00 294.00 350.50" xmlns="http://www.w3.org/2000/svg" xmlns:xlink="http://www.w3.org/1999/xlink">
<g id="graph0" class="graph" transform="scale(1 1) rotate(0) translate(4 346.5)">
<title>Graphical Class Hierarchy</title>
<polygon fill="white" stroke="none" points="-4,4 -4,-346.5 290,-346.5 290,4 -4,4"/>
<!-- Node1 -->
<g id="node1" class="node"><title>Node1</title>
<polygon fill="white" stroke="#bfbfbf" points="12,-323 12,-342 83,-342 83,-323 12,-323"/>
<text text-anchor="middle" x="47.5" y="-330" font-family="Helvetica,sans-Serif" font-size="10.00">IComparable</text>
</g>
<!-- Node2 -->
<g id="node2" class="node"><title>Node2</title>
<g id="a_node2"><a xlink:href="struct_corale_1_1_colore_1_1_core_1_1_size.html" target="_top" xlink:title="Dynamic size type for interacting with Razer&#39;s native code. Emulates size_t from C. ">
<polygon fill="white" stroke="black" points="148,-323 148,-342 269,-342 269,-323 148,-323"/>
<text text-anchor="middle" x="208.5" y="-330" font-family="Helvetica,sans-Serif" font-size="10.00">Corale.Colore.Core.Size</text>
</a>
</g>
</g>
<!-- Node1&#45;&gt;Node2 -->
<g id="edge1" class="edge"><title>Node1&#45;&gt;Node2</title>
<path fill="none" stroke="midnightblue" d="M93.1613,-332.5C110.083,-332.5 129.631,-332.5 147.723,-332.5"/>
<polygon fill="midnightblue" stroke="midnightblue" points="93.0007,-329 83.0006,-332.5 93.0006,-336 93.0007,-329"/>
</g>
<!-- Node3 -->
<g id="node3" class="node"><title>Node3</title>
<polygon fill="white" stroke="#bfbfbf" points="16.5,-159 16.5,-178 78.5,-178 78.5,-159 16.5,-159"/>
<text text-anchor="middle" x="47.5" y="-166" font-family="Helvetica,sans-Serif" font-size="10.00">IEquatable</text>
</g>
<!-- Node3&#45;&gt;Node2 -->
<g id="edge3" class="edge"><title>Node3&#45;&gt;Node2</title>
<path fill="none" stroke="midnightblue" d="M53.9911,-187.766C63.9522,-219.12 88.0499,-280.952 131,-313.5 136.126,-317.385 141.949,-320.483 148.039,-322.954"/>
<polygon fill="midnightblue" stroke="midnightblue" points="57.2957,-186.602 51.0495,-178.044 50.5957,-188.629 57.2957,-186.602"/>
</g>
<!-- Node4 -->
<g id="node4" class="node"><title>Node4</title>
<g id="a_node4"><a xlink:href="struct_corale_1_1_colore_1_1_core_1_1_color.html" target="_top" xlink:title="Represents an RGB color. ">
<polygon fill="white" stroke="black" points="146.5,-99 146.5,-118 270.5,-118 270.5,-99 146.5,-99"/>
<text text-anchor="middle" x="208.5" y="-106" font-family="Helvetica,sans-Serif" font-size="10.00">Corale.Colore.Core.Color</text>
</a>
</g>
</g>
<!-- Node3&#45;&gt;Node4 -->
<g id="edge2" class="edge"><title>Node3&#45;&gt;Node4</title>
<path fill="none" stroke="midnightblue" d="M74.2915,-153.861C90.243,-145.272 111.358,-134.722 131,-127.5 140.89,-123.864 151.751,-120.696 162.105,-118.044"/>
<polygon fill="midnightblue" stroke="midnightblue" points="72.1717,-151.032 65.0861,-158.909 75.5373,-157.17 72.1717,-151.032"/>
</g>
<!-- Node5 -->
<g id="node5" class="node"><title>Node5</title>
<g id="a_node5"><a xlink:href="struct_corale_1_1_colore_1_1_razer_1_1_keyboard_1_1_effects_1_1_custom.html" target="_top" xlink:title="Describes a custom grid effect for every key. ">
<polygon fill="white" stroke="black" points="133,-273.5 133,-303.5 284,-303.5 284,-273.5 133,-273.5"/>
<text text-anchor="start" x="141" y="-291.5" font-family="Helvetica,sans-Serif" font-size="10.00">Corale.Colore.Razer.Keyboard.</text>
<text text-anchor="middle" x="208.5" y="-280.5" font-family="Helvetica,sans-Serif" font-size="10.00">Effects.Custom</text>
</a>
</g>
</g>
<!-- Node3&#45;&gt;Node5 -->
<g id="edge4" class="edge"><title>Node3&#45;&gt;Node5</title>
<path fill="none" stroke="midnightblue" d="M59.6471,-186.818C73.6996,-208.417 99.8263,-243.967 131,-264.5 136.231,-267.945 141.987,-270.921 147.921,-273.486"/>
<polygon fill="midnightblue" stroke="midnightblue" points="62.5263,-184.822 54.2245,-178.239 56.6093,-188.562 62.5263,-184.822"/>
</g>
<!-- Node6 -->
<g id="node6" class="node"><title>Node6</title>
<g id="a_node6"><a xlink:href="struct_corale_1_1_colore_1_1_razer_1_1_keypad_1_1_effects_1_1_custom.html" target="_top" xlink:title="Custom effect. ">
<polygon fill="white" stroke="black" points="137,-224.5 137,-254.5 280,-254.5 280,-224.5 137,-224.5"/>
<text text-anchor="start" x="145" y="-242.5" font-family="Helvetica,sans-Serif" font-size="10.00">Corale.Colore.Razer.Keypad.</text>
<text text-anchor="middle" x="208.5" y="-231.5" font-family="Helvetica,sans-Serif" font-size="10.00">Effects.Custom</text>
</a>
</g>
</g>
<!-- Node3&#45;&gt;Node6 -->
<g id="edge5" class="edge"><title>Node3&#45;&gt;Node6</title>
<path fill="none" stroke="midnightblue" d="M71.9528,-183.657C88.0947,-193.635 110.283,-206.473 131,-215.5 138.401,-218.725 146.376,-221.72 154.283,-224.425"/>
<polygon fill="midnightblue" stroke="midnightblue" points="73.5341,-180.518 63.2041,-178.163 69.8114,-186.446 73.5341,-180.518"/>
</g>
<!-- Node7 -->
<g id="node7" class="node"><title>Node7</title>
<g id="a_node7"><a xlink:href="struct_corale_1_1_colore_1_1_razer_1_1_mouse_1_1_effects_1_1_custom.html" target="_top" xlink:title="Custom effect for mouse LEDs. ">
<polygon fill="white" stroke="black" points="139,-49.5 139,-79.5 278,-79.5 278,-49.5 139,-49.5"/>
<text text-anchor="start" x="147" y="-67.5" font-family="Helvetica,sans-Serif" font-size="10.00">Corale.Colore.Razer.Mouse.</text>
<text text-anchor="middle" x="208.5" y="-56.5" font-family="Helvetica,sans-Serif" font-size="10.00">Effects.Custom</text>
</a>
</g>
</g>
<!-- Node3&#45;&gt;Node7 -->
<g id="edge6" class="edge"><title>Node3&#45;&gt;Node7</title>
<path fill="none" stroke="midnightblue" d="M62.6775,-150.902C77.8638,-133.114 103.517,-105.967 131,-89.5 137.352,-85.6939 144.354,-82.3923 151.462,-79.5493"/>
<polygon fill="midnightblue" stroke="midnightblue" points="59.8135,-148.872 56.101,-158.795 65.1914,-153.353 59.8135,-148.872"/>
</g>
<!-- Node8 -->
<g id="node8" class="node"><title>Node8</title>
<g id="a_node8"><a xlink:href="struct_corale_1_1_colore_1_1_razer_1_1_mouse_1_1_effects_1_1_custom_grid.html" target="_top" xlink:title="Custom grid effect for mouse LEDs. ">
<polygon fill="white" stroke="black" points="139,-175.5 139,-205.5 278,-205.5 278,-175.5 139,-175.5"/>
<text text-anchor="start" x="147" y="-193.5" font-family="Helvetica,sans-Serif" font-size="10.00">Corale.Colore.Razer.Mouse.</text>
<text text-anchor="middle" x="208.5" y="-182.5" font-family="Helvetica,sans-Serif" font-size="10.00">Effects.CustomGrid</text>
</a>
</g>
</g>
<!-- Node3&#45;&gt;Node8 -->
<g id="edge7" class="edge"><title>Node3&#45;&gt;Node8</title>
<path fill="none" stroke="midnightblue" d="M88.8444,-174.082C104.023,-176.182 121.74,-178.634 138.783,-180.992"/>
<polygon fill="midnightblue" stroke="midnightblue" points="89.1663,-170.594 78.7809,-172.69 88.2068,-177.527 89.1663,-170.594"/>
</g>
<!-- Node9 -->
<g id="node9" class="node"><title>Node9</title>
<g id="a_node9"><a xlink:href="struct_corale_1_1_colore_1_1_razer_1_1_mousepad_1_1_effects_1_1_custom.html" target="_top" xlink:title="Custom effect for mouse pad. ">
<polygon fill="white" stroke="black" points="131,-0.5 131,-30.5 286,-30.5 286,-0.5 131,-0.5"/>
<text text-anchor="start" x="139" y="-18.5" font-family="Helvetica,sans-Serif" font-size="10.00">Corale.Colore.Razer.Mousepad.</text>
<text text-anchor="middle" x="208.5" y="-7.5" font-family="Helvetica,sans-Serif" font-size="10.00">Effects.Custom</text>
</a>
</g>
</g>
<!-- Node3&#45;&gt;Node9 -->
<g id="edge8" class="edge"><title>Node3&#45;&gt;Node9</title>
<path fill="none" stroke="midnightblue" d="M55.7736,-149.247C67.3946,-121.051 92.8024,-68.7136 131,-39.5 135.533,-36.033 140.577,-33.0609 145.85,-30.5142"/>
<polygon fill="midnightblue" stroke="midnightblue" points="52.4289,-148.187 51.9969,-158.773 58.9361,-150.767 52.4289,-148.187"/>
</g>
<!-- Node10 -->
<g id="node10" class="node"><title>Node10</title>
<g id="a_node10"><a xlink:href="struct_corale_1_1_colore_1_1_razer_1_1_result.html" target="_top" xlink:title="Struct for containing the result of running a native Chroma SDK function. ">
<polygon fill="white" stroke="black" points="141.5,-137 141.5,-156 275.5,-156 275.5,-137 141.5,-137"/>
<text text-anchor="middle" x="208.5" y="-144" font-family="Helvetica,sans-Serif" font-size="10.00">Corale.Colore.Razer.Result</text>
</a>
</g>
</g>
<!-- Node3&#45;&gt;Node10 -->
<g id="edge9" class="edge"><title>Node3&#45;&gt;Node10</title>
<path fill="none" stroke="midnightblue" d="M88.8328,-162.919C104.805,-160.709 123.589,-158.11 141.441,-155.64"/>
<polygon fill="midnightblue" stroke="midnightblue" points="88.2068,-159.473 78.7809,-164.31 89.1663,-166.406 88.2068,-159.473"/>
</g>
<!-- Node11 -->
<g id="node11" class="node"><title>Node11</title>
<polygon fill="white" stroke="#bfbfbf" points="0,-25.5 0,-55.5 95,-55.5 95,-25.5 0,-25.5"/>
<text text-anchor="start" x="8" y="-43.5" font-family="Helvetica,sans-Serif" font-size="10.00">IEquatable&lt; IList&lt;</text>
<text text-anchor="middle" x="47.5" y="-32.5" font-family="Helvetica,sans-Serif" font-size="10.00"> Color &gt;&gt;</text>
</g>
<!-- Node11&#45;&gt;Node7 -->
<g id="edge10" class="edge"><title>Node11&#45;&gt;Node7</title>
<path fill="none" stroke="midnightblue" d="M105.506,-49.1047C116.329,-50.7383 127.757,-52.4633 138.894,-54.1444"/>
<polygon fill="midnightblue" stroke="midnightblue" points="105.756,-45.6028 95.3453,-47.571 104.711,-52.5244 105.756,-45.6028"/>
</g>
<!-- Node11&#45;&gt;Node9 -->
<g id="edge11" class="edge"><title>Node11&#45;&gt;Node9</title>
<path fill="none" stroke="midnightblue" d="M105.271,-31.5738C113.577,-30.2678 122.244,-28.905 130.867,-27.5492"/>
<polygon fill="midnightblue" stroke="midnightblue" points="104.68,-28.1235 95.3453,-33.1344 105.768,-35.0386 104.68,-28.1235"/>
</g>
</g>
</svg>
