<?xml version="1.0" encoding="UTF-8" standalone="no"?>
<!DOCTYPE svg PUBLIC "-//W3C//DTD SVG 1.1//EN"
 "http://www.w3.org/Graphics/SVG/1.1/DTD/svg11.dtd">
<!-- Generated by graphviz version 2.38.0 (20140413.2041)
 -->
<!-- Title: Graphical Class Hierarchy Pages: 1 -->
<svg width="280pt" height="142pt"
 viewBox="0.00 0.00 280.00 142.00" xmlns="http://www.w3.org/2000/svg" xmlns:xlink="http://www.w3.org/1999/xlink">
<g id="graph0" class="graph" transform="scale(1 1) rotate(0) translate(4 138)">
<title>Graphical Class Hierarchy</title>
<polygon fill="white" stroke="none" points="-4,4 -4,-138 276,-138 276,4 -4,4"/>
<!-- Node1 -->
<g id="node1" class="node"><title>Node1</title>
<polygon fill="white" stroke="#bfbfbf" points="3.5,-114.5 3.5,-133.5 111.5,-133.5 111.5,-114.5 3.5,-114.5"/>
<text text-anchor="middle" x="57.5" y="-121.5" font-family="Helvetica,sans-Serif" font-size="10.00">IComparable&lt; Size &gt;</text>
</g>
<!-- Node2 -->
<g id="node2" class="node"><title>Node2</title>
<g id="a_node2"><a xlink:href="struct_corale_1_1_colore_1_1_core_1_1_size.html" target="_top" xlink:title="Dynamic size type for interacting with Razer&#39;s native code. Emulates size_t from C. ">
<polygon fill="white" stroke="black" points="151,-57.5 151,-76.5 272,-76.5 272,-57.5 151,-57.5"/>
<text text-anchor="middle" x="211.5" y="-64.5" font-family="Helvetica,sans-Serif" font-size="10.00">Corale.Colore.Core.Size</text>
</a>
</g>
</g>
<!-- Node1&#45;&gt;Node2 -->
<g id="edge1" class="edge"><title>Node1&#45;&gt;Node2</title>
<path fill="none" stroke="midnightblue" d="M97.6052,-111.157C103.454,-109.148 109.398,-107.055 115,-105 139.962,-95.8444 168.218,-84.4736 187.478,-76.5678"/>
<polygon fill="midnightblue" stroke="midnightblue" points="96.2758,-107.912 87.9303,-114.44 98.5247,-114.541 96.2758,-107.912"/>
</g>
<!-- Node3 -->
<g id="node3" class="node"><title>Node3</title>
<polygon fill="white" stroke="#bfbfbf" points="0,-76.5 0,-95.5 115,-95.5 115,-76.5 0,-76.5"/>
<text text-anchor="middle" x="57.5" y="-83.5" font-family="Helvetica,sans-Serif" font-size="10.00">IComparable&lt; size_t &gt;</text>
</g>
<!-- Node3&#45;&gt;Node2 -->
<g id="edge2" class="edge"><title>Node3&#45;&gt;Node2</title>
<path fill="none" stroke="midnightblue" d="M125.055,-77.6806C133.623,-76.6097 142.353,-75.5184 150.801,-74.4624"/>
<polygon fill="midnightblue" stroke="midnightblue" points="124.588,-74.2117 115.099,-78.9251 125.456,-81.1576 124.588,-74.2117"/>
</g>
<!-- Node4 -->
<g id="node4" class="node"><title>Node4</title>
<polygon fill="white" stroke="#bfbfbf" points="7.5,-38.5 7.5,-57.5 107.5,-57.5 107.5,-38.5 7.5,-38.5"/>
<text text-anchor="middle" x="57.5" y="-45.5" font-family="Helvetica,sans-Serif" font-size="10.00">IEquatable&lt; Size &gt;</text>
</g>
<!-- Node4&#45;&gt;Node2 -->
<g id="edge3" class="edge"><title>Node4&#45;&gt;Node2</title>
<path fill="none" stroke="midnightblue" d="M118.004,-55.438C128.774,-56.7843 140.009,-58.1886 150.785,-59.5356"/>
<polygon fill="midnightblue" stroke="midnightblue" points="118.207,-51.9362 107.85,-54.1688 117.339,-58.8822 118.207,-51.9362"/>
</g>
<!-- Node5 -->
<g id="node5" class="node"><title>Node5</title>
<polygon fill="white" stroke="#bfbfbf" points="4,-0.5 4,-19.5 111,-19.5 111,-0.5 4,-0.5"/>
<text text-anchor="middle" x="57.5" y="-7.5" font-family="Helvetica,sans-Serif" font-size="10.00">IEquatable&lt; size_t &gt;</text>
</g>
<!-- Node5&#45;&gt;Node2 -->
<g id="edge4" class="edge"><title>Node5&#45;&gt;Node2</title>
<path fill="none" stroke="midnightblue" d="M97.6052,-22.8427C103.454,-24.8524 109.398,-26.9453 115,-29 139.962,-38.1556 168.218,-49.5264 187.478,-57.4322"/>
<polygon fill="midnightblue" stroke="midnightblue" points="98.5247,-19.4588 87.9303,-19.5605 96.2758,-26.0877 98.5247,-19.4588"/>
</g>
</g>
</svg>
