<?xml version="1.0" encoding="UTF-8" standalone="no"?>
<!DOCTYPE svg PUBLIC "-//W3C//DTD SVG 1.1//EN"
 "http://www.w3.org/Graphics/SVG/1.1/DTD/svg11.dtd">
<!-- Generated by graphviz version 2.38.0 (20140413.2041)
 -->
<!-- Title: Graphical Class Hierarchy Pages: 1 -->
<svg width="450pt" height="88pt"
 viewBox="0.00 0.00 450.00 88.00" xmlns="http://www.w3.org/2000/svg" xmlns:xlink="http://www.w3.org/1999/xlink">
<g id="graph0" class="graph" transform="scale(1 1) rotate(0) translate(4 84)">
<title>Graphical Class Hierarchy</title>
<polygon fill="white" stroke="none" points="-4,4 -4,-84 446,-84 446,4 -4,4"/>
<!-- Node1 -->
<g id="node1" class="node"><title>Node1</title>
<polygon fill="white" stroke="#bfbfbf" points="0,-30 0,-49 60,-49 60,-30 0,-30"/>
<text text-anchor="middle" x="30" y="-37" font-family="Helvetica,sans-Serif" font-size="10.00">Exception</text>
</g>
<!-- Node2 -->
<g id="node2" class="node"><title>Node2</title>
<g id="a_node2"><a xlink:href="class_corale_1_1_colore_1_1_colore_exception.html" target="_top" xlink:title="Generic Colore library exception. ">
<polygon fill="white" stroke="black" points="96,-30 96,-49 245,-49 245,-30 96,-30"/>
<text text-anchor="middle" x="170.5" y="-37" font-family="Helvetica,sans-Serif" font-size="10.00">Corale.Colore.ColoreException</text>
</a>
</g>
</g>
<!-- Node1&#45;&gt;Node2 -->
<g id="edge1" class="edge"><title>Node1&#45;&gt;Node2</title>
<path fill="none" stroke="midnightblue" d="M70.2393,-39.5C78.3371,-39.5 87.1137,-39.5 95.984,-39.5"/>
<polygon fill="midnightblue" stroke="midnightblue" points="70.0342,-36.0001 60.0341,-39.5 70.0341,-43.0001 70.0342,-36.0001"/>
</g>
<!-- Node3 -->
<g id="node3" class="node"><title>Node3</title>
<g id="a_node3"><a xlink:href="class_corale_1_1_colore_1_1_razer_1_1_native_call_exception.html" target="_top" xlink:title="Thrown when a native function returns an erroneous result value. ">
<polygon fill="white" stroke="black" points="295,-49.5 295,-79.5 428,-79.5 428,-49.5 295,-49.5"/>
<text text-anchor="start" x="303" y="-67.5" font-family="Helvetica,sans-Serif" font-size="10.00">Corale.Colore.Razer.Native</text>
<text text-anchor="middle" x="361.5" y="-56.5" font-family="Helvetica,sans-Serif" font-size="10.00">CallException</text>
</a>
</g>
</g>
<!-- Node2&#45;&gt;Node3 -->
<g id="edge2" class="edge"><title>Node2&#45;&gt;Node3</title>
<path fill="none" stroke="midnightblue" d="M253.493,-50.3457C267.341,-52.1774 281.554,-54.0573 294.913,-55.8245"/>
<polygon fill="midnightblue" stroke="midnightblue" points="253.865,-46.8644 243.492,-49.0227 252.947,-53.8039 253.865,-46.8644"/>
</g>
<!-- Node4 -->
<g id="node4" class="node"><title>Node4</title>
<g id="a_node4"><a xlink:href="class_corale_1_1_colore_1_1_razer_1_1_unsupported_device_exception.html" target="_top" xlink:title="Thrown when an invalid Guid is passed to the constructor of GenericDevice. ">
<polygon fill="white" stroke="black" points="281,-0.5 281,-30.5 442,-30.5 442,-0.5 281,-0.5"/>
<text text-anchor="start" x="289" y="-18.5" font-family="Helvetica,sans-Serif" font-size="10.00">Corale.Colore.Razer.Unsupported</text>
<text text-anchor="middle" x="361.5" y="-7.5" font-family="Helvetica,sans-Serif" font-size="10.00">DeviceException</text>
</a>
</g>
</g>
<!-- Node2&#45;&gt;Node4 -->
<g id="edge3" class="edge"><title>Node2&#45;&gt;Node4</title>
<path fill="none" stroke="midnightblue" d="M255.086,-28.886C263.642,-27.7994 272.32,-26.6975 280.833,-25.6165"/>
<polygon fill="midnightblue" stroke="midnightblue" points="254.593,-25.4203 245.114,-30.1523 255.475,-32.3646 254.593,-25.4203"/>
</g>
</g>
</svg>
