<?xml version="1.0" encoding="UTF-8" standalone="no"?>
<!DOCTYPE svg PUBLIC "-//W3C//DTD SVG 1.1//EN"
 "http://www.w3.org/Graphics/SVG/1.1/DTD/svg11.dtd">
<!-- Generated by graphviz version 2.38.0 (20140413.2041)
 -->
<!-- Title: Graphical Class Hierarchy Pages: 1 -->
<svg width="286pt" height="66pt"
 viewBox="0.00 0.00 286.00 66.00" xmlns="http://www.w3.org/2000/svg" xmlns:xlink="http://www.w3.org/1999/xlink">
<g id="graph0" class="graph" transform="scale(1 1) rotate(0) translate(4 62)">
<title>Graphical Class Hierarchy</title>
<polygon fill="white" stroke="none" points="-4,4 -4,-62 282,-62 282,4 -4,4"/>
<!-- Node1 -->
<g id="node1" class="node"><title>Node1</title>
<polygon fill="white" stroke="#bfbfbf" points="8.5,-38.5 8.5,-57.5 99.5,-57.5 99.5,-38.5 8.5,-38.5"/>
<text text-anchor="middle" x="54" y="-45.5" font-family="Helvetica,sans-Serif" font-size="10.00">IEquatable&lt; int &gt;</text>
</g>
<!-- Node2 -->
<g id="node2" class="node"><title>Node2</title>
<g id="a_node2"><a xlink:href="struct_corale_1_1_colore_1_1_razer_1_1_result.html" target="_top" xlink:title="Struct for containing the result of running a native Chroma SDK function. ">
<polygon fill="white" stroke="black" points="144,-19.5 144,-38.5 278,-38.5 278,-19.5 144,-19.5"/>
<text text-anchor="middle" x="211" y="-26.5" font-family="Helvetica,sans-Serif" font-size="10.00">Corale.Colore.Razer.Result</text>
</a>
</g>
</g>
<!-- Node1&#45;&gt;Node2 -->
<g id="edge1" class="edge"><title>Node1&#45;&gt;Node2</title>
<path fill="none" stroke="midnightblue" d="M109.762,-41.2872C120.813,-39.9326 132.541,-38.4949 143.932,-37.0986"/>
<polygon fill="midnightblue" stroke="midnightblue" points="109.332,-37.8136 99.8324,-42.5044 110.184,-44.7616 109.332,-37.8136"/>
</g>
<!-- Node3 -->
<g id="node3" class="node"><title>Node3</title>
<polygon fill="white" stroke="#bfbfbf" points="0,-0.5 0,-19.5 108,-19.5 108,-0.5 0,-0.5"/>
<text text-anchor="middle" x="54" y="-7.5" font-family="Helvetica,sans-Serif" font-size="10.00">IEquatable&lt; Result &gt;</text>
</g>
<!-- Node3&#45;&gt;Node2 -->
<g id="edge2" class="edge"><title>Node3&#45;&gt;Node2</title>
<path fill="none" stroke="midnightblue" d="M118.459,-17.7789C126.869,-18.8097 135.507,-19.8686 143.959,-20.9046"/>
<polygon fill="midnightblue" stroke="midnightblue" points="118.694,-14.2815 108.342,-16.5387 117.842,-21.2295 118.694,-14.2815"/>
</g>
</g>
</svg>
