<?xml version="1.0" encoding="UTF-8" standalone="no"?>
<!DOCTYPE svg PUBLIC "-//W3C//DTD SVG 1.1//EN"
 "http://www.w3.org/Graphics/SVG/1.1/DTD/svg11.dtd">
<!-- Generated by graphviz version 2.38.0 (20140413.2041)
 -->
<!-- Title: Graphical Class Hierarchy Pages: 1 -->
<svg width="266pt" height="203pt"
 viewBox="0.00 0.00 266.00 203.00" xmlns="http://www.w3.org/2000/svg" xmlns:xlink="http://www.w3.org/1999/xlink">
<g id="graph0" class="graph" transform="scale(1 1) rotate(0) translate(4 199)">
<title>Graphical Class Hierarchy</title>
<polygon fill="white" stroke="none" points="-4,4 -4,-199 262,-199 262,4 -4,4"/>
<!-- Node1 -->
<g id="node1" class="node"><title>Node1</title>
<polygon fill="white" stroke="#bfbfbf" points="0,-175.5 0,-194.5 71,-194.5 71,-175.5 0,-175.5"/>
<text text-anchor="middle" x="35.5" y="-182.5" font-family="Helvetica,sans-Serif" font-size="10.00">IComparable</text>
</g>
<!-- Node2 -->
<g id="node2" class="node"><title>Node2</title>
<g id="a_node2"><a xlink:href="struct_corale_1_1_colore_1_1_core_1_1_size.html" target="_top" xlink:title="Dynamic size type for interacting with Razer&#39;s native code. Emulates size_t from C. ">
<polygon fill="white" stroke="black" points="122,-175.5 122,-194.5 243,-194.5 243,-175.5 122,-175.5"/>
<text text-anchor="middle" x="182.5" y="-182.5" font-family="Helvetica,sans-Serif" font-size="10.00">Corale.Colore.Core.Size</text>
</a>
</g>
</g>
<!-- Node1&#45;&gt;Node2 -->
<g id="edge1" class="edge"><title>Node1&#45;&gt;Node2</title>
<path fill="none" stroke="midnightblue" d="M81.5796,-185C94.3208,-185 108.387,-185 121.844,-185"/>
<polygon fill="midnightblue" stroke="midnightblue" points="81.2311,-181.5 71.2311,-185 81.2311,-188.5 81.2311,-181.5"/>
</g>
<!-- Node3 -->
<g id="node3" class="node"><title>Node3</title>
<polygon fill="white" stroke="#bfbfbf" points="4.5,-93.5 4.5,-112.5 66.5,-112.5 66.5,-93.5 4.5,-93.5"/>
<text text-anchor="middle" x="35.5" y="-100.5" font-family="Helvetica,sans-Serif" font-size="10.00">IEquatable</text>
</g>
<!-- Node3&#45;&gt;Node2 -->
<g id="edge3" class="edge"><title>Node3&#45;&gt;Node2</title>
<path fill="none" stroke="midnightblue" d="M51.4509,-120.371C64.6723,-134.661 85.2016,-154.387 107,-166 114.186,-169.828 122.178,-172.911 130.183,-175.386"/>
<polygon fill="midnightblue" stroke="midnightblue" points="53.8402,-117.793 44.5565,-112.688 48.6302,-122.468 53.8402,-117.793"/>
</g>
<!-- Node4 -->
<g id="node4" class="node"><title>Node4</title>
<g id="a_node4"><a xlink:href="struct_corale_1_1_colore_1_1_core_1_1_color.html" target="_top" xlink:title="Represents an RGB color. ">
<polygon fill="white" stroke="black" points="120.5,-137.5 120.5,-156.5 244.5,-156.5 244.5,-137.5 120.5,-137.5"/>
<text text-anchor="middle" x="182.5" y="-144.5" font-family="Helvetica,sans-Serif" font-size="10.00">Corale.Colore.Core.Color</text>
</a>
</g>
</g>
<!-- Node3&#45;&gt;Node4 -->
<g id="edge2" class="edge"><title>Node3&#45;&gt;Node4</title>
<path fill="none" stroke="midnightblue" d="M71.3047,-116.05C82.6171,-120.101 95.2764,-124.434 107,-128 117.983,-131.34 129.994,-134.58 141.103,-137.411"/>
<polygon fill="midnightblue" stroke="midnightblue" points="72.3617,-112.71 61.7676,-112.589 69.9739,-119.29 72.3617,-112.71"/>
</g>
<!-- Node5 -->
<g id="node5" class="node"><title>Node5</title>
<g id="a_node5"><a xlink:href="struct_corale_1_1_colore_1_1_razer_1_1_keyboard_1_1_effects_1_1_custom.html" target="_top" xlink:title="Describes a custom grid effect for every key. ">
<polygon fill="white" stroke="black" points="107,-88 107,-118 258,-118 258,-88 107,-88"/>
<text text-anchor="start" x="115" y="-106" font-family="Helvetica,sans-Serif" font-size="10.00">Corale.Colore.Razer.Keyboard.</text>
<text text-anchor="middle" x="182.5" y="-95" font-family="Helvetica,sans-Serif" font-size="10.00">Effects.Custom</text>
</a>
</g>
</g>
<!-- Node3&#45;&gt;Node5 -->
<g id="edge4" class="edge"><title>Node3&#45;&gt;Node5</title>
<path fill="none" stroke="midnightblue" d="M76.7542,-103C86.1818,-103 96.5229,-103 106.921,-103"/>
<polygon fill="midnightblue" stroke="midnightblue" points="76.5441,-99.5001 66.5441,-103 76.5441,-106.5 76.5441,-99.5001"/>
</g>
<!-- Node6 -->
<g id="node6" class="node"><title>Node6</title>
<g id="a_node6"><a xlink:href="struct_corale_1_1_colore_1_1_razer_1_1_keypad_1_1_effects_1_1_custom.html" target="_top" xlink:title="Custom effect. ">
<polygon fill="white" stroke="black" points="111,-39 111,-69 254,-69 254,-39 111,-39"/>
<text text-anchor="start" x="119" y="-57" font-family="Helvetica,sans-Serif" font-size="10.00">Corale.Colore.Razer.Keypad.</text>
<text text-anchor="middle" x="182.5" y="-46" font-family="Helvetica,sans-Serif" font-size="10.00">Effects.Custom</text>
</a>
</g>
</g>
<!-- Node3&#45;&gt;Node6 -->
<g id="edge5" class="edge"><title>Node3&#45;&gt;Node6</title>
<path fill="none" stroke="midnightblue" d="M74.3982,-90.0646C84.9499,-86.4724 96.4183,-82.5766 107,-79 116.564,-75.7673 126.824,-72.3146 136.578,-69.0392"/>
<polygon fill="midnightblue" stroke="midnightblue" points="72.9584,-86.8575 64.6214,-93.3954 75.2159,-93.4836 72.9584,-86.8575"/>
</g>
<!-- Node7 -->
<g id="node7" class="node"><title>Node7</title>
<g id="a_node7"><a xlink:href="struct_corale_1_1_colore_1_1_razer_1_1_result.html" target="_top" xlink:title="Struct for containing the result of running a native Chroma SDK function. ">
<polygon fill="white" stroke="black" points="115.5,-0.5 115.5,-19.5 249.5,-19.5 249.5,-0.5 115.5,-0.5"/>
<text text-anchor="middle" x="182.5" y="-7.5" font-family="Helvetica,sans-Serif" font-size="10.00">Corale.Colore.Razer.Result</text>
</a>
</g>
</g>
<!-- Node3&#45;&gt;Node7 -->
<g id="edge6" class="edge"><title>Node3&#45;&gt;Node7</title>
<path fill="none" stroke="midnightblue" d="M49.0003,-84.9265C61.68,-67.9643 82.8391,-43.1453 107,-29 113.566,-25.1559 120.901,-22.0817 128.338,-19.6251"/>
<polygon fill="midnightblue" stroke="midnightblue" points="45.8808,-83.268 42.8632,-93.424 51.5556,-87.3665 45.8808,-83.268"/>
</g>
</g>
</svg>
