<?xml version="1.0" encoding="UTF-8" standalone="no"?>
<!DOCTYPE svg PUBLIC "-//W3C//DTD SVG 1.1//EN"
 "http://www.w3.org/Graphics/SVG/1.1/DTD/svg11.dtd">
<!-- Generated by graphviz version 2.38.0 (20140413.2041)
 -->
<!-- Title: Graphical Class Hierarchy Pages: 1 -->
<svg width="294pt" height="301pt"
 viewBox="0.00 0.00 294.00 300.50" xmlns="http://www.w3.org/2000/svg" xmlns:xlink="http://www.w3.org/1999/xlink">
<g id="graph0" class="graph" transform="scale(1 1) rotate(0) translate(4 296.5)">
<title>Graphical Class Hierarchy</title>
<polygon fill="white" stroke="none" points="-4,4 -4,-296.5 290,-296.5 290,4 -4,4"/>
<!-- Node1 -->
<g id="node1" class="node"><title>Node1</title>
<polygon fill="white" stroke="#bfbfbf" points="12,-273 12,-292 83,-292 83,-273 12,-273"/>
<text text-anchor="middle" x="47.5" y="-280" font-family="Helvetica,sans-Serif" font-size="10.00">IComparable</text>
</g>
<!-- Node2 -->
<g id="node2" class="node"><title>Node2</title>
<g id="a_node2"><a xlink:href="struct_corale_1_1_colore_1_1_core_1_1_size.html" target="_top" xlink:title="Dynamic size type for interacting with Razer&#39;s native code. Emulates size_t from C. ">
<polygon fill="white" stroke="black" points="148,-273 148,-292 269,-292 269,-273 148,-273"/>
<text text-anchor="middle" x="208.5" y="-280" font-family="Helvetica,sans-Serif" font-size="10.00">Corale.Colore.Core.Size</text>
</a>
</g>
</g>
<!-- Node1&#45;&gt;Node2 -->
<g id="edge1" class="edge"><title>Node1&#45;&gt;Node2</title>
<path fill="none" stroke="midnightblue" d="M93.1613,-282.5C110.083,-282.5 129.631,-282.5 147.723,-282.5"/>
<polygon fill="midnightblue" stroke="midnightblue" points="93.0007,-279 83.0006,-282.5 93.0006,-286 93.0007,-279"/>
</g>
<!-- Node3 -->
<g id="node3" class="node"><title>Node3</title>
<polygon fill="white" stroke="#bfbfbf" points="16.5,-153 16.5,-172 78.5,-172 78.5,-153 16.5,-153"/>
<text text-anchor="middle" x="47.5" y="-160" font-family="Helvetica,sans-Serif" font-size="10.00">IEquatable</text>
</g>
<!-- Node3&#45;&gt;Node2 -->
<g id="edge3" class="edge"><title>Node3&#45;&gt;Node2</title>
<path fill="none" stroke="midnightblue" d="M58.4006,-180.757C71.7927,-203.672 97.8635,-242.509 131,-263.5 137.127,-267.381 143.996,-270.47 151.037,-272.927"/>
<polygon fill="midnightblue" stroke="midnightblue" points="61.423,-178.991 53.4537,-172.01 55.3299,-182.437 61.423,-178.991"/>
</g>
<!-- Node4 -->
<g id="node4" class="node"><title>Node4</title>
<g id="a_node4"><a xlink:href="struct_corale_1_1_colore_1_1_core_1_1_color.html" target="_top" xlink:title="Represents an RGB color. ">
<polygon fill="white" stroke="black" points="146.5,-197 146.5,-216 270.5,-216 270.5,-197 146.5,-197"/>
<text text-anchor="middle" x="208.5" y="-204" font-family="Helvetica,sans-Serif" font-size="10.00">Corale.Colore.Core.Color</text>
</a>
</g>
</g>
<!-- Node3&#45;&gt;Node4 -->
<g id="edge2" class="edge"><title>Node3&#45;&gt;Node4</title>
<path fill="none" stroke="midnightblue" d="M88.4876,-175.064C101.952,-179.175 117.088,-183.667 131,-187.5 142.742,-190.735 155.566,-194.017 167.3,-196.923"/>
<polygon fill="midnightblue" stroke="midnightblue" points="89.1523,-171.606 78.5652,-172.012 87.0942,-178.297 89.1523,-171.606"/>
</g>
<!-- Node5 -->
<g id="node5" class="node"><title>Node5</title>
<g id="a_node5"><a xlink:href="struct_corale_1_1_colore_1_1_razer_1_1_keyboard_1_1_effects_1_1_custom.html" target="_top" xlink:title="Describes a custom grid effect for every key. ">
<polygon fill="white" stroke="black" points="133,-147.5 133,-177.5 284,-177.5 284,-147.5 133,-147.5"/>
<text text-anchor="start" x="141" y="-165.5" font-family="Helvetica,sans-Serif" font-size="10.00">Corale.Colore.Razer.Keyboard.</text>
<text text-anchor="middle" x="208.5" y="-154.5" font-family="Helvetica,sans-Serif" font-size="10.00">Effects.Custom</text>
</a>
</g>
</g>
<!-- Node3&#45;&gt;Node5 -->
<g id="edge4" class="edge"><title>Node3&#45;&gt;Node5</title>
<path fill="none" stroke="midnightblue" d="M89.0322,-162.5C102.388,-162.5 117.692,-162.5 132.768,-162.5"/>
<polygon fill="midnightblue" stroke="midnightblue" points="88.781,-159 78.7809,-162.5 88.7809,-166 88.781,-159"/>
</g>
<!-- Node6 -->
<g id="node6" class="node"><title>Node6</title>
<g id="a_node6"><a xlink:href="struct_corale_1_1_colore_1_1_razer_1_1_keypad_1_1_effects_1_1_custom.html" target="_top" xlink:title="Custom effect. ">
<polygon fill="white" stroke="black" points="137,-98.5 137,-128.5 280,-128.5 280,-98.5 137,-98.5"/>
<text text-anchor="start" x="145" y="-116.5" font-family="Helvetica,sans-Serif" font-size="10.00">Corale.Colore.Razer.Keypad.</text>
<text text-anchor="middle" x="208.5" y="-105.5" font-family="Helvetica,sans-Serif" font-size="10.00">Effects.Custom</text>
</a>
</g>
</g>
<!-- Node3&#45;&gt;Node6 -->
<g id="edge5" class="edge"><title>Node3&#45;&gt;Node6</title>
<path fill="none" stroke="midnightblue" d="M88.4719,-150.182C109.746,-143.625 136.085,-135.508 158.574,-128.578"/>
<polygon fill="midnightblue" stroke="midnightblue" points="87.3066,-146.878 78.7809,-153.168 89.3682,-153.568 87.3066,-146.878"/>
</g>
<!-- Node7 -->
<g id="node7" class="node"><title>Node7</title>
<g id="a_node7"><a xlink:href="struct_corale_1_1_colore_1_1_razer_1_1_mouse_1_1_effects_1_1_custom.html" target="_top" xlink:title="Custom effect for mouse LEDs. ">
<polygon fill="white" stroke="black" points="139,-0.5 139,-30.5 278,-30.5 278,-0.5 139,-0.5"/>
<text text-anchor="start" x="147" y="-18.5" font-family="Helvetica,sans-Serif" font-size="10.00">Corale.Colore.Razer.Mouse.</text>
<text text-anchor="middle" x="208.5" y="-7.5" font-family="Helvetica,sans-Serif" font-size="10.00">Effects.Custom</text>
</a>
</g>
</g>
<!-- Node3&#45;&gt;Node7 -->
<g id="edge6" class="edge"><title>Node3&#45;&gt;Node7</title>
<path fill="none" stroke="midnightblue" d="M56.3538,-143.386C68.4298,-116.33 94.0943,-67.0924 131,-39.5 135.571,-36.0827 140.64,-33.1444 145.93,-30.6193"/>
<polygon fill="midnightblue" stroke="midnightblue" points="53.0041,-142.317 52.2687,-152.886 59.4347,-145.082 53.0041,-142.317"/>
</g>
<!-- Node8 -->
<g id="node8" class="node"><title>Node8</title>
<g id="a_node8"><a xlink:href="struct_corale_1_1_colore_1_1_razer_1_1_mousepad_1_1_effects_1_1_custom.html" target="_top" xlink:title="Custom effect for mouse pad. ">
<polygon fill="white" stroke="black" points="131,-49.5 131,-79.5 286,-79.5 286,-49.5 131,-49.5"/>
<text text-anchor="start" x="139" y="-67.5" font-family="Helvetica,sans-Serif" font-size="10.00">Corale.Colore.Razer.Mousepad.</text>
<text text-anchor="middle" x="208.5" y="-56.5" font-family="Helvetica,sans-Serif" font-size="10.00">Effects.Custom</text>
</a>
</g>
</g>
<!-- Node3&#45;&gt;Node8 -->
<g id="edge7" class="edge"><title>Node3&#45;&gt;Node8</title>
<path fill="none" stroke="midnightblue" d="M63.3623,-145.463C78.7588,-128.781 104.273,-103.717 131,-88.5 136.927,-85.1254 143.388,-82.1634 149.961,-79.5796"/>
<polygon fill="midnightblue" stroke="midnightblue" points="60.7541,-143.129 56.6559,-152.899 65.9524,-147.817 60.7541,-143.129"/>
</g>
<!-- Node9 -->
<g id="node9" class="node"><title>Node9</title>
<g id="a_node9"><a xlink:href="struct_corale_1_1_colore_1_1_razer_1_1_result.html" target="_top" xlink:title="Struct for containing the result of running a native Chroma SDK function. ">
<polygon fill="white" stroke="black" points="141.5,-235 141.5,-254 275.5,-254 275.5,-235 141.5,-235"/>
<text text-anchor="middle" x="208.5" y="-242" font-family="Helvetica,sans-Serif" font-size="10.00">Corale.Colore.Razer.Result</text>
</a>
</g>
</g>
<!-- Node3&#45;&gt;Node9 -->
<g id="edge8" class="edge"><title>Node3&#45;&gt;Node9</title>
<path fill="none" stroke="midnightblue" d="M65.6615,-179.012C81.4412,-193.316 106.1,-213.539 131,-225.5 139.018,-229.351 147.896,-232.472 156.681,-234.985"/>
<polygon fill="midnightblue" stroke="midnightblue" points="67.9754,-176.384 58.2649,-172.147 63.2134,-181.515 67.9754,-176.384"/>
</g>
<!-- Node10 -->
<g id="node10" class="node"><title>Node10</title>
<polygon fill="white" stroke="#bfbfbf" points="0,-24.5 0,-54.5 95,-54.5 95,-24.5 0,-24.5"/>
<text text-anchor="start" x="8" y="-42.5" font-family="Helvetica,sans-Serif" font-size="10.00">IEquatable&lt; IList&lt;</text>
<text text-anchor="middle" x="47.5" y="-31.5" font-family="Helvetica,sans-Serif" font-size="10.00"> Color &gt;&gt;</text>
</g>
<!-- Node10&#45;&gt;Node7 -->
<g id="edge9" class="edge"><title>Node10&#45;&gt;Node7</title>
<path fill="none" stroke="midnightblue" d="M105.506,-30.8953C116.329,-29.2617 127.757,-27.5367 138.894,-25.8556"/>
<polygon fill="midnightblue" stroke="midnightblue" points="104.711,-27.4756 95.3453,-32.429 105.756,-34.3972 104.711,-27.4756"/>
</g>
<!-- Node10&#45;&gt;Node8 -->
<g id="edge10" class="edge"><title>Node10&#45;&gt;Node8</title>
<path fill="none" stroke="midnightblue" d="M105.271,-48.4262C113.577,-49.7322 122.244,-51.095 130.867,-52.4508"/>
<polygon fill="midnightblue" stroke="midnightblue" points="105.768,-44.9614 95.3453,-46.8656 104.68,-51.8765 105.768,-44.9614"/>
</g>
</g>
</svg>
