<?xml version="1.0" encoding="UTF-8" standalone="no"?>
<!DOCTYPE svg PUBLIC "-//W3C//DTD SVG 1.1//EN"
 "http://www.w3.org/Graphics/SVG/1.1/DTD/svg11.dtd">
<!-- Generated by graphviz version 2.38.0 (20140413.2041)
 -->
<!-- Title: Graphical Class Hierarchy Pages: 1 -->
<svg width="294pt" height="400pt"
 viewBox="0.00 0.00 294.00 399.50" xmlns="http://www.w3.org/2000/svg" xmlns:xlink="http://www.w3.org/1999/xlink">
<g id="graph0" class="graph" transform="scale(1 1) rotate(0) translate(4 395.5)">
<title>Graphical Class Hierarchy</title>
<polygon fill="white" stroke="none" points="-4,4 -4,-395.5 290,-395.5 290,4 -4,4"/>
<!-- Node1 -->
<g id="node1" class="node"><title>Node1</title>
<polygon fill="white" stroke="#bfbfbf" points="12,-372 12,-391 83,-391 83,-372 12,-372"/>
<text text-anchor="middle" x="47.5" y="-379" font-family="Helvetica,sans-Serif" font-size="10.00">IComparable</text>
</g>
<!-- Node2 -->
<g id="node2" class="node"><title>Node2</title>
<g id="a_node2"><a xlink:href="struct_corale_1_1_colore_1_1_sdk_version.html" target="_top" xlink:title="Describes an SDK version. ">
<polygon fill="white" stroke="black" points="144.5,-372 144.5,-391 272.5,-391 272.5,-372 144.5,-372"/>
<text text-anchor="middle" x="208.5" y="-379" font-family="Helvetica,sans-Serif" font-size="10.00">Corale.Colore.SdkVersion</text>
</a>
</g>
</g>
<!-- Node1&#45;&gt;Node2 -->
<g id="edge1" class="edge"><title>Node1&#45;&gt;Node2</title>
<path fill="none" stroke="midnightblue" d="M93.0549,-381.5C108.916,-381.5 127.095,-381.5 144.224,-381.5"/>
<polygon fill="midnightblue" stroke="midnightblue" points="93.0007,-378 83.0006,-381.5 93.0006,-385 93.0007,-378"/>
</g>
<!-- Node3 -->
<g id="node3" class="node"><title>Node3</title>
<polygon fill="white" stroke="#bfbfbf" points="16.5,-197 16.5,-216 78.5,-216 78.5,-197 16.5,-197"/>
<text text-anchor="middle" x="47.5" y="-204" font-family="Helvetica,sans-Serif" font-size="10.00">IEquatable</text>
</g>
<!-- Node3&#45;&gt;Node2 -->
<g id="edge10" class="edge"><title>Node3&#45;&gt;Node2</title>
<path fill="none" stroke="midnightblue" d="M53.3012,-226.281C62.4633,-259.676 85.6901,-327.052 131,-362.5 135.958,-366.379 141.604,-369.477 147.531,-371.95"/>
<polygon fill="midnightblue" stroke="midnightblue" points="56.6242,-225.153 50.7217,-216.354 49.8491,-226.913 56.6242,-225.153"/>
</g>
<!-- Node4 -->
<g id="node4" class="node"><title>Node4</title>
<g id="a_node4"><a xlink:href="struct_corale_1_1_colore_1_1_core_1_1_color.html" target="_top" xlink:title="Represents an RGB color. ">
<polygon fill="white" stroke="black" points="146.5,-197 146.5,-216 270.5,-216 270.5,-197 146.5,-197"/>
<text text-anchor="middle" x="208.5" y="-204" font-family="Helvetica,sans-Serif" font-size="10.00">Corale.Colore.Core.Color</text>
</a>
</g>
</g>
<!-- Node3&#45;&gt;Node4 -->
<g id="edge2" class="edge"><title>Node3&#45;&gt;Node4</title>
<path fill="none" stroke="midnightblue" d="M89.1412,-206.5C106.532,-206.5 127.213,-206.5 146.385,-206.5"/>
<polygon fill="midnightblue" stroke="midnightblue" points="88.781,-203 78.7809,-206.5 88.7809,-210 88.781,-203"/>
</g>
<!-- Node5 -->
<g id="node5" class="node"><title>Node5</title>
<g id="a_node5"><a xlink:href="struct_corale_1_1_colore_1_1_razer_1_1_effects_1_1_custom.html" target="_top" xlink:title="Describes a custom effect for a system device. ">
<polygon fill="white" stroke="black" points="138.5,-147.5 138.5,-177.5 278.5,-177.5 278.5,-147.5 138.5,-147.5"/>
<text text-anchor="start" x="146.5" y="-165.5" font-family="Helvetica,sans-Serif" font-size="10.00">Corale.Colore.Razer.Effects.</text>
<text text-anchor="middle" x="208.5" y="-154.5" font-family="Helvetica,sans-Serif" font-size="10.00">Custom</text>
</a>
</g>
</g>
<!-- Node3&#45;&gt;Node5 -->
<g id="edge3" class="edge"><title>Node3&#45;&gt;Node5</title>
<path fill="none" stroke="midnightblue" d="M88.5921,-195.405C108.168,-189.988 132.01,-183.39 153.192,-177.529"/>
<polygon fill="midnightblue" stroke="midnightblue" points="87.4852,-192.08 78.7809,-198.12 89.3522,-198.826 87.4852,-192.08"/>
</g>
<!-- Node6 -->
<g id="node6" class="node"><title>Node6</title>
<g id="a_node6"><a xlink:href="struct_corale_1_1_colore_1_1_razer_1_1_keyboard_1_1_effects_1_1_custom.html" target="_top" xlink:title="Describes a custom grid effect for every key. ">
<polygon fill="white" stroke="black" points="133,-98.5 133,-128.5 284,-128.5 284,-98.5 133,-98.5"/>
<text text-anchor="start" x="141" y="-116.5" font-family="Helvetica,sans-Serif" font-size="10.00">Corale.Colore.Razer.Keyboard.</text>
<text text-anchor="middle" x="208.5" y="-105.5" font-family="Helvetica,sans-Serif" font-size="10.00">Effects.Custom</text>
</a>
</g>
</g>
<!-- Node3&#45;&gt;Node6 -->
<g id="edge4" class="edge"><title>Node3&#45;&gt;Node6</title>
<path fill="none" stroke="midnightblue" d="M65.1235,-189.565C80.8674,-174.359 105.791,-152.357 131,-138.5 137.857,-134.731 145.375,-131.414 152.936,-128.533"/>
<polygon fill="midnightblue" stroke="midnightblue" points="62.4332,-187.303 57.7743,-196.818 67.3503,-192.285 62.4332,-187.303"/>
</g>
<!-- Node7 -->
<g id="node7" class="node"><title>Node7</title>
<g id="a_node7"><a xlink:href="struct_corale_1_1_colore_1_1_razer_1_1_keypad_1_1_effects_1_1_custom.html" target="_top" xlink:title="Custom effect. ">
<polygon fill="white" stroke="black" points="137,-322.5 137,-352.5 280,-352.5 280,-322.5 137,-322.5"/>
<text text-anchor="start" x="145" y="-340.5" font-family="Helvetica,sans-Serif" font-size="10.00">Corale.Colore.Razer.Keypad.</text>
<text text-anchor="middle" x="208.5" y="-329.5" font-family="Helvetica,sans-Serif" font-size="10.00">Effects.Custom</text>
</a>
</g>
</g>
<!-- Node3&#45;&gt;Node7 -->
<g id="edge5" class="edge"><title>Node3&#45;&gt;Node7</title>
<path fill="none" stroke="midnightblue" d="M58.1379,-225.164C71.4029,-249.053 97.4983,-290.136 131,-313.5 135.909,-316.924 141.328,-319.875 146.946,-322.415"/>
<polygon fill="midnightblue" stroke="midnightblue" points="61.0724,-223.231 53.2543,-216.08 54.907,-226.545 61.0724,-223.231"/>
</g>
<!-- Node8 -->
<g id="node8" class="node"><title>Node8</title>
<g id="a_node8"><a xlink:href="struct_corale_1_1_colore_1_1_razer_1_1_mouse_1_1_effects_1_1_custom.html" target="_top" xlink:title="Custom effect for mouse LEDs. ">
<polygon fill="white" stroke="black" points="139,-0.5 139,-30.5 278,-30.5 278,-0.5 139,-0.5"/>
<text text-anchor="start" x="147" y="-18.5" font-family="Helvetica,sans-Serif" font-size="10.00">Corale.Colore.Razer.Mouse.</text>
<text text-anchor="middle" x="208.5" y="-7.5" font-family="Helvetica,sans-Serif" font-size="10.00">Effects.Custom</text>
</a>
</g>
</g>
<!-- Node3&#45;&gt;Node8 -->
<g id="edge6" class="edge"><title>Node3&#45;&gt;Node8</title>
<path fill="none" stroke="midnightblue" d="M52.762,-187.107C61.3933,-152.395 84.2267,-79.5386 131,-39.5 135.018,-36.0603 139.529,-33.113 144.298,-30.5876"/>
<polygon fill="midnightblue" stroke="midnightblue" points="49.3302,-186.411 50.4463,-196.947 56.1441,-188.015 49.3302,-186.411"/>
</g>
<!-- Node9 -->
<g id="node9" class="node"><title>Node9</title>
<g id="a_node9"><a xlink:href="struct_corale_1_1_colore_1_1_razer_1_1_mouse_1_1_effects_1_1_custom_grid.html" target="_top" xlink:title="Custom grid effect for mouse LEDs. ">
<polygon fill="white" stroke="black" points="139,-273.5 139,-303.5 278,-303.5 278,-273.5 139,-273.5"/>
<text text-anchor="start" x="147" y="-291.5" font-family="Helvetica,sans-Serif" font-size="10.00">Corale.Colore.Razer.Mouse.</text>
<text text-anchor="middle" x="208.5" y="-280.5" font-family="Helvetica,sans-Serif" font-size="10.00">Effects.CustomGrid</text>
</a>
</g>
</g>
<!-- Node3&#45;&gt;Node9 -->
<g id="edge7" class="edge"><title>Node3&#45;&gt;Node9</title>
<path fill="none" stroke="midnightblue" d="M68.2245,-222.567C84.3332,-235.07 108.101,-252.148 131,-263.5 138.386,-267.161 146.431,-270.463 154.439,-273.376"/>
<polygon fill="midnightblue" stroke="midnightblue" points="70.1324,-219.614 60.1173,-216.157 65.7908,-225.105 70.1324,-219.614"/>
</g>
<!-- Node10 -->
<g id="node10" class="node"><title>Node10</title>
<g id="a_node10"><a xlink:href="struct_corale_1_1_colore_1_1_razer_1_1_mousepad_1_1_effects_1_1_custom.html" target="_top" xlink:title="Custom effect for mouse pad. ">
<polygon fill="white" stroke="black" points="131,-49.5 131,-79.5 286,-79.5 286,-49.5 131,-49.5"/>
<text text-anchor="start" x="139" y="-67.5" font-family="Helvetica,sans-Serif" font-size="10.00">Corale.Colore.Razer.Mousepad.</text>
<text text-anchor="middle" x="208.5" y="-56.5" font-family="Helvetica,sans-Serif" font-size="10.00">Effects.Custom</text>
</a>
</g>
</g>
<!-- Node3&#45;&gt;Node10 -->
<g id="edge8" class="edge"><title>Node3&#45;&gt;Node10</title>
<path fill="none" stroke="midnightblue" d="M56.745,-187.78C69.148,-161.745 95.0425,-114.845 131,-88.5 135.716,-85.0448 140.943,-82.0773 146.388,-79.5306"/>
<polygon fill="midnightblue" stroke="midnightblue" points="53.5271,-186.4 52.5269,-196.947 59.8864,-189.326 53.5271,-186.4"/>
</g>
<!-- Node11 -->
<g id="node11" class="node"><title>Node11</title>
<g id="a_node11"><a xlink:href="struct_corale_1_1_colore_1_1_razer_1_1_result.html" target="_top" xlink:title="Struct for containing the result of running a native Chroma SDK function. ">
<polygon fill="white" stroke="black" points="141.5,-235 141.5,-254 275.5,-254 275.5,-235 141.5,-235"/>
<text text-anchor="middle" x="208.5" y="-242" font-family="Helvetica,sans-Serif" font-size="10.00">Corale.Colore.Razer.Result</text>
</a>
</g>
</g>
<!-- Node3&#45;&gt;Node11 -->
<g id="edge9" class="edge"><title>Node3&#45;&gt;Node11</title>
<path fill="none" stroke="midnightblue" d="M88.7147,-216.111C112.909,-221.893 143.586,-229.225 167.705,-234.989"/>
<polygon fill="midnightblue" stroke="midnightblue" points="89.3206,-212.657 78.7809,-213.737 87.6934,-219.466 89.3206,-212.657"/>
</g>
<!-- Node12 -->
<g id="node12" class="node"><title>Node12</title>
<polygon fill="white" stroke="#bfbfbf" points="0,-24.5 0,-54.5 95,-54.5 95,-24.5 0,-24.5"/>
<text text-anchor="start" x="8" y="-42.5" font-family="Helvetica,sans-Serif" font-size="10.00">IEquatable&lt; IList&lt;</text>
<text text-anchor="middle" x="47.5" y="-31.5" font-family="Helvetica,sans-Serif" font-size="10.00"> Color &gt;&gt;</text>
</g>
<!-- Node12&#45;&gt;Node8 -->
<g id="edge11" class="edge"><title>Node12&#45;&gt;Node8</title>
<path fill="none" stroke="midnightblue" d="M105.506,-30.8953C116.329,-29.2617 127.757,-27.5367 138.894,-25.8556"/>
<polygon fill="midnightblue" stroke="midnightblue" points="104.711,-27.4756 95.3453,-32.429 105.756,-34.3972 104.711,-27.4756"/>
</g>
<!-- Node12&#45;&gt;Node10 -->
<g id="edge12" class="edge"><title>Node12&#45;&gt;Node10</title>
<path fill="none" stroke="midnightblue" d="M105.271,-48.4262C113.577,-49.7322 122.244,-51.095 130.867,-52.4508"/>
<polygon fill="midnightblue" stroke="midnightblue" points="105.768,-44.9614 95.3453,-46.8656 104.68,-51.8765 105.768,-44.9614"/>
</g>
</g>
</svg>
