<?xml version="1.0" encoding="UTF-8" standalone="no"?>
<!DOCTYPE svg PUBLIC "-//W3C//DTD SVG 1.1//EN"
 "http://www.w3.org/Graphics/SVG/1.1/DTD/svg11.dtd">
<!-- Generated by graphviz version 2.38.0 (20140413.2041)
 -->
<!-- Title: Graphical Class Hierarchy Pages: 1 -->
<svg width="263pt" height="137pt"
 viewBox="0.00 0.00 263.00 137.00" xmlns="http://www.w3.org/2000/svg" xmlns:xlink="http://www.w3.org/1999/xlink">
<g id="graph0" class="graph" transform="scale(1 1) rotate(0) translate(4 133)">
<title>Graphical Class Hierarchy</title>
<polygon fill="white" stroke="none" points="-4,4 -4,-133 259,-133 259,4 -4,4"/>
<!-- Node1 -->
<g id="node1" class="node"><title>Node1</title>
<polygon fill="white" stroke="#bfbfbf" points="0,-55 0,-74 61,-74 61,-55 0,-55"/>
<text text-anchor="middle" x="30.5" y="-62" font-family="Helvetica,sans-Serif" font-size="10.00">EventArgs</text>
</g>
<!-- Node2 -->
<g id="node2" class="node"><title>Node2</title>
<g id="a_node2"><a xlink:href="class_corale_1_1_colore_1_1_events_1_1_application_state_event_args.html" target="_top" xlink:title="Event arguments for the application state event. ">
<polygon fill="white" stroke="black" points="97,-98.5 97,-128.5 255,-128.5 255,-98.5 97,-98.5"/>
<text text-anchor="start" x="105" y="-116.5" font-family="Helvetica,sans-Serif" font-size="10.00">Corale.Colore.Events.Application</text>
<text text-anchor="middle" x="176" y="-105.5" font-family="Helvetica,sans-Serif" font-size="10.00">StateEventArgs</text>
</a>
</g>
</g>
<!-- Node1&#45;&gt;Node2 -->
<g id="edge1" class="edge"><title>Node1&#45;&gt;Node2</title>
<path fill="none" stroke="midnightblue" d="M64.7685,-77.6858C75.0504,-81.6291 86.447,-85.867 97,-89.5 105.842,-92.5439 115.309,-95.6135 124.491,-98.4932"/>
<polygon fill="midnightblue" stroke="midnightblue" points="65.9052,-74.3728 55.3161,-74.0248 63.377,-80.9003 65.9052,-74.3728"/>
</g>
<!-- Node3 -->
<g id="node3" class="node"><title>Node3</title>
<g id="a_node3"><a xlink:href="class_corale_1_1_colore_1_1_events_1_1_device_access_event_args.html" target="_top" xlink:title="Event arguments for the device access event. ">
<polygon fill="white" stroke="black" points="106.5,-49.5 106.5,-79.5 245.5,-79.5 245.5,-49.5 106.5,-49.5"/>
<text text-anchor="start" x="114.5" y="-67.5" font-family="Helvetica,sans-Serif" font-size="10.00">Corale.Colore.Events.Device</text>
<text text-anchor="middle" x="176" y="-56.5" font-family="Helvetica,sans-Serif" font-size="10.00">AccessEventArgs</text>
</a>
</g>
</g>
<!-- Node1&#45;&gt;Node3 -->
<g id="edge2" class="edge"><title>Node1&#45;&gt;Node3</title>
<path fill="none" stroke="midnightblue" d="M71.2431,-64.5C82.1241,-64.5 94.2404,-64.5 106.245,-64.5"/>
<polygon fill="midnightblue" stroke="midnightblue" points="71.2333,-61.0001 61.2333,-64.5 71.2333,-68.0001 71.2333,-61.0001"/>
</g>
<!-- Node4 -->
<g id="node4" class="node"><title>Node4</title>
<g id="a_node4"><a xlink:href="class_corale_1_1_colore_1_1_events_1_1_sdk_support_event_args.html" target="_top" xlink:title="Event arguments for the Chroma SDK support event. ">
<polygon fill="white" stroke="black" points="112,-0.5 112,-30.5 240,-30.5 240,-0.5 112,-0.5"/>
<text text-anchor="start" x="120" y="-18.5" font-family="Helvetica,sans-Serif" font-size="10.00">Corale.Colore.Events.Sdk</text>
<text text-anchor="middle" x="176" y="-7.5" font-family="Helvetica,sans-Serif" font-size="10.00">SupportEventArgs</text>
</a>
</g>
</g>
<!-- Node1&#45;&gt;Node4 -->
<g id="edge3" class="edge"><title>Node1&#45;&gt;Node4</title>
<path fill="none" stroke="midnightblue" d="M66.4181,-51.4045C76.2775,-47.7889 87.0345,-43.9212 97,-40.5 106.684,-37.1755 117.09,-33.7436 127.047,-30.5275"/>
<polygon fill="midnightblue" stroke="midnightblue" points="65.0897,-48.1639 56.9203,-54.9102 67.5136,-54.7309 65.0897,-48.1639"/>
</g>
</g>
</svg>
