<?xml version="1.0" encoding="UTF-8" standalone="no"?>
<!DOCTYPE svg PUBLIC "-//W3C//DTD SVG 1.1//EN"
 "http://www.w3.org/Graphics/SVG/1.1/DTD/svg11.dtd">
<!-- Generated by graphviz version 2.38.0 (20140413.2041)
 -->
<!-- Title: Graphical Class Hierarchy Pages: 1 -->
<svg width="294pt" height="449pt"
 viewBox="0.00 0.00 294.00 448.50" xmlns="http://www.w3.org/2000/svg" xmlns:xlink="http://www.w3.org/1999/xlink">
<g id="graph0" class="graph" transform="scale(1 1) rotate(0) translate(4 444.5)">
<title>Graphical Class Hierarchy</title>
<polygon fill="white" stroke="none" points="-4,4 -4,-444.5 290,-444.5 290,4 -4,4"/>
<!-- Node58 -->
<g id="node1" class="node"><title>Node58</title>
<polygon fill="white" stroke="#bfbfbf" points="12,-421 12,-440 83,-440 83,-421 12,-421"/>
<text text-anchor="middle" x="47.5" y="-428" font-family="Helvetica,sans-Serif" font-size="10.00">IComparable</text>
</g>
<!-- Node41 -->
<g id="node2" class="node"><title>Node41</title>
<g id="a_node2"><a xlink:href="struct_corale_1_1_colore_1_1_sdk_version.html" target="_top" xlink:title="Describes an SDK version. ">
<polygon fill="white" stroke="black" points="144.5,-421 144.5,-440 272.5,-440 272.5,-421 144.5,-421"/>
<text text-anchor="middle" x="208.5" y="-428" font-family="Helvetica,sans-Serif" font-size="10.00">Corale.Colore.SdkVersion</text>
</a>
</g>
</g>
<!-- Node58&#45;&gt;Node41 -->
<g id="edge1" class="edge"><title>Node58&#45;&gt;Node41</title>
<path fill="none" stroke="midnightblue" d="M93.0549,-430.5C108.916,-430.5 127.095,-430.5 144.224,-430.5"/>
<polygon fill="midnightblue" stroke="midnightblue" points="93.0007,-427 83.0006,-430.5 93.0006,-434 93.0007,-427"/>
</g>
<!-- Node33 -->
<g id="node3" class="node"><title>Node33</title>
<polygon fill="white" stroke="#bfbfbf" points="16.5,-226 16.5,-245 78.5,-245 78.5,-226 16.5,-226"/>
<text text-anchor="middle" x="47.5" y="-233" font-family="Helvetica,sans-Serif" font-size="10.00">IEquatable</text>
</g>
<!-- Node33&#45;&gt;Node41 -->
<g id="edge11" class="edge"><title>Node33&#45;&gt;Node41</title>
<path fill="none" stroke="midnightblue" d="M51.9905,-255.215C59.5383,-291.828 80.9123,-370.333 131,-411.5 135.652,-415.323 140.964,-418.394 146.573,-420.857"/>
<polygon fill="midnightblue" stroke="midnightblue" points="55.4059,-254.441 50.0755,-245.285 48.5325,-255.767 55.4059,-254.441"/>
</g>
<!-- Node34 -->
<g id="node4" class="node"><title>Node34</title>
<g id="a_node4"><a xlink:href="struct_corale_1_1_colore_1_1_core_1_1_color.html" target="_top" xlink:title="Represents an RGB color. ">
<polygon fill="white" stroke="black" points="146.5,-295 146.5,-314 270.5,-314 270.5,-295 146.5,-295"/>
<text text-anchor="middle" x="208.5" y="-302" font-family="Helvetica,sans-Serif" font-size="10.00">Corale.Colore.Core.Color</text>
</a>
</g>
</g>
<!-- Node33&#45;&gt;Node34 -->
<g id="edge2" class="edge"><title>Node33&#45;&gt;Node34</title>
<path fill="none" stroke="midnightblue" d="M70.1938,-251.151C86.2947,-262.129 109.154,-276.414 131,-285.5 139.971,-289.231 149.85,-292.354 159.444,-294.92"/>
<polygon fill="midnightblue" stroke="midnightblue" points="71.7598,-247.976 61.5536,-245.133 67.7592,-253.72 71.7598,-247.976"/>
</g>
<!-- Node35 -->
<g id="node5" class="node"><title>Node35</title>
<g id="a_node5"><a xlink:href="struct_corale_1_1_colore_1_1_razer_1_1_chroma_link_1_1_effects_1_1_custom.html" target="_top" xlink:title="Custom effect. ">
<polygon fill="white" stroke="black" points="138.5,-245.5 138.5,-275.5 278.5,-275.5 278.5,-245.5 138.5,-245.5"/>
<text text-anchor="start" x="146.5" y="-263.5" font-family="Helvetica,sans-Serif" font-size="10.00">Corale.Colore.Razer.Chroma</text>
<text text-anchor="middle" x="208.5" y="-252.5" font-family="Helvetica,sans-Serif" font-size="10.00">Link.Effects.Custom</text>
</a>
</g>
</g>
<!-- Node33&#45;&gt;Node35 -->
<g id="edge3" class="edge"><title>Node33&#45;&gt;Node35</title>
<path fill="none" stroke="midnightblue" d="M88.7888,-241.835C103.881,-244.208 121.489,-246.976 138.45,-249.643"/>
<polygon fill="midnightblue" stroke="midnightblue" points="89.2032,-238.357 78.7809,-240.261 88.1159,-245.272 89.2032,-238.357"/>
</g>
<!-- Node36 -->
<g id="node6" class="node"><title>Node36</title>
<g id="a_node6"><a xlink:href="struct_corale_1_1_colore_1_1_razer_1_1_effects_1_1_custom.html" target="_top" xlink:title="Describes a custom effect for a system device. ">
<polygon fill="white" stroke="black" points="138.5,-196.5 138.5,-226.5 278.5,-226.5 278.5,-196.5 138.5,-196.5"/>
<text text-anchor="start" x="146.5" y="-214.5" font-family="Helvetica,sans-Serif" font-size="10.00">Corale.Colore.Razer.Effects.</text>
<text text-anchor="middle" x="208.5" y="-203.5" font-family="Helvetica,sans-Serif" font-size="10.00">Custom</text>
</a>
</g>
</g>
<!-- Node33&#45;&gt;Node36 -->
<g id="edge4" class="edge"><title>Node33&#45;&gt;Node36</title>
<path fill="none" stroke="midnightblue" d="M88.7888,-229.419C103.881,-227.141 121.489,-224.483 138.45,-221.923"/>
<polygon fill="midnightblue" stroke="midnightblue" points="88.1465,-225.976 78.7809,-230.929 89.1913,-232.897 88.1465,-225.976"/>
</g>
<!-- Node37 -->
<g id="node7" class="node"><title>Node37</title>
<g id="a_node7"><a xlink:href="struct_corale_1_1_colore_1_1_razer_1_1_keyboard_1_1_effects_1_1_custom.html" target="_top" xlink:title="Describes a custom grid effect for every key. ">
<polygon fill="white" stroke="black" points="133,-147.5 133,-177.5 284,-177.5 284,-147.5 133,-147.5"/>
<text text-anchor="start" x="141" y="-165.5" font-family="Helvetica,sans-Serif" font-size="10.00">Corale.Colore.Razer.Keyboard.</text>
<text text-anchor="middle" x="208.5" y="-154.5" font-family="Helvetica,sans-Serif" font-size="10.00">Effects.Custom</text>
</a>
</g>
</g>
<!-- Node33&#45;&gt;Node37 -->
<g id="edge5" class="edge"><title>Node33&#45;&gt;Node37</title>
<path fill="none" stroke="midnightblue" d="M71.6501,-220.253C87.8123,-210.058 110.143,-196.849 131,-187.5 139.033,-183.899 147.745,-180.557 156.315,-177.564"/>
<polygon fill="midnightblue" stroke="midnightblue" points="69.4368,-217.514 62.9046,-225.856 73.2129,-223.409 69.4368,-217.514"/>
</g>
<!-- Node38 -->
<g id="node8" class="node"><title>Node38</title>
<g id="a_node8"><a xlink:href="struct_corale_1_1_colore_1_1_razer_1_1_keypad_1_1_effects_1_1_custom.html" target="_top" xlink:title="Custom effect. ">
<polygon fill="white" stroke="black" points="137,-98.5 137,-128.5 280,-128.5 280,-98.5 137,-98.5"/>
<text text-anchor="start" x="145" y="-116.5" font-family="Helvetica,sans-Serif" font-size="10.00">Corale.Colore.Razer.Keypad.</text>
<text text-anchor="middle" x="208.5" y="-105.5" font-family="Helvetica,sans-Serif" font-size="10.00">Effects.Custom</text>
</a>
</g>
</g>
<!-- Node33&#45;&gt;Node38 -->
<g id="edge6" class="edge"><title>Node33&#45;&gt;Node38</title>
<path fill="none" stroke="midnightblue" d="M59.4282,-217.385C73.4246,-195.654 99.6556,-159.529 131,-138.5 136.685,-134.686 142.997,-131.415 149.487,-128.621"/>
<polygon fill="midnightblue" stroke="midnightblue" points="56.3803,-215.657 54.0415,-225.991 62.3139,-219.371 56.3803,-215.657"/>
</g>
<!-- Node0 -->
<g id="node9" class="node"><title>Node0</title>
<g id="a_node9"><a xlink:href="struct_corale_1_1_colore_1_1_razer_1_1_mouse_1_1_effects_1_1_custom.html" target="_top" xlink:title="Custom effect for mouse LEDs. ">
<polygon fill="white" stroke="black" points="139,-49.5 139,-79.5 278,-79.5 278,-49.5 139,-49.5"/>
<text text-anchor="start" x="147" y="-67.5" font-family="Helvetica,sans-Serif" font-size="10.00">Corale.Colore.Razer.Mouse.</text>
<text text-anchor="middle" x="208.5" y="-56.5" font-family="Helvetica,sans-Serif" font-size="10.00">Effects.Custom</text>
</a>
</g>
</g>
<!-- Node33&#45;&gt;Node0 -->
<g id="edge7" class="edge"><title>Node33&#45;&gt;Node0</title>
<path fill="none" stroke="midnightblue" d="M54.1406,-216.263C64.317,-184.899 88.7177,-122.81 131,-88.5 135.215,-85.0794 139.922,-82.144 144.872,-79.6254"/>
<polygon fill="midnightblue" stroke="midnightblue" points="50.7465,-215.391 51.1283,-225.979 57.4325,-217.464 50.7465,-215.391"/>
</g>
<!-- Node39 -->
<g id="node10" class="node"><title>Node39</title>
<g id="a_node10"><a xlink:href="struct_corale_1_1_colore_1_1_razer_1_1_mouse_1_1_effects_1_1_custom_grid.html" target="_top" xlink:title="Custom grid effect for mouse LEDs. ">
<polygon fill="white" stroke="black" points="139,-371.5 139,-401.5 278,-401.5 278,-371.5 139,-371.5"/>
<text text-anchor="start" x="147" y="-389.5" font-family="Helvetica,sans-Serif" font-size="10.00">Corale.Colore.Razer.Mouse.</text>
<text text-anchor="middle" x="208.5" y="-378.5" font-family="Helvetica,sans-Serif" font-size="10.00">Effects.CustomGrid</text>
</a>
</g>
</g>
<!-- Node33&#45;&gt;Node39 -->
<g id="edge8" class="edge"><title>Node33&#45;&gt;Node39</title>
<path fill="none" stroke="midnightblue" d="M56.115,-254.654C68.0248,-282.217 93.631,-332.887 131,-361.5 135.992,-365.323 141.593,-368.574 147.435,-371.336"/>
<polygon fill="midnightblue" stroke="midnightblue" points="59.3015,-253.202 52.2252,-245.316 52.8397,-255.893 59.3015,-253.202"/>
</g>
<!-- Node32 -->
<g id="node11" class="node"><title>Node32</title>
<g id="a_node11"><a xlink:href="struct_corale_1_1_colore_1_1_razer_1_1_mousepad_1_1_effects_1_1_custom.html" target="_top" xlink:title="Custom effect for mouse pad. ">
<polygon fill="white" stroke="black" points="131,-0.5 131,-30.5 286,-30.5 286,-0.5 131,-0.5"/>
<text text-anchor="start" x="139" y="-18.5" font-family="Helvetica,sans-Serif" font-size="10.00">Corale.Colore.Razer.Mousepad.</text>
<text text-anchor="middle" x="208.5" y="-7.5" font-family="Helvetica,sans-Serif" font-size="10.00">Effects.Custom</text>
</a>
</g>
</g>
<!-- Node33&#45;&gt;Node32 -->
<g id="edge9" class="edge"><title>Node33&#45;&gt;Node32</title>
<path fill="none" stroke="midnightblue" d="M51.2305,-215.786C57.7152,-176.484 77.6959,-87.9953 131,-39.5 134.81,-36.0341 139.116,-33.0688 143.696,-30.5317"/>
<polygon fill="midnightblue" stroke="midnightblue" points="47.7668,-215.283 49.7142,-225.697 54.6863,-216.342 47.7668,-215.283"/>
</g>
<!-- Node40 -->
<g id="node12" class="node"><title>Node40</title>
<g id="a_node12"><a xlink:href="struct_corale_1_1_colore_1_1_razer_1_1_result.html" target="_top" xlink:title="Struct for containing the result of running a native Chroma SDK function. ">
<polygon fill="white" stroke="black" points="141.5,-333 141.5,-352 275.5,-352 275.5,-333 141.5,-333"/>
<text text-anchor="middle" x="208.5" y="-340" font-family="Helvetica,sans-Serif" font-size="10.00">Corale.Colore.Razer.Result</text>
</a>
</g>
</g>
<!-- Node33&#45;&gt;Node40 -->
<g id="edge10" class="edge"><title>Node33&#45;&gt;Node40</title>
<path fill="none" stroke="midnightblue" d="M60.4485,-253.464C74.8038,-273.606 100.769,-305.765 131,-323.5 137.61,-327.378 144.989,-330.468 152.484,-332.93"/>
<polygon fill="midnightblue" stroke="midnightblue" points="63.2642,-251.382 54.6961,-245.15 57.5077,-255.365 63.2642,-251.382"/>
</g>
<!-- Node30 -->
<g id="node13" class="node"><title>Node30</title>
<polygon fill="white" stroke="#bfbfbf" points="0,-25.5 0,-55.5 95,-55.5 95,-25.5 0,-25.5"/>
<text text-anchor="start" x="8" y="-43.5" font-family="Helvetica,sans-Serif" font-size="10.00">IEquatable&lt; IList&lt;</text>
<text text-anchor="middle" x="47.5" y="-32.5" font-family="Helvetica,sans-Serif" font-size="10.00"> Color &gt;&gt;</text>
</g>
<!-- Node30&#45;&gt;Node0 -->
<g id="edge12" class="edge"><title>Node30&#45;&gt;Node0</title>
<path fill="none" stroke="midnightblue" d="M105.506,-49.1047C116.329,-50.7383 127.757,-52.4633 138.894,-54.1444"/>
<polygon fill="midnightblue" stroke="midnightblue" points="105.756,-45.6028 95.3453,-47.571 104.711,-52.5244 105.756,-45.6028"/>
</g>
<!-- Node30&#45;&gt;Node32 -->
<g id="edge13" class="edge"><title>Node30&#45;&gt;Node32</title>
<path fill="none" stroke="midnightblue" d="M105.271,-31.5738C113.577,-30.2678 122.244,-28.905 130.867,-27.5492"/>
<polygon fill="midnightblue" stroke="midnightblue" points="104.68,-28.1235 95.3453,-33.1344 105.768,-35.0386 104.68,-28.1235"/>
</g>
</g>
</svg>
