<?xml version="1.0" encoding="UTF-8" standalone="no"?>
<!DOCTYPE svg PUBLIC "-//W3C//DTD SVG 1.1//EN"
 "http://www.w3.org/Graphics/SVG/1.1/DTD/svg11.dtd">
<!-- Generated by graphviz version 2.38.0 (20140413.2041)
 -->
<!-- Title: Graphical Class Hierarchy Pages: 1 -->
<svg width="309pt" height="88pt"
 viewBox="0.00 0.00 309.00 88.00" xmlns="http://www.w3.org/2000/svg" xmlns:xlink="http://www.w3.org/1999/xlink">
<g id="graph0" class="graph" transform="scale(1 1) rotate(0) translate(4 84)">
<title>Graphical Class Hierarchy</title>
<polygon fill="white" stroke="none" points="-4,4 -4,-84 305,-84 305,4 -4,4"/>
<!-- Node1 -->
<g id="node1" class="node"><title>Node1</title>
<polygon fill="white" stroke="#bfbfbf" points="1,-52 1,-71 113,-71 113,-52 1,-52"/>
<text text-anchor="middle" x="57" y="-59" font-family="Helvetica,sans-Serif" font-size="10.00">IEquatable&lt; Color[][]&gt;</text>
</g>
<!-- Node2 -->
<g id="node2" class="node"><title>Node2</title>
<g id="a_node2"><a xlink:href="struct_corale_1_1_colore_1_1_razer_1_1_keyboard_1_1_effects_1_1_custom.html" target="_top" xlink:title="Describes a custom grid effect for every key. ">
<polygon fill="white" stroke="black" points="150,-49.5 150,-79.5 301,-79.5 301,-49.5 150,-49.5"/>
<text text-anchor="start" x="158" y="-67.5" font-family="Helvetica,sans-Serif" font-size="10.00">Corale.Colore.Razer.Keyboard.</text>
<text text-anchor="middle" x="225.5" y="-56.5" font-family="Helvetica,sans-Serif" font-size="10.00">Effects.Custom</text>
</a>
</g>
</g>
<!-- Node1&#45;&gt;Node2 -->
<g id="edge1" class="edge"><title>Node1&#45;&gt;Node2</title>
<path fill="none" stroke="midnightblue" d="M123.712,-62.684C132.258,-62.838 141.061,-62.9966 149.741,-63.153"/>
<polygon fill="midnightblue" stroke="midnightblue" points="123.504,-59.1798 113.442,-62.499 123.377,-66.1786 123.504,-59.1798"/>
</g>
<!-- Node3 -->
<g id="node3" class="node"><title>Node3</title>
<g id="a_node3"><a xlink:href="struct_corale_1_1_colore_1_1_razer_1_1_keypad_1_1_effects_1_1_custom.html" target="_top" xlink:title="Custom effect. ">
<polygon fill="white" stroke="black" points="154,-0.5 154,-30.5 297,-30.5 297,-0.5 154,-0.5"/>
<text text-anchor="start" x="162" y="-18.5" font-family="Helvetica,sans-Serif" font-size="10.00">Corale.Colore.Razer.Keypad.</text>
<text text-anchor="middle" x="225.5" y="-7.5" font-family="Helvetica,sans-Serif" font-size="10.00">Effects.Custom</text>
</a>
</g>
</g>
<!-- Node1&#45;&gt;Node3 -->
<g id="edge2" class="edge"><title>Node1&#45;&gt;Node3</title>
<path fill="none" stroke="midnightblue" d="M102.341,-49.2496C123.139,-43.5036 148.117,-36.6029 170.052,-30.5427"/>
<polygon fill="midnightblue" stroke="midnightblue" points="101.206,-45.9321 92.4989,-51.9688 103.07,-52.6793 101.206,-45.9321"/>
</g>
<!-- Node4 -->
<g id="node4" class="node"><title>Node4</title>
<polygon fill="white" stroke="#bfbfbf" points="0,-11 0,-30 114,-30 114,-11 0,-11"/>
<text text-anchor="middle" x="57" y="-18" font-family="Helvetica,sans-Serif" font-size="10.00">IEquatable&lt; Custom &gt;</text>
</g>
<!-- Node4&#45;&gt;Node2 -->
<g id="edge3" class="edge"><title>Node4&#45;&gt;Node2</title>
<path fill="none" stroke="midnightblue" d="M104.048,-32.6687C123.682,-37.8574 146.792,-43.9646 167.491,-49.4346"/>
<polygon fill="midnightblue" stroke="midnightblue" points="104.69,-29.2185 94.128,-30.0473 102.902,-35.9862 104.69,-29.2185"/>
</g>
<!-- Node4&#45;&gt;Node3 -->
<g id="edge4" class="edge"><title>Node4&#45;&gt;Node3</title>
<path fill="none" stroke="midnightblue" d="M124.614,-18.4996C134.189,-18.212 144.071,-17.9153 153.723,-17.6254"/>
<polygon fill="midnightblue" stroke="midnightblue" points="124.26,-15.0085 114.369,-18.8072 124.47,-22.0054 124.26,-15.0085"/>
</g>
</g>
</svg>
