<?xml version="1.0" encoding="UTF-8" standalone="no"?>
<!DOCTYPE svg PUBLIC "-//W3C//DTD SVG 1.1//EN"
 "http://www.w3.org/Graphics/SVG/1.1/DTD/svg11.dtd">
<!-- Generated by graphviz version 2.38.0 (20140413.2041)
 -->
<!-- Title: Corale.Colore.Core.IChromaLink Pages: 1 -->
<svg width="163pt" height="140pt"
 viewBox="0.00 0.00 163.00 140.00" xmlns="http://www.w3.org/2000/svg" xmlns:xlink="http://www.w3.org/1999/xlink">
<g id="graph0" class="graph" transform="scale(1 1) rotate(0) translate(4 136)">
<title>Corale.Colore.Core.IChromaLink</title>
<polygon fill="white" stroke="none" points="-4,4 -4,-136 159,-136 159,4 -4,4"/>
<!-- Node0 -->
<g id="node1" class="node"><title>Node0</title>
<polygon fill="#bfbfbf" stroke="black" points="0,-56.5 0,-75.5 155,-75.5 155,-56.5 0,-56.5"/>
<text text-anchor="middle" x="77.5" y="-63.5" font-family="Helvetica,sans-Serif" font-size="10.00">Corale.Colore.Core.IChromaLink</text>
</g>
<!-- Node2 -->
<g id="node3" class="node"><title>Node2</title>
<g id="a_node3"><a xlink:href="class_corale_1_1_colore_1_1_core_1_1_chroma_link.html" target="_top" xlink:title="Class for interacting with a Chroma Link. ">
<polygon fill="white" stroke="black" points="1,-0.5 1,-19.5 154,-19.5 154,-0.5 1,-0.5"/>
<text text-anchor="middle" x="77.5" y="-7.5" font-family="Helvetica,sans-Serif" font-size="10.00">Corale.Colore.Core.ChromaLink</text>
</a>
</g>
</g>
<!-- Node0&#45;&gt;Node2 -->
<g id="edge2" class="edge"><title>Node0&#45;&gt;Node2</title>
<path fill="none" stroke="midnightblue" d="M77.5,-45.8045C77.5,-36.9102 77.5,-26.7798 77.5,-19.7511"/>
<polygon fill="midnightblue" stroke="midnightblue" points="74.0001,-46.083 77.5,-56.083 81.0001,-46.083 74.0001,-46.083"/>
</g>
<!-- Node1 -->
<g id="node2" class="node"><title>Node1</title>
<g id="a_node2"><a xlink:href="interface_corale_1_1_colore_1_1_core_1_1_i_device.html" target="_top" xlink:title="Interface for functionality common with all devices. ">
<polygon fill="white" stroke="black" points="54,-112.5 54,-131.5 101,-131.5 101,-112.5 54,-112.5"/>
<text text-anchor="middle" x="77.5" y="-119.5" font-family="Helvetica,sans-Serif" font-size="10.00">IDevice</text>
</a>
</g>
</g>
<!-- Node1&#45;&gt;Node0 -->
<g id="edge1" class="edge"><title>Node1&#45;&gt;Node0</title>
<path fill="none" stroke="midnightblue" d="M77.5,-101.805C77.5,-92.9102 77.5,-82.7798 77.5,-75.7511"/>
<polygon fill="midnightblue" stroke="midnightblue" points="74.0001,-102.083 77.5,-112.083 81.0001,-102.083 74.0001,-102.083"/>
</g>
</g>
</svg>
