<?xml version="1.0" encoding="UTF-8" standalone="no"?>
<!DOCTYPE svg PUBLIC "-//W3C//DTD SVG 1.1//EN"
 "http://www.w3.org/Graphics/SVG/1.1/DTD/svg11.dtd">
<!-- Generated by graphviz version 2.38.0 (20140413.2041)
 -->
<!-- Title: Corale.Colore.Core.IDevice Pages: 1 -->
<!--zoomable 268 -->
<svg id="main" version="1.1" xmlns="http://www.w3.org/2000/svg" xmlns:xlink="http://www.w3.org/1999/xlink" xml:space="preserve" onload="init(evt)">
<style type="text/css"><![CDATA[
.edge:hover path { stroke: red; }
.edge:hover polygon { stroke: red; fill: red; }
]]></style>
<script type="text/javascript"><![CDATA[
var edges = document.getElementsByTagName('g');
if (edges && edges.length) {
  for (var i=0;i<edges.length;i++) {
    if (edges[i].id.substr(0,4)=='edge') {
      edges[i].setAttribute('class','edge');
    }
  }
}
]]></script>
        <defs>
                <circle id="rim" cx="0" cy="0" r="7"/>
                <circle id="rim2" cx="0" cy="0" r="3.5"/>
                <g id="zoomPlus">
                        <use xlink:href="#rim" fill="#404040">
                                <set attributeName="fill" to="#808080" begin="zoomplus.mouseover" end="zoomplus.mouseout"/>
                        </use>
                        <path d="M-4,0h8M0,-4v8" fill="none" stroke="white" stroke-width="1.5" pointer-events="none"/>
                </g>
                <g id="zoomMin">
                        <use xlink:href="#rim" fill="#404040">
                                <set attributeName="fill" to="#808080" begin="zoomminus.mouseover" end="zoomminus.mouseout"/>
                        </use>
                        <path d="M-4,0h8" fill="none" stroke="white" stroke-width="1.5" pointer-events="none"/>
                </g>
                <g id="dirArrow">
                        <path fill="none" stroke="white" stroke-width="1.5" d="M0,-3.0v7 M-2.5,-0.5L0,-3.0L2.5,-0.5"/>
                </g>
               <g id="resetDef">
                       <use xlink:href="#rim2" fill="#404040">
                               <set attributeName="fill" to="#808080" begin="reset.mouseover" end="reset.mouseout"/>
                       </use>
               </g>
        </defs>

<script type="text/javascript">
var viewWidth = 507;
var viewHeight = 268;
var sectionId = 'dynsection-0';
</script>
<script xlink:href="svgpan.js"/>
<svg id="graph" class="graph">
<g id="viewport">
<title>Corale.Colore.Core.IDevice</title>
<polygon fill="white" stroke="none" points="-4,4 -4,-263.5 503,-263.5 503,4 -4,4"/>
<!-- Node1 -->
<g id="node1" class="node"><title>Node1</title>
<polygon fill="#bfbfbf" stroke="black" points="0,-114.5 0,-133.5 132,-133.5 132,-114.5 0,-114.5"/>
<text text-anchor="middle" x="66" y="-121.5" font-family="Helvetica,sans-Serif" font-size="10.00">Corale.Colore.Core.IDevice</text>
</g>
<!-- Node2 -->
<g id="node2" class="node"><title>Node2</title>
<g id="a_node2"><a xlink:href="class_corale_1_1_colore_1_1_core_1_1_device.html" target="_top" xlink:title="Base class for devices, containing code common between all devices. ">
<polygon fill="white" stroke="black" points="177.5,-114.5 177.5,-133.5 307.5,-133.5 307.5,-114.5 177.5,-114.5"/>
<text text-anchor="middle" x="242.5" y="-121.5" font-family="Helvetica,sans-Serif" font-size="10.00">Corale.Colore.Core.Device</text>
</a>
</g>
</g>
<!-- Node1&#45;&gt;Node2 -->
<g id="edge1" class="edge"><title>Node1&#45;&gt;Node2</title>
<path fill="none" stroke="midnightblue" d="M142.58,-124C154.186,-124 166.072,-124 177.398,-124"/>
<polygon fill="midnightblue" stroke="midnightblue" points="142.474,-120.5 132.474,-124 142.474,-127.5 142.474,-120.5"/>
</g>
<!-- Node9 -->
<g id="node9" class="node"><title>Node9</title>
<g id="a_node9"><a xlink:href="interface_corale_1_1_colore_1_1_core_1_1_i_generic_device.html" target="_top" xlink:title="Interface for generic devices. ">
<polygon fill="white" stroke="black" points="174,-229 174,-259 311,-259 311,-229 174,-229"/>
<text text-anchor="start" x="182" y="-247" font-family="Helvetica,sans-Serif" font-size="10.00">Corale.Colore.Core.IGeneric</text>
<text text-anchor="middle" x="242.5" y="-236" font-family="Helvetica,sans-Serif" font-size="10.00">Device</text>
</a>
</g>
</g>
<!-- Node1&#45;&gt;Node9 -->
<g id="edge8" class="edge"><title>Node1&#45;&gt;Node9</title>
<path fill="none" stroke="midnightblue" d="M81.4994,-141.632C99.6996,-162.73 132.823,-197.85 168,-219 174.238,-222.75 181.114,-226.031 188.083,-228.873"/>
<polygon fill="midnightblue" stroke="midnightblue" points="83.9906,-139.158 74.8602,-133.783 78.6462,-143.679 83.9906,-139.158"/>
</g>
<!-- Node10 -->
<g id="node10" class="node"><title>Node10</title>
<g id="a_node10"><a xlink:href="interface_corale_1_1_colore_1_1_core_1_1_i_headset.html" target="_top" xlink:title="Interface for headset functionality. ">
<polygon fill="white" stroke="black" points="172.5,-190.5 172.5,-209.5 312.5,-209.5 312.5,-190.5 172.5,-190.5"/>
<text text-anchor="middle" x="242.5" y="-197.5" font-family="Helvetica,sans-Serif" font-size="10.00">Corale.Colore.Core.IHeadset</text>
</a>
</g>
</g>
<!-- Node1&#45;&gt;Node10 -->
<g id="edge10" class="edge"><title>Node1&#45;&gt;Node10</title>
<path fill="none" stroke="midnightblue" d="M89.7758,-139.143C109.702,-151.822 139.79,-169.622 168,-181 177.167,-184.698 187.272,-187.859 196.977,-190.482"/>
<polygon fill="midnightblue" stroke="midnightblue" points="91.4198,-136.038 81.1213,-133.55 87.6203,-141.917 91.4198,-136.038"/>
</g>
<!-- Node11 -->
<g id="node11" class="node"><title>Node11</title>
<g id="a_node11"><a xlink:href="interface_corale_1_1_colore_1_1_core_1_1_i_keyboard.html" target="_top" xlink:title="Interface for keyboard functionality. ">
<polygon fill="white" stroke="black" points="170,-152.5 170,-171.5 315,-171.5 315,-152.5 170,-152.5"/>
<text text-anchor="middle" x="242.5" y="-159.5" font-family="Helvetica,sans-Serif" font-size="10.00">Corale.Colore.Core.IKeyboard</text>
</a>
</g>
</g>
<!-- Node1&#45;&gt;Node11 -->
<g id="edge12" class="edge"><title>Node1&#45;&gt;Node11</title>
<path fill="none" stroke="midnightblue" d="M120.969,-135.753C145.643,-141.126 174.495,-147.409 197.783,-152.48"/>
<polygon fill="midnightblue" stroke="midnightblue" points="121.549,-132.297 111.034,-133.589 120.06,-139.137 121.549,-132.297"/>
</g>
<!-- Node12 -->
<g id="node12" class="node"><title>Node12</title>
<g id="a_node12"><a xlink:href="interface_corale_1_1_colore_1_1_core_1_1_i_keypad.html" target="_top" xlink:title="Interface for keypad functions. ">
<polygon fill="white" stroke="black" points="174,-76.5 174,-95.5 311,-95.5 311,-76.5 174,-76.5"/>
<text text-anchor="middle" x="242.5" y="-83.5" font-family="Helvetica,sans-Serif" font-size="10.00">Corale.Colore.Core.IKeypad</text>
</a>
</g>
</g>
<!-- Node1&#45;&gt;Node12 -->
<g id="edge14" class="edge"><title>Node1&#45;&gt;Node12</title>
<path fill="none" stroke="midnightblue" d="M120.969,-112.247C145.643,-106.874 174.495,-100.591 197.783,-95.5201"/>
<polygon fill="midnightblue" stroke="midnightblue" points="120.06,-108.863 111.034,-114.411 121.549,-115.703 120.06,-108.863"/>
</g>
<!-- Node13 -->
<g id="node13" class="node"><title>Node13</title>
<g id="a_node13"><a xlink:href="interface_corale_1_1_colore_1_1_core_1_1_i_mouse.html" target="_top" xlink:title="Interface for mouse functionality. ">
<polygon fill="white" stroke="black" points="176,-38.5 176,-57.5 309,-57.5 309,-38.5 176,-38.5"/>
<text text-anchor="middle" x="242.5" y="-45.5" font-family="Helvetica,sans-Serif" font-size="10.00">Corale.Colore.Core.IMouse</text>
</a>
</g>
</g>
<!-- Node1&#45;&gt;Node13 -->
<g id="edge16" class="edge"><title>Node1&#45;&gt;Node13</title>
<path fill="none" stroke="midnightblue" d="M89.7758,-108.857C109.702,-96.1777 139.79,-78.3781 168,-67 177.167,-63.3025 187.272,-60.1407 196.977,-57.5181"/>
<polygon fill="midnightblue" stroke="midnightblue" points="87.6203,-106.083 81.1213,-114.45 91.4198,-111.962 87.6203,-106.083"/>
</g>
<!-- Node14 -->
<g id="node14" class="node"><title>Node14</title>
<g id="a_node14"><a xlink:href="interface_corale_1_1_colore_1_1_core_1_1_i_mousepad.html" target="_top" xlink:title="Interface for mouse pad functionality. ">
<polygon fill="white" stroke="black" points="168,-0.5 168,-19.5 317,-19.5 317,-0.5 168,-0.5"/>
<text text-anchor="middle" x="242.5" y="-7.5" font-family="Helvetica,sans-Serif" font-size="10.00">Corale.Colore.Core.IMousepad</text>
</a>
</g>
</g>
<!-- Node1&#45;&gt;Node14 -->
<g id="edge18" class="edge"><title>Node1&#45;&gt;Node14</title>
<path fill="none" stroke="midnightblue" d="M80.9664,-106.254C98.8484,-84.7472 131.87,-48.9201 168,-29 175.041,-25.1182 182.899,-22.0075 190.786,-19.5209"/>
<polygon fill="midnightblue" stroke="midnightblue" points="78.0596,-104.282 74.4689,-114.249 83.4919,-108.696 78.0596,-104.282"/>
</g>
<!-- Node3 -->
<g id="node3" class="node"><title>Node3</title>
<g id="a_node3"><a xlink:href="class_corale_1_1_colore_1_1_core_1_1_generic_device.html" target="_top" xlink:title="A generic device. ">
<polygon fill="white" stroke="black" points="358.5,-226 358.5,-256 493.5,-256 493.5,-226 358.5,-226"/>
<text text-anchor="start" x="366.5" y="-244" font-family="Helvetica,sans-Serif" font-size="10.00">Corale.Colore.Core.Generic</text>
<text text-anchor="middle" x="426" y="-233" font-family="Helvetica,sans-Serif" font-size="10.00">Device</text>
</a>
</g>
</g>
<!-- Node2&#45;&gt;Node3 -->
<g id="edge2" class="edge"><title>Node2&#45;&gt;Node3</title>
<path fill="none" stroke="midnightblue" d="M309.53,-138.073C312.144,-139.555 314.649,-141.192 317,-143 342.868,-162.898 329.116,-184.759 353,-207 361.296,-214.725 371.664,-220.989 381.926,-225.937"/>
<polygon fill="midnightblue" stroke="midnightblue" points="310.813,-134.806 300.286,-133.608 307.768,-141.109 310.813,-134.806"/>
</g>
<!-- Node4 -->
<g id="node4" class="node"><title>Node4</title>
<g id="a_node4"><a xlink:href="class_corale_1_1_colore_1_1_core_1_1_headset.html" target="_top" xlink:title="Class for interacting with Chroma Headsets. ">
<polygon fill="white" stroke="black" points="357.5,-178.5 357.5,-197.5 494.5,-197.5 494.5,-178.5 357.5,-178.5"/>
<text text-anchor="middle" x="426" y="-185.5" font-family="Helvetica,sans-Serif" font-size="10.00">Corale.Colore.Core.Headset</text>
</a>
</g>
</g>
<!-- Node2&#45;&gt;Node4 -->
<g id="edge3" class="edge"><title>Node2&#45;&gt;Node4</title>
<path fill="none" stroke="midnightblue" d="M294.5,-136.182C302.094,-138.285 309.789,-140.579 317,-143 348.195,-153.472 383.158,-168.711 404.628,-178.49"/>
<polygon fill="midnightblue" stroke="midnightblue" points="295.189,-132.743 284.623,-133.534 293.376,-139.504 295.189,-132.743"/>
</g>
<!-- Node5 -->
<g id="node5" class="node"><title>Node5</title>
<g id="a_node5"><a xlink:href="class_corale_1_1_colore_1_1_core_1_1_keyboard.html" target="_top" xlink:title="Class for interacting with a Chroma keyboard. ">
<polygon fill="white" stroke="black" points="354.5,-121.5 354.5,-140.5 497.5,-140.5 497.5,-121.5 354.5,-121.5"/>
<text text-anchor="middle" x="426" y="-128.5" font-family="Helvetica,sans-Serif" font-size="10.00">Corale.Colore.Core.Keyboard</text>
</a>
</g>
</g>
<!-- Node2&#45;&gt;Node5 -->
<g id="edge4" class="edge"><title>Node2&#45;&gt;Node5</title>
<path fill="none" stroke="midnightblue" d="M317.784,-126.865C329.871,-127.331 342.362,-127.813 354.358,-128.276"/>
<polygon fill="midnightblue" stroke="midnightblue" points="317.873,-123.366 307.746,-126.478 317.603,-130.361 317.873,-123.366"/>
</g>
<!-- Node6 -->
<g id="node6" class="node"><title>Node6</title>
<g id="a_node6"><a xlink:href="class_corale_1_1_colore_1_1_core_1_1_keypad.html" target="_top" xlink:title="Class for interacting with a Chroma keypad. ">
<polygon fill="white" stroke="black" points="359,-78.5 359,-97.5 493,-97.5 493,-78.5 359,-78.5"/>
<text text-anchor="middle" x="426" y="-85.5" font-family="Helvetica,sans-Serif" font-size="10.00">Corale.Colore.Core.Keypad</text>
</a>
</g>
</g>
<!-- Node2&#45;&gt;Node6 -->
<g id="edge5" class="edge"><title>Node2&#45;&gt;Node6</title>
<path fill="none" stroke="midnightblue" d="M301.489,-112.498C325.817,-107.673 353.772,-102.128 376.928,-97.5349"/>
<polygon fill="midnightblue" stroke="midnightblue" points="300.79,-109.068 291.662,-114.447 302.152,-115.935 300.79,-109.068"/>
</g>
<!-- Node7 -->
<g id="node7" class="node"><title>Node7</title>
<g id="a_node7"><a xlink:href="class_corale_1_1_colore_1_1_core_1_1_mouse.html" target="_top" xlink:title="Class for interacting with a Chroma mouse. ">
<polygon fill="white" stroke="black" points="360.5,-38.5 360.5,-57.5 491.5,-57.5 491.5,-38.5 360.5,-38.5"/>
<text text-anchor="middle" x="426" y="-45.5" font-family="Helvetica,sans-Serif" font-size="10.00">Corale.Colore.Core.Mouse</text>
</a>
</g>
</g>
<!-- Node2&#45;&gt;Node7 -->
<g id="edge6" class="edge"><title>Node2&#45;&gt;Node7</title>
<path fill="none" stroke="midnightblue" d="M304.636,-110.949C308.929,-109.204 313.097,-107.231 317,-105 336.646,-93.773 333.53,-80.5285 353,-69 361.067,-64.2235 370.292,-60.4726 379.385,-57.5483"/>
<polygon fill="midnightblue" stroke="midnightblue" points="303.297,-107.712 295.093,-114.417 305.687,-114.291 303.297,-107.712"/>
</g>
<!-- Node8 -->
<g id="node8" class="node"><title>Node8</title>
<g id="a_node8"><a xlink:href="class_corale_1_1_colore_1_1_core_1_1_mousepad.html" target="_top" xlink:title="Class for interacting with a Chroma mouse pad. ">
<polygon fill="white" stroke="black" points="353,-0.5 353,-19.5 499,-19.5 499,-0.5 353,-0.5"/>
<text text-anchor="middle" x="426" y="-7.5" font-family="Helvetica,sans-Serif" font-size="10.00">Corale.Colore.Core.Mousepad</text>
</a>
</g>
</g>
<!-- Node2&#45;&gt;Node8 -->
<g id="edge7" class="edge"><title>Node2&#45;&gt;Node8</title>
<path fill="none" stroke="midnightblue" d="M310.502,-109.637C312.778,-108.231 314.955,-106.69 317,-105 345.809,-81.189 324.251,-52.8835 353,-29 357.674,-25.1173 363.058,-22.0198 368.735,-19.5502"/>
<polygon fill="midnightblue" stroke="midnightblue" points="308.561,-106.702 301.299,-114.417 311.787,-112.914 308.561,-106.702"/>
</g>
<!-- Node9&#45;&gt;Node3 -->
<g id="edge9" class="edge"><title>Node9&#45;&gt;Node3</title>
<path fill="none" stroke="midnightblue" d="M321.32,-242.714C333.622,-242.51 346.247,-242.302 358.266,-242.103"/>
<polygon fill="midnightblue" stroke="midnightblue" points="321.025,-239.218 311.084,-242.883 321.14,-246.217 321.025,-239.218"/>
</g>
<!-- Node10&#45;&gt;Node4 -->
<g id="edge11" class="edge"><title>Node10&#45;&gt;Node4</title>
<path fill="none" stroke="midnightblue" d="M322.68,-194.765C334.206,-194.003 345.985,-193.224 357.257,-192.479"/>
<polygon fill="midnightblue" stroke="midnightblue" points="322.382,-191.277 312.635,-195.429 322.844,-198.262 322.382,-191.277"/>
</g>
<!-- Node11&#45;&gt;Node5 -->
<g id="edge13" class="edge"><title>Node11&#45;&gt;Node5</title>
<path fill="none" stroke="midnightblue" d="M309.511,-150.725C329.108,-147.378 350.371,-143.747 369.248,-140.522"/>
<polygon fill="midnightblue" stroke="midnightblue" points="308.705,-147.312 299.437,-152.446 309.884,-154.212 308.705,-147.312"/>
</g>
<!-- Node12&#45;&gt;Node6 -->
<g id="edge15" class="edge"><title>Node12&#45;&gt;Node6</title>
<path fill="none" stroke="midnightblue" d="M321.456,-86.859C333.92,-86.9964 346.713,-87.1373 358.869,-87.2713"/>
<polygon fill="midnightblue" stroke="midnightblue" points="321.122,-83.3552 311.084,-86.7447 321.045,-90.3548 321.122,-83.3552"/>
</g>
<!-- Node13&#45;&gt;Node7 -->
<g id="edge17" class="edge"><title>Node13&#45;&gt;Node7</title>
<path fill="none" stroke="midnightblue" d="M319.368,-48C333.039,-48 347.173,-48 360.483,-48"/>
<polygon fill="midnightblue" stroke="midnightblue" points="319.026,-44.5001 309.026,-48 319.026,-51.5001 319.026,-44.5001"/>
</g>
<!-- Node14&#45;&gt;Node8 -->
<g id="edge19" class="edge"><title>Node14&#45;&gt;Node8</title>
<path fill="none" stroke="midnightblue" d="M327.087,-10C335.678,-10 344.354,-10 352.806,-10"/>
<polygon fill="midnightblue" stroke="midnightblue" points="327.061,-6.5001 317.061,-10 327.061,-13.5001 327.061,-6.5001"/>
</g>
</g>
</svg>
        <g id="navigator" transform="translate(0 0)" fill="#404254">
                <rect fill="#f2f5e9" fill-opacity="0.5" stroke="#606060" stroke-width=".5" x="0" y="0" width="60" height="60"/>
                <use id="zoomplus" xlink:href="#zoomPlus" x="17" y="9" onmousedown="handleZoom(evt,'in')"/>
                <use id="zoomminus" xlink:href="#zoomMin" x="42" y="9" onmousedown="handleZoom(evt,'out')"/>
                <use id="reset" xlink:href="#resetDef" x="30" y="36" onmousedown="handleReset()"/>
                <g id="arrowUp" xlink:href="#dirArrow" transform="translate(30 24)" onmousedown="handlePan(0,-1)">
                  <use xlink:href="#rim" fill="#404040">
                        <set attributeName="fill" to="#808080" begin="arrowUp.mouseover" end="arrowUp.mouseout"/>
                  </use>
                  <path fill="none" stroke="white" stroke-width="1.5" d="M0,-3.0v7 M-2.5,-0.5L0,-3.0L2.5,-0.5"/>
                </g>
                <g id="arrowRight" xlink:href="#dirArrow" transform="rotate(90) translate(36 -43)" onmousedown="handlePan(1,0)">
                  <use xlink:href="#rim" fill="#404040">
                        <set attributeName="fill" to="#808080" begin="arrowRight.mouseover" end="arrowRight.mouseout"/>
                  </use>
                  <path fill="none" stroke="white" stroke-width="1.5" d="M0,-3.0v7 M-2.5,-0.5L0,-3.0L2.5,-0.5"/>
                </g>
                <g id="arrowDown" xlink:href="#dirArrow" transform="rotate(180) translate(-30 -48)" onmousedown="handlePan(0,1)">
                  <use xlink:href="#rim" fill="#404040">
                        <set attributeName="fill" to="#808080" begin="arrowDown.mouseover" end="arrowDown.mouseout"/>
                  </use>
                  <path fill="none" stroke="white" stroke-width="1.5" d="M0,-3.0v7 M-2.5,-0.5L0,-3.0L2.5,-0.5"/>
                </g>
                <g id="arrowLeft" xlink:href="#dirArrow" transform="rotate(270) translate(-36 17)" onmousedown="handlePan(-1,0)">
                  <use xlink:href="#rim" fill="#404040">
                        <set attributeName="fill" to="#808080" begin="arrowLeft.mouseover" end="arrowLeft.mouseout"/>
                  </use>
                  <path fill="none" stroke="white" stroke-width="1.5" d="M0,-3.0v7 M-2.5,-0.5L0,-3.0L2.5,-0.5"/>
                </g>
        </g>
        <svg viewBox="0 0 15 15" width="100%" height="30px" preserveAspectRatio="xMaxYMin meet">
         <g id="arrow_out" transform="scale(0.3 0.3)">
          <a xlink:href="interface_corale_1_1_colore_1_1_core_1_1_i_device__inherit__graph_org.svg" target="_base">
           <rect id="button" ry="5" rx="5" y="6" x="6" height="38" width="38"
                fill="#f2f5e9" fill-opacity="0.5" stroke="#606060" stroke-width="1.0"/>
           <path id="arrow"
             d="M 11.500037,31.436501 C 11.940474,20.09759 22.043105,11.32322 32.158766,21.979434 L 37.068811,17.246167 C 37.068811,17.246167 37.088388,32 37.088388,32 L 22.160133,31.978069 C 22.160133,31.978069 26.997745,27.140456 26.997745,27.140456 C 18.528582,18.264221 13.291696,25.230495 11.500037,31.436501 z"
             style="fill:#404040;"/>
          </a>
         </g>
        </svg>
</svg>
