<?xml version="1.0" encoding="UTF-8" standalone="no"?>
<!DOCTYPE svg PUBLIC "-//W3C//DTD SVG 1.1//EN"
 "http://www.w3.org/Graphics/SVG/1.1/DTD/svg11.dtd">
<!-- Generated by graphviz version 2.38.0 (20140413.2041)
 -->
<!-- Title: Corale.Colore.Core.IDevice Pages: 1 -->
<!--zoomable 306 -->
<svg id="main" version="1.1" xmlns="http://www.w3.org/2000/svg" xmlns:xlink="http://www.w3.org/1999/xlink" xml:space="preserve" onload="init(evt)">
<style type="text/css"><![CDATA[
.edge:hover path { stroke: red; }
.edge:hover polygon { stroke: red; fill: red; }
]]></style>
<script type="text/javascript"><![CDATA[
var edges = document.getElementsByTagName('g');
if (edges && edges.length) {
  for (var i=0;i<edges.length;i++) {
    if (edges[i].id.substr(0,4)=='edge') {
      edges[i].setAttribute('class','edge');
    }
  }
}
]]></script>
        <defs>
                <circle id="rim" cx="0" cy="0" r="7"/>
                <circle id="rim2" cx="0" cy="0" r="3.5"/>
                <g id="zoomPlus">
                        <use xlink:href="#rim" fill="#404040">
                                <set attributeName="fill" to="#808080" begin="zoomplus.mouseover" end="zoomplus.mouseout"/>
                        </use>
                        <path d="M-4,0h8M0,-4v8" fill="none" stroke="white" stroke-width="1.5" pointer-events="none"/>
                </g>
                <g id="zoomMin">
                        <use xlink:href="#rim" fill="#404040">
                                <set attributeName="fill" to="#808080" begin="zoomminus.mouseover" end="zoomminus.mouseout"/>
                        </use>
                        <path d="M-4,0h8" fill="none" stroke="white" stroke-width="1.5" pointer-events="none"/>
                </g>
                <g id="dirArrow">
                        <path fill="none" stroke="white" stroke-width="1.5" d="M0,-3.0v7 M-2.5,-0.5L0,-3.0L2.5,-0.5"/>
                </g>
               <g id="resetDef">
                       <use xlink:href="#rim2" fill="#404040">
                               <set attributeName="fill" to="#808080" begin="reset.mouseover" end="reset.mouseout"/>
                       </use>
               </g>
        </defs>

<script type="text/javascript">
var viewWidth = 520;
var viewHeight = 306;
var sectionId = 'dynsection-0';
</script>
<script xlink:href="svgpan.js"/>
<svg id="graph" class="graph">
<g id="viewport">
<title>Corale.Colore.Core.IDevice</title>
<polygon fill="white" stroke="none" points="-4,4 -4,-302 516,-302 516,4 -4,4"/>
<!-- Node0 -->
<g id="node1" class="node"><title>Node0</title>
<polygon fill="#bfbfbf" stroke="black" points="0,-133.5 0,-152.5 132,-152.5 132,-133.5 0,-133.5"/>
<text text-anchor="middle" x="66" y="-140.5" font-family="Helvetica,sans-Serif" font-size="10.00">Corale.Colore.Core.IDevice</text>
</g>
<!-- Node1 -->
<g id="node2" class="node"><title>Node1</title>
<g id="a_node2"><a xlink:href="class_corale_1_1_colore_1_1_core_1_1_device.html" target="_top" xlink:title="Base class for devices, containing code common between all devices. ">
<polygon fill="white" stroke="black" points="180.5,-152.5 180.5,-171.5 310.5,-171.5 310.5,-152.5 180.5,-152.5"/>
<text text-anchor="middle" x="245.5" y="-159.5" font-family="Helvetica,sans-Serif" font-size="10.00">Corale.Colore.Core.Device</text>
</a>
</g>
</g>
<!-- Node0&#45;&gt;Node1 -->
<g id="edge1" class="edge"><title>Node0&#45;&gt;Node1</title>
<path fill="none" stroke="midnightblue" d="M142.164,-151.046C154.857,-152.404 167.93,-153.804 180.311,-155.129"/>
<polygon fill="midnightblue" stroke="midnightblue" points="142.402,-147.551 132.087,-149.967 141.657,-154.512 142.402,-147.551"/>
</g>
<!-- Node9 -->
<g id="node10" class="node"><title>Node9</title>
<g id="a_node10"><a xlink:href="interface_corale_1_1_colore_1_1_core_1_1_i_chroma_link.html" target="_top" xlink:title="Interface for Chroma Link functionality. ">
<polygon fill="white" stroke="black" points="168,-278.5 168,-297.5 323,-297.5 323,-278.5 168,-278.5"/>
<text text-anchor="middle" x="245.5" y="-285.5" font-family="Helvetica,sans-Serif" font-size="10.00">Corale.Colore.Core.IChromaLink</text>
</a>
</g>
</g>
<!-- Node0&#45;&gt;Node9 -->
<g id="edge9" class="edge"><title>Node0&#45;&gt;Node9</title>
<path fill="none" stroke="midnightblue" d="M76.7453,-161.747C92.2179,-189.594 125.096,-241.544 168,-269 174.109,-272.909 180.968,-276.014 188.003,-278.481"/>
<polygon fill="midnightblue" stroke="midnightblue" points="79.6752,-159.807 71.846,-152.668 73.5149,-163.131 79.6752,-159.807"/>
</g>
<!-- Node10 -->
<g id="node11" class="node"><title>Node10</title>
<g id="a_node11"><a xlink:href="interface_corale_1_1_colore_1_1_core_1_1_i_generic_device.html" target="_top" xlink:title="Interface for generic devices. ">
<polygon fill="white" stroke="black" points="177,-229 177,-259 314,-259 314,-229 177,-229"/>
<text text-anchor="start" x="185" y="-247" font-family="Helvetica,sans-Serif" font-size="10.00">Corale.Colore.Core.IGeneric</text>
<text text-anchor="middle" x="245.5" y="-236" font-family="Helvetica,sans-Serif" font-size="10.00">Device</text>
</a>
</g>
</g>
<!-- Node0&#45;&gt;Node10 -->
<g id="edge11" class="edge"><title>Node0&#45;&gt;Node10</title>
<path fill="none" stroke="midnightblue" d="M85.0925,-159.562C104.394,-176.492 136.47,-202.567 168,-219 175.186,-222.746 183.043,-226.077 190.898,-228.99"/>
<polygon fill="midnightblue" stroke="midnightblue" points="87.1992,-156.751 77.4062,-152.708 82.5404,-161.976 87.1992,-156.751"/>
</g>
<!-- Node11 -->
<g id="node12" class="node"><title>Node11</title>
<g id="a_node12"><a xlink:href="interface_corale_1_1_colore_1_1_core_1_1_i_headset.html" target="_top" xlink:title="Interface for headset functionality. ">
<polygon fill="white" stroke="black" points="175.5,-190.5 175.5,-209.5 315.5,-209.5 315.5,-190.5 175.5,-190.5"/>
<text text-anchor="middle" x="245.5" y="-197.5" font-family="Helvetica,sans-Serif" font-size="10.00">Corale.Colore.Core.IHeadset</text>
</a>
</g>
</g>
<!-- Node0&#45;&gt;Node11 -->
<g id="edge13" class="edge"><title>Node0&#45;&gt;Node11</title>
<path fill="none" stroke="midnightblue" d="M99.4015,-156.291C119.05,-164.073 144.739,-173.762 168,-181 178.976,-184.415 190.986,-187.635 202.169,-190.419"/>
<polygon fill="midnightblue" stroke="midnightblue" points="100.585,-152.994 90.0006,-152.53 97.9854,-159.494 100.585,-152.994"/>
</g>
<!-- Node12 -->
<g id="node13" class="node"><title>Node12</title>
<g id="a_node13"><a xlink:href="interface_corale_1_1_colore_1_1_core_1_1_i_keyboard.html" target="_top" xlink:title="Interface for keyboard functionality. ">
<polygon fill="white" stroke="black" points="173,-114.5 173,-133.5 318,-133.5 318,-114.5 173,-114.5"/>
<text text-anchor="middle" x="245.5" y="-121.5" font-family="Helvetica,sans-Serif" font-size="10.00">Corale.Colore.Core.IKeyboard</text>
</a>
</g>
</g>
<!-- Node0&#45;&gt;Node12 -->
<g id="edge15" class="edge"><title>Node0&#45;&gt;Node12</title>
<path fill="none" stroke="midnightblue" d="M142.152,-134.956C152.32,-133.867 162.731,-132.753 172.836,-131.671"/>
<polygon fill="midnightblue" stroke="midnightblue" points="141.657,-131.488 132.087,-136.033 142.402,-138.449 141.657,-131.488"/>
</g>
<!-- Node13 -->
<g id="node14" class="node"><title>Node13</title>
<g id="a_node14"><a xlink:href="interface_corale_1_1_colore_1_1_core_1_1_i_keypad.html" target="_top" xlink:title="Interface for keypad functions. ">
<polygon fill="white" stroke="black" points="177,-76.5 177,-95.5 314,-95.5 314,-76.5 177,-76.5"/>
<text text-anchor="middle" x="245.5" y="-83.5" font-family="Helvetica,sans-Serif" font-size="10.00">Corale.Colore.Core.IKeypad</text>
</a>
</g>
</g>
<!-- Node0&#45;&gt;Node13 -->
<g id="edge17" class="edge"><title>Node0&#45;&gt;Node13</title>
<path fill="none" stroke="midnightblue" d="M99.4015,-129.709C119.05,-121.927 144.739,-112.238 168,-105 178.976,-101.585 190.986,-98.3652 202.169,-95.5805"/>
<polygon fill="midnightblue" stroke="midnightblue" points="97.9854,-126.506 90.0006,-133.47 100.585,-133.006 97.9854,-126.506"/>
</g>
<!-- Node14 -->
<g id="node15" class="node"><title>Node14</title>
<g id="a_node15"><a xlink:href="interface_corale_1_1_colore_1_1_core_1_1_i_mouse.html" target="_top" xlink:title="Interface for mouse functionality. ">
<polygon fill="white" stroke="black" points="179,-38.5 179,-57.5 312,-57.5 312,-38.5 179,-38.5"/>
<text text-anchor="middle" x="245.5" y="-45.5" font-family="Helvetica,sans-Serif" font-size="10.00">Corale.Colore.Core.IMouse</text>
</a>
</g>
</g>
<!-- Node0&#45;&gt;Node14 -->
<g id="edge19" class="edge"><title>Node0&#45;&gt;Node14</title>
<path fill="none" stroke="midnightblue" d="M84.5532,-126.251C103.629,-108.947 135.724,-82.3635 168,-67 176.032,-63.177 184.917,-60.0704 193.704,-57.563"/>
<polygon fill="midnightblue" stroke="midnightblue" points="81.9444,-123.896 76.9815,-133.257 86.6985,-129.034 81.9444,-123.896"/>
</g>
<!-- Node15 -->
<g id="node16" class="node"><title>Node15</title>
<g id="a_node16"><a xlink:href="interface_corale_1_1_colore_1_1_core_1_1_i_mousepad.html" target="_top" xlink:title="Interface for mouse pad functionality. ">
<polygon fill="white" stroke="black" points="171,-0.5 171,-19.5 320,-19.5 320,-0.5 171,-0.5"/>
<text text-anchor="middle" x="245.5" y="-7.5" font-family="Helvetica,sans-Serif" font-size="10.00">Corale.Colore.Core.IMousepad</text>
</a>
</g>
</g>
<!-- Node0&#45;&gt;Node15 -->
<g id="edge21" class="edge"><title>Node0&#45;&gt;Node15</title>
<path fill="none" stroke="midnightblue" d="M78.1396,-124.59C94.553,-99.0919 127.69,-53.4163 168,-29 174.438,-25.1005 181.64,-21.9996 188.982,-19.5341"/>
<polygon fill="midnightblue" stroke="midnightblue" points="75.0331,-122.956 72.6878,-133.288 80.9643,-126.674 75.0331,-122.956"/>
</g>
<!-- Node2 -->
<g id="node3" class="node"><title>Node2</title>
<g id="a_node3"><a xlink:href="class_corale_1_1_colore_1_1_core_1_1_chroma_link.html" target="_top" xlink:title="Class for interacting with a Chroma Link. ">
<polygon fill="white" stroke="black" points="359,-276.5 359,-295.5 512,-295.5 512,-276.5 359,-276.5"/>
<text text-anchor="middle" x="435.5" y="-283.5" font-family="Helvetica,sans-Serif" font-size="10.00">Corale.Colore.Core.ChromaLink</text>
</a>
</g>
</g>
<!-- Node1&#45;&gt;Node2 -->
<g id="edge2" class="edge"><title>Node1&#45;&gt;Node2</title>
<path fill="none" stroke="midnightblue" d="M316.548,-176.4C318.805,-177.797 320.966,-179.326 323,-181 352.173,-205.002 331.212,-232.407 359,-258 368.049,-266.334 379.798,-272.247 391.322,-276.419"/>
<polygon fill="midnightblue" stroke="midnightblue" points="317.915,-173.165 307.431,-171.638 314.675,-179.37 317.915,-173.165"/>
</g>
<!-- Node3 -->
<g id="node4" class="node"><title>Node3</title>
<g id="a_node4"><a xlink:href="class_corale_1_1_colore_1_1_core_1_1_generic_device.html" target="_top" xlink:title="A generic device. ">
<polygon fill="white" stroke="black" points="368,-218 368,-248 503,-248 503,-218 368,-218"/>
<text text-anchor="start" x="376" y="-236" font-family="Helvetica,sans-Serif" font-size="10.00">Corale.Colore.Core.Generic</text>
<text text-anchor="middle" x="435.5" y="-225" font-family="Helvetica,sans-Serif" font-size="10.00">Device</text>
</a>
</g>
</g>
<!-- Node1&#45;&gt;Node3 -->
<g id="edge3" class="edge"><title>Node1&#45;&gt;Node3</title>
<path fill="none" stroke="midnightblue" d="M300.83,-174.113C308.345,-176.188 315.913,-178.494 323,-181 352.199,-191.326 384.092,-206.637 406.26,-217.973"/>
<polygon fill="midnightblue" stroke="midnightblue" points="301.586,-170.693 291.024,-171.519 299.796,-177.46 301.586,-170.693"/>
</g>
<!-- Node4 -->
<g id="node5" class="node"><title>Node4</title>
<g id="a_node5"><a xlink:href="class_corale_1_1_colore_1_1_core_1_1_headset.html" target="_top" xlink:title="Class for interacting with Chroma Headsets. ">
<polygon fill="white" stroke="black" points="367,-160.5 367,-179.5 504,-179.5 504,-160.5 367,-160.5"/>
<text text-anchor="middle" x="435.5" y="-167.5" font-family="Helvetica,sans-Serif" font-size="10.00">Corale.Colore.Core.Headset</text>
</a>
</g>
</g>
<!-- Node1&#45;&gt;Node4 -->
<g id="edge4" class="edge"><title>Node1&#45;&gt;Node4</title>
<path fill="none" stroke="midnightblue" d="M320.998,-165.17C336.103,-165.813 351.911,-166.486 366.767,-167.118"/>
<polygon fill="midnightblue" stroke="midnightblue" points="320.813,-161.659 310.673,-164.731 320.515,-168.653 320.813,-161.659"/>
</g>
<!-- Node5 -->
<g id="node6" class="node"><title>Node5</title>
<g id="a_node6"><a xlink:href="class_corale_1_1_colore_1_1_core_1_1_keyboard.html" target="_top" xlink:title="Class for interacting with a Chroma keyboard. ">
<polygon fill="white" stroke="black" points="364,-117.5 364,-136.5 507,-136.5 507,-117.5 364,-117.5"/>
<text text-anchor="middle" x="435.5" y="-124.5" font-family="Helvetica,sans-Serif" font-size="10.00">Corale.Colore.Core.Keyboard</text>
</a>
</g>
</g>
<!-- Node1&#45;&gt;Node5 -->
<g id="edge5" class="edge"><title>Node1&#45;&gt;Node5</title>
<path fill="none" stroke="midnightblue" d="M307.741,-150.599C332.131,-146.058 359.883,-140.891 383.19,-136.552"/>
<polygon fill="midnightblue" stroke="midnightblue" points="307.062,-147.165 297.872,-152.436 308.344,-154.047 307.062,-147.165"/>
</g>
<!-- Node6 -->
<g id="node7" class="node"><title>Node6</title>
<g id="a_node7"><a xlink:href="class_corale_1_1_colore_1_1_core_1_1_keypad.html" target="_top" xlink:title="Class for interacting with a Chroma keypad. ">
<polygon fill="white" stroke="black" points="368.5,-77.5 368.5,-96.5 502.5,-96.5 502.5,-77.5 368.5,-77.5"/>
<text text-anchor="middle" x="435.5" y="-84.5" font-family="Helvetica,sans-Serif" font-size="10.00">Corale.Colore.Core.Keypad</text>
</a>
</g>
</g>
<!-- Node1&#45;&gt;Node6 -->
<g id="edge6" class="edge"><title>Node1&#45;&gt;Node6</title>
<path fill="none" stroke="midnightblue" d="M310.32,-148.944C314.717,-147.201 318.989,-145.23 323,-143 342.504,-132.157 339.649,-119.113 359,-108 367.377,-103.189 376.914,-99.4318 386.325,-96.5133"/>
<polygon fill="midnightblue" stroke="midnightblue" points="308.807,-145.767 300.549,-152.405 311.144,-152.365 308.807,-145.767"/>
</g>
<!-- Node7 -->
<g id="node8" class="node"><title>Node7</title>
<g id="a_node8"><a xlink:href="class_corale_1_1_colore_1_1_core_1_1_mouse.html" target="_top" xlink:title="Class for interacting with a Chroma mouse. ">
<polygon fill="white" stroke="black" points="370,-38.5 370,-57.5 501,-57.5 501,-38.5 370,-38.5"/>
<text text-anchor="middle" x="435.5" y="-45.5" font-family="Helvetica,sans-Serif" font-size="10.00">Corale.Colore.Core.Mouse</text>
</a>
</g>
</g>
<!-- Node1&#45;&gt;Node7 -->
<g id="edge7" class="edge"><title>Node1&#45;&gt;Node7</title>
<path fill="none" stroke="midnightblue" d="M316.372,-147.668C318.69,-146.253 320.911,-144.701 323,-143 351.672,-119.654 330.51,-91.5674 359,-68 364.224,-63.6785 370.288,-60.2822 376.663,-57.6145"/>
<polygon fill="midnightblue" stroke="midnightblue" points="314.303,-144.796 307.007,-152.479 317.502,-151.023 314.303,-144.796"/>
</g>
<!-- Node8 -->
<g id="node9" class="node"><title>Node8</title>
<g id="a_node9"><a xlink:href="class_corale_1_1_colore_1_1_core_1_1_mousepad.html" target="_top" xlink:title="Class for interacting with a Chroma mouse pad. ">
<polygon fill="white" stroke="black" points="362.5,-0.5 362.5,-19.5 508.5,-19.5 508.5,-0.5 362.5,-0.5"/>
<text text-anchor="middle" x="435.5" y="-7.5" font-family="Helvetica,sans-Serif" font-size="10.00">Corale.Colore.Core.Mousepad</text>
</a>
</g>
</g>
<!-- Node1&#45;&gt;Node8 -->
<g id="edge8" class="edge"><title>Node1&#45;&gt;Node8</title>
<path fill="none" stroke="midnightblue" d="M317.714,-147.323C319.57,-145.999 321.339,-144.561 323,-143 361.725,-106.62 320.331,-65.4395 359,-29 363.033,-25.1994 367.711,-22.1288 372.724,-19.652"/>
<polygon fill="midnightblue" stroke="midnightblue" points="315.907,-144.326 309.089,-152.435 319.476,-150.348 315.907,-144.326"/>
</g>
<!-- Node9&#45;&gt;Node2 -->
<g id="edge10" class="edge"><title>Node9&#45;&gt;Node2</title>
<path fill="none" stroke="midnightblue" d="M333.247,-287.077C341.819,-286.986 350.473,-286.894 358.92,-286.804"/>
<polygon fill="midnightblue" stroke="midnightblue" points="333.2,-283.577 323.238,-287.184 333.275,-290.577 333.2,-283.577"/>
</g>
<!-- Node10&#45;&gt;Node3 -->
<g id="edge12" class="edge"><title>Node10&#45;&gt;Node3</title>
<path fill="none" stroke="midnightblue" d="M324.477,-239.438C338.872,-238.595 353.784,-237.723 367.808,-236.902"/>
<polygon fill="midnightblue" stroke="midnightblue" points="323.885,-235.966 314.107,-240.044 324.294,-242.954 323.885,-235.966"/>
</g>
<!-- Node11&#45;&gt;Node4 -->
<g id="edge14" class="edge"><title>Node11&#45;&gt;Node4</title>
<path fill="none" stroke="midnightblue" d="M316.182,-188.881C335.48,-185.801 356.247,-182.487 374.913,-179.509"/>
<polygon fill="midnightblue" stroke="midnightblue" points="315.566,-185.434 306.243,-190.467 316.669,-192.347 315.566,-185.434"/>
</g>
<!-- Node12&#45;&gt;Node5 -->
<g id="edge16" class="edge"><title>Node12&#45;&gt;Node5</title>
<path fill="none" stroke="midnightblue" d="M328.372,-125.306C340.145,-125.494 352.176,-125.686 363.71,-125.87"/>
<polygon fill="midnightblue" stroke="midnightblue" points="328.166,-121.803 318.111,-125.143 328.054,-128.802 328.166,-121.803"/>
</g>
<!-- Node13&#45;&gt;Node6 -->
<g id="edge18" class="edge"><title>Node13&#45;&gt;Node6</title>
<path fill="none" stroke="midnightblue" d="M324.179,-86.4132C338.882,-86.4914 354.134,-86.5725 368.437,-86.6486"/>
<polygon fill="midnightblue" stroke="midnightblue" points="324.125,-82.9129 314.107,-86.3596 324.088,-89.9129 324.125,-82.9129"/>
</g>
<!-- Node14&#45;&gt;Node7 -->
<g id="edge20" class="edge"><title>Node14&#45;&gt;Node7</title>
<path fill="none" stroke="midnightblue" d="M322.438,-48C338.119,-48 354.496,-48 369.735,-48"/>
<polygon fill="midnightblue" stroke="midnightblue" points="322.253,-44.5001 312.253,-48 322.253,-51.5001 322.253,-44.5001"/>
</g>
<!-- Node15&#45;&gt;Node8 -->
<g id="edge22" class="edge"><title>Node15&#45;&gt;Node8</title>
<path fill="none" stroke="midnightblue" d="M330.444,-10C341.137,-10 352.007,-10 362.489,-10"/>
<polygon fill="midnightblue" stroke="midnightblue" points="330.263,-6.5001 320.263,-10 330.263,-13.5001 330.263,-6.5001"/>
</g>
</g>
</svg>
        <g id="navigator" transform="translate(0 0)" fill="#404254">
                <rect fill="#f2f5e9" fill-opacity="0.5" stroke="#606060" stroke-width=".5" x="0" y="0" width="60" height="60"/>
                <use id="zoomplus" xlink:href="#zoomPlus" x="17" y="9" onmousedown="handleZoom(evt,'in')"/>
                <use id="zoomminus" xlink:href="#zoomMin" x="42" y="9" onmousedown="handleZoom(evt,'out')"/>
                <use id="reset" xlink:href="#resetDef" x="30" y="36" onmousedown="handleReset()"/>
                <g id="arrowUp" xlink:href="#dirArrow" transform="translate(30 24)" onmousedown="handlePan(0,-1)">
                  <use xlink:href="#rim" fill="#404040">
                        <set attributeName="fill" to="#808080" begin="arrowUp.mouseover" end="arrowUp.mouseout"/>
                  </use>
                  <path fill="none" stroke="white" stroke-width="1.5" d="M0,-3.0v7 M-2.5,-0.5L0,-3.0L2.5,-0.5"/>
                </g>
                <g id="arrowRight" xlink:href="#dirArrow" transform="rotate(90) translate(36 -43)" onmousedown="handlePan(1,0)">
                  <use xlink:href="#rim" fill="#404040">
                        <set attributeName="fill" to="#808080" begin="arrowRight.mouseover" end="arrowRight.mouseout"/>
                  </use>
                  <path fill="none" stroke="white" stroke-width="1.5" d="M0,-3.0v7 M-2.5,-0.5L0,-3.0L2.5,-0.5"/>
                </g>
                <g id="arrowDown" xlink:href="#dirArrow" transform="rotate(180) translate(-30 -48)" onmousedown="handlePan(0,1)">
                  <use xlink:href="#rim" fill="#404040">
                        <set attributeName="fill" to="#808080" begin="arrowDown.mouseover" end="arrowDown.mouseout"/>
                  </use>
                  <path fill="none" stroke="white" stroke-width="1.5" d="M0,-3.0v7 M-2.5,-0.5L0,-3.0L2.5,-0.5"/>
                </g>
                <g id="arrowLeft" xlink:href="#dirArrow" transform="rotate(270) translate(-36 17)" onmousedown="handlePan(-1,0)">
                  <use xlink:href="#rim" fill="#404040">
                        <set attributeName="fill" to="#808080" begin="arrowLeft.mouseover" end="arrowLeft.mouseout"/>
                  </use>
                  <path fill="none" stroke="white" stroke-width="1.5" d="M0,-3.0v7 M-2.5,-0.5L0,-3.0L2.5,-0.5"/>
                </g>
        </g>
        <svg viewBox="0 0 15 15" width="100%" height="30px" preserveAspectRatio="xMaxYMin meet">
         <g id="arrow_out" transform="scale(0.3 0.3)">
          <a xlink:href="interface_corale_1_1_colore_1_1_core_1_1_i_device__inherit__graph_org.svg" target="_base">
           <rect id="button" ry="5" rx="5" y="6" x="6" height="38" width="38"
                fill="#f2f5e9" fill-opacity="0.5" stroke="#606060" stroke-width="1.0"/>
           <path id="arrow"
             d="M 11.500037,31.436501 C 11.940474,20.09759 22.043105,11.32322 32.158766,21.979434 L 37.068811,17.246167 C 37.068811,17.246167 37.088388,32 37.088388,32 L 22.160133,31.978069 C 22.160133,31.978069 26.997745,27.140456 26.997745,27.140456 C 18.528582,18.264221 13.291696,25.230495 11.500037,31.436501 z"
             style="fill:#404040;"/>
          </a>
         </g>
        </svg>
</svg>
