<?xml version="1.0" encoding="UTF-8" standalone="no"?>
<!DOCTYPE svg PUBLIC "-//W3C//DTD SVG 1.1//EN"
 "http://www.w3.org/Graphics/SVG/1.1/DTD/svg11.dtd">
<!-- Generated by graphviz version 2.38.0 (20140413.2041)
 -->
<!-- Title: Corale.Colore.Core.IHeadset Pages: 1 -->
<svg width="148pt" height="140pt"
 viewBox="0.00 0.00 148.00 140.00" xmlns="http://www.w3.org/2000/svg" xmlns:xlink="http://www.w3.org/1999/xlink">
<g id="graph0" class="graph" transform="scale(1 1) rotate(0) translate(4 136)">
<title>Corale.Colore.Core.IHeadset</title>
<polygon fill="white" stroke="none" points="-4,4 -4,-136 144,-136 144,4 -4,4"/>
<!-- Node1 -->
<g id="node1" class="node"><title>Node1</title>
<polygon fill="#bfbfbf" stroke="black" points="0,-56.5 0,-75.5 140,-75.5 140,-56.5 0,-56.5"/>
<text text-anchor="middle" x="70" y="-63.5" font-family="Helvetica,sans-Serif" font-size="10.00">Corale.Colore.Core.IHeadset</text>
</g>
<!-- Node3 -->
<g id="node3" class="node"><title>Node3</title>
<g id="a_node3"><a xlink:href="class_corale_1_1_colore_1_1_core_1_1_headset.html" target="_top" xlink:title="Class for interacting with Chroma Headsets. ">
<polygon fill="white" stroke="black" points="1.5,-0.5 1.5,-19.5 138.5,-19.5 138.5,-0.5 1.5,-0.5"/>
<text text-anchor="middle" x="70" y="-7.5" font-family="Helvetica,sans-Serif" font-size="10.00">Corale.Colore.Core.Headset</text>
</a>
</g>
</g>
<!-- Node1&#45;&gt;Node3 -->
<g id="edge3" class="edge"><title>Node1&#45;&gt;Node3</title>
<path fill="none" stroke="midnightblue" d="M63.5276,-46.1005C62.8956,-37.1357 63.3427,-26.8579 64.869,-19.7511"/>
<polygon fill="midnightblue" stroke="midnightblue" points="60.0658,-46.6216 64.8337,-56.083 67.0067,-45.7134 60.0658,-46.6216"/>
</g>
<!-- Node1&#45;&gt;Node3 -->
<g id="edge4" class="edge"><title>Node1&#45;&gt;Node3</title>
<path fill="none" stroke="midnightblue" d="M76.4724,-46.1005C77.1044,-37.1357 76.6573,-26.8579 75.131,-19.7511"/>
<polygon fill="midnightblue" stroke="midnightblue" points="72.9933,-45.7134 75.1663,-56.083 79.9342,-46.6216 72.9933,-45.7134"/>
</g>
<!-- Node2 -->
<g id="node2" class="node"><title>Node2</title>
<g id="a_node2"><a xlink:href="interface_corale_1_1_colore_1_1_core_1_1_i_device.html" target="_top" xlink:title="Interface for functionality common with all devices. ">
<polygon fill="white" stroke="black" points="46.5,-112.5 46.5,-131.5 93.5,-131.5 93.5,-112.5 46.5,-112.5"/>
<text text-anchor="middle" x="70" y="-119.5" font-family="Helvetica,sans-Serif" font-size="10.00">IDevice</text>
</a>
</g>
</g>
<!-- Node2&#45;&gt;Node1 -->
<g id="edge1" class="edge"><title>Node2&#45;&gt;Node1</title>
<path fill="none" stroke="midnightblue" d="M63.5276,-102.101C62.8956,-93.1357 63.3427,-82.8579 64.869,-75.7511"/>
<polygon fill="midnightblue" stroke="midnightblue" points="60.0658,-102.622 64.8337,-112.083 67.0067,-101.713 60.0658,-102.622"/>
</g>
<!-- Node2&#45;&gt;Node1 -->
<g id="edge2" class="edge"><title>Node2&#45;&gt;Node1</title>
<path fill="none" stroke="midnightblue" d="M76.4724,-102.101C77.1044,-93.1357 76.6573,-82.8579 75.131,-75.7511"/>
<polygon fill="midnightblue" stroke="midnightblue" points="72.9933,-101.713 75.1663,-112.083 79.9342,-102.622 72.9933,-101.713"/>
</g>
</g>
</svg>
