<?xml version="1.0" encoding="UTF-8" standalone="no"?>
<!DOCTYPE svg PUBLIC "-//W3C//DTD SVG 1.1//EN"
 "http://www.w3.org/Graphics/SVG/1.1/DTD/svg11.dtd">
<!-- Generated by graphviz version 2.38.0 (20140413.2041)
 -->
<!-- Title: Corale.Colore.Logging.ILog Pages: 1 -->
<svg width="152pt" height="151pt"
 viewBox="0.00 0.00 152.00 151.00" xmlns="http://www.w3.org/2000/svg" xmlns:xlink="http://www.w3.org/1999/xlink">
<g id="graph0" class="graph" transform="scale(1 1) rotate(0) translate(4 147)">
<title>Corale.Colore.Logging.ILog</title>
<polygon fill="white" stroke="none" points="-4,4 -4,-147 148,-147 148,4 -4,4"/>
<!-- Node1 -->
<g id="node1" class="node"><title>Node1</title>
<polygon fill="#bfbfbf" stroke="black" points="5.5,-123.5 5.5,-142.5 138.5,-142.5 138.5,-123.5 5.5,-123.5"/>
<text text-anchor="middle" x="72" y="-130.5" font-family="Helvetica,sans-Serif" font-size="10.00">Corale.Colore.Logging.ILog</text>
</g>
<!-- Node2 -->
<g id="node2" class="node"><title>Node2</title>
<g id="a_node2"><a xlink:href="class_corale_1_1_colore_1_1_logging_1_1_logger.html" target="_top" xlink:title="Base logger class implementing some default behaviour like delegating logging commands to the base Lo...">
<polygon fill="white" stroke="black" points="0,-67.5 0,-86.5 144,-86.5 144,-67.5 0,-67.5"/>
<text text-anchor="middle" x="72" y="-74.5" font-family="Helvetica,sans-Serif" font-size="10.00">Corale.Colore.Logging.Logger</text>
</a>
</g>
</g>
<!-- Node1&#45;&gt;Node2 -->
<g id="edge1" class="edge"><title>Node1&#45;&gt;Node2</title>
<path fill="none" stroke="midnightblue" d="M72,-112.805C72,-103.91 72,-93.7798 72,-86.7511"/>
<polygon fill="midnightblue" stroke="midnightblue" points="68.5001,-113.083 72,-123.083 75.5001,-113.083 68.5001,-113.083"/>
</g>
<!-- Node3 -->
<g id="node3" class="node"><title>Node3</title>
<g id="a_node3"><a xlink:href="class_corale_1_1_colore_1_1_logging_1_1_trace_logger.html" target="_top" xlink:title="A logger using System.Diagnostics to log messages. ">
<polygon fill="white" stroke="black" points="2.5,-0.5 2.5,-30.5 141.5,-30.5 141.5,-0.5 2.5,-0.5"/>
<text text-anchor="start" x="10.5" y="-18.5" font-family="Helvetica,sans-Serif" font-size="10.00">Corale.Colore.Logging.Trace</text>
<text text-anchor="middle" x="72" y="-7.5" font-family="Helvetica,sans-Serif" font-size="10.00">Logger</text>
</a>
</g>
</g>
<!-- Node2&#45;&gt;Node3 -->
<g id="edge2" class="edge"><title>Node2&#45;&gt;Node3</title>
<path fill="none" stroke="midnightblue" d="M72,-57.2349C72,-48.5864 72,-38.4969 72,-30.523"/>
<polygon fill="midnightblue" stroke="midnightblue" points="68.5001,-57.4751 72,-67.4751 75.5001,-57.4751 68.5001,-57.4751"/>
</g>
</g>
</svg>
