<?xml version="1.0" encoding="UTF-8" standalone="no"?>
<!DOCTYPE svg PUBLIC "-//W3C//DTD SVG 1.1//EN"
 "http://www.w3.org/Graphics/SVG/1.1/DTD/svg11.dtd">
<!-- Generated by graphviz version 2.38.0 (20140413.2041)
 -->
<!-- Title: Corale.Colore.Core.IMousepad Pages: 1 -->
<svg width="157pt" height="84pt"
 viewBox="0.00 0.00 157.00 84.00" xmlns="http://www.w3.org/2000/svg" xmlns:xlink="http://www.w3.org/1999/xlink">
<g id="graph0" class="graph" transform="scale(1 1) rotate(0) translate(4 80)">
<title>Corale.Colore.Core.IMousepad</title>
<polygon fill="white" stroke="none" points="-4,4 -4,-80 153,-80 153,4 -4,4"/>
<!-- Node1 -->
<g id="node1" class="node"><title>Node1</title>
<polygon fill="#bfbfbf" stroke="black" points="0,-0.5 0,-19.5 149,-19.5 149,-0.5 0,-0.5"/>
<text text-anchor="middle" x="74.5" y="-7.5" font-family="Helvetica,sans-Serif" font-size="10.00">Corale.Colore.Core.IMousepad</text>
</g>
<!-- Node2 -->
<g id="node2" class="node"><title>Node2</title>
<g id="a_node2"><a xlink:href="interface_corale_1_1_colore_1_1_core_1_1_i_device.html" target="_top" xlink:title="Interface for functionality common with all devices. ">
<polygon fill="white" stroke="black" points="51,-56.5 51,-75.5 98,-75.5 98,-56.5 51,-56.5"/>
<text text-anchor="middle" x="74.5" y="-63.5" font-family="Helvetica,sans-Serif" font-size="10.00">IDevice</text>
</a>
</g>
</g>
<!-- Node2&#45;&gt;Node1 -->
<g id="edge1" class="edge"><title>Node2&#45;&gt;Node1</title>
<path fill="none" stroke="midnightblue" d="M68.0276,-46.1005C67.3956,-37.1357 67.8427,-26.8579 69.369,-19.7511"/>
<polygon fill="midnightblue" stroke="midnightblue" points="64.5658,-46.6216 69.3337,-56.083 71.5067,-45.7134 64.5658,-46.6216"/>
</g>
<!-- Node2&#45;&gt;Node1 -->
<g id="edge2" class="edge"><title>Node2&#45;&gt;Node1</title>
<path fill="none" stroke="midnightblue" d="M80.9724,-46.1005C81.6044,-37.1357 81.1573,-26.8579 79.631,-19.7511"/>
<polygon fill="midnightblue" stroke="midnightblue" points="77.4933,-45.7134 79.6663,-56.083 84.4342,-46.6216 77.4933,-45.7134"/>
</g>
</g>
</svg>
