<?xml version="1.0" encoding="UTF-8" standalone="no"?>
<!DOCTYPE svg PUBLIC "-//W3C//DTD SVG 1.1//EN"
 "http://www.w3.org/Graphics/SVG/1.1/DTD/svg11.dtd">
<!-- Generated by graphviz version 2.38.0 (20140413.2041)
 -->
<!-- Title: Corale.Colore.Razer.Mouse.Effects.Breathing Pages: 1 -->
<svg width="390pt" height="286pt"
 viewBox="0.00 0.00 389.50 286.00" xmlns="http://www.w3.org/2000/svg" xmlns:xlink="http://www.w3.org/1999/xlink">
<g id="graph0" class="graph" transform="scale(1 1) rotate(0) translate(4 282)">
<title>Corale.Colore.Razer.Mouse.Effects.Breathing</title>
<polygon fill="white" stroke="none" points="-4,4 -4,-282 385.5,-282 385.5,4 -4,4"/>
<!-- Node1 -->
<g id="node1" class="node"><title>Node1</title>
<polygon fill="#bfbfbf" stroke="black" points="100,-0.5 100,-30.5 239,-30.5 239,-0.5 100,-0.5"/>
<text text-anchor="start" x="108" y="-18.5" font-family="Helvetica,sans-Serif" font-size="10.00">Corale.Colore.Razer.Mouse.</text>
<text text-anchor="middle" x="169.5" y="-7.5" font-family="Helvetica,sans-Serif" font-size="10.00">Effects.Breathing</text>
</g>
<!-- Node2 -->
<g id="node2" class="node"><title>Node2</title>
<g id="a_node2"><a xlink:href="struct_corale_1_1_colore_1_1_core_1_1_color.html" target="_top" xlink:title="Represents an RGB color. ">
<polygon fill="white" stroke="black" points="107.5,-140 107.5,-159 231.5,-159 231.5,-140 107.5,-140"/>
<text text-anchor="middle" x="169.5" y="-147" font-family="Helvetica,sans-Serif" font-size="10.00">Corale.Colore.Core.Color</text>
</a>
</g>
</g>
<!-- Node2&#45;&gt;Node1 -->
<g id="edge1" class="edge"><title>Node2&#45;&gt;Node1</title>
<path fill="none" stroke="#9a32cd" stroke-dasharray="5,2" d="M169.5,-129.531C169.5,-102.812 169.5,-54.6907 169.5,-30.7832"/>
<polygon fill="#9a32cd" stroke="#9a32cd" points="166,-129.839 169.5,-139.839 173,-129.839 166,-129.839"/>
<text text-anchor="middle" x="188" y="-63" font-family="Helvetica,sans-Serif" font-size="10.00"> Second</text>
<text text-anchor="middle" x="188" y="-52" font-family="Helvetica,sans-Serif" font-size="10.00">First</text>
</g>
<!-- Node2&#45;&gt;Node2 -->
<g id="edge5" class="edge"><title>Node2&#45;&gt;Node2</title>
<path fill="none" stroke="#9a32cd" stroke-dasharray="5,2" d="M198.535,-161.784C223.363,-167.245 249.5,-163.151 249.5,-149.5 249.5,-134.037 215.964,-130.836 188.782,-139.896"/>
<polygon fill="#9a32cd" stroke="#9a32cd" points="199.352,-158.379 188.782,-159.104 197.497,-165.128 199.352,-158.379"/>
<text text-anchor="middle" x="267" y="-202" font-family="Helvetica,sans-Serif" font-size="10.00"> Yellow</text>
<text text-anchor="middle" x="267" y="-191" font-family="Helvetica,sans-Serif" font-size="10.00">White</text>
<text text-anchor="middle" x="267" y="-180" font-family="Helvetica,sans-Serif" font-size="10.00">Pink</text>
<text text-anchor="middle" x="267" y="-169" font-family="Helvetica,sans-Serif" font-size="10.00">HotPink</text>
<text text-anchor="middle" x="267" y="-158" font-family="Helvetica,sans-Serif" font-size="10.00">Blue</text>
<text text-anchor="middle" x="267" y="-147" font-family="Helvetica,sans-Serif" font-size="10.00">Purple</text>
<text text-anchor="middle" x="267" y="-136" font-family="Helvetica,sans-Serif" font-size="10.00">Orange</text>
<text text-anchor="middle" x="267" y="-125" font-family="Helvetica,sans-Serif" font-size="10.00">Black</text>
<text text-anchor="middle" x="267" y="-114" font-family="Helvetica,sans-Serif" font-size="10.00">Red</text>
<text text-anchor="middle" x="267" y="-103" font-family="Helvetica,sans-Serif" font-size="10.00">Green</text>
<text text-anchor="middle" x="267" y="-92" font-family="Helvetica,sans-Serif" font-size="10.00">...</text>
</g>
<!-- Node3 -->
<g id="node3" class="node"><title>Node3</title>
<polygon fill="white" stroke="#bfbfbf" points="0,-253 0,-272 103,-272 103,-253 0,-253"/>
<text text-anchor="middle" x="51.5" y="-260" font-family="Helvetica,sans-Serif" font-size="10.00">IEquatable&lt; Color &gt;</text>
</g>
<!-- Node3&#45;&gt;Node2 -->
<g id="edge2" class="edge"><title>Node3&#45;&gt;Node2</title>
<path fill="none" stroke="midnightblue" d="M68.1148,-245.871C93.329,-222.152 140.419,-177.856 160.284,-159.17"/>
<polygon fill="midnightblue" stroke="midnightblue" points="65.645,-243.389 60.7593,-252.79 70.4412,-248.488 65.645,-243.389"/>
</g>
<!-- Node4 -->
<g id="node4" class="node"><title>Node4</title>
<polygon fill="white" stroke="#bfbfbf" points="121.5,-253 121.5,-272 217.5,-272 217.5,-253 121.5,-253"/>
<text text-anchor="middle" x="169.5" y="-260" font-family="Helvetica,sans-Serif" font-size="10.00">IEquatable&lt; uint &gt;</text>
</g>
<!-- Node4&#45;&gt;Node2 -->
<g id="edge3" class="edge"><title>Node4&#45;&gt;Node2</title>
<path fill="none" stroke="midnightblue" d="M169.5,-242.679C169.5,-218.365 169.5,-177.047 169.5,-159.17"/>
<polygon fill="midnightblue" stroke="midnightblue" points="166,-242.79 169.5,-252.79 173,-242.79 166,-242.79"/>
</g>
<!-- Node5 -->
<g id="node5" class="node"><title>Node5</title>
<polygon fill="white" stroke="#bfbfbf" points="235.5,-247.5 235.5,-277.5 381.5,-277.5 381.5,-247.5 235.5,-247.5"/>
<text text-anchor="start" x="243.5" y="-265.5" font-family="Helvetica,sans-Serif" font-size="10.00">IEquatable&lt; System.Drawing.</text>
<text text-anchor="middle" x="308.5" y="-254.5" font-family="Helvetica,sans-Serif" font-size="10.00">Color &gt;</text>
</g>
<!-- Node5&#45;&gt;Node2 -->
<g id="edge4" class="edge"><title>Node5&#45;&gt;Node2</title>
<path fill="none" stroke="midnightblue" d="M282.771,-240.954C252.015,-216.393 201.97,-176.429 180.191,-159.037"/>
<polygon fill="midnightblue" stroke="midnightblue" points="280.897,-243.937 290.896,-247.442 285.265,-238.467 280.897,-243.937"/>
</g>
</g>
</svg>
