<?xml version="1.0" encoding="UTF-8" standalone="no"?>
<!DOCTYPE svg PUBLIC "-//W3C//DTD SVG 1.1//EN"
 "http://www.w3.org/Graphics/SVG/1.1/DTD/svg11.dtd">
<!-- Generated by graphviz version 2.38.0 (20140413.2041)
 -->
<!-- Title: Corale.Colore.Razer.Effects.Blinking Pages: 1 -->
<svg width="234pt" height="264pt"
 viewBox="0.00 0.00 233.50 264.00" xmlns="http://www.w3.org/2000/svg" xmlns:xlink="http://www.w3.org/1999/xlink">
<g id="graph0" class="graph" transform="scale(1 1) rotate(0) translate(4 260)">
<title>Corale.Colore.Razer.Effects.Blinking</title>
<polygon fill="white" stroke="none" points="-4,4 -4,-260 229.5,-260 229.5,4 -4,4"/>
<!-- Node1 -->
<g id="node1" class="node"><title>Node1</title>
<polygon fill="#bfbfbf" stroke="black" points="40.5,-0.5 40.5,-30.5 180.5,-30.5 180.5,-0.5 40.5,-0.5"/>
<text text-anchor="start" x="48.5" y="-18.5" font-family="Helvetica,sans-Serif" font-size="10.00">Corale.Colore.Razer.Effects.</text>
<text text-anchor="middle" x="110.5" y="-7.5" font-family="Helvetica,sans-Serif" font-size="10.00">Blinking</text>
</g>
<!-- Node2 -->
<g id="node2" class="node"><title>Node2</title>
<g id="a_node2"><a xlink:href="struct_corale_1_1_colore_1_1_core_1_1_color.html" target="_top" xlink:title="Represents an RGB color. ">
<polygon fill="white" stroke="black" points="48.5,-129 48.5,-148 172.5,-148 172.5,-129 48.5,-129"/>
<text text-anchor="middle" x="110.5" y="-136" font-family="Helvetica,sans-Serif" font-size="10.00">Corale.Colore.Core.Color</text>
</a>
</g>
</g>
<!-- Node2&#45;&gt;Node1 -->
<g id="edge1" class="edge"><title>Node2&#45;&gt;Node1</title>
<path fill="none" stroke="#9a32cd" stroke-dasharray="5,2" d="M110.5,-118.685C110.5,-94.2974 110.5,-52.3248 110.5,-30.5392"/>
<polygon fill="#9a32cd" stroke="#9a32cd" points="107,-118.798 110.5,-128.798 114,-118.798 107,-118.798"/>
<text text-anchor="middle" x="123.5" y="-52" font-family="Helvetica,sans-Serif" font-size="10.00"> Color</text>
</g>
<!-- Node2&#45;&gt;Node2 -->
<g id="edge4" class="edge"><title>Node2&#45;&gt;Node2</title>
<path fill="none" stroke="#9a32cd" stroke-dasharray="5,2" d="M139.535,-150.784C164.363,-156.245 190.5,-152.151 190.5,-138.5 190.5,-123.037 156.964,-119.836 129.782,-128.896"/>
<polygon fill="#9a32cd" stroke="#9a32cd" points="140.352,-147.379 129.782,-148.104 138.497,-154.128 140.352,-147.379"/>
<text text-anchor="middle" x="208" y="-191" font-family="Helvetica,sans-Serif" font-size="10.00"> Yellow</text>
<text text-anchor="middle" x="208" y="-180" font-family="Helvetica,sans-Serif" font-size="10.00">White</text>
<text text-anchor="middle" x="208" y="-169" font-family="Helvetica,sans-Serif" font-size="10.00">Pink</text>
<text text-anchor="middle" x="208" y="-158" font-family="Helvetica,sans-Serif" font-size="10.00">HotPink</text>
<text text-anchor="middle" x="208" y="-147" font-family="Helvetica,sans-Serif" font-size="10.00">Blue</text>
<text text-anchor="middle" x="208" y="-136" font-family="Helvetica,sans-Serif" font-size="10.00">Purple</text>
<text text-anchor="middle" x="208" y="-125" font-family="Helvetica,sans-Serif" font-size="10.00">Orange</text>
<text text-anchor="middle" x="208" y="-114" font-family="Helvetica,sans-Serif" font-size="10.00">Black</text>
<text text-anchor="middle" x="208" y="-103" font-family="Helvetica,sans-Serif" font-size="10.00">Red</text>
<text text-anchor="middle" x="208" y="-92" font-family="Helvetica,sans-Serif" font-size="10.00">Green</text>
<text text-anchor="middle" x="208" y="-81" font-family="Helvetica,sans-Serif" font-size="10.00">...</text>
</g>
<!-- Node3 -->
<g id="node3" class="node"><title>Node3</title>
<polygon fill="white" stroke="#bfbfbf" points="0,-236.5 0,-255.5 103,-255.5 103,-236.5 0,-236.5"/>
<text text-anchor="middle" x="51.5" y="-243.5" font-family="Helvetica,sans-Serif" font-size="10.00">IEquatable&lt; Color &gt;</text>
</g>
<!-- Node3&#45;&gt;Node2 -->
<g id="edge2" class="edge"><title>Node3&#45;&gt;Node2</title>
<path fill="none" stroke="midnightblue" d="M61.3369,-227.41C74.1096,-204.571 95.9118,-165.586 105.605,-148.253"/>
<polygon fill="midnightblue" stroke="midnightblue" points="58.1545,-225.93 56.3282,-236.366 64.264,-229.347 58.1545,-225.93"/>
</g>
<!-- Node4 -->
<g id="node4" class="node"><title>Node4</title>
<polygon fill="white" stroke="#bfbfbf" points="121.5,-236.5 121.5,-255.5 217.5,-255.5 217.5,-236.5 121.5,-236.5"/>
<text text-anchor="middle" x="169.5" y="-243.5" font-family="Helvetica,sans-Serif" font-size="10.00">IEquatable&lt; uint &gt;</text>
</g>
<!-- Node4&#45;&gt;Node2 -->
<g id="edge3" class="edge"><title>Node4&#45;&gt;Node2</title>
<path fill="none" stroke="midnightblue" d="M159.663,-227.41C146.89,-204.571 125.088,-165.586 115.395,-148.253"/>
<polygon fill="midnightblue" stroke="midnightblue" points="156.736,-229.347 164.672,-236.366 162.846,-225.93 156.736,-229.347"/>
</g>
</g>
</svg>
