<?xml version="1.0" encoding="UTF-8" standalone="no"?>
<!DOCTYPE svg PUBLIC "-//W3C//DTD SVG 1.1//EN"
 "http://www.w3.org/Graphics/SVG/1.1/DTD/svg11.dtd">
<!-- Generated by graphviz version 2.38.0 (20140413.2041)
 -->
<!-- Title: Corale.Colore.Razer.Mouse.Effects.Custom Pages: 1 -->
<svg width="236pt" height="106pt"
 viewBox="0.00 0.00 235.50 106.00" xmlns="http://www.w3.org/2000/svg" xmlns:xlink="http://www.w3.org/1999/xlink">
<g id="graph0" class="graph" transform="scale(1 1) rotate(0) translate(4 102)">
<title>Corale.Colore.Razer.Mouse.Effects.Custom</title>
<polygon fill="white" stroke="none" points="-4,4 -4,-102 231.5,-102 231.5,4 -4,4"/>
<!-- Node1 -->
<g id="node1" class="node"><title>Node1</title>
<polygon fill="#bfbfbf" stroke="black" points="48.5,-0.5 48.5,-30.5 187.5,-30.5 187.5,-0.5 48.5,-0.5"/>
<text text-anchor="start" x="56.5" y="-18.5" font-family="Helvetica,sans-Serif" font-size="10.00">Corale.Colore.Razer.Mouse.</text>
<text text-anchor="middle" x="118" y="-7.5" font-family="Helvetica,sans-Serif" font-size="10.00">Effects.Custom</text>
</g>
<!-- Node2 -->
<g id="node2" class="node"><title>Node2</title>
<polygon fill="white" stroke="#bfbfbf" points="0,-73 0,-92 114,-92 114,-73 0,-73"/>
<text text-anchor="middle" x="57" y="-80" font-family="Helvetica,sans-Serif" font-size="10.00">IEquatable&lt; Custom &gt;</text>
</g>
<!-- Node2&#45;&gt;Node1 -->
<g id="edge1" class="edge"><title>Node2&#45;&gt;Node1</title>
<path fill="none" stroke="midnightblue" d="M72.1992,-65.3041C82.2118,-54.6349 95.1934,-40.8021 104.778,-30.589"/>
<polygon fill="midnightblue" stroke="midnightblue" points="69.5177,-63.0468 65.2267,-72.7338 74.6221,-67.837 69.5177,-63.0468"/>
</g>
<!-- Node3 -->
<g id="node3" class="node"><title>Node3</title>
<polygon fill="white" stroke="#bfbfbf" points="132.5,-67.5 132.5,-97.5 227.5,-97.5 227.5,-67.5 132.5,-67.5"/>
<text text-anchor="start" x="140.5" y="-85.5" font-family="Helvetica,sans-Serif" font-size="10.00">IEquatable&lt; IList&lt;</text>
<text text-anchor="middle" x="180" y="-74.5" font-family="Helvetica,sans-Serif" font-size="10.00"> Color &gt;&gt;</text>
</g>
<!-- Node3&#45;&gt;Node1 -->
<g id="edge2" class="edge"><title>Node3&#45;&gt;Node1</title>
<path fill="none" stroke="midnightblue" d="M159.515,-60.0243C150.278,-50.3398 139.627,-39.1739 131.427,-30.5765"/>
<polygon fill="midnightblue" stroke="midnightblue" points="157.112,-62.5756 166.547,-67.396 162.177,-57.7441 157.112,-62.5756"/>
</g>
</g>
</svg>
