<?xml version="1.0" encoding="UTF-8" standalone="no"?>
<!DOCTYPE svg PUBLIC "-//W3C//DTD SVG 1.1//EN"
 "http://www.w3.org/Graphics/SVG/1.1/DTD/svg11.dtd">
<!-- Generated by graphviz version 2.38.0 (20140413.2041)
 -->
<!-- Title: Corale.Colore.Core.Color Pages: 1 -->
<svg width="390pt" height="95pt"
 viewBox="0.00 0.00 389.50 95.00" xmlns="http://www.w3.org/2000/svg" xmlns:xlink="http://www.w3.org/1999/xlink">
<g id="graph0" class="graph" transform="scale(1 1) rotate(0) translate(4 91)">
<title>Corale.Colore.Core.Color</title>
<polygon fill="white" stroke="none" points="-4,4 -4,-91 385.5,-91 385.5,4 -4,4"/>
<!-- Node1 -->
<g id="node1" class="node"><title>Node1</title>
<polygon fill="#bfbfbf" stroke="black" points="107.5,-0.5 107.5,-19.5 231.5,-19.5 231.5,-0.5 107.5,-0.5"/>
<text text-anchor="middle" x="169.5" y="-7.5" font-family="Helvetica,sans-Serif" font-size="10.00">Corale.Colore.Core.Color</text>
</g>
<!-- Node2 -->
<g id="node2" class="node"><title>Node2</title>
<polygon fill="white" stroke="#bfbfbf" points="0,-62 0,-81 103,-81 103,-62 0,-62"/>
<text text-anchor="middle" x="51.5" y="-69" font-family="Helvetica,sans-Serif" font-size="10.00">IEquatable&lt; Color &gt;</text>
</g>
<!-- Node2&#45;&gt;Node1 -->
<g id="edge1" class="edge"><title>Node2&#45;&gt;Node1</title>
<path fill="none" stroke="midnightblue" d="M77.5462,-57.3665C100.416,-45.8347 133.011,-29.3992 152.625,-19.5091"/>
<polygon fill="midnightblue" stroke="midnightblue" points="75.7598,-54.3475 68.4065,-61.9751 78.9115,-60.5979 75.7598,-54.3475"/>
</g>
<!-- Node3 -->
<g id="node3" class="node"><title>Node3</title>
<polygon fill="white" stroke="#bfbfbf" points="121.5,-62 121.5,-81 217.5,-81 217.5,-62 121.5,-62"/>
<text text-anchor="middle" x="169.5" y="-69" font-family="Helvetica,sans-Serif" font-size="10.00">IEquatable&lt; uint &gt;</text>
</g>
<!-- Node3&#45;&gt;Node1 -->
<g id="edge2" class="edge"><title>Node3&#45;&gt;Node1</title>
<path fill="none" stroke="midnightblue" d="M169.5,-51.8165C169.5,-40.9962 169.5,-27.898 169.5,-19.5091"/>
<polygon fill="midnightblue" stroke="midnightblue" points="166,-51.9751 169.5,-61.9751 173,-51.9751 166,-51.9751"/>
</g>
<!-- Node4 -->
<g id="node4" class="node"><title>Node4</title>
<polygon fill="white" stroke="#bfbfbf" points="235.5,-56.5 235.5,-86.5 381.5,-86.5 381.5,-56.5 235.5,-56.5"/>
<text text-anchor="start" x="243.5" y="-74.5" font-family="Helvetica,sans-Serif" font-size="10.00">IEquatable&lt; System.Drawing.</text>
<text text-anchor="middle" x="308.5" y="-63.5" font-family="Helvetica,sans-Serif" font-size="10.00">Color &gt;</text>
</g>
<!-- Node4&#45;&gt;Node1 -->
<g id="edge3" class="edge"><title>Node4&#45;&gt;Node1</title>
<path fill="none" stroke="midnightblue" d="M266.15,-52.3718C240.777,-41.5105 209.675,-28.1972 189.726,-19.6578"/>
<polygon fill="midnightblue" stroke="midnightblue" points="264.988,-55.6817 275.559,-56.3993 267.743,-49.2465 264.988,-55.6817"/>
</g>
</g>
</svg>
