<?xml version="1.0" encoding="UTF-8" standalone="no"?>
<!DOCTYPE svg PUBLIC "-//W3C//DTD SVG 1.1//EN"
 "http://www.w3.org/Graphics/SVG/1.1/DTD/svg11.dtd">
<!-- Generated by graphviz version 2.38.0 (20140413.2041)
 -->
<!-- Title: Corale.Colore.Razer.Mouse.Effects.CustomGrid Pages: 1 -->
<svg width="351pt" height="116pt"
 viewBox="0.00 0.00 351.00 115.50" xmlns="http://www.w3.org/2000/svg" xmlns:xlink="http://www.w3.org/1999/xlink">
<g id="graph0" class="graph" transform="scale(1 1) rotate(0) translate(4 111.5)">
<title>Corale.Colore.Razer.Mouse.Effects.CustomGrid</title>
<polygon fill="white" stroke="none" points="-4,4 -4,-111.5 347,-111.5 347,4 -4,4"/>
<!-- Node1 -->
<g id="node1" class="node"><title>Node1</title>
<polygon fill="#bfbfbf" stroke="black" points="204,-44.5 204,-74.5 343,-74.5 343,-44.5 204,-44.5"/>
<text text-anchor="start" x="212" y="-62.5" font-family="Helvetica,sans-Serif" font-size="10.00">Corale.Colore.Razer.Mouse.</text>
<text text-anchor="middle" x="273.5" y="-51.5" font-family="Helvetica,sans-Serif" font-size="10.00">Effects.CustomGrid</text>
</g>
<!-- Node2 -->
<g id="node2" class="node"><title>Node2</title>
<polygon fill="white" stroke="#bfbfbf" points="3.5,-88 3.5,-107 135.5,-107 135.5,-88 3.5,-88"/>
<text text-anchor="middle" x="69.5" y="-95" font-family="Helvetica,sans-Serif" font-size="10.00">IEquatable&lt; CustomGrid &gt;</text>
</g>
<!-- Node2&#45;&gt;Node1 -->
<g id="edge1" class="edge"><title>Node2&#45;&gt;Node1</title>
<path fill="none" stroke="midnightblue" d="M131.14,-86.0924C154.036,-81.7853 180.244,-76.855 203.825,-72.4191"/>
<polygon fill="midnightblue" stroke="midnightblue" points="130.393,-82.6715 121.212,-87.96 131.687,-89.5509 130.393,-82.6715"/>
</g>
<!-- Node3 -->
<g id="node3" class="node"><title>Node3</title>
<polygon fill="white" stroke="#bfbfbf" points="13.5,-50 13.5,-69 125.5,-69 125.5,-50 13.5,-50"/>
<text text-anchor="middle" x="69.5" y="-57" font-family="Helvetica,sans-Serif" font-size="10.00">IEquatable&lt; Color[][]&gt;</text>
</g>
<!-- Node3&#45;&gt;Node1 -->
<g id="edge2" class="edge"><title>Node3&#45;&gt;Node1</title>
<path fill="none" stroke="midnightblue" d="M135.795,-59.5C157.487,-59.5 181.702,-59.5 203.654,-59.5"/>
<polygon fill="midnightblue" stroke="midnightblue" points="135.697,-56.0001 125.697,-59.5 135.697,-63.0001 135.697,-56.0001"/>
</g>
<!-- Node4 -->
<g id="node4" class="node"><title>Node4</title>
<g id="a_node4"><a xlink:href="struct_corale_1_1_colore_1_1_razer_1_1_mouse_1_1_effects_1_1_custom_grid_1_1_row.html" target="_top" xlink:title="Container struct holding color definitions for a single row in the custom grid. ">
<polygon fill="white" stroke="black" points="0,-0.5 0,-30.5 139,-30.5 139,-0.5 0,-0.5"/>
<text text-anchor="start" x="8" y="-18.5" font-family="Helvetica,sans-Serif" font-size="10.00">Corale.Colore.Razer.Mouse.</text>
<text text-anchor="middle" x="69.5" y="-7.5" font-family="Helvetica,sans-Serif" font-size="10.00">Effects.CustomGrid.Row</text>
</a>
</g>
</g>
<!-- Node4&#45;&gt;Node1 -->
<g id="edge3" class="edge"><title>Node4&#45;&gt;Node1</title>
<path fill="none" stroke="#9a32cd" stroke-dasharray="5,2" d="M149.062,-32.6125C167.082,-36.5376 186.105,-40.6812 203.677,-44.5089"/>
<polygon fill="#9a32cd" stroke="#9a32cd" points="149.686,-29.1664 139.17,-30.4578 148.196,-36.006 149.686,-29.1664"/>
<text text-anchor="middle" x="171.5" y="-43.5" font-family="Helvetica,sans-Serif" font-size="10.00"> _rows</text>
</g>
</g>
</svg>
