<?xml version="1.0" encoding="UTF-8" standalone="no"?>
<!DOCTYPE svg PUBLIC "-//W3C//DTD SVG 1.1//EN"
 "http://www.w3.org/Graphics/SVG/1.1/DTD/svg11.dtd">
<!-- Generated by graphviz version 2.38.0 (20140413.2041)
 -->
<!-- Title: Corale.Colore.Razer.ChromaLink.Effects.Custom Pages: 1 -->
<svg width="441pt" height="264pt"
 viewBox="0.00 0.00 441.00 264.00" xmlns="http://www.w3.org/2000/svg" xmlns:xlink="http://www.w3.org/1999/xlink">
<g id="graph0" class="graph" transform="scale(1 1) rotate(0) translate(4 260)">
<title>Corale.Colore.Razer.ChromaLink.Effects.Custom</title>
<polygon fill="white" stroke="none" points="-4,4 -4,-260 437,-260 437,4 -4,4"/>
<!-- Node3 -->
<g id="node1" class="node"><title>Node3</title>
<polygon fill="#bfbfbf" stroke="black" points="115,-0.5 115,-30.5 255,-30.5 255,-0.5 115,-0.5"/>
<text text-anchor="start" x="123" y="-18.5" font-family="Helvetica,sans-Serif" font-size="10.00">Corale.Colore.Razer.Chroma</text>
<text text-anchor="middle" x="185" y="-7.5" font-family="Helvetica,sans-Serif" font-size="10.00">Link.Effects.Custom</text>
</g>
<!-- Node4 -->
<g id="node2" class="node"><title>Node4</title>
<polygon fill="white" stroke="#bfbfbf" points="0,-129 0,-148 114,-148 114,-129 0,-129"/>
<text text-anchor="middle" x="57" y="-136" font-family="Helvetica,sans-Serif" font-size="10.00">IEquatable&lt; Custom &gt;</text>
</g>
<!-- Node4&#45;&gt;Node3 -->
<g id="edge1" class="edge"><title>Node4&#45;&gt;Node3</title>
<path fill="none" stroke="midnightblue" d="M73.5199,-121.884C98.64,-98.1372 146.06,-53.3106 170.149,-30.5392"/>
<polygon fill="midnightblue" stroke="midnightblue" points="71.0681,-119.385 66.2054,-128.798 75.8768,-124.472 71.0681,-119.385"/>
</g>
<!-- Node5 -->
<g id="node3" class="node"><title>Node5</title>
<polygon fill="white" stroke="#bfbfbf" points="132,-129 132,-148 238,-148 238,-129 132,-129"/>
<text text-anchor="middle" x="185" y="-136" font-family="Helvetica,sans-Serif" font-size="10.00">IEquatable&lt; Color[]&gt;</text>
</g>
<!-- Node5&#45;&gt;Node3 -->
<g id="edge2" class="edge"><title>Node5&#45;&gt;Node3</title>
<path fill="none" stroke="midnightblue" d="M185,-118.685C185,-94.2974 185,-52.3248 185,-30.5392"/>
<polygon fill="midnightblue" stroke="midnightblue" points="181.5,-118.798 185,-128.798 188.5,-118.798 181.5,-118.798"/>
</g>
<!-- Node6 -->
<g id="node4" class="node"><title>Node6</title>
<g id="a_node4"><a xlink:href="struct_corale_1_1_colore_1_1_core_1_1_color.html" target="_top" xlink:title="Represents an RGB color. ">
<polygon fill="white" stroke="black" points="256,-129 256,-148 380,-148 380,-129 256,-129"/>
<text text-anchor="middle" x="318" y="-136" font-family="Helvetica,sans-Serif" font-size="10.00">Corale.Colore.Core.Color</text>
</a>
</g>
</g>
<!-- Node6&#45;&gt;Node3 -->
<g id="edge3" class="edge"><title>Node6&#45;&gt;Node3</title>
<path fill="none" stroke="#9a32cd" stroke-dasharray="5,2" d="M300.835,-121.884C274.733,-98.1372 225.461,-53.3106 200.431,-30.5392"/>
<polygon fill="#9a32cd" stroke="#9a32cd" points="298.683,-124.657 308.435,-128.798 303.393,-119.48 298.683,-124.657"/>
<text text-anchor="middle" x="248.5" y="-52" font-family="Helvetica,sans-Serif" font-size="10.00"> _colors</text>
</g>
<!-- Node6&#45;&gt;Node6 -->
<g id="edge6" class="edge"><title>Node6&#45;&gt;Node6</title>
<path fill="none" stroke="#9a32cd" stroke-dasharray="5,2" d="M347.035,-150.784C371.863,-156.245 398,-152.151 398,-138.5 398,-123.037 364.464,-119.836 337.282,-128.896"/>
<polygon fill="#9a32cd" stroke="#9a32cd" points="347.852,-147.379 337.282,-148.104 345.997,-154.128 347.852,-147.379"/>
<text text-anchor="middle" x="415.5" y="-191" font-family="Helvetica,sans-Serif" font-size="10.00"> Yellow</text>
<text text-anchor="middle" x="415.5" y="-180" font-family="Helvetica,sans-Serif" font-size="10.00">White</text>
<text text-anchor="middle" x="415.5" y="-169" font-family="Helvetica,sans-Serif" font-size="10.00">Pink</text>
<text text-anchor="middle" x="415.5" y="-158" font-family="Helvetica,sans-Serif" font-size="10.00">HotPink</text>
<text text-anchor="middle" x="415.5" y="-147" font-family="Helvetica,sans-Serif" font-size="10.00">Blue</text>
<text text-anchor="middle" x="415.5" y="-136" font-family="Helvetica,sans-Serif" font-size="10.00">Purple</text>
<text text-anchor="middle" x="415.5" y="-125" font-family="Helvetica,sans-Serif" font-size="10.00">Orange</text>
<text text-anchor="middle" x="415.5" y="-114" font-family="Helvetica,sans-Serif" font-size="10.00">Black</text>
<text text-anchor="middle" x="415.5" y="-103" font-family="Helvetica,sans-Serif" font-size="10.00">Red</text>
<text text-anchor="middle" x="415.5" y="-92" font-family="Helvetica,sans-Serif" font-size="10.00">Green</text>
<text text-anchor="middle" x="415.5" y="-81" font-family="Helvetica,sans-Serif" font-size="10.00">...</text>
</g>
<!-- Node7 -->
<g id="node5" class="node"><title>Node7</title>
<polygon fill="white" stroke="#bfbfbf" points="207.5,-236.5 207.5,-255.5 310.5,-255.5 310.5,-236.5 207.5,-236.5"/>
<text text-anchor="middle" x="259" y="-243.5" font-family="Helvetica,sans-Serif" font-size="10.00">IEquatable&lt; Color &gt;</text>
</g>
<!-- Node7&#45;&gt;Node6 -->
<g id="edge4" class="edge"><title>Node7&#45;&gt;Node6</title>
<path fill="none" stroke="midnightblue" d="M268.837,-227.41C281.61,-204.571 303.412,-165.586 313.105,-148.253"/>
<polygon fill="midnightblue" stroke="midnightblue" points="265.654,-225.93 263.828,-236.366 271.764,-229.347 265.654,-225.93"/>
</g>
<!-- Node8 -->
<g id="node6" class="node"><title>Node8</title>
<polygon fill="white" stroke="#bfbfbf" points="329,-236.5 329,-255.5 425,-255.5 425,-236.5 329,-236.5"/>
<text text-anchor="middle" x="377" y="-243.5" font-family="Helvetica,sans-Serif" font-size="10.00">IEquatable&lt; uint &gt;</text>
</g>
<!-- Node8&#45;&gt;Node6 -->
<g id="edge5" class="edge"><title>Node8&#45;&gt;Node6</title>
<path fill="none" stroke="midnightblue" d="M367.163,-227.41C354.39,-204.571 332.588,-165.586 322.895,-148.253"/>
<polygon fill="midnightblue" stroke="midnightblue" points="364.236,-229.347 372.172,-236.366 370.346,-225.93 364.236,-229.347"/>
</g>
</g>
</svg>
