<?xml version="1.0" encoding="UTF-8" standalone="no"?>
<!DOCTYPE svg PUBLIC "-//W3C//DTD SVG 1.1//EN"
 "http://www.w3.org/Graphics/SVG/1.1/DTD/svg11.dtd">
<!-- Generated by graphviz version 2.38.0 (20140413.2041)
 -->
<!-- Title: Corale.Colore.Core.Color Pages: 1 -->
<svg width="226pt" height="84pt"
 viewBox="0.00 0.00 225.50 84.00" xmlns="http://www.w3.org/2000/svg" xmlns:xlink="http://www.w3.org/1999/xlink">
<g id="graph0" class="graph" transform="scale(1 1) rotate(0) translate(4 80)">
<title>Corale.Colore.Core.Color</title>
<polygon fill="white" stroke="none" points="-4,4 -4,-80 221.5,-80 221.5,4 -4,4"/>
<!-- Node1 -->
<g id="node1" class="node"><title>Node1</title>
<polygon fill="#bfbfbf" stroke="black" points="48.5,-0.5 48.5,-19.5 172.5,-19.5 172.5,-0.5 48.5,-0.5"/>
<text text-anchor="middle" x="110.5" y="-7.5" font-family="Helvetica,sans-Serif" font-size="10.00">Corale.Colore.Core.Color</text>
</g>
<!-- Node2 -->
<g id="node2" class="node"><title>Node2</title>
<polygon fill="white" stroke="#bfbfbf" points="0,-56.5 0,-75.5 103,-75.5 103,-56.5 0,-56.5"/>
<text text-anchor="middle" x="51.5" y="-63.5" font-family="Helvetica,sans-Serif" font-size="10.00">IEquatable&lt; Color &gt;</text>
</g>
<!-- Node2&#45;&gt;Node1 -->
<g id="edge1" class="edge"><title>Node2&#45;&gt;Node1</title>
<path fill="none" stroke="midnightblue" d="M68.3945,-49.5372C78.9145,-39.9087 92.0687,-27.8694 100.848,-19.8339"/>
<polygon fill="midnightblue" stroke="midnightblue" points="65.9931,-46.9905 60.9794,-56.324 70.7192,-52.1542 65.9931,-46.9905"/>
</g>
<!-- Node3 -->
<g id="node3" class="node"><title>Node3</title>
<polygon fill="white" stroke="#bfbfbf" points="121.5,-56.5 121.5,-75.5 217.5,-75.5 217.5,-56.5 121.5,-56.5"/>
<text text-anchor="middle" x="169.5" y="-63.5" font-family="Helvetica,sans-Serif" font-size="10.00">IEquatable&lt; uint &gt;</text>
</g>
<!-- Node3&#45;&gt;Node1 -->
<g id="edge2" class="edge"><title>Node3&#45;&gt;Node1</title>
<path fill="none" stroke="midnightblue" d="M152.605,-49.5372C142.085,-39.9087 128.931,-27.8694 120.152,-19.8339"/>
<polygon fill="midnightblue" stroke="midnightblue" points="150.281,-52.1542 160.021,-56.324 155.007,-46.9905 150.281,-52.1542"/>
</g>
</g>
</svg>
