<?xml version="1.0" encoding="UTF-8" standalone="no"?>
<!DOCTYPE svg PUBLIC "-//W3C//DTD SVG 1.1//EN"
 "http://www.w3.org/Graphics/SVG/1.1/DTD/svg11.dtd">
<!-- Generated by graphviz version 2.38.0 (20140413.2041)
 -->
<!-- Title: Corale.Colore.SdkVersion Pages: 1 -->
<svg width="385pt" height="84pt"
 viewBox="0.00 0.00 385.00 84.00" xmlns="http://www.w3.org/2000/svg" xmlns:xlink="http://www.w3.org/1999/xlink">
<g id="graph0" class="graph" transform="scale(1 1) rotate(0) translate(4 80)">
<title>Corale.Colore.SdkVersion</title>
<polygon fill="white" stroke="none" points="-4,4 -4,-80 381,-80 381,4 -4,4"/>
<!-- Node1 -->
<g id="node1" class="node"><title>Node1</title>
<polygon fill="#bfbfbf" stroke="black" points="154.5,-0.5 154.5,-19.5 282.5,-19.5 282.5,-0.5 154.5,-0.5"/>
<text text-anchor="middle" x="218.5" y="-7.5" font-family="Helvetica,sans-Serif" font-size="10.00">Corale.Colore.SdkVersion</text>
</g>
<!-- Node2 -->
<g id="node2" class="node"><title>Node2</title>
<polygon fill="white" stroke="#bfbfbf" points="0,-56.5 0,-75.5 131,-75.5 131,-56.5 0,-56.5"/>
<text text-anchor="middle" x="65.5" y="-63.5" font-family="Helvetica,sans-Serif" font-size="10.00">IEquatable&lt; SdkVersion &gt;</text>
</g>
<!-- Node2&#45;&gt;Node1 -->
<g id="edge1" class="edge"><title>Node2&#45;&gt;Node1</title>
<path fill="none" stroke="midnightblue" d="M99.389,-53.0392C128.177,-42.8786 168.787,-28.5457 194.37,-19.5164"/>
<polygon fill="midnightblue" stroke="midnightblue" points="98.0083,-49.8148 89.7433,-56.4435 100.338,-56.4157 98.0083,-49.8148"/>
</g>
<!-- Node3 -->
<g id="node3" class="node"><title>Node3</title>
<polygon fill="white" stroke="#bfbfbf" points="149,-56.5 149,-75.5 288,-75.5 288,-56.5 149,-56.5"/>
<text text-anchor="middle" x="218.5" y="-63.5" font-family="Helvetica,sans-Serif" font-size="10.00">IComparable&lt; SdkVersion &gt;</text>
</g>
<!-- Node3&#45;&gt;Node1 -->
<g id="edge2" class="edge"><title>Node3&#45;&gt;Node1</title>
<path fill="none" stroke="midnightblue" d="M218.5,-45.8045C218.5,-36.9102 218.5,-26.7798 218.5,-19.7511"/>
<polygon fill="midnightblue" stroke="midnightblue" points="215,-46.083 218.5,-56.083 222,-46.083 215,-46.083"/>
</g>
<!-- Node4 -->
<g id="node4" class="node"><title>Node4</title>
<polygon fill="white" stroke="#bfbfbf" points="306,-56.5 306,-75.5 377,-75.5 377,-56.5 306,-56.5"/>
<text text-anchor="middle" x="341.5" y="-63.5" font-family="Helvetica,sans-Serif" font-size="10.00">IComparable</text>
</g>
<!-- Node4&#45;&gt;Node1 -->
<g id="edge3" class="edge"><title>Node4&#45;&gt;Node1</title>
<path fill="none" stroke="midnightblue" d="M312.727,-52.3678C289.693,-42.2553 258.016,-28.3486 237.899,-19.5164"/>
<polygon fill="midnightblue" stroke="midnightblue" points="311.447,-55.6283 322.01,-56.4435 314.261,-49.2188 311.447,-55.6283"/>
</g>
</g>
</svg>
