<?xml version="1.0" encoding="UTF-8" standalone="no"?>
<!DOCTYPE svg PUBLIC "-//W3C//DTD SVG 1.1//EN"
 "http://www.w3.org/Graphics/SVG/1.1/DTD/svg11.dtd">
<!-- Generated by graphviz version 2.38.0 (20140413.2041)
 -->
<!-- Title: Corale.Colore.Razer.Mouse.Effects.Breathing Pages: 1 -->
<svg width="234pt" height="275pt"
 viewBox="0.00 0.00 233.50 275.00" xmlns="http://www.w3.org/2000/svg" xmlns:xlink="http://www.w3.org/1999/xlink">
<g id="graph0" class="graph" transform="scale(1 1) rotate(0) translate(4 271)">
<title>Corale.Colore.Razer.Mouse.Effects.Breathing</title>
<polygon fill="white" stroke="none" points="-4,4 -4,-271 229.5,-271 229.5,4 -4,4"/>
<!-- Node1 -->
<g id="node1" class="node"><title>Node1</title>
<polygon fill="#bfbfbf" stroke="black" points="41,-0.5 41,-30.5 180,-30.5 180,-0.5 41,-0.5"/>
<text text-anchor="start" x="49" y="-18.5" font-family="Helvetica,sans-Serif" font-size="10.00">Corale.Colore.Razer.Mouse.</text>
<text text-anchor="middle" x="110.5" y="-7.5" font-family="Helvetica,sans-Serif" font-size="10.00">Effects.Breathing</text>
</g>
<!-- Node2 -->
<g id="node2" class="node"><title>Node2</title>
<g id="a_node2"><a xlink:href="struct_corale_1_1_colore_1_1_core_1_1_color.html" target="_top" xlink:title="Represents an RGB color. ">
<polygon fill="white" stroke="black" points="48.5,-140 48.5,-159 172.5,-159 172.5,-140 48.5,-140"/>
<text text-anchor="middle" x="110.5" y="-147" font-family="Helvetica,sans-Serif" font-size="10.00">Corale.Colore.Core.Color</text>
</a>
</g>
</g>
<!-- Node2&#45;&gt;Node1 -->
<g id="edge1" class="edge"><title>Node2&#45;&gt;Node1</title>
<path fill="none" stroke="#9a32cd" stroke-dasharray="5,2" d="M110.5,-129.531C110.5,-102.812 110.5,-54.6907 110.5,-30.7832"/>
<polygon fill="#9a32cd" stroke="#9a32cd" points="107,-129.839 110.5,-139.839 114,-129.839 107,-129.839"/>
<text text-anchor="middle" x="129" y="-63" font-family="Helvetica,sans-Serif" font-size="10.00"> Second</text>
<text text-anchor="middle" x="129" y="-52" font-family="Helvetica,sans-Serif" font-size="10.00">First</text>
</g>
<!-- Node2&#45;&gt;Node2 -->
<g id="edge4" class="edge"><title>Node2&#45;&gt;Node2</title>
<path fill="none" stroke="#9a32cd" stroke-dasharray="5,2" d="M139.535,-161.784C164.363,-167.245 190.5,-163.151 190.5,-149.5 190.5,-134.037 156.964,-130.836 129.782,-139.896"/>
<polygon fill="#9a32cd" stroke="#9a32cd" points="140.352,-158.379 129.782,-159.104 138.497,-165.128 140.352,-158.379"/>
<text text-anchor="middle" x="208" y="-202" font-family="Helvetica,sans-Serif" font-size="10.00"> Yellow</text>
<text text-anchor="middle" x="208" y="-191" font-family="Helvetica,sans-Serif" font-size="10.00">White</text>
<text text-anchor="middle" x="208" y="-180" font-family="Helvetica,sans-Serif" font-size="10.00">Pink</text>
<text text-anchor="middle" x="208" y="-169" font-family="Helvetica,sans-Serif" font-size="10.00">HotPink</text>
<text text-anchor="middle" x="208" y="-158" font-family="Helvetica,sans-Serif" font-size="10.00">Blue</text>
<text text-anchor="middle" x="208" y="-147" font-family="Helvetica,sans-Serif" font-size="10.00">Purple</text>
<text text-anchor="middle" x="208" y="-136" font-family="Helvetica,sans-Serif" font-size="10.00">Orange</text>
<text text-anchor="middle" x="208" y="-125" font-family="Helvetica,sans-Serif" font-size="10.00">Black</text>
<text text-anchor="middle" x="208" y="-114" font-family="Helvetica,sans-Serif" font-size="10.00">Red</text>
<text text-anchor="middle" x="208" y="-103" font-family="Helvetica,sans-Serif" font-size="10.00">Green</text>
<text text-anchor="middle" x="208" y="-92" font-family="Helvetica,sans-Serif" font-size="10.00">...</text>
</g>
<!-- Node3 -->
<g id="node3" class="node"><title>Node3</title>
<polygon fill="white" stroke="#bfbfbf" points="0,-247.5 0,-266.5 103,-266.5 103,-247.5 0,-247.5"/>
<text text-anchor="middle" x="51.5" y="-254.5" font-family="Helvetica,sans-Serif" font-size="10.00">IEquatable&lt; Color &gt;</text>
</g>
<!-- Node3&#45;&gt;Node2 -->
<g id="edge2" class="edge"><title>Node3&#45;&gt;Node2</title>
<path fill="none" stroke="midnightblue" d="M61.3369,-238.41C74.1096,-215.571 95.9118,-176.586 105.605,-159.253"/>
<polygon fill="midnightblue" stroke="midnightblue" points="58.1545,-236.93 56.3282,-247.366 64.264,-240.347 58.1545,-236.93"/>
</g>
<!-- Node4 -->
<g id="node4" class="node"><title>Node4</title>
<polygon fill="white" stroke="#bfbfbf" points="121.5,-247.5 121.5,-266.5 217.5,-266.5 217.5,-247.5 121.5,-247.5"/>
<text text-anchor="middle" x="169.5" y="-254.5" font-family="Helvetica,sans-Serif" font-size="10.00">IEquatable&lt; uint &gt;</text>
</g>
<!-- Node4&#45;&gt;Node2 -->
<g id="edge3" class="edge"><title>Node4&#45;&gt;Node2</title>
<path fill="none" stroke="midnightblue" d="M159.663,-238.41C146.89,-215.571 125.088,-176.586 115.395,-159.253"/>
<polygon fill="midnightblue" stroke="midnightblue" points="156.736,-240.347 164.672,-247.366 162.846,-236.93 156.736,-240.347"/>
</g>
</g>
</svg>
