<?xml version="1.0" encoding="UTF-8" standalone="no"?>
<!DOCTYPE svg PUBLIC "-//W3C//DTD SVG 1.1//EN"
 "http://www.w3.org/Graphics/SVG/1.1/DTD/svg11.dtd">
<!-- Generated by graphviz version 2.38.0 (20140413.2041)
 -->
<!-- Title: Corale.Colore.Razer.Mouse.Effects.Blinking Pages: 1 -->
<svg width="390pt" height="275pt"
 viewBox="0.00 0.00 389.50 275.00" xmlns="http://www.w3.org/2000/svg" xmlns:xlink="http://www.w3.org/1999/xlink">
<g id="graph0" class="graph" transform="scale(1 1) rotate(0) translate(4 271)">
<title>Corale.Colore.Razer.Mouse.Effects.Blinking</title>
<polygon fill="white" stroke="none" points="-4,4 -4,-271 385.5,-271 385.5,4 -4,4"/>
<!-- Node1 -->
<g id="node1" class="node"><title>Node1</title>
<polygon fill="#bfbfbf" stroke="black" points="100,-0.5 100,-30.5 239,-30.5 239,-0.5 100,-0.5"/>
<text text-anchor="start" x="108" y="-18.5" font-family="Helvetica,sans-Serif" font-size="10.00">Corale.Colore.Razer.Mouse.</text>
<text text-anchor="middle" x="169.5" y="-7.5" font-family="Helvetica,sans-Serif" font-size="10.00">Effects.Blinking</text>
</g>
<!-- Node2 -->
<g id="node2" class="node"><title>Node2</title>
<g id="a_node2"><a xlink:href="struct_corale_1_1_colore_1_1_core_1_1_color.html" target="_top" xlink:title="Represents an RGB color. ">
<polygon fill="white" stroke="black" points="107.5,-129 107.5,-148 231.5,-148 231.5,-129 107.5,-129"/>
<text text-anchor="middle" x="169.5" y="-136" font-family="Helvetica,sans-Serif" font-size="10.00">Corale.Colore.Core.Color</text>
</a>
</g>
</g>
<!-- Node2&#45;&gt;Node1 -->
<g id="edge1" class="edge"><title>Node2&#45;&gt;Node1</title>
<path fill="none" stroke="#9a32cd" stroke-dasharray="5,2" d="M169.5,-118.685C169.5,-94.2974 169.5,-52.3248 169.5,-30.5392"/>
<polygon fill="#9a32cd" stroke="#9a32cd" points="166,-118.798 169.5,-128.798 173,-118.798 166,-118.798"/>
<text text-anchor="middle" x="182.5" y="-52" font-family="Helvetica,sans-Serif" font-size="10.00"> Color</text>
</g>
<!-- Node2&#45;&gt;Node2 -->
<g id="edge5" class="edge"><title>Node2&#45;&gt;Node2</title>
<path fill="none" stroke="#9a32cd" stroke-dasharray="5,2" d="M198.535,-150.784C223.363,-156.245 249.5,-152.151 249.5,-138.5 249.5,-123.037 215.964,-119.836 188.782,-128.896"/>
<polygon fill="#9a32cd" stroke="#9a32cd" points="199.352,-147.379 188.782,-148.104 197.497,-154.128 199.352,-147.379"/>
<text text-anchor="middle" x="267" y="-191" font-family="Helvetica,sans-Serif" font-size="10.00"> Yellow</text>
<text text-anchor="middle" x="267" y="-180" font-family="Helvetica,sans-Serif" font-size="10.00">White</text>
<text text-anchor="middle" x="267" y="-169" font-family="Helvetica,sans-Serif" font-size="10.00">Pink</text>
<text text-anchor="middle" x="267" y="-158" font-family="Helvetica,sans-Serif" font-size="10.00">HotPink</text>
<text text-anchor="middle" x="267" y="-147" font-family="Helvetica,sans-Serif" font-size="10.00">Blue</text>
<text text-anchor="middle" x="267" y="-136" font-family="Helvetica,sans-Serif" font-size="10.00">Purple</text>
<text text-anchor="middle" x="267" y="-125" font-family="Helvetica,sans-Serif" font-size="10.00">Orange</text>
<text text-anchor="middle" x="267" y="-114" font-family="Helvetica,sans-Serif" font-size="10.00">Black</text>
<text text-anchor="middle" x="267" y="-103" font-family="Helvetica,sans-Serif" font-size="10.00">Red</text>
<text text-anchor="middle" x="267" y="-92" font-family="Helvetica,sans-Serif" font-size="10.00">Green</text>
<text text-anchor="middle" x="267" y="-81" font-family="Helvetica,sans-Serif" font-size="10.00">...</text>
</g>
<!-- Node3 -->
<g id="node3" class="node"><title>Node3</title>
<polygon fill="white" stroke="#bfbfbf" points="0,-242 0,-261 103,-261 103,-242 0,-242"/>
<text text-anchor="middle" x="51.5" y="-249" font-family="Helvetica,sans-Serif" font-size="10.00">IEquatable&lt; Color &gt;</text>
</g>
<!-- Node3&#45;&gt;Node2 -->
<g id="edge2" class="edge"><title>Node3&#45;&gt;Node2</title>
<path fill="none" stroke="midnightblue" d="M68.1148,-234.871C93.329,-211.152 140.419,-166.856 160.284,-148.17"/>
<polygon fill="midnightblue" stroke="midnightblue" points="65.645,-232.389 60.7593,-241.79 70.4412,-237.488 65.645,-232.389"/>
</g>
<!-- Node4 -->
<g id="node4" class="node"><title>Node4</title>
<polygon fill="white" stroke="#bfbfbf" points="121.5,-242 121.5,-261 217.5,-261 217.5,-242 121.5,-242"/>
<text text-anchor="middle" x="169.5" y="-249" font-family="Helvetica,sans-Serif" font-size="10.00">IEquatable&lt; uint &gt;</text>
</g>
<!-- Node4&#45;&gt;Node2 -->
<g id="edge3" class="edge"><title>Node4&#45;&gt;Node2</title>
<path fill="none" stroke="midnightblue" d="M169.5,-231.679C169.5,-207.365 169.5,-166.047 169.5,-148.17"/>
<polygon fill="midnightblue" stroke="midnightblue" points="166,-231.79 169.5,-241.79 173,-231.79 166,-231.79"/>
</g>
<!-- Node5 -->
<g id="node5" class="node"><title>Node5</title>
<polygon fill="white" stroke="#bfbfbf" points="235.5,-236.5 235.5,-266.5 381.5,-266.5 381.5,-236.5 235.5,-236.5"/>
<text text-anchor="start" x="243.5" y="-254.5" font-family="Helvetica,sans-Serif" font-size="10.00">IEquatable&lt; System.Drawing.</text>
<text text-anchor="middle" x="308.5" y="-243.5" font-family="Helvetica,sans-Serif" font-size="10.00">Color &gt;</text>
</g>
<!-- Node5&#45;&gt;Node2 -->
<g id="edge4" class="edge"><title>Node5&#45;&gt;Node2</title>
<path fill="none" stroke="midnightblue" d="M282.771,-229.954C252.015,-205.393 201.97,-165.429 180.191,-148.037"/>
<polygon fill="midnightblue" stroke="midnightblue" points="280.897,-232.937 290.896,-236.442 285.265,-227.467 280.897,-232.937"/>
</g>
</g>
</svg>
