<?xml version="1.0" encoding="UTF-8" standalone="no"?>
<!DOCTYPE svg PUBLIC "-//W3C//DTD SVG 1.1//EN"
 "http://www.w3.org/Graphics/SVG/1.1/DTD/svg11.dtd">
<!-- Generated by graphviz version 2.38.0 (20140413.2041)
 -->
<!-- Title: Corale.Colore.Core.Color Pages: 1 -->
<svg width="390pt" height="197pt"
 viewBox="0.00 0.00 389.50 197.00" xmlns="http://www.w3.org/2000/svg" xmlns:xlink="http://www.w3.org/1999/xlink">
<g id="graph0" class="graph" transform="scale(1 1) rotate(0) translate(4 193)">
<title>Corale.Colore.Core.Color</title>
<polygon fill="white" stroke="none" points="-4,4 -4,-193 385.5,-193 385.5,4 -4,4"/>
<!-- Node1 -->
<g id="node1" class="node"><title>Node1</title>
<polygon fill="#bfbfbf" stroke="black" points="107.5,-51 107.5,-70 231.5,-70 231.5,-51 107.5,-51"/>
<text text-anchor="middle" x="169.5" y="-58" font-family="Helvetica,sans-Serif" font-size="10.00">Corale.Colore.Core.Color</text>
</g>
<!-- Node1&#45;&gt;Node1 -->
<g id="edge4" class="edge"><title>Node1&#45;&gt;Node1</title>
<path fill="none" stroke="#9a32cd" stroke-dasharray="5,2" d="M198.535,-72.784C223.363,-78.2455 249.5,-74.1508 249.5,-60.5 249.5,-45.0371 215.964,-41.8358 188.782,-50.8961"/>
<polygon fill="#9a32cd" stroke="#9a32cd" points="199.352,-69.3786 188.782,-70.1039 197.497,-76.1284 199.352,-69.3786"/>
<text text-anchor="middle" x="267" y="-113" font-family="Helvetica,sans-Serif" font-size="10.00"> Yellow</text>
<text text-anchor="middle" x="267" y="-102" font-family="Helvetica,sans-Serif" font-size="10.00">White</text>
<text text-anchor="middle" x="267" y="-91" font-family="Helvetica,sans-Serif" font-size="10.00">Pink</text>
<text text-anchor="middle" x="267" y="-80" font-family="Helvetica,sans-Serif" font-size="10.00">HotPink</text>
<text text-anchor="middle" x="267" y="-69" font-family="Helvetica,sans-Serif" font-size="10.00">Blue</text>
<text text-anchor="middle" x="267" y="-58" font-family="Helvetica,sans-Serif" font-size="10.00">Purple</text>
<text text-anchor="middle" x="267" y="-47" font-family="Helvetica,sans-Serif" font-size="10.00">Orange</text>
<text text-anchor="middle" x="267" y="-36" font-family="Helvetica,sans-Serif" font-size="10.00">Black</text>
<text text-anchor="middle" x="267" y="-25" font-family="Helvetica,sans-Serif" font-size="10.00">Red</text>
<text text-anchor="middle" x="267" y="-14" font-family="Helvetica,sans-Serif" font-size="10.00">Green</text>
<text text-anchor="middle" x="267" y="-3" font-family="Helvetica,sans-Serif" font-size="10.00">...</text>
</g>
<!-- Node2 -->
<g id="node2" class="node"><title>Node2</title>
<polygon fill="white" stroke="#bfbfbf" points="0,-164 0,-183 103,-183 103,-164 0,-164"/>
<text text-anchor="middle" x="51.5" y="-171" font-family="Helvetica,sans-Serif" font-size="10.00">IEquatable&lt; Color &gt;</text>
</g>
<!-- Node2&#45;&gt;Node1 -->
<g id="edge1" class="edge"><title>Node2&#45;&gt;Node1</title>
<path fill="none" stroke="midnightblue" d="M68.1148,-156.871C93.329,-133.152 140.419,-88.8561 160.284,-70.1695"/>
<polygon fill="midnightblue" stroke="midnightblue" points="65.645,-154.389 60.7593,-163.79 70.4412,-159.488 65.645,-154.389"/>
</g>
<!-- Node3 -->
<g id="node3" class="node"><title>Node3</title>
<polygon fill="white" stroke="#bfbfbf" points="121.5,-164 121.5,-183 217.5,-183 217.5,-164 121.5,-164"/>
<text text-anchor="middle" x="169.5" y="-171" font-family="Helvetica,sans-Serif" font-size="10.00">IEquatable&lt; uint &gt;</text>
</g>
<!-- Node3&#45;&gt;Node1 -->
<g id="edge2" class="edge"><title>Node3&#45;&gt;Node1</title>
<path fill="none" stroke="midnightblue" d="M169.5,-153.679C169.5,-129.365 169.5,-88.0471 169.5,-70.1695"/>
<polygon fill="midnightblue" stroke="midnightblue" points="166,-153.79 169.5,-163.79 173,-153.79 166,-153.79"/>
</g>
<!-- Node4 -->
<g id="node4" class="node"><title>Node4</title>
<polygon fill="white" stroke="#bfbfbf" points="235.5,-158.5 235.5,-188.5 381.5,-188.5 381.5,-158.5 235.5,-158.5"/>
<text text-anchor="start" x="243.5" y="-176.5" font-family="Helvetica,sans-Serif" font-size="10.00">IEquatable&lt; System.Drawing.</text>
<text text-anchor="middle" x="308.5" y="-165.5" font-family="Helvetica,sans-Serif" font-size="10.00">Color &gt;</text>
</g>
<!-- Node4&#45;&gt;Node1 -->
<g id="edge3" class="edge"><title>Node4&#45;&gt;Node1</title>
<path fill="none" stroke="midnightblue" d="M282.771,-151.954C252.015,-127.393 201.97,-87.4291 180.191,-70.0371"/>
<polygon fill="midnightblue" stroke="midnightblue" points="280.897,-154.937 290.896,-158.442 285.265,-149.467 280.897,-154.937"/>
</g>
</g>
</svg>
