<?xml version="1.0" encoding="UTF-8" standalone="no"?>
<!DOCTYPE svg PUBLIC "-//W3C//DTD SVG 1.1//EN"
 "http://www.w3.org/Graphics/SVG/1.1/DTD/svg11.dtd">
<!-- Generated by graphviz version 2.38.0 (20140413.2041)
 -->
<!-- Title: Corale.Colore.Core.Color Pages: 1 -->
<svg width="234pt" height="186pt"
 viewBox="0.00 0.00 233.50 186.00" xmlns="http://www.w3.org/2000/svg" xmlns:xlink="http://www.w3.org/1999/xlink">
<g id="graph0" class="graph" transform="scale(1 1) rotate(0) translate(4 182)">
<title>Corale.Colore.Core.Color</title>
<polygon fill="white" stroke="none" points="-4,4 -4,-182 229.5,-182 229.5,4 -4,4"/>
<!-- Node1 -->
<g id="node1" class="node"><title>Node1</title>
<polygon fill="#bfbfbf" stroke="black" points="48.5,-51 48.5,-70 172.5,-70 172.5,-51 48.5,-51"/>
<text text-anchor="middle" x="110.5" y="-58" font-family="Helvetica,sans-Serif" font-size="10.00">Corale.Colore.Core.Color</text>
</g>
<!-- Node1&#45;&gt;Node1 -->
<g id="edge3" class="edge"><title>Node1&#45;&gt;Node1</title>
<path fill="none" stroke="#9a32cd" stroke-dasharray="5,2" d="M139.535,-72.784C164.363,-78.2455 190.5,-74.1508 190.5,-60.5 190.5,-45.0371 156.964,-41.8358 129.782,-50.8961"/>
<polygon fill="#9a32cd" stroke="#9a32cd" points="140.352,-69.3786 129.782,-70.1039 138.497,-76.1284 140.352,-69.3786"/>
<text text-anchor="middle" x="208" y="-113" font-family="Helvetica,sans-Serif" font-size="10.00"> Yellow</text>
<text text-anchor="middle" x="208" y="-102" font-family="Helvetica,sans-Serif" font-size="10.00">White</text>
<text text-anchor="middle" x="208" y="-91" font-family="Helvetica,sans-Serif" font-size="10.00">Pink</text>
<text text-anchor="middle" x="208" y="-80" font-family="Helvetica,sans-Serif" font-size="10.00">HotPink</text>
<text text-anchor="middle" x="208" y="-69" font-family="Helvetica,sans-Serif" font-size="10.00">Blue</text>
<text text-anchor="middle" x="208" y="-58" font-family="Helvetica,sans-Serif" font-size="10.00">Purple</text>
<text text-anchor="middle" x="208" y="-47" font-family="Helvetica,sans-Serif" font-size="10.00">Orange</text>
<text text-anchor="middle" x="208" y="-36" font-family="Helvetica,sans-Serif" font-size="10.00">Black</text>
<text text-anchor="middle" x="208" y="-25" font-family="Helvetica,sans-Serif" font-size="10.00">Red</text>
<text text-anchor="middle" x="208" y="-14" font-family="Helvetica,sans-Serif" font-size="10.00">Green</text>
<text text-anchor="middle" x="208" y="-3" font-family="Helvetica,sans-Serif" font-size="10.00">...</text>
</g>
<!-- Node2 -->
<g id="node2" class="node"><title>Node2</title>
<polygon fill="white" stroke="#bfbfbf" points="0,-158.5 0,-177.5 103,-177.5 103,-158.5 0,-158.5"/>
<text text-anchor="middle" x="51.5" y="-165.5" font-family="Helvetica,sans-Serif" font-size="10.00">IEquatable&lt; Color &gt;</text>
</g>
<!-- Node2&#45;&gt;Node1 -->
<g id="edge1" class="edge"><title>Node2&#45;&gt;Node1</title>
<path fill="none" stroke="midnightblue" d="M61.3369,-149.41C74.1096,-126.571 95.9118,-87.5856 105.605,-70.2528"/>
<polygon fill="midnightblue" stroke="midnightblue" points="58.1545,-147.93 56.3282,-158.366 64.264,-151.347 58.1545,-147.93"/>
</g>
<!-- Node3 -->
<g id="node3" class="node"><title>Node3</title>
<polygon fill="white" stroke="#bfbfbf" points="121.5,-158.5 121.5,-177.5 217.5,-177.5 217.5,-158.5 121.5,-158.5"/>
<text text-anchor="middle" x="169.5" y="-165.5" font-family="Helvetica,sans-Serif" font-size="10.00">IEquatable&lt; uint &gt;</text>
</g>
<!-- Node3&#45;&gt;Node1 -->
<g id="edge2" class="edge"><title>Node3&#45;&gt;Node1</title>
<path fill="none" stroke="midnightblue" d="M159.663,-149.41C146.89,-126.571 125.088,-87.5856 115.395,-70.2528"/>
<polygon fill="midnightblue" stroke="midnightblue" points="156.736,-151.347 164.672,-158.366 162.846,-147.93 156.736,-151.347"/>
</g>
</g>
</svg>
