<?xml version="1.0" encoding="UTF-8" standalone="no"?>
<!DOCTYPE svg PUBLIC "-//W3C//DTD SVG 1.1//EN"
 "http://www.w3.org/Graphics/SVG/1.1/DTD/svg11.dtd">
<!-- Generated by graphviz version 2.38.0 (20140413.2041)
 -->
<!-- Title: Corale.Colore.Razer.Keyboard.Effects.Custom Pages: 1 -->
<svg width="317pt" height="275pt"
 viewBox="0.00 0.00 317.00 275.00" xmlns="http://www.w3.org/2000/svg" xmlns:xlink="http://www.w3.org/1999/xlink">
<g id="graph0" class="graph" transform="scale(1 1) rotate(0) translate(4 271)">
<title>Corale.Colore.Razer.Keyboard.Effects.Custom</title>
<polygon fill="white" stroke="none" points="-4,4 -4,-271 313,-271 313,4 -4,4"/>
<!-- Node1 -->
<g id="node1" class="node"><title>Node1</title>
<polygon fill="#bfbfbf" stroke="black" points="23.5,-0.5 23.5,-30.5 174.5,-30.5 174.5,-0.5 23.5,-0.5"/>
<text text-anchor="start" x="31.5" y="-18.5" font-family="Helvetica,sans-Serif" font-size="10.00">Corale.Colore.Razer.Keyboard.</text>
<text text-anchor="middle" x="99" y="-7.5" font-family="Helvetica,sans-Serif" font-size="10.00">Effects.Custom</text>
</g>
<!-- Node2 -->
<g id="node2" class="node"><title>Node2</title>
<polygon fill="white" stroke="#bfbfbf" points="0,-140 0,-159 114,-159 114,-140 0,-140"/>
<text text-anchor="middle" x="57" y="-147" font-family="Helvetica,sans-Serif" font-size="10.00">IEquatable&lt; Custom &gt;</text>
</g>
<!-- Node2&#45;&gt;Node1 -->
<g id="edge1" class="edge"><title>Node2&#45;&gt;Node1</title>
<path fill="none" stroke="midnightblue" d="M62.8084,-130.245C71.2617,-103.677 86.7802,-54.9051 94.4554,-30.7832"/>
<polygon fill="midnightblue" stroke="midnightblue" points="59.4526,-129.249 59.7557,-139.839 66.1231,-131.371 59.4526,-129.249"/>
</g>
<!-- Node3 -->
<g id="node3" class="node"><title>Node3</title>
<g id="a_node3"><a xlink:href="struct_corale_1_1_colore_1_1_core_1_1_color.html" target="_top" xlink:title="Represents an RGB color. ">
<polygon fill="white" stroke="black" points="132,-140 132,-159 256,-159 256,-140 132,-140"/>
<text text-anchor="middle" x="194" y="-147" font-family="Helvetica,sans-Serif" font-size="10.00">Corale.Colore.Core.Color</text>
</a>
</g>
</g>
<!-- Node3&#45;&gt;Node1 -->
<g id="edge2" class="edge"><title>Node3&#45;&gt;Node1</title>
<path fill="none" stroke="#9a32cd" stroke-dasharray="5,2" d="M181.866,-131.641C162.995,-105.419 126.949,-55.3339 109.28,-30.7832"/>
<polygon fill="#9a32cd" stroke="#9a32cd" points="179.085,-133.767 187.767,-139.839 184.766,-129.678 179.085,-133.767"/>
<text text-anchor="middle" x="155.5" y="-63" font-family="Helvetica,sans-Serif" font-size="10.00"> _colors</text>
<text text-anchor="middle" x="155.5" y="-52" font-family="Helvetica,sans-Serif" font-size="10.00">_keys</text>
</g>
<!-- Node3&#45;&gt;Node3 -->
<g id="edge5" class="edge"><title>Node3&#45;&gt;Node3</title>
<path fill="none" stroke="#9a32cd" stroke-dasharray="5,2" d="M223.035,-161.784C247.863,-167.245 274,-163.151 274,-149.5 274,-134.037 240.464,-130.836 213.282,-139.896"/>
<polygon fill="#9a32cd" stroke="#9a32cd" points="223.852,-158.379 213.282,-159.104 221.997,-165.128 223.852,-158.379"/>
<text text-anchor="middle" x="291.5" y="-202" font-family="Helvetica,sans-Serif" font-size="10.00"> Yellow</text>
<text text-anchor="middle" x="291.5" y="-191" font-family="Helvetica,sans-Serif" font-size="10.00">White</text>
<text text-anchor="middle" x="291.5" y="-180" font-family="Helvetica,sans-Serif" font-size="10.00">Pink</text>
<text text-anchor="middle" x="291.5" y="-169" font-family="Helvetica,sans-Serif" font-size="10.00">HotPink</text>
<text text-anchor="middle" x="291.5" y="-158" font-family="Helvetica,sans-Serif" font-size="10.00">Blue</text>
<text text-anchor="middle" x="291.5" y="-147" font-family="Helvetica,sans-Serif" font-size="10.00">Purple</text>
<text text-anchor="middle" x="291.5" y="-136" font-family="Helvetica,sans-Serif" font-size="10.00">Orange</text>
<text text-anchor="middle" x="291.5" y="-125" font-family="Helvetica,sans-Serif" font-size="10.00">Black</text>
<text text-anchor="middle" x="291.5" y="-114" font-family="Helvetica,sans-Serif" font-size="10.00">Red</text>
<text text-anchor="middle" x="291.5" y="-103" font-family="Helvetica,sans-Serif" font-size="10.00">Green</text>
<text text-anchor="middle" x="291.5" y="-92" font-family="Helvetica,sans-Serif" font-size="10.00">...</text>
</g>
<!-- Node4 -->
<g id="node4" class="node"><title>Node4</title>
<polygon fill="white" stroke="#bfbfbf" points="83.5,-247.5 83.5,-266.5 186.5,-266.5 186.5,-247.5 83.5,-247.5"/>
<text text-anchor="middle" x="135" y="-254.5" font-family="Helvetica,sans-Serif" font-size="10.00">IEquatable&lt; Color &gt;</text>
</g>
<!-- Node4&#45;&gt;Node3 -->
<g id="edge3" class="edge"><title>Node4&#45;&gt;Node3</title>
<path fill="none" stroke="midnightblue" d="M144.837,-238.41C157.61,-215.571 179.412,-176.586 189.105,-159.253"/>
<polygon fill="midnightblue" stroke="midnightblue" points="141.654,-236.93 139.828,-247.366 147.764,-240.347 141.654,-236.93"/>
</g>
<!-- Node5 -->
<g id="node5" class="node"><title>Node5</title>
<polygon fill="white" stroke="#bfbfbf" points="205,-247.5 205,-266.5 301,-266.5 301,-247.5 205,-247.5"/>
<text text-anchor="middle" x="253" y="-254.5" font-family="Helvetica,sans-Serif" font-size="10.00">IEquatable&lt; uint &gt;</text>
</g>
<!-- Node5&#45;&gt;Node3 -->
<g id="edge4" class="edge"><title>Node5&#45;&gt;Node3</title>
<path fill="none" stroke="midnightblue" d="M243.163,-238.41C230.39,-215.571 208.588,-176.586 198.895,-159.253"/>
<polygon fill="midnightblue" stroke="midnightblue" points="240.236,-240.347 248.172,-247.366 246.346,-236.93 240.236,-240.347"/>
</g>
</g>
</svg>
