<?xml version="1.0" encoding="UTF-8" standalone="no"?>
<!DOCTYPE svg PUBLIC "-//W3C//DTD SVG 1.1//EN"
 "http://www.w3.org/Graphics/SVG/1.1/DTD/svg11.dtd">
<!-- Generated by graphviz version 2.38.0 (20140413.2041)
 -->
<!-- Title: Corale.Colore.Core.Size Pages: 1 -->
<svg width="493pt" height="84pt"
 viewBox="0.00 0.00 492.50 84.00" xmlns="http://www.w3.org/2000/svg" xmlns:xlink="http://www.w3.org/1999/xlink">
<g id="graph0" class="graph" transform="scale(1 1) rotate(0) translate(4 80)">
<title>Corale.Colore.Core.Size</title>
<polygon fill="white" stroke="none" points="-4,4 -4,-80 488.5,-80 488.5,4 -4,4"/>
<!-- Node1 -->
<g id="node1" class="node"><title>Node1</title>
<polygon fill="#bfbfbf" stroke="black" points="178.5,-0.5 178.5,-19.5 299.5,-19.5 299.5,-0.5 178.5,-0.5"/>
<text text-anchor="middle" x="239" y="-7.5" font-family="Helvetica,sans-Serif" font-size="10.00">Corale.Colore.Core.Size</text>
</g>
<!-- Node2 -->
<g id="node2" class="node"><title>Node2</title>
<polygon fill="white" stroke="#bfbfbf" points="0,-56.5 0,-75.5 108,-75.5 108,-56.5 0,-56.5"/>
<text text-anchor="middle" x="54" y="-63.5" font-family="Helvetica,sans-Serif" font-size="10.00">IComparable&lt; Size &gt;</text>
</g>
<!-- Node2&#45;&gt;Node1 -->
<g id="edge1" class="edge"><title>Node2&#45;&gt;Node1</title>
<path fill="none" stroke="midnightblue" d="M93.1661,-53.5677C128.065,-43.381 178.349,-28.7034 209.823,-19.5164"/>
<polygon fill="midnightblue" stroke="midnightblue" points="91.9325,-50.2817 83.3138,-56.4435 93.8939,-57.0013 91.9325,-50.2817"/>
</g>
<!-- Node3 -->
<g id="node3" class="node"><title>Node3</title>
<polygon fill="white" stroke="#bfbfbf" points="126,-56.5 126,-75.5 226,-75.5 226,-56.5 126,-56.5"/>
<text text-anchor="middle" x="176" y="-63.5" font-family="Helvetica,sans-Serif" font-size="10.00">IEquatable&lt; Size &gt;</text>
</g>
<!-- Node3&#45;&gt;Node1 -->
<g id="edge2" class="edge"><title>Node3&#45;&gt;Node1</title>
<path fill="none" stroke="midnightblue" d="M194.04,-49.5372C205.273,-39.9087 219.319,-27.8694 228.694,-19.8339"/>
<polygon fill="midnightblue" stroke="midnightblue" points="191.437,-47.1586 186.122,-56.324 195.992,-52.4734 191.437,-47.1586"/>
</g>
<!-- Node4 -->
<g id="node4" class="node"><title>Node4</title>
<polygon fill="white" stroke="#bfbfbf" points="244.5,-56.5 244.5,-75.5 359.5,-75.5 359.5,-56.5 244.5,-56.5"/>
<text text-anchor="middle" x="302" y="-63.5" font-family="Helvetica,sans-Serif" font-size="10.00">IComparable&lt; size_t &gt;</text>
</g>
<!-- Node4&#45;&gt;Node1 -->
<g id="edge3" class="edge"><title>Node4&#45;&gt;Node1</title>
<path fill="none" stroke="midnightblue" d="M283.96,-49.5372C272.727,-39.9087 258.681,-27.8694 249.306,-19.8339"/>
<polygon fill="midnightblue" stroke="midnightblue" points="282.008,-52.4734 291.878,-56.324 286.563,-47.1586 282.008,-52.4734"/>
</g>
<!-- Node5 -->
<g id="node5" class="node"><title>Node5</title>
<polygon fill="white" stroke="#bfbfbf" points="377.5,-56.5 377.5,-75.5 484.5,-75.5 484.5,-56.5 377.5,-56.5"/>
<text text-anchor="middle" x="431" y="-63.5" font-family="Helvetica,sans-Serif" font-size="10.00">IEquatable&lt; size_t &gt;</text>
</g>
<!-- Node5&#45;&gt;Node1 -->
<g id="edge4" class="edge"><title>Node5&#45;&gt;Node1</title>
<path fill="none" stroke="midnightblue" d="M390.817,-53.6986C354.581,-43.507 302.086,-28.7429 269.281,-19.5164"/>
<polygon fill="midnightblue" stroke="midnightblue" points="390.003,-57.1053 400.577,-56.4435 391.898,-50.3667 390.003,-57.1053"/>
</g>
</g>
</svg>
