<?xml version="1.0" encoding="UTF-8" standalone="no"?>
<!DOCTYPE svg PUBLIC "-//W3C//DTD SVG 1.1//EN"
 "http://www.w3.org/Graphics/SVG/1.1/DTD/svg11.dtd">
<!-- Generated by graphviz version 2.38.0 (20140413.2041)
 -->
<!-- Title: Corale.Colore.Core.Color Pages: 1 -->
<svg width="305pt" height="142pt"
 viewBox="0.00 0.00 305.00 142.00" xmlns="http://www.w3.org/2000/svg" xmlns:xlink="http://www.w3.org/1999/xlink">
<g id="graph0" class="graph" transform="scale(1 1) rotate(0) translate(4 138)">
<title>Corale.Colore.Core.Color</title>
<polygon fill="white" stroke="none" points="-4,4 -4,-138 301,-138 301,4 -4,4"/>
<!-- Node1 -->
<g id="node1" class="node"><title>Node1</title>
<polygon fill="#bfbfbf" stroke="black" points="173,-57.5 173,-76.5 297,-76.5 297,-57.5 173,-57.5"/>
<text text-anchor="middle" x="235" y="-64.5" font-family="Helvetica,sans-Serif" font-size="10.00">Corale.Colore.Core.Color</text>
</g>
<!-- Node2 -->
<g id="node2" class="node"><title>Node2</title>
<polygon fill="white" stroke="#bfbfbf" points="17,-114.5 17,-133.5 120,-133.5 120,-114.5 17,-114.5"/>
<text text-anchor="middle" x="68.5" y="-121.5" font-family="Helvetica,sans-Serif" font-size="10.00">IEquatable&lt; Color &gt;</text>
</g>
<!-- Node2&#45;&gt;Node1 -->
<g id="edge1" class="edge"><title>Node2&#45;&gt;Node1</title>
<path fill="none" stroke="midnightblue" d="M115.505,-111.71C122.735,-109.589 130.097,-107.317 137,-105 162.891,-96.3085 191.986,-84.6495 211.498,-76.5476"/>
<polygon fill="midnightblue" stroke="midnightblue" points="114.431,-108.377 105.784,-114.499 116.361,-115.105 114.431,-108.377"/>
</g>
<!-- Node3 -->
<g id="node3" class="node"><title>Node3</title>
<polygon fill="white" stroke="#bfbfbf" points="20.5,-76.5 20.5,-95.5 116.5,-95.5 116.5,-76.5 20.5,-76.5"/>
<text text-anchor="middle" x="68.5" y="-83.5" font-family="Helvetica,sans-Serif" font-size="10.00">IEquatable&lt; uint &gt;</text>
</g>
<!-- Node3&#45;&gt;Node1 -->
<g id="edge2" class="edge"><title>Node3&#45;&gt;Node1</title>
<path fill="none" stroke="midnightblue" d="M126.713,-79.3919C141.581,-77.6745 157.656,-75.8179 172.724,-74.0774"/>
<polygon fill="midnightblue" stroke="midnightblue" points="126.171,-75.931 116.639,-80.5554 126.975,-82.8848 126.171,-75.931"/>
</g>
<!-- Node4 -->
<g id="node4" class="node"><title>Node4</title>
<polygon fill="white" stroke="#bfbfbf" points="0,-38.5 0,-57.5 137,-57.5 137,-38.5 0,-38.5"/>
<text text-anchor="middle" x="68.5" y="-45.5" font-family="Helvetica,sans-Serif" font-size="10.00">IEquatable&lt; SystemColor &gt;</text>
</g>
<!-- Node4&#45;&gt;Node1 -->
<g id="edge3" class="edge"><title>Node4&#45;&gt;Node1</title>
<path fill="none" stroke="midnightblue" d="M147.364,-56.9934C155.931,-57.9829 164.562,-58.9798 172.883,-59.9409"/>
<polygon fill="midnightblue" stroke="midnightblue" points="147.694,-53.5083 137.358,-55.8377 146.891,-60.4621 147.694,-53.5083"/>
</g>
<!-- Node5 -->
<g id="node5" class="node"><title>Node5</title>
<polygon fill="white" stroke="#bfbfbf" points="8.5,-0.5 8.5,-19.5 128.5,-19.5 128.5,-0.5 8.5,-0.5"/>
<text text-anchor="middle" x="68.5" y="-7.5" font-family="Helvetica,sans-Serif" font-size="10.00">IEquatable&lt; WpfColor &gt;</text>
</g>
<!-- Node5&#45;&gt;Node1 -->
<g id="edge4" class="edge"><title>Node5&#45;&gt;Node1</title>
<path fill="none" stroke="midnightblue" d="M115.505,-22.2901C122.735,-24.411 130.097,-26.6826 137,-29 162.891,-37.6915 191.986,-49.3505 211.498,-57.4524"/>
<polygon fill="midnightblue" stroke="midnightblue" points="116.361,-18.8946 105.784,-19.5014 114.431,-25.6232 116.361,-18.8946"/>
</g>
</g>
</svg>
