<?xml version="1.0" encoding="UTF-8" standalone="no"?>
<!DOCTYPE svg PUBLIC "-//W3C//DTD SVG 1.1//EN"
 "http://www.w3.org/Graphics/SVG/1.1/DTD/svg11.dtd">
<!-- Generated by graphviz version 2.38.0 (20140413.2041)
 -->
<!-- Title: Corale.Colore.Razer.Mouse.Effects.CustomGrid Pages: 1 -->
<svg width="490pt" height="300pt"
 viewBox="0.00 0.00 490.00 300.00" xmlns="http://www.w3.org/2000/svg" xmlns:xlink="http://www.w3.org/1999/xlink">
<g id="graph0" class="graph" transform="scale(1 1) rotate(0) translate(4 296)">
<title>Corale.Colore.Razer.Mouse.Effects.CustomGrid</title>
<polygon fill="white" stroke="none" points="-4,4 -4,-296 486,-296 486,4 -4,4"/>
<!-- Node1 -->
<g id="node1" class="node"><title>Node1</title>
<polygon fill="#bfbfbf" stroke="black" points="343,-210 343,-240 482,-240 482,-210 343,-210"/>
<text text-anchor="start" x="351" y="-228" font-family="Helvetica,sans-Serif" font-size="10.00">Corale.Colore.Razer.Mouse.</text>
<text text-anchor="middle" x="412.5" y="-217" font-family="Helvetica,sans-Serif" font-size="10.00">Effects.CustomGrid</text>
</g>
<!-- Node2 -->
<g id="node2" class="node"><title>Node2</title>
<polygon fill="white" stroke="#bfbfbf" points="140,-272.5 140,-291.5 272,-291.5 272,-272.5 140,-272.5"/>
<text text-anchor="middle" x="206" y="-279.5" font-family="Helvetica,sans-Serif" font-size="10.00">IEquatable&lt; CustomGrid &gt;</text>
</g>
<!-- Node2&#45;&gt;Node1 -->
<g id="edge1" class="edge"><title>Node2&#45;&gt;Node1</title>
<path fill="none" stroke="midnightblue" d="M250.955,-269.748C282.167,-261.049 324.261,-249.316 357.516,-240.047"/>
<polygon fill="midnightblue" stroke="midnightblue" points="249.922,-266.403 241.229,-272.459 251.801,-273.146 249.922,-266.403"/>
</g>
<!-- Node3 -->
<g id="node3" class="node"><title>Node3</title>
<polygon fill="white" stroke="#bfbfbf" points="150,-234.5 150,-253.5 262,-253.5 262,-234.5 150,-234.5"/>
<text text-anchor="middle" x="206" y="-241.5" font-family="Helvetica,sans-Serif" font-size="10.00">IEquatable&lt; Color[][]&gt;</text>
</g>
<!-- Node3&#45;&gt;Node1 -->
<g id="edge2" class="edge"><title>Node3&#45;&gt;Node1</title>
<path fill="none" stroke="midnightblue" d="M272.203,-237.942C294.719,-235.85 320.007,-233.501 342.794,-231.383"/>
<polygon fill="midnightblue" stroke="midnightblue" points="271.705,-234.473 262.071,-238.883 272.352,-241.443 271.705,-234.473"/>
</g>
<!-- Node4 -->
<g id="node4" class="node"><title>Node4</title>
<polygon fill="white" stroke="#bfbfbf" points="153,-196.5 153,-215.5 259,-215.5 259,-196.5 153,-196.5"/>
<text text-anchor="middle" x="206" y="-203.5" font-family="Helvetica,sans-Serif" font-size="10.00">IEquatable&lt; Color[]&gt;</text>
</g>
<!-- Node4&#45;&gt;Node1 -->
<g id="edge3" class="edge"><title>Node4&#45;&gt;Node1</title>
<path fill="none" stroke="midnightblue" d="M269.227,-211.781C292.493,-213.943 319.042,-216.41 342.854,-218.622"/>
<polygon fill="midnightblue" stroke="midnightblue" points="269.414,-208.284 259.133,-210.844 268.766,-215.254 269.414,-208.284"/>
</g>
<!-- Node5 -->
<g id="node5" class="node"><title>Node5</title>
<g id="a_node5"><a xlink:href="struct_corale_1_1_colore_1_1_core_1_1_color.html" target="_top" xlink:title="Represents an RGB color. ">
<polygon fill="white" stroke="black" points="144,-19.5 144,-38.5 268,-38.5 268,-19.5 144,-19.5"/>
<text text-anchor="middle" x="206" y="-26.5" font-family="Helvetica,sans-Serif" font-size="10.00">Corale.Colore.Core.Color</text>
</a>
</g>
</g>
<!-- Node5&#45;&gt;Node1 -->
<g id="edge4" class="edge"><title>Node5&#45;&gt;Node1</title>
<path fill="none" stroke="#9a32cd" stroke-dasharray="5,2" d="M224.653,-45.9195C263.949,-83.5815 358.121,-173.84 395.661,-209.82"/>
<polygon fill="#9a32cd" stroke="#9a32cd" points="226.783,-43.1123 217.141,-38.7197 221.939,-48.166 226.783,-43.1123"/>
<text text-anchor="middle" x="307.5" y="-141" font-family="Helvetica,sans-Serif" font-size="10.00"> _colors</text>
</g>
<!-- Node5&#45;&gt;Node5 -->
<g id="edge7" class="edge"><title>Node5&#45;&gt;Node5</title>
<path fill="none" stroke="#9a32cd" stroke-dasharray="5,2" d="M190.531,-48.7663C191.746,-53.4965 196.902,-57 206,-57 220.93,-57 225.245,-47.5653 218.947,-38.7571"/>
<polygon fill="#9a32cd" stroke="#9a32cd" points="194.003,-49.3092 193.053,-38.7571 187.216,-47.5986 194.003,-49.3092"/>
<text text-anchor="middle" x="206" y="-170" font-family="Helvetica,sans-Serif" font-size="10.00"> Yellow</text>
<text text-anchor="middle" x="206" y="-159" font-family="Helvetica,sans-Serif" font-size="10.00">White</text>
<text text-anchor="middle" x="206" y="-148" font-family="Helvetica,sans-Serif" font-size="10.00">Pink</text>
<text text-anchor="middle" x="206" y="-137" font-family="Helvetica,sans-Serif" font-size="10.00">HotPink</text>
<text text-anchor="middle" x="206" y="-126" font-family="Helvetica,sans-Serif" font-size="10.00">Blue</text>
<text text-anchor="middle" x="206" y="-115" font-family="Helvetica,sans-Serif" font-size="10.00">Purple</text>
<text text-anchor="middle" x="206" y="-104" font-family="Helvetica,sans-Serif" font-size="10.00">Orange</text>
<text text-anchor="middle" x="206" y="-93" font-family="Helvetica,sans-Serif" font-size="10.00">Black</text>
<text text-anchor="middle" x="206" y="-82" font-family="Helvetica,sans-Serif" font-size="10.00">Red</text>
<text text-anchor="middle" x="206" y="-71" font-family="Helvetica,sans-Serif" font-size="10.00">Green</text>
<text text-anchor="middle" x="206" y="-60" font-family="Helvetica,sans-Serif" font-size="10.00">...</text>
</g>
<!-- Node6 -->
<g id="node6" class="node"><title>Node6</title>
<polygon fill="white" stroke="#bfbfbf" points="0,-38.5 0,-57.5 103,-57.5 103,-38.5 0,-38.5"/>
<text text-anchor="middle" x="51.5" y="-45.5" font-family="Helvetica,sans-Serif" font-size="10.00">IEquatable&lt; Color &gt;</text>
</g>
<!-- Node6&#45;&gt;Node5 -->
<g id="edge5" class="edge"><title>Node6&#45;&gt;Node5</title>
<path fill="none" stroke="midnightblue" d="M113.209,-40.4362C123.292,-39.18 133.754,-37.8766 143.848,-36.619"/>
<polygon fill="midnightblue" stroke="midnightblue" points="112.771,-36.9637 103.28,-41.6733 113.636,-43.91 112.771,-36.9637"/>
</g>
<!-- Node7 -->
<g id="node7" class="node"><title>Node7</title>
<polygon fill="white" stroke="#bfbfbf" points="3.5,-0.5 3.5,-19.5 99.5,-19.5 99.5,-0.5 3.5,-0.5"/>
<text text-anchor="middle" x="51.5" y="-7.5" font-family="Helvetica,sans-Serif" font-size="10.00">IEquatable&lt; uint &gt;</text>
</g>
<!-- Node7&#45;&gt;Node5 -->
<g id="edge6" class="edge"><title>Node7&#45;&gt;Node5</title>
<path fill="none" stroke="midnightblue" d="M109.909,-17.1526C120.995,-18.5338 132.649,-19.9858 143.849,-21.3812"/>
<polygon fill="midnightblue" stroke="midnightblue" points="110.272,-13.6709 99.916,-15.9076 109.407,-20.6171 110.272,-13.6709"/>
</g>
</g>
</svg>
