<?xml version="1.0" encoding="UTF-8" standalone="no"?>
<!DOCTYPE svg PUBLIC "-//W3C//DTD SVG 1.1//EN"
 "http://www.w3.org/Graphics/SVG/1.1/DTD/svg11.dtd">
<!-- Generated by graphviz version 2.38.0 (20140413.2041)
 -->
<!-- Title: Corale.Colore.Razer.Keyboard.Effects.Reactive Pages: 1 -->
<svg width="519pt" height="224pt"
 viewBox="0.00 0.00 519.00 224.00" xmlns="http://www.w3.org/2000/svg" xmlns:xlink="http://www.w3.org/1999/xlink">
<g id="graph0" class="graph" transform="scale(1 1) rotate(0) translate(4 220)">
<title>Corale.Colore.Razer.Keyboard.Effects.Reactive</title>
<polygon fill="white" stroke="none" points="-4,4 -4,-220 515,-220 515,4 -4,4"/>
<!-- Node1 -->
<g id="node1" class="node"><title>Node1</title>
<polygon fill="#bfbfbf" stroke="black" points="360,-52 360,-82 511,-82 511,-52 360,-52"/>
<text text-anchor="start" x="368" y="-70" font-family="Helvetica,sans-Serif" font-size="10.00">Corale.Colore.Razer.Keyboard.</text>
<text text-anchor="middle" x="435.5" y="-59" font-family="Helvetica,sans-Serif" font-size="10.00">Effects.Reactive</text>
</g>
<!-- Node2 -->
<g id="node2" class="node"><title>Node2</title>
<g id="a_node2"><a xlink:href="struct_corale_1_1_colore_1_1_core_1_1_color.html" target="_top" xlink:title="Represents an RGB color. ">
<polygon fill="white" stroke="black" points="174,-57.5 174,-76.5 298,-76.5 298,-57.5 174,-57.5"/>
<text text-anchor="middle" x="236" y="-64.5" font-family="Helvetica,sans-Serif" font-size="10.00">Corale.Colore.Core.Color</text>
</a>
</g>
</g>
<!-- Node2&#45;&gt;Node1 -->
<g id="edge1" class="edge"><title>Node2&#45;&gt;Node1</title>
<path fill="none" stroke="#9a32cd" stroke-dasharray="5,2" d="M308.37,-67C325.068,-67 342.902,-67 359.744,-67"/>
<polygon fill="#9a32cd" stroke="#9a32cd" points="308.138,-63.5001 298.138,-67 308.138,-70.5001 308.138,-63.5001"/>
<text text-anchor="middle" x="329" y="-70" font-family="Helvetica,sans-Serif" font-size="10.00"> Color</text>
</g>
<!-- Node2&#45;&gt;Node2 -->
<g id="edge6" class="edge"><title>Node2&#45;&gt;Node2</title>
<path fill="none" stroke="#9a32cd" stroke-dasharray="5,2" d="M221.268,-86.7663C222.425,-91.4965 227.335,-95 236,-95 250.219,-95 254.329,-85.5653 248.33,-76.7571"/>
<polygon fill="#9a32cd" stroke="#9a32cd" points="224.739,-87.2978 223.67,-76.7571 217.933,-85.6641 224.739,-87.2978"/>
<text text-anchor="middle" x="236" y="-208" font-family="Helvetica,sans-Serif" font-size="10.00"> Yellow</text>
<text text-anchor="middle" x="236" y="-197" font-family="Helvetica,sans-Serif" font-size="10.00">White</text>
<text text-anchor="middle" x="236" y="-186" font-family="Helvetica,sans-Serif" font-size="10.00">Pink</text>
<text text-anchor="middle" x="236" y="-175" font-family="Helvetica,sans-Serif" font-size="10.00">HotPink</text>
<text text-anchor="middle" x="236" y="-164" font-family="Helvetica,sans-Serif" font-size="10.00">Blue</text>
<text text-anchor="middle" x="236" y="-153" font-family="Helvetica,sans-Serif" font-size="10.00">Purple</text>
<text text-anchor="middle" x="236" y="-142" font-family="Helvetica,sans-Serif" font-size="10.00">Orange</text>
<text text-anchor="middle" x="236" y="-131" font-family="Helvetica,sans-Serif" font-size="10.00">Black</text>
<text text-anchor="middle" x="236" y="-120" font-family="Helvetica,sans-Serif" font-size="10.00">Red</text>
<text text-anchor="middle" x="236" y="-109" font-family="Helvetica,sans-Serif" font-size="10.00">Green</text>
<text text-anchor="middle" x="236" y="-98" font-family="Helvetica,sans-Serif" font-size="10.00">...</text>
</g>
<!-- Node3 -->
<g id="node3" class="node"><title>Node3</title>
<polygon fill="white" stroke="#bfbfbf" points="17,-114.5 17,-133.5 120,-133.5 120,-114.5 17,-114.5"/>
<text text-anchor="middle" x="68.5" y="-121.5" font-family="Helvetica,sans-Serif" font-size="10.00">IEquatable&lt; Color &gt;</text>
</g>
<!-- Node3&#45;&gt;Node2 -->
<g id="edge2" class="edge"><title>Node3&#45;&gt;Node2</title>
<path fill="none" stroke="midnightblue" d="M115.498,-111.689C122.729,-109.571 130.093,-107.305 137,-105 163.137,-96.2761 192.536,-84.6229 212.256,-76.5312"/>
<polygon fill="midnightblue" stroke="midnightblue" points="114.424,-108.355 105.776,-114.476 116.353,-115.084 114.424,-108.355"/>
</g>
<!-- Node4 -->
<g id="node4" class="node"><title>Node4</title>
<polygon fill="white" stroke="#bfbfbf" points="20.5,-76.5 20.5,-95.5 116.5,-95.5 116.5,-76.5 20.5,-76.5"/>
<text text-anchor="middle" x="68.5" y="-83.5" font-family="Helvetica,sans-Serif" font-size="10.00">IEquatable&lt; uint &gt;</text>
</g>
<!-- Node4&#45;&gt;Node2 -->
<g id="edge3" class="edge"><title>Node4&#45;&gt;Node2</title>
<path fill="none" stroke="midnightblue" d="M127.173,-79.3789C142.3,-77.6422 158.663,-75.7638 173.96,-74.0076"/>
<polygon fill="midnightblue" stroke="midnightblue" points="126.461,-75.9376 116.926,-80.5554 127.26,-82.8919 126.461,-75.9376"/>
</g>
<!-- Node5 -->
<g id="node5" class="node"><title>Node5</title>
<polygon fill="white" stroke="#bfbfbf" points="0,-38.5 0,-57.5 137,-57.5 137,-38.5 0,-38.5"/>
<text text-anchor="middle" x="68.5" y="-45.5" font-family="Helvetica,sans-Serif" font-size="10.00">IEquatable&lt; SystemColor &gt;</text>
</g>
<!-- Node5&#45;&gt;Node2 -->
<g id="edge4" class="edge"><title>Node5&#45;&gt;Node2</title>
<path fill="none" stroke="midnightblue" d="M147.329,-56.935C156.267,-57.9612 165.282,-58.9961 173.954,-59.9917"/>
<polygon fill="midnightblue" stroke="midnightblue" points="147.627,-53.4463 137.293,-55.7828 146.828,-60.4006 147.627,-53.4463"/>
</g>
<!-- Node6 -->
<g id="node6" class="node"><title>Node6</title>
<polygon fill="white" stroke="#bfbfbf" points="8.5,-0.5 8.5,-19.5 128.5,-19.5 128.5,-0.5 8.5,-0.5"/>
<text text-anchor="middle" x="68.5" y="-7.5" font-family="Helvetica,sans-Serif" font-size="10.00">IEquatable&lt; WpfColor &gt;</text>
</g>
<!-- Node6&#45;&gt;Node2 -->
<g id="edge5" class="edge"><title>Node6&#45;&gt;Node2</title>
<path fill="none" stroke="midnightblue" d="M115.498,-22.3112C122.729,-24.4293 130.093,-26.6946 137,-29 163.137,-37.7239 192.536,-49.3771 212.256,-57.4688"/>
<polygon fill="midnightblue" stroke="midnightblue" points="116.353,-18.9155 105.776,-19.5242 114.424,-25.6445 116.353,-18.9155"/>
</g>
</g>
</svg>
