<?xml version="1.0" encoding="UTF-8" standalone="no"?>
<!DOCTYPE svg PUBLIC "-//W3C//DTD SVG 1.1//EN"
 "http://www.w3.org/Graphics/SVG/1.1/DTD/svg11.dtd">
<!-- Generated by graphviz version 2.38.0 (20140413.2041)
 -->
<!-- Title: Corale.Colore.Razer.Keyboard.Effects.Custom Pages: 1 -->
<svg width="375pt" height="116pt"
 viewBox="0.00 0.00 375.00 115.50" xmlns="http://www.w3.org/2000/svg" xmlns:xlink="http://www.w3.org/1999/xlink">
<g id="graph0" class="graph" transform="scale(1 1) rotate(0) translate(4 111.5)">
<title>Corale.Colore.Razer.Keyboard.Effects.Custom</title>
<polygon fill="white" stroke="none" points="-4,4 -4,-111.5 371,-111.5 371,4 -4,4"/>
<!-- Node1 -->
<g id="node1" class="node"><title>Node1</title>
<polygon fill="#bfbfbf" stroke="black" points="216,-44.5 216,-74.5 367,-74.5 367,-44.5 216,-44.5"/>
<text text-anchor="start" x="224" y="-62.5" font-family="Helvetica,sans-Serif" font-size="10.00">Corale.Colore.Razer.Keyboard.</text>
<text text-anchor="middle" x="291.5" y="-51.5" font-family="Helvetica,sans-Serif" font-size="10.00">Effects.Custom</text>
</g>
<!-- Node2 -->
<g id="node2" class="node"><title>Node2</title>
<polygon fill="white" stroke="#bfbfbf" points="18.5,-88 18.5,-107 132.5,-107 132.5,-88 18.5,-88"/>
<text text-anchor="middle" x="75.5" y="-95" font-family="Helvetica,sans-Serif" font-size="10.00">IEquatable&lt; Custom &gt;</text>
</g>
<!-- Node2&#45;&gt;Node1 -->
<g id="edge1" class="edge"><title>Node2&#45;&gt;Node1</title>
<path fill="none" stroke="midnightblue" d="M140.173,-86.1936C163.914,-81.9778 191.08,-77.154 215.729,-72.7771"/>
<polygon fill="midnightblue" stroke="midnightblue" points="139.459,-82.7655 130.225,-87.96 140.683,-89.6577 139.459,-82.7655"/>
</g>
<!-- Node3 -->
<g id="node3" class="node"><title>Node3</title>
<polygon fill="white" stroke="#bfbfbf" points="19.5,-50 19.5,-69 131.5,-69 131.5,-50 19.5,-50"/>
<text text-anchor="middle" x="75.5" y="-57" font-family="Helvetica,sans-Serif" font-size="10.00">IEquatable&lt; Color[][]&gt;</text>
</g>
<!-- Node3&#45;&gt;Node1 -->
<g id="edge2" class="edge"><title>Node3&#45;&gt;Node1</title>
<path fill="none" stroke="midnightblue" d="M141.767,-59.5C165.153,-59.5 191.693,-59.5 215.815,-59.5"/>
<polygon fill="midnightblue" stroke="midnightblue" points="141.61,-56.0001 131.61,-59.5 141.61,-63.0001 141.61,-56.0001"/>
</g>
<!-- Node4 -->
<g id="node4" class="node"><title>Node4</title>
<g id="a_node4"><a xlink:href="struct_corale_1_1_colore_1_1_razer_1_1_keyboard_1_1_effects_1_1_custom_1_1_row.html" target="_top" xlink:title="Container struct holding color definitions for a single row in the custom grid. ">
<polygon fill="white" stroke="black" points="0,-0.5 0,-30.5 151,-30.5 151,-0.5 0,-0.5"/>
<text text-anchor="start" x="8" y="-18.5" font-family="Helvetica,sans-Serif" font-size="10.00">Corale.Colore.Razer.Keyboard.</text>
<text text-anchor="middle" x="75.5" y="-7.5" font-family="Helvetica,sans-Serif" font-size="10.00">Effects.Custom.Row</text>
</a>
</g>
</g>
<!-- Node4&#45;&gt;Node1 -->
<g id="edge3" class="edge"><title>Node4&#45;&gt;Node1</title>
<path fill="none" stroke="#9a32cd" stroke-dasharray="5,2" d="M159.434,-32.5518C178.553,-36.4829 198.753,-40.6362 217.418,-44.4738"/>
<polygon fill="#9a32cd" stroke="#9a32cd" points="160.048,-29.105 149.548,-30.5192 158.638,-35.9616 160.048,-29.105"/>
<text text-anchor="middle" x="183.5" y="-43.5" font-family="Helvetica,sans-Serif" font-size="10.00"> _rows</text>
</g>
</g>
</svg>
