<?xml version="1.0" encoding="UTF-8" standalone="no"?>
<!DOCTYPE svg PUBLIC "-//W3C//DTD SVG 1.1//EN"
 "http://www.w3.org/Graphics/SVG/1.1/DTD/svg11.dtd">
<!-- Generated by graphviz version 2.38.0 (20140413.2041)
 -->
<!-- Title: Corale.Colore.Razer.Mouse.Effects.CustomGrid Pages: 1 -->
<svg width="394pt" height="95pt"
 viewBox="0.00 0.00 394.00 95.00" xmlns="http://www.w3.org/2000/svg" xmlns:xlink="http://www.w3.org/1999/xlink">
<g id="graph0" class="graph" transform="scale(1 1) rotate(0) translate(4 91)">
<title>Corale.Colore.Razer.Mouse.Effects.CustomGrid</title>
<polygon fill="white" stroke="none" points="-4,4 -4,-91 390,-91 390,4 -4,4"/>
<!-- Node1 -->
<g id="node1" class="node"><title>Node1</title>
<polygon fill="#bfbfbf" stroke="black" points="136.5,-0.5 136.5,-30.5 275.5,-30.5 275.5,-0.5 136.5,-0.5"/>
<text text-anchor="start" x="144.5" y="-18.5" font-family="Helvetica,sans-Serif" font-size="10.00">Corale.Colore.Razer.Mouse.</text>
<text text-anchor="middle" x="206" y="-7.5" font-family="Helvetica,sans-Serif" font-size="10.00">Effects.CustomGrid</text>
</g>
<!-- Node2 -->
<g id="node2" class="node"><title>Node2</title>
<polygon fill="white" stroke="#bfbfbf" points="0,-67.5 0,-86.5 132,-86.5 132,-67.5 0,-67.5"/>
<text text-anchor="middle" x="66" y="-74.5" font-family="Helvetica,sans-Serif" font-size="10.00">IEquatable&lt; CustomGrid &gt;</text>
</g>
<!-- Node2&#45;&gt;Node1 -->
<g id="edge1" class="edge"><title>Node2&#45;&gt;Node1</title>
<path fill="none" stroke="midnightblue" d="M95.5047,-63.4605C118.181,-53.823 149.499,-40.5127 173.005,-30.523"/>
<polygon fill="midnightblue" stroke="midnightblue" points="93.8929,-60.3425 86.0586,-67.4751 96.6309,-66.7848 93.8929,-60.3425"/>
</g>
<!-- Node3 -->
<g id="node3" class="node"><title>Node3</title>
<polygon fill="white" stroke="#bfbfbf" points="150,-67.5 150,-86.5 262,-86.5 262,-67.5 150,-67.5"/>
<text text-anchor="middle" x="206" y="-74.5" font-family="Helvetica,sans-Serif" font-size="10.00">IEquatable&lt; Color[][]&gt;</text>
</g>
<!-- Node3&#45;&gt;Node1 -->
<g id="edge2" class="edge"><title>Node3&#45;&gt;Node1</title>
<path fill="none" stroke="midnightblue" d="M206,-57.2349C206,-48.5864 206,-38.4969 206,-30.523"/>
<polygon fill="midnightblue" stroke="midnightblue" points="202.5,-57.4751 206,-67.4751 209.5,-57.4751 202.5,-57.4751"/>
</g>
<!-- Node4 -->
<g id="node4" class="node"><title>Node4</title>
<polygon fill="white" stroke="#bfbfbf" points="280,-67.5 280,-86.5 386,-86.5 386,-67.5 280,-67.5"/>
<text text-anchor="middle" x="333" y="-74.5" font-family="Helvetica,sans-Serif" font-size="10.00">IEquatable&lt; Color[]&gt;</text>
</g>
<!-- Node4&#45;&gt;Node1 -->
<g id="edge3" class="edge"><title>Node4&#45;&gt;Node1</title>
<path fill="none" stroke="midnightblue" d="M305.68,-63.2003C285.155,-53.5845 257.063,-40.4232 235.931,-30.523"/>
<polygon fill="midnightblue" stroke="midnightblue" points="304.264,-66.4019 314.804,-67.4751 307.233,-60.0631 304.264,-66.4019"/>
</g>
</g>
</svg>
