<?xml version="1.0" encoding="UTF-8" standalone="no"?>
<!DOCTYPE svg PUBLIC "-//W3C//DTD SVG 1.1//EN"
 "http://www.w3.org/Graphics/SVG/1.1/DTD/svg11.dtd">
<!-- Generated by graphviz version 2.38.0 (20140413.2041)
 -->
<!-- Title: Corale.Colore.Razer.Keypad.Effects.Custom Pages: 1 -->
<svg width="359pt" height="116pt"
 viewBox="0.00 0.00 359.00 115.50" xmlns="http://www.w3.org/2000/svg" xmlns:xlink="http://www.w3.org/1999/xlink">
<g id="graph0" class="graph" transform="scale(1 1) rotate(0) translate(4 111.5)">
<title>Corale.Colore.Razer.Keypad.Effects.Custom</title>
<polygon fill="white" stroke="none" points="-4,4 -4,-111.5 355,-111.5 355,4 -4,4"/>
<!-- Node1 -->
<g id="node1" class="node"><title>Node1</title>
<polygon fill="#bfbfbf" stroke="black" points="208,-44.5 208,-74.5 351,-74.5 351,-44.5 208,-44.5"/>
<text text-anchor="start" x="216" y="-62.5" font-family="Helvetica,sans-Serif" font-size="10.00">Corale.Colore.Razer.Keypad.</text>
<text text-anchor="middle" x="279.5" y="-51.5" font-family="Helvetica,sans-Serif" font-size="10.00">Effects.Custom</text>
</g>
<!-- Node2 -->
<g id="node2" class="node"><title>Node2</title>
<polygon fill="white" stroke="#bfbfbf" points="14.5,-88 14.5,-107 128.5,-107 128.5,-88 14.5,-88"/>
<text text-anchor="middle" x="71.5" y="-95" font-family="Helvetica,sans-Serif" font-size="10.00">IEquatable&lt; Custom &gt;</text>
</g>
<!-- Node2&#45;&gt;Node1 -->
<g id="edge1" class="edge"><title>Node2&#45;&gt;Node1</title>
<path fill="none" stroke="midnightblue" d="M134.244,-86.1103C157.366,-81.8451 183.811,-76.9669 207.69,-72.5621"/>
<polygon fill="midnightblue" stroke="midnightblue" points="133.416,-82.704 124.217,-87.96 134.686,-89.5878 133.416,-82.704"/>
</g>
<!-- Node3 -->
<g id="node3" class="node"><title>Node3</title>
<polygon fill="white" stroke="#bfbfbf" points="15.5,-50 15.5,-69 127.5,-69 127.5,-50 15.5,-50"/>
<text text-anchor="middle" x="71.5" y="-57" font-family="Helvetica,sans-Serif" font-size="10.00">IEquatable&lt; Color[][]&gt;</text>
</g>
<!-- Node3&#45;&gt;Node1 -->
<g id="edge2" class="edge"><title>Node3&#45;&gt;Node1</title>
<path fill="none" stroke="midnightblue" d="M137.764,-59.5C160.121,-59.5 185.229,-59.5 207.982,-59.5"/>
<polygon fill="midnightblue" stroke="midnightblue" points="137.704,-56.0001 127.704,-59.5 137.704,-63.0001 137.704,-56.0001"/>
</g>
<!-- Node4 -->
<g id="node4" class="node"><title>Node4</title>
<g id="a_node4"><a xlink:href="struct_corale_1_1_colore_1_1_razer_1_1_keypad_1_1_effects_1_1_custom_1_1_row.html" target="_top" xlink:title="Container struct holding color definitions for a single row in the custom grid. ">
<polygon fill="white" stroke="black" points="0,-0.5 0,-30.5 143,-30.5 143,-0.5 0,-0.5"/>
<text text-anchor="start" x="8" y="-18.5" font-family="Helvetica,sans-Serif" font-size="10.00">Corale.Colore.Razer.Keypad.</text>
<text text-anchor="middle" x="71.5" y="-7.5" font-family="Helvetica,sans-Serif" font-size="10.00">Effects.Custom.Row</text>
</a>
</g>
</g>
<!-- Node4&#45;&gt;Node1 -->
<g id="edge3" class="edge"><title>Node4&#45;&gt;Node1</title>
<path fill="none" stroke="#9a32cd" stroke-dasharray="5,2" d="M152.84,-32.6601C171.095,-36.559 190.348,-40.6714 208.15,-44.4738"/>
<polygon fill="#9a32cd" stroke="#9a32cd" points="153.328,-29.1853 142.817,-30.5192 151.866,-36.0309 153.328,-29.1853"/>
<text text-anchor="middle" x="175.5" y="-43.5" font-family="Helvetica,sans-Serif" font-size="10.00"> _rows</text>
</g>
</g>
</svg>
