<?xml version="1.0" encoding="UTF-8" standalone="no"?>
<!DOCTYPE svg PUBLIC "-//W3C//DTD SVG 1.1//EN"
 "http://www.w3.org/Graphics/SVG/1.1/DTD/svg11.dtd">
<!-- Generated by graphviz version 2.38.0 (20140413.2041)
 -->
<!-- Title: Corale.Colore.Razer.Result Pages: 1 -->
<svg width="292pt" height="164pt"
 viewBox="0.00 0.00 291.50 164.00" xmlns="http://www.w3.org/2000/svg" xmlns:xlink="http://www.w3.org/1999/xlink">
<g id="graph0" class="graph" transform="scale(1 1) rotate(0) translate(4 160)">
<title>Corale.Colore.Razer.Result</title>
<polygon fill="white" stroke="none" points="-4,4 -4,-160 287.5,-160 287.5,4 -4,4"/>
<!-- Node1 -->
<g id="node1" class="node"><title>Node1</title>
<polygon fill="#bfbfbf" stroke="black" points="37.5,-40 37.5,-59 171.5,-59 171.5,-40 37.5,-40"/>
<text text-anchor="middle" x="104.5" y="-47" font-family="Helvetica,sans-Serif" font-size="10.00">Corale.Colore.Razer.Result</text>
</g>
<!-- Node1&#45;&gt;Node1 -->
<g id="edge3" class="edge"><title>Node1&#45;&gt;Node1</title>
<path fill="none" stroke="#9a32cd" stroke-dasharray="5,2" d="M139.646,-60.9097C164.658,-64.5591 189.5,-60.7559 189.5,-49.5 189.5,-36.75 157.625,-33.5625 129.734,-39.9375"/>
<polygon fill="#9a32cd" stroke="#9a32cd" points="140.206,-57.454 129.734,-59.0625 138.924,-64.3355 140.206,-57.454"/>
<text text-anchor="middle" x="236.5" y="-91" font-family="Helvetica,sans-Serif" font-size="10.00"> RzInvalid</text>
<text text-anchor="middle" x="236.5" y="-80" font-family="Helvetica,sans-Serif" font-size="10.00">RzFailed</text>
<text text-anchor="middle" x="236.5" y="-69" font-family="Helvetica,sans-Serif" font-size="10.00">RzAccessDenied</text>
<text text-anchor="middle" x="236.5" y="-58" font-family="Helvetica,sans-Serif" font-size="10.00">RzRequestAborted</text>
<text text-anchor="middle" x="236.5" y="-47" font-family="Helvetica,sans-Serif" font-size="10.00">RzSuccess</text>
<text text-anchor="middle" x="236.5" y="-36" font-family="Helvetica,sans-Serif" font-size="10.00">RzSingleInstanceApp</text>
<text text-anchor="middle" x="236.5" y="-25" font-family="Helvetica,sans-Serif" font-size="10.00">RzResourceDisabled</text>
<text text-anchor="middle" x="236.5" y="-14" font-family="Helvetica,sans-Serif" font-size="10.00">RzNotSupported</text>
<text text-anchor="middle" x="236.5" y="-3" font-family="Helvetica,sans-Serif" font-size="10.00">RzInvalidParameter</text>
</g>
<!-- Node2 -->
<g id="node2" class="node"><title>Node2</title>
<polygon fill="white" stroke="#bfbfbf" points="0,-136.5 0,-155.5 91,-155.5 91,-136.5 0,-136.5"/>
<text text-anchor="middle" x="45.5" y="-143.5" font-family="Helvetica,sans-Serif" font-size="10.00">IEquatable&lt; int &gt;</text>
</g>
<!-- Node2&#45;&gt;Node1 -->
<g id="edge1" class="edge"><title>Node2&#45;&gt;Node1</title>
<path fill="none" stroke="midnightblue" d="M56.2895,-127.718C68.93,-107.472 89.375,-74.7256 99.0683,-59.1999"/>
<polygon fill="midnightblue" stroke="midnightblue" points="53.2719,-125.943 50.9448,-136.279 59.2097,-129.65 53.2719,-125.943"/>
</g>
<!-- Node3 -->
<g id="node3" class="node"><title>Node3</title>
<polygon fill="white" stroke="#bfbfbf" points="109.5,-136.5 109.5,-155.5 217.5,-155.5 217.5,-136.5 109.5,-136.5"/>
<text text-anchor="middle" x="163.5" y="-143.5" font-family="Helvetica,sans-Serif" font-size="10.00">IEquatable&lt; Result &gt;</text>
</g>
<!-- Node3&#45;&gt;Node1 -->
<g id="edge2" class="edge"><title>Node3&#45;&gt;Node1</title>
<path fill="none" stroke="midnightblue" d="M152.71,-127.718C140.07,-107.472 119.625,-74.7256 109.932,-59.1999"/>
<polygon fill="midnightblue" stroke="midnightblue" points="149.79,-129.65 158.055,-136.279 155.728,-125.943 149.79,-129.65"/>
</g>
</g>
</svg>
