<?xml version="1.0" encoding="UTF-8" standalone="no"?>
<!DOCTYPE svg PUBLIC "-//W3C//DTD SVG 1.1//EN"
 "http://www.w3.org/Graphics/SVG/1.1/DTD/svg11.dtd">
<!-- Generated by graphviz version 2.38.0 (20140413.2041)
 -->
<!-- Title: Corale.Colore.Razer.Mousepad.Effects.Custom Pages: 1 -->
<svg width="528pt" height="275pt"
 viewBox="0.00 0.00 528.00 275.00" xmlns="http://www.w3.org/2000/svg" xmlns:xlink="http://www.w3.org/1999/xlink">
<g id="graph0" class="graph" transform="scale(1 1) rotate(0) translate(4 271)">
<title>Corale.Colore.Razer.Mousepad.Effects.Custom</title>
<polygon fill="white" stroke="none" points="-4,4 -4,-271 524,-271 524,4 -4,4"/>
<!-- Node1 -->
<g id="node1" class="node"><title>Node1</title>
<polygon fill="#bfbfbf" stroke="black" points="102.5,-0.5 102.5,-30.5 257.5,-30.5 257.5,-0.5 102.5,-0.5"/>
<text text-anchor="start" x="110.5" y="-18.5" font-family="Helvetica,sans-Serif" font-size="10.00">Corale.Colore.Razer.Mousepad.</text>
<text text-anchor="middle" x="180" y="-7.5" font-family="Helvetica,sans-Serif" font-size="10.00">Effects.Custom</text>
</g>
<!-- Node2 -->
<g id="node2" class="node"><title>Node2</title>
<polygon fill="white" stroke="#bfbfbf" points="0,-129 0,-148 114,-148 114,-129 0,-129"/>
<text text-anchor="middle" x="57" y="-136" font-family="Helvetica,sans-Serif" font-size="10.00">IEquatable&lt; Custom &gt;</text>
</g>
<!-- Node2&#45;&gt;Node1 -->
<g id="edge1" class="edge"><title>Node2&#45;&gt;Node1</title>
<path fill="none" stroke="midnightblue" d="M73.1893,-121.574C97.4076,-97.7495 142.681,-53.212 165.729,-30.5392"/>
<polygon fill="midnightblue" stroke="midnightblue" points="70.5202,-119.29 65.8459,-128.798 75.4292,-124.28 70.5202,-119.29"/>
</g>
<!-- Node3 -->
<g id="node3" class="node"><title>Node3</title>
<polygon fill="white" stroke="#bfbfbf" points="132.5,-123.5 132.5,-153.5 227.5,-153.5 227.5,-123.5 132.5,-123.5"/>
<text text-anchor="start" x="140.5" y="-141.5" font-family="Helvetica,sans-Serif" font-size="10.00">IEquatable&lt; IList&lt;</text>
<text text-anchor="middle" x="180" y="-130.5" font-family="Helvetica,sans-Serif" font-size="10.00"> Color &gt;&gt;</text>
</g>
<!-- Node3&#45;&gt;Node1 -->
<g id="edge2" class="edge"><title>Node3&#45;&gt;Node1</title>
<path fill="none" stroke="midnightblue" d="M180,-113.116C180,-88.4368 180,-51.1119 180,-30.8368"/>
<polygon fill="midnightblue" stroke="midnightblue" points="176.5,-113.145 180,-123.145 183.5,-113.145 176.5,-113.145"/>
</g>
<!-- Node4 -->
<g id="node4" class="node"><title>Node4</title>
<g id="a_node4"><a xlink:href="struct_corale_1_1_colore_1_1_core_1_1_color.html" target="_top" xlink:title="Represents an RGB color. ">
<polygon fill="white" stroke="black" points="246,-129 246,-148 370,-148 370,-129 246,-129"/>
<text text-anchor="middle" x="308" y="-136" font-family="Helvetica,sans-Serif" font-size="10.00">Corale.Colore.Core.Color</text>
</a>
</g>
</g>
<!-- Node4&#45;&gt;Node1 -->
<g id="edge3" class="edge"><title>Node4&#45;&gt;Node1</title>
<path fill="none" stroke="#9a32cd" stroke-dasharray="5,2" d="M291.48,-121.884C266.36,-98.1372 218.94,-53.3106 194.851,-30.5392"/>
<polygon fill="#9a32cd" stroke="#9a32cd" points="289.123,-124.472 298.795,-128.798 293.932,-119.385 289.123,-124.472"/>
<text text-anchor="middle" x="241.5" y="-52" font-family="Helvetica,sans-Serif" font-size="10.00"> Colors</text>
</g>
<!-- Node4&#45;&gt;Node4 -->
<g id="edge7" class="edge"><title>Node4&#45;&gt;Node4</title>
<path fill="none" stroke="#9a32cd" stroke-dasharray="5,2" d="M337.035,-150.784C361.863,-156.245 388,-152.151 388,-138.5 388,-123.037 354.464,-119.836 327.282,-128.896"/>
<polygon fill="#9a32cd" stroke="#9a32cd" points="337.852,-147.379 327.282,-148.104 335.997,-154.128 337.852,-147.379"/>
<text text-anchor="middle" x="405.5" y="-191" font-family="Helvetica,sans-Serif" font-size="10.00"> Yellow</text>
<text text-anchor="middle" x="405.5" y="-180" font-family="Helvetica,sans-Serif" font-size="10.00">White</text>
<text text-anchor="middle" x="405.5" y="-169" font-family="Helvetica,sans-Serif" font-size="10.00">Pink</text>
<text text-anchor="middle" x="405.5" y="-158" font-family="Helvetica,sans-Serif" font-size="10.00">HotPink</text>
<text text-anchor="middle" x="405.5" y="-147" font-family="Helvetica,sans-Serif" font-size="10.00">Blue</text>
<text text-anchor="middle" x="405.5" y="-136" font-family="Helvetica,sans-Serif" font-size="10.00">Purple</text>
<text text-anchor="middle" x="405.5" y="-125" font-family="Helvetica,sans-Serif" font-size="10.00">Orange</text>
<text text-anchor="middle" x="405.5" y="-114" font-family="Helvetica,sans-Serif" font-size="10.00">Black</text>
<text text-anchor="middle" x="405.5" y="-103" font-family="Helvetica,sans-Serif" font-size="10.00">Red</text>
<text text-anchor="middle" x="405.5" y="-92" font-family="Helvetica,sans-Serif" font-size="10.00">Green</text>
<text text-anchor="middle" x="405.5" y="-81" font-family="Helvetica,sans-Serif" font-size="10.00">...</text>
</g>
<!-- Node5 -->
<g id="node5" class="node"><title>Node5</title>
<polygon fill="white" stroke="#bfbfbf" points="138.5,-242 138.5,-261 241.5,-261 241.5,-242 138.5,-242"/>
<text text-anchor="middle" x="190" y="-249" font-family="Helvetica,sans-Serif" font-size="10.00">IEquatable&lt; Color &gt;</text>
</g>
<!-- Node5&#45;&gt;Node4 -->
<g id="edge4" class="edge"><title>Node5&#45;&gt;Node4</title>
<path fill="none" stroke="midnightblue" d="M206.615,-234.871C231.829,-211.152 278.919,-166.856 298.784,-148.17"/>
<polygon fill="midnightblue" stroke="midnightblue" points="204.145,-232.389 199.259,-241.79 208.941,-237.488 204.145,-232.389"/>
</g>
<!-- Node6 -->
<g id="node6" class="node"><title>Node6</title>
<polygon fill="white" stroke="#bfbfbf" points="260,-242 260,-261 356,-261 356,-242 260,-242"/>
<text text-anchor="middle" x="308" y="-249" font-family="Helvetica,sans-Serif" font-size="10.00">IEquatable&lt; uint &gt;</text>
</g>
<!-- Node6&#45;&gt;Node4 -->
<g id="edge5" class="edge"><title>Node6&#45;&gt;Node4</title>
<path fill="none" stroke="midnightblue" d="M308,-231.679C308,-207.365 308,-166.047 308,-148.17"/>
<polygon fill="midnightblue" stroke="midnightblue" points="304.5,-231.79 308,-241.79 311.5,-231.79 304.5,-231.79"/>
</g>
<!-- Node7 -->
<g id="node7" class="node"><title>Node7</title>
<polygon fill="white" stroke="#bfbfbf" points="374,-236.5 374,-266.5 520,-266.5 520,-236.5 374,-236.5"/>
<text text-anchor="start" x="382" y="-254.5" font-family="Helvetica,sans-Serif" font-size="10.00">IEquatable&lt; System.Drawing.</text>
<text text-anchor="middle" x="447" y="-243.5" font-family="Helvetica,sans-Serif" font-size="10.00">Color &gt;</text>
</g>
<!-- Node7&#45;&gt;Node4 -->
<g id="edge6" class="edge"><title>Node7&#45;&gt;Node4</title>
<path fill="none" stroke="midnightblue" d="M421.271,-229.954C390.515,-205.393 340.47,-165.429 318.691,-148.037"/>
<polygon fill="midnightblue" stroke="midnightblue" points="419.397,-232.937 429.396,-236.442 423.765,-227.467 419.397,-232.937"/>
</g>
</g>
</svg>
